<?xml version="1.0" encoding="UTF-8"?>
<svg xmlns="http://www.w3.org/2000/svg" width="640" height="544" viewBox="0 0 640 544">
<rect width="640" height="544" fill="#F4F2EC"/>
<path data-unit="source_001__contour_01" data-control="rig_cup" d="M387.134004,92.426409 L388.112461,92.367332 L388.174519,93.395162 L452.752689,89.49608 L456.538226,152.193682 L455.559769,152.252759 L460.214118,229.339973 L462.171032,229.221819 L464.591293,269.307171 L445.02215,270.488711 L446.201252,290.017472 L385.53691,293.680245 L385.474852,292.652416 L433.419251,289.757643 L433.357194,288.729814 L160.367655,305.212294 L159.312669,287.739192 L158.334212,287.798269 L159.513314,307.32703 L158.534856,307.386107 L157.293697,286.829516 L137.724554,288.011056 L135.428409,249.981363 L136.406866,249.922286 L136.344808,248.894457 L137.323265,248.83538 L136.578569,236.501425 L135.600112,236.560502 L135.475996,234.504843 L136.454454,234.445766 L135.461526,218.000494 L134.483069,218.059571 L134.296895,214.976082 L135.275352,214.917005 L134.654772,204.63871 L133.676315,204.697787 L132.621329,187.224685 L133.599786,187.165608 L132.855091,174.831654 L131.876634,174.890731 L131.752518,172.835072 L130.77406,172.894149 L130.277597,164.671512 L131.256054,164.612435 L131.06988,161.528947 L132.048337,161.46987 L131.862163,158.386381 L130.883706,158.445458 L130.4493,151.250651 L132.406214,151.132497 L132.468272,152.160327 L134.425186,152.042173 L134.363128,151.014343 L135.341586,150.955266 L134.90718,143.76046 L130.993351,143.996768 L131.365699,150.163745 L129.408785,150.281899 L126.926466,109.168718 L130.840294,108.93241 L130.902352,109.960239 L131.880809,109.901162 L131.942867,110.928992 L135.856696,110.692684 L135.918754,111.720513 L136.897211,111.661436 L136.835153,110.633607 L138.792067,110.515453 L138.730009,109.487623 L239.511093,103.402693 L239.573151,104.430523 L241.530066,104.312369 L241.468008,103.284539 L249.295665,102.811924 L250.474766,122.340685 L251.453223,122.281608 L251.515281,123.309437 L273.041338,122.009743 L274.282498,142.566334 L309.506954,140.439562 L309.569012,141.467392 L274.344556,143.594164 L274.406614,144.621993 L310.609527,142.436144 L310.547469,141.408315 L311.525927,141.349238 L310.346825,121.820477 L327.959053,120.757091 L327.896995,119.729262 L329.85391,119.611108 L328.550692,98.026687 L387.25812,94.482068 Z" fill="#EFB944"/>
<path data-unit="source_001__contour_02" data-control="rig_shine" d="M144.864652,128.549187 L149.191019,152.993869 L171.337284,148.805028 L167.010917,124.360345 Z" fill="#EFB944"/>
<path data-unit="source_001__contour_03" data-control="rig_eye_l" d="M217.44857,193.016623 L218.709581,213.901999 L255.890952,211.657073 L255.923285,212.192596 L220.698829,214.319367 L220.731162,214.85489 L256.934076,212.669041 L255.640732,191.248143 L254.662274,191.30722 L254.629941,190.771698 Z" fill="#EFB944"/>
<path data-unit="source_001__contour_04" data-control="rig_eye_r" d="M330.417167,177.34538 L332.775371,216.402903 L368.978285,214.217054 L366.620081,175.159532 Z" fill="#EFB944"/>
<path data-unit="source_001__contour_05" data-control="rig_mouth" d="M220.722031,244.571426 L220.817792,245.596607 L239.057106,243.830425 L239.152867,244.855606 L217.694851,246.933467 L219.418547,265.386728 L239.803662,263.41276 L241.718879,283.916383 L360.810867,272.384253 L358.895649,251.880631 L379.280764,249.906662 L379.185003,248.881481 L380.257904,248.777588 L380.353665,249.802769 L381.426566,249.698876 L381.713848,252.77442 L382.786749,252.670527 L382.307945,247.544621 L381.235044,247.648514 L380.468957,239.447065 L381.541858,239.343172 L381.350336,237.29281 L383.496138,237.085023 L383.400377,236.059842 L381.254575,236.267628 L380.967292,233.192085 L379.894392,233.295978 L379.607109,230.220435 L357.076192,232.402189 L357.171953,233.42737 L353.953251,233.739049 L355.389664,249.116766 L242.735081,260.025537 L241.873233,250.798907 L242.946134,250.695014 L242.850373,249.669833 L243.923274,249.56594 L243.635991,246.490396 L242.563091,246.594289 L242.275808,243.518746 L243.348709,243.414853 L243.252948,242.389672 Z" fill="#EFB944"/>
<path data-unit="source_002__contour_01" data-control="rig_cup" d="M471.12826,52.28143 L472.106717,52.222353 L472.665239,61.472819 L473.643696,61.413742 L473.147232,53.191105 L509.350146,51.005257 L512.453045,102.396733 L513.431502,102.337656 L513.865908,109.532463 L533.43505,108.350923 L533.497108,109.378753 L532.518651,109.43783 L532.580709,110.465659 L516.925395,111.410891 L516.987453,112.438721 L517.96591,112.379644 L518.027968,113.407473 L519.984882,113.289319 L519.922824,112.26149 L521.879739,112.143336 L521.941797,113.171165 L522.920254,113.112088 L522.858196,112.084259 L525.793567,111.907028 L525.855625,112.934857 L526.834082,112.87578 L526.89614,113.90361 L525.917683,113.962687 L525.979741,114.990516 L525.001284,115.049593 L525.1254,117.105252 L529.039228,116.868945 L528.97717,115.841115 L529.955628,115.782038 L530.017686,116.809868 L530.996143,116.750791 L531.058201,117.77862 L532.036658,117.719543 L539.793905,246.198234 L538.815448,246.257311 L538.877506,247.285141 L537.899049,247.344218 L538.147281,251.455536 L539.125738,251.396459 L539.06368,250.368629 L540.042137,250.309552 L540.724775,261.615677 L482.017347,265.160297 L482.141463,267.215956 L481.163006,267.275033 L481.65947,275.497669 L480.681013,275.556746 L480.743071,276.584575 L479.764614,276.643652 L480.136962,282.81063 L481.115419,282.751553 L481.239535,284.807212 L482.217992,284.748135 L482.342108,286.803794 L465.708337,287.808103 L465.770395,288.835932 L464.791938,288.895009 L464.853996,289.922839 L463.875538,289.981916 L464.061712,293.065404 L463.083255,293.124481 L463.145313,294.152311 L462.166856,294.211388 L462.104798,293.183558 L459.169427,293.360789 L459.231485,294.388619 L458.253028,294.447696 L458.377144,296.503355 L459.355601,296.444278 L459.417659,297.472107 L461.374573,297.353953 L461.312515,296.326124 L462.290972,296.267047 L462.228914,295.239217 L463.207371,295.18014 L463.765893,304.430606 L455.938236,304.903222 L456.000294,305.931052 L455.021837,305.990128 L455.083895,307.017958 L353.324354,313.161965 L353.262296,312.134135 L352.283838,312.193212 L352.159722,310.137553 L350.202808,310.255707 L350.264866,311.283537 L348.307952,311.401691 L348.37001,312.42952 L347.391553,312.488597 L347.453611,313.516427 L345.496696,313.634581 L345.558754,314.66241 L339.688012,315.016872 L339.625954,313.989043 L340.604411,313.929966 L340.542353,312.902136 L338.585439,313.02029 L338.647497,314.04812 L336.690582,314.166274 L336.814698,316.221933 L282.999556,319.471167 L283.061614,320.498997 L282.083157,320.558074 L282.021099,319.530244 L274.193442,320.00286 L274.069326,317.947201 L272.112412,318.065355 L272.050354,317.037525 L266.179611,317.391987 L266.055495,315.336328 L263.120124,315.513559 L263.182182,316.541389 L262.203725,316.600466 L262.141667,315.572636 L261.16321,315.631713 L261.225268,316.659543 L260.24681,316.71862 L260.308868,317.746449 L259.330411,317.805526 L259.268353,316.777697 L258.289896,316.836774 L258.351954,317.864603 L257.373497,317.92368 L257.435555,318.95151 L142.956071,325.863518 L142.769897,322.780029 L143.748354,322.720952 L143.686296,321.693122 L144.664753,321.634045 L144.602695,320.606216 L145.581152,320.547139 L145.519094,319.519309 L146.497552,319.460232 L146.435494,318.432403 L147.413951,318.373326 L147.289835,316.317667 L146.311378,316.376744 L146.24932,315.348914 L144.292405,315.467068 L144.354463,316.494898 L140.440635,316.731206 L139.944171,308.50857 L137.987257,308.626724 L138.049315,309.654553 L136.092401,309.772707 L136.030343,308.744877 L121.353486,309.631032 L120.112326,289.074442 L62.383355,292.559984 L62.321297,291.532155 L61.34284,291.591232 L59.543159,261.784175 L60.521616,261.725098 L61.01808,269.947734 L61.996537,269.888657 L62.120653,271.944316 L63.09911,271.885239 L63.037052,270.85741 L64.015509,270.798333 L63.953451,269.770503 L62.974994,269.82958 L62.726762,265.718262 L61.748305,265.777339 L61.686247,264.74951 L62.664704,264.690433 L61.982066,253.384308 L61.003609,253.443385 L59.203928,223.636329 L60.182385,223.577252 L59.872095,218.438104 L60.850552,218.379027 L60.664378,215.295538 L59.685921,215.354615 L59.251515,208.159809 L58.273058,208.218886 L58.148942,206.163227 L59.127399,206.10415 L58.879167,201.992831 L57.90071,202.051908 L57.838652,201.024079 L58.817109,200.965002 L57.948298,186.575388 L58.926755,186.516311 L58.864697,185.488482 L57.88624,185.547559 L57.141544,173.213605 L56.163087,173.272682 L55.790739,167.105704 L56.769196,167.046627 L56.583022,163.963139 L55.604565,164.022216 L54.177231,140.382137 L108.970831,137.073825 L109.032889,138.101655 L110.989803,137.983501 L111.051861,139.01133 L112.030318,138.952253 L112.092376,139.980083 L114.04929,139.861929 L113.987232,138.834099 L114.965689,138.775022 L114.903631,137.747193 L115.882088,137.688116 L115.757972,135.632457 L114.779515,135.691534 L114.841573,136.719363 L113.863116,136.77844 L113.925174,137.80627 L111.96826,137.924424 L111.906202,136.896594 L112.884659,136.837517 L112.822601,135.809688 L113.801058,135.750611 L113.676942,133.694952 L114.655399,133.635875 L114.593341,132.608045 L112.636427,132.726199 L110.216166,92.640847 L131.742223,91.341154 L131.804281,92.368983 L132.782738,92.309906 L132.72068,91.282077 L170.880508,88.978074 L170.942566,90.005904 L172.89948,89.88775 L172.837422,88.85992 L200.234222,87.205764 L200.29628,88.233594 L201.274737,88.174517 L201.212679,87.146687 L249.157078,84.251915 L250.02589,98.641528 L246.112061,98.877836 L246.050003,97.850007 L140.376633,104.230322 L140.438691,105.258151 L126.740292,106.085229 L129.408785,150.281899 L92.227414,152.526824 L92.165356,151.498995 L89.229985,151.676226 L89.167927,150.648396 L86.232555,150.825627 L86.108439,148.769968 L84.151525,148.888122 L84.213583,149.915952 L83.235126,149.975029 L83.297184,151.002858 L81.34027,151.121012 L81.278212,150.093183 L80.299754,150.15226 L80.361812,151.180089 L78.404898,151.298243 L78.466956,152.326073 L76.510042,152.444227 L76.634158,154.499886 L70.763415,154.854348 L77.900083,273.054744 L136.607511,269.510124 L137.724554,288.011056 L157.293697,286.829516 L158.596914,308.413936 L248.61497,302.978853 L248.677028,304.006683 L355.328855,297.567291 L355.266797,296.539461 L435.500282,291.695148 L435.56234,292.722978 L434.583883,292.782055 L434.645941,293.809884 L435.624398,293.750807 L435.686456,294.778637 L437.64337,294.660483 L437.581312,293.632653 L439.538226,293.514499 L439.7244,296.597988 L440.702857,296.538911 L440.640799,295.511082 L441.619256,295.452005 L441.681314,296.479834 L442.659772,296.420757 L442.597714,295.392928 L443.576171,295.333851 L443.514113,294.306021 L444.49257,294.246944 L444.430512,293.219114 L447.365883,293.041884 L447.303825,292.014054 L448.282282,291.954977 L448.158166,289.899318 L447.179709,289.958395 L446.062666,271.457463 L464.653351,270.335001 L463.412191,249.77841 L464.390649,249.719333 L465.507692,268.220265 L466.486149,268.161188 L466.424091,267.133358 L467.402548,267.074281 L467.340491,266.046452 L468.318948,265.987375 L468.25689,264.959545 L469.235347,264.900468 L469.111231,262.844809 L466.175859,263.02204 L465.431164,250.688086 L525.117048,247.084389 L525.05499,246.05656 L526.033448,245.997483 L519.082954,130.880575 L518.104497,130.939652 L517.794207,125.800505 L516.81575,125.859582 L516.753692,124.831752 L511.861406,125.127137 L511.799348,124.099307 L510.820891,124.158384 L510.882949,125.186214 L506.96912,125.422522 L507.031178,126.450351 L506.052721,126.509428 L505.990663,125.481599 L505.012206,125.540676 L505.136322,127.596335 L460.127294,130.313877 L460.189352,131.341706 L457.253981,131.518937 L454.647546,88.350097 L388.112461,92.367332 L387.243649,77.977719 L389.200563,77.859565 L389.076447,75.803906 L459.525361,71.550362 L459.463303,70.522533 L471.204788,69.813609 L473.749165,111.95462 L499.189051,110.418618 L496.582615,67.249778 L472.121187,68.726702 Z" fill="#8C651F"/>
<path data-unit="source_002__contour_02" data-control="rig_handle_l" d="M67.151525,290.20894 L67.213583,291.23677 L120.050268,288.046612 L120.112326,289.074442 L121.090783,289.015365 L122.269885,308.544126 L132.054456,307.953356 L131.992398,306.925526 L128.07857,307.161834 L128.016512,306.134005 L125.08114,306.311236 L125.143198,307.339065 L123.186284,307.457219 L122.441588,295.123265 L123.420045,295.064188 L123.357987,294.036358 L124.336444,293.977281 L124.274386,292.949452 L125.252844,292.890375 L125.06667,289.806886 L126.045127,289.747809 L125.983069,288.71998 L125.004612,288.779057 L124.880496,286.723398 Z" fill="#8C651F"/>
<path data-unit="source_003__contour_01" data-control="rig_cup" d="M211.181192,366.102029 L229.771877,364.979566 L231.137153,387.591816 L382.798008,378.434883 L382.673892,376.379224 L383.652349,376.320147 L383.590291,375.292317 L384.568748,375.23324 L384.630806,376.26107 L386.58772,376.142916 L386.525662,375.115086 L389.461034,374.937855 L389.523092,375.965685 L390.501549,375.906608 L390.377433,373.850949 L391.35589,373.791872 L391.480006,375.847531 L394.415377,375.6703 L394.477435,376.698129 L396.434349,376.579975 L396.496407,377.607805 L398.453322,377.489651 L398.51538,378.51748 L399.493837,378.458403 L399.555895,379.486233 L401.512809,379.368079 L401.574867,380.395908 L403.531781,380.277754 L403.593839,381.305584 L405.550753,381.18743 L405.488696,380.1596 L406.467153,380.100523 L406.405095,379.072694 L408.362009,378.95454 L408.424067,379.98237 L409.402524,379.923293 L409.340466,378.895463 L410.318923,378.836386 L410.256865,377.808556 L413.192237,377.631326 L413.130179,376.603496 L414.108636,376.544419 L414.046578,375.516589 L409.154292,375.811974 L409.092234,374.784145 L418.876805,374.193375 L421.297067,414.278727 L422.275524,414.21965 L423.454625,433.748411 L410.734683,434.516412 L410.672625,433.488582 L197.368971,446.367366 L196.562217,433.005582 L195.58376,433.064659 L195.335528,428.953341 L185.550957,429.544111 L185.488899,428.516281 L194.295013,427.984588 L193.984723,422.845441 L194.96318,422.786364 L192.853209,387.840159 L212.422351,386.65862 Z" fill="#8B641F"/>
<path data-unit="source_003__contour_02" data-control="rig_base" d="M213.353221,402.076063 L213.415279,403.103892 L212.436822,403.162969 L213.864156,426.803048 L212.885698,426.862125 L212.947756,427.889955 L260.892156,424.995182 L260.954214,426.023012 L269.760328,425.491319 L269.822386,426.519149 L270.800843,426.460072 L270.738785,425.432242 L293.243299,424.073471 L293.305357,425.101301 L295.262271,424.983147 L295.200213,423.955317 L337.27387,421.415007 L337.335928,422.442836 L338.314385,422.383759 L338.252327,421.35593 L397.938212,417.752233 L397.876154,416.724404 L403.746896,416.369942 L402.319563,392.729863 L403.29802,392.670786 L403.235962,391.642956 L395.408305,392.115572 L395.346247,391.087743 L394.36779,391.14682 L394.429848,392.174649 L339.636249,395.482961 L339.574191,394.455131 L338.595733,394.514208 L338.657791,395.542038 L305.390249,397.550655 L305.452307,398.578485 L295.667736,399.169255 L295.605678,398.141425 L232.984422,401.922352 L232.922364,400.894523 L231.943907,400.9536 L232.005965,401.981429 L214.393736,403.044815 L214.331678,402.016986 Z" fill="#8B641F"/>
<path data-unit="source_004__contour_01" data-control="rig_base" d="M418.876805,374.193375 L419.855263,374.134298 L419.917321,375.162128 L420.895778,375.103051 L423.253981,414.160573 L441.844666,413.03811 L442.217014,419.205087 L443.195471,419.14601 L443.629877,426.340817 L442.65142,426.399894 L443.147884,434.62253 L444.126341,434.563453 L444.436631,439.702601 L443.458174,439.761678 L444.140812,451.067803 L445.119269,451.008726 L445.181327,452.036555 L443.224413,452.154709 L443.162355,451.12688 L429.463955,451.953957 L429.401897,450.926128 L208.270586,464.277527 L208.208528,463.249698 L207.230071,463.308775 L207.292129,464.336604 L195.550643,465.045528 L195.612701,466.073358 L190.720415,466.368743 L190.5963,464.313084 L189.617842,464.372161 L189.431668,461.288672 L188.453211,461.347749 L188.515269,462.375579 L187.536812,462.434656 L187.474754,461.406826 L183.560926,461.643134 L183.498868,460.615304 L182.520411,460.674381 L182.458353,459.646552 L181.479895,459.705629 L181.35578,457.64997 L179.398865,457.768124 L177.7233,430.016726 L195.335528,428.953341 L196.576688,449.509931 L300.293143,443.24777 L300.231085,442.219941 L301.209542,442.160864 L301.2716,443.188693 L409.880342,436.631148 L409.818284,435.603318 L416.667484,435.189779 L416.605426,434.16195 L423.454625,433.748411 L422.275524,414.21965 L421.297067,414.278727 Z" fill="#6C4F1A"/>
<path data-unit="source_005__contour_01" data-control="rig_hair" d="M250.073477,83.165008 L252.030391,83.046854 L252.092449,84.074684 L292.209192,81.652527 L292.27125,82.680357 L293.249707,82.62128 L293.187649,81.59345 L358.744276,77.635292 L358.806334,78.663122 L360.763249,78.544968 L360.825307,79.572797 L361.803764,79.51372 L361.741706,78.485891 L363.69862,78.367737 L363.636562,77.339907 L365.593476,77.221753 L365.655534,78.249583 L367.612449,78.131429 L367.550391,77.103599 L369.507305,76.985445 L369.569363,78.013275 L371.526277,77.895121 L371.464219,76.867291 L381.24879,76.276521 L381.310848,77.304351 L383.267763,77.186197 L383.205705,76.158367 L384.184162,76.09929 L384.928857,88.433245 L383.9504,88.492322 L383.888342,87.464492 L381.931428,87.582646 L381.993486,88.610476 L381.015029,88.669553 L381.077087,89.697382 L380.09863,89.756459 L380.160688,90.784289 L326.345546,94.033523 L326.407604,95.061353 L387.071946,91.398579 L387.134004,92.426409 L326.469662,96.089182 L327.834937,118.701432 L307.287338,119.942049 L307.349396,120.969878 L306.370938,121.028955 L307.425924,138.502057 L276.115296,140.392521 L275.06031,122.919419 L273.103396,123.037573 L273.041338,122.009743 L252.493738,123.25036 Z" fill="#EFB944"/>
<path data-unit="source_005__contour_01" data-control="rig_hair" d="M260.743007,77.014965 L262.695623,77.215568 L262.605888,78.240196 L302.634514,82.352568 L302.54478,83.377196 L303.521088,83.477498 L303.610822,82.45287 L369.023456,89.173087 L368.933721,90.197715 L370.886337,90.398318 L370.796602,91.422947 L371.77291,91.523248 L371.862645,90.49862 L373.815261,90.699224 L373.904996,89.674595 L375.857612,89.875199 L375.767877,90.899827 L377.720493,91.100431 L377.810228,90.075802 L379.762843,90.276406 L379.673109,91.301034 L381.625725,91.501638 L381.715459,90.477009 L391.478539,91.480027 L391.388804,92.504655 L393.34142,92.705259 L393.431155,91.68063 L394.407463,91.780932 L393.330647,104.076472 L392.354339,103.97617 L392.444074,102.951542 L390.491458,102.750938 L390.401723,103.775567 L389.425415,103.675265 L389.335681,104.699893 L388.359373,104.599591 L388.269638,105.62422 L334.5727,100.107624 L334.482965,101.132252 L395.014059,107.35096 L394.924324,108.375589 L334.393231,102.15688 L332.419068,124.698703 L311.916601,122.592367 L311.826866,123.616995 L310.850558,123.516693 L309.325069,140.935375 L278.083215,137.725719 L279.608704,120.307038 L277.656088,120.106434 L277.745822,119.081806 L257.243355,116.975469 Z" fill="#A23323"/>
<path data-unit="source_006__contour_01" data-control="rig_stem" d="M284.102129,321.467749 L320.305043,319.281901 L322.725304,359.367252 L360.885132,357.06325 L360.450726,349.868443 L361.429184,349.809366 L361.863589,357.004173 L379.475818,355.940787 L380.592861,374.441719 L230.888921,383.480498 L229.771877,364.979566 L246.405648,363.975257 L246.34359,362.947428 L247.322048,362.888351 L247.384105,363.91618 L248.362563,363.857104 L247.121403,343.300513 L248.09986,343.241436 L249.34102,363.798027 L286.522391,361.553101 Z" fill="#EDB843"/>
<path data-unit="source_007__contour_01" data-control="rig_base" d="M213.663511,407.21521 L401.52728,395.872428 L402.706381,415.401189 L399.77101,415.57842 L399.708952,414.550591 L401.665866,414.432437 L401.045286,404.154142 L400.066829,404.213219 L400.253003,407.296707 L399.274546,407.355784 L399.336604,408.383614 L398.358147,408.442691 L398.420205,409.47052 L397.441748,409.529597 L397.503806,410.557427 L396.525349,410.616504 L396.649465,412.672163 L397.627922,412.613086 L397.68998,413.640915 L229.395354,423.802157 L229.457412,424.829987 L222.608212,425.243526 L222.546154,424.215696 L217.653868,424.511081 L217.59181,423.483252 L218.570267,423.424175 L218.508209,422.396345 L219.486666,422.337268 L219.424608,421.309439 L218.446151,421.368516 L218.384093,420.340686 L216.427179,420.45884 L216.365121,419.431011 L217.343578,419.371934 L217.219462,417.316275 L214.284091,417.493506 Z" fill="#EEB842"/>
<path data-unit="source_008__contour_01" data-control="rig_handle_l" d="M72.782387,155.764023 L111.920672,153.400944 L113.099774,172.929705 L92.552174,174.170322 L97.206523,251.257536 L117.754123,250.01692 L118.995282,270.57351 L78.87854,272.995667 L78.816482,271.967837 L79.794939,271.90876 Z" fill="#EDB845"/>
<path data-unit="source_009__contour_01" data-control="rig_handle_r" d="M475.906724,131.424304 L515.045009,129.061224 L521.747271,240.066813 L518.8119,240.244044 L518.873958,241.271874 L517.895501,241.330951 L517.957559,242.35878 L516.979102,242.417857 L517.04116,243.445687 L515.084245,243.563841 L515.146303,244.59167 L522.97396,244.119055 L522.725728,240.007736 L523.704185,239.948659 L524.014475,245.087807 L480.962362,247.687195 L480.279724,236.38107 L482.236638,236.262916 L482.298696,237.290745 L484.25561,237.172591 L484.193552,236.144762 L485.17201,236.085685 L485.109952,235.057855 L486.088409,234.998778 L486.026351,233.970949 L487.004808,233.911872 L486.94275,232.884042 L487.921207,232.824965 L487.859149,231.797136 L488.837606,231.738059 L488.775548,230.710229 L493.667834,230.414844 L493.605776,229.387015 L491.648862,229.505169 L491.586804,228.477339 L497.457546,228.122877 L497.395488,227.095048 L503.266231,226.740586 L499.790984,169.182132 L500.769441,169.123055 L503.065587,207.152748 L504.044044,207.093671 L502.927,188.592739 L503.905457,188.533662 L503.595167,183.394515 L504.573624,183.335438 L504.511566,182.307608 L503.533109,182.366685 L503.160761,176.199708 L504.139219,176.140631 L504.077161,175.112801 L503.098704,175.171878 L502.974588,173.116219 L503.953045,173.057142 L503.890987,172.029313 L504.869444,171.970236 L504.807386,170.942406 L505.785843,170.883329 L505.723785,169.8555 L506.702242,169.796423 L506.578126,167.740764 L505.599669,167.799841 L505.537611,166.772011 L503.580697,166.890165 L503.518639,165.862336 L502.540182,165.921413 L502.478124,164.893583 L500.521209,165.011737 L499.59034,149.594294 L476.107369,151.012142 L475.797079,145.872994 L476.775536,145.813917 Z" fill="#EEB944"/>
<path data-unit="source_010__contour_01" data-control="rig_handle_l" d="M93.59269,175.139074 L129.795603,172.953225 L134.325836,247.984781 L124.541265,248.575551 L124.603323,249.603381 L97.206523,251.257536 L96.089479,232.756605 L117.615536,231.456911 L115.195275,191.371559 L116.173732,191.312482 L117.290776,209.813414 L118.269233,209.754337 L117.524537,197.420383 L118.502994,197.361306 L118.192704,192.222158 L119.171161,192.163081 L118.984987,189.079592 L119.963445,189.020515 L119.901387,187.992686 L110.116815,188.583456 L109.992699,186.527797 L109.014242,186.586874 L108.952184,185.559044 L107.973727,185.618121 L108.035785,186.645951 L105.100414,186.823182 L104.976298,184.767523 L103.997841,184.8266 L104.059899,185.854429 L102.102984,185.972583 L102.165042,187.000413 L101.186585,187.05949 L101.124527,186.03166 L100.14607,186.090737 L100.208128,187.118567 L99.229671,187.177644 L99.291729,188.205473 L100.270186,188.146396 L100.332244,189.174226 L99.353787,189.233303 L99.415845,190.261132 L102.351216,190.083901 L102.413274,191.111731 L103.391731,191.052654 L103.453789,192.080483 L93.669218,192.671253 L93.60716,191.643424 L94.585617,191.584347 Z" fill="#8C641E"/>
<path data-unit="source_011__contour_01" data-control="rig_handle_r" d="M459.535655,153.04428 L496.717026,150.799355 L497.337606,161.07765 L486.574578,161.727497 L486.698694,163.783156 L487.677151,163.724079 L487.801267,165.779738 L489.758181,165.661584 L489.882297,167.717243 L490.860754,167.658166 L490.922812,168.685996 L478.202869,169.453996 L478.140811,168.426167 L479.119269,168.36709 L478.871037,164.255772 L477.89258,164.314849 L477.954638,165.342678 L475.019266,165.519909 L474.957208,164.49208 L472.021837,164.669311 L472.145953,166.72497 L471.167496,166.784047 L471.229554,167.811876 L470.251096,167.870953 L470.375212,169.926612 L471.35367,169.867535 L471.415728,170.895365 L472.394185,170.836288 L472.456243,171.864117 L473.4347,171.80504 L473.496758,172.83287 L475.453672,172.714716 L476.818948,195.326966 L475.84049,195.386043 L475.902548,196.413872 L474.924091,196.472949 L474.986149,197.500779 L474.007692,197.559856 L474.06975,198.587685 L476.026664,198.469531 L475.964606,197.441702 L476.943064,197.382625 L477.129237,200.466113 L476.15078,200.52519 L476.212838,201.55302 L474.255924,201.671174 L474.317982,202.699003 L473.339525,202.75808 L473.463641,204.813739 L474.442098,204.754662 L474.504156,205.782492 L475.482613,205.723415 L475.544671,206.751244 L478.480042,206.574013 L478.666216,209.657502 L477.687759,209.716579 L477.625701,208.688749 L476.647244,208.747826 L476.895476,212.859145 L477.873933,212.800068 L477.935991,213.827897 L478.914448,213.76882 L479.038564,215.824479 L480.017021,215.765402 L479.76879,211.654084 L480.747247,211.595007 L480.871363,213.650666 L482.828277,213.532512 L482.766219,212.504683 L484.723133,212.386529 L484.785191,213.414358 L483.806734,213.473435 L483.93085,215.529094 L484.909307,215.470017 L484.847249,214.442188 L485.825706,214.383111 L485.763648,213.355281 L486.742105,213.296204 L486.680047,212.268375 L485.70159,212.327452 L485.639532,211.299622 L492.488732,210.886083 L492.55079,211.913913 L493.529247,211.854836 L493.467189,210.827006 L494.445646,210.767929 L494.383588,209.7401 L479.706732,210.626255 L479.644674,209.598425 L502.149188,208.239654 L503.266231,226.740586 L464.127946,229.103665 Z" fill="#8D651E"/>
<path data-unit="source_012__contour_01" data-control="rig_mouth" d="M239.803662,263.41276 L240.876562,263.308867 L240.972323,264.334048 L242.045224,264.230155 L242.140985,265.255336 L335.483354,256.21664 L335.579115,257.241821 L336.652015,257.137928 L336.556254,256.112747 L354.795568,254.346565 L354.891329,255.371746 L355.96423,255.267853 L356.05999,256.293034 L357.132891,256.189141 L357.611696,261.315047 L356.538795,261.41894 L356.634556,262.444121 L355.561655,262.548014 L355.465894,261.522833 L352.247192,261.834512 L352.438713,263.884875 L351.365813,263.988768 L351.461573,265.013949 L350.388673,265.117842 L350.484434,266.143023 L349.411533,266.246916 L349.507294,267.272097 L348.434393,267.37599 L348.530154,268.401171 L247.67748,278.167119 L247.581719,277.141938 L246.508818,277.245831 L246.317296,275.195468 L243.098594,275.507147 L243.385876,278.582691 L242.312976,278.686584 L242.121454,276.636222 L241.048553,276.740115 Z" fill="#13120F"/>
<path data-unit="source_013__contour_01" data-control="rig_eye_r" d="M362.768311,176.423669 L366.682139,176.187361 L368.978285,214.217054 L367.999827,214.276131 L367.937769,213.248301 L366.959312,213.307378 L366.897254,212.279549 L354.177312,213.04755 L354.115254,212.01972 L352.158339,212.137874 L352.096281,211.110045 L347.203996,211.40543 L347.328112,213.461089 L334.608169,214.22909 L332.498198,179.282886 L362.830369,177.451499 Z" fill="#13120F"/>
<path data-unit="source_014__contour_01" data-control="rig_eye_l" d="M217.480904,193.552146 L218.459361,193.493069 L218.491694,194.028591 L219.470151,193.969514 L219.502485,194.505037 L251.79157,192.555496 L252.696912,207.550125 L251.718454,207.609202 L251.750788,208.144724 L250.772331,208.203801 L250.804664,208.739323 L249.826207,208.7984 L249.858541,209.333923 L248.880084,209.393 L248.912417,209.928522 L247.93396,209.987599 L247.998628,211.058644 L246.041713,211.176798 L246.074047,211.712321 L220.634162,213.248322 L219.534819,195.040559 L218.556362,195.099636 L219.688038,213.842922 L218.709581,213.901999 Z" fill="#151410"/>
<path data-unit="source_015__contour_01" data-control="rig_handle_r" d="M480.989359,69.222839 L495.666216,68.336684 L498.210594,110.477695 L476.684537,111.777389 L476.622479,110.749559 L479.55785,110.572328 L479.495792,109.544499 L475.581964,109.780807 L473.471992,74.834603 L474.450449,74.775526 L474.202217,70.664207 L475.180675,70.60513 L475.366849,73.688619 L476.345306,73.629542 L476.283248,72.601713 L477.261705,72.542636 L477.199647,71.514806 L478.178104,71.455729 L478.116046,70.4279 L481.051417,70.250669 Z" fill="#ECB641"/>
<path data-unit="source_016__contour_01" data-control="rig_stem" d="M338.585439,313.02029 L340.542353,312.902136 L340.604411,313.929966 L339.625954,313.989043 L339.874186,318.100361 L340.852643,318.041284 L340.976759,320.096943 L339.998302,320.15602 L340.06036,321.183849 L339.081902,321.242926 L339.76454,332.549051 L338.786083,332.608128 L338.848141,333.635958 L337.869684,333.695035 L337.9938,335.750694 L337.015343,335.809771 L337.139459,337.86543 L339.096373,337.747276 L339.220489,339.802935 L340.198946,339.743858 L340.261004,340.771688 L344.174833,340.53538 L344.236891,341.563209 L346.193805,341.445055 L346.131747,340.417226 L347.110204,340.358149 L347.23432,342.413808 L349.191234,342.295654 L349.129176,341.267824 L350.107633,341.208747 L350.045575,340.180918 L351.024033,340.121841 L350.961975,339.094011 L351.940432,339.034934 L351.878374,338.007105 L358.727574,337.593566 L359.472269,349.92752 L357.515355,350.045674 L357.577413,351.073504 L355.620499,351.191658 L355.682557,352.219487 L352.747185,352.396718 L352.685127,351.368888 L351.70667,351.427965 L351.768728,352.455795 L350.790271,352.514872 L350.852329,353.542702 L348.895415,353.660856 L349.019531,355.716515 L348.041074,355.775592 L348.16519,357.831251 L343.272904,358.126636 L343.210846,357.098806 L345.16776,356.980652 L345.105702,355.952823 L343.148788,356.070976 L343.08673,355.043147 L342.108273,355.102224 L342.046215,354.074394 L339.110844,354.251625 L339.172902,355.279455 L338.194444,355.338532 L338.132386,354.310702 L336.175472,354.428856 L336.113414,353.401027 L335.134957,353.460104 L335.010841,351.404445 L334.032384,351.463522 L334.094442,352.491351 L331.159071,352.668582 L331.221129,353.696412 L330.242671,353.755489 L330.304729,354.783318 L329.326272,354.842395 L329.38833,355.870225 L328.409873,355.929302 L328.471931,356.957131 L327.493474,357.016208 L327.555532,358.044038 L333.426275,357.689576 L333.488333,358.717405 L324.682219,359.249098 L322.137841,317.108088 L336.814698,316.221933 L336.690582,314.166274 L338.647497,314.04812 Z" fill="#89631D"/>
<path data-unit="source_017__contour_01" data-control="rig_handle_r" d="M479.181327,169.394919 L489.944355,168.745072 L490.006413,169.772902 L493.920241,169.536594 L493.982299,170.564424 L497.896128,170.328116 L500.130215,207.329979 L481.53953,208.452442 Z" fill="#F2EDE7"/>
<path data-unit="source_018__contour_01" data-control="rig_handle_l" d="M112.259904,191.54879 L113.238361,191.489713 L115.596564,230.547235 L97.005879,231.669698 L94.709733,193.640006 L112.321962,192.57662 Z" fill="#F2EDE7"/>
<path data-unit="source_019__contour_01" data-control="rig_stem" d="M282.283802,340.145912 L283.262259,340.086835 L283.758723,348.309471 L282.780265,348.368548 L282.842323,349.396378 L281.863866,349.455455 L281.925924,350.483284 L280.947467,350.542361 L281.009525,351.570191 L280.031068,351.629268 L280.093126,352.657097 L279.114669,352.716174 L279.176727,353.744004 L278.19827,353.803081 L278.384444,356.886569 L277.405987,356.945646 L277.468045,357.973476 L276.489587,358.032553 L276.613703,360.088212 L274.656789,360.206366 L274.718847,361.234195 L256.128162,362.356658 L256.066104,361.328829 L255.087647,361.387906 L255.025589,360.360076 L256.004046,360.300999 L255.87993,358.24534 L254.901473,358.304417 L254.963531,359.332246 L253.985073,359.391323 L254.047131,360.419153 L253.068674,360.47823 L253.130732,361.506059 L252.152275,361.565136 L251.779927,355.398159 L250.80147,355.457236 L250.863528,356.485066 L249.885071,356.544143 L249.078317,343.182359 L256.905974,342.709743 L256.968032,343.737573 L257.946489,343.678496 L258.132663,346.761984 L259.11112,346.702907 L259.235236,348.758566 L265.105979,348.404104 L265.168037,349.431934 L266.146494,349.372857 L266.084436,348.345027 L267.062893,348.28595 L267.000835,347.258121 L267.979293,347.199044 L267.917235,346.171214 L268.895692,346.112137 L268.833634,345.084308 L269.812091,345.025231 L269.750033,343.997401 L271.706947,343.879247 L271.831063,345.934906 L274.766435,345.757675 L274.704377,344.729846 L275.682834,344.670769 L275.620776,343.642939 L276.599233,343.583862 L276.475117,341.528203 L282.34586,341.173741 Z" fill="#8C651D"/>
<path data-unit="source_020__contour_01" data-control="rig_handle_r" d="M462.171032,229.221819 L479.78326,228.158434 L480.962362,247.687195 L524.014475,245.087807 L524.076533,246.115637 L463.412191,249.77841 Z" fill="#D6A436"/>
<path data-unit="source_021__contour_01" data-control="rig_stem" d="M265.387328,320.534553 L282.021099,319.530244 L282.083157,320.558074 L279.147786,320.735305 L279.271902,322.790964 L282.207273,322.613733 L283.262259,340.086835 L282.283802,340.145912 L282.34586,341.173741 L276.475117,341.528203 L276.599233,343.583862 L275.620776,343.642939 L275.682834,344.670769 L274.704377,344.729846 L274.766435,345.757675 L271.831063,345.934906 L271.706947,343.879247 L269.750033,343.997401 L269.687975,342.969572 L270.666432,342.910495 L270.542316,340.854836 L269.563859,340.913913 L269.501801,339.886083 L268.523344,339.94516 L268.585402,340.97299 L267.606945,341.032067 L266.427843,321.503306 L265.449386,321.562383 Z" fill="#8A631F"/>
<path data-unit="source_022__contour_01" data-control="rig_mouth" d="M357.171953,233.42737 L377.557068,231.453402 L379.280764,249.906662 L358.895649,251.880631 Z" fill="#171510"/>
<path data-unit="source_023__contour_01" data-control="rig_handle_l" d="M111.920672,153.400944 L129.532901,152.337558 L130.712002,171.866319 L113.099774,172.929705 Z" fill="#D6A435"/>
<path data-unit="source_024__contour_01" data-control="rig_mouth" d="M217.790612,247.958649 L238.175727,245.98468 L239.707901,262.387579 L238.635,262.491472 L237.198587,247.113755 L226.469579,248.152685 L226.56534,249.177866 L235.148546,248.346722 L235.244307,249.371903 L236.317208,249.26801 L237.562099,262.595365 L219.322786,264.361547 Z" fill="#14130F"/>
<path data-unit="source_025__contour_01" data-control="rig_handle_l" d="M117.754123,250.01692 L135.366351,248.953534 L136.048989,260.259659 L135.070532,260.318736 L135.13259,261.346565 L134.154133,261.405642 L134.216191,262.433472 L132.259276,262.551626 L132.321334,263.579455 L131.342877,263.638532 L131.280819,262.610703 L127.366991,262.847011 L127.429049,263.87484 L126.450591,263.933917 L126.512649,264.961747 L125.534192,265.020824 L125.658308,267.076483 L124.679851,267.13556 L124.741909,268.163389 L125.720366,268.104312 L125.782424,269.132142 L118.933224,269.545681 Z" fill="#D4A134"/>
<path data-unit="source_026__contour_01" data-control="rig_handle_r" d="M462.270382,133.279211 L474.990325,132.51121 L476.107369,151.012142 L459.473597,152.016451 L458.977134,143.793814 L459.955591,143.734737 L459.893533,142.706908 L460.87199,142.647831 L460.809932,141.620001 L461.788389,141.560924 L461.664273,139.505265 L462.64273,139.446188 Z" fill="#D3A235"/>
<path data-unit="source_027__contour_01" data-control="rig_stem" d="M384.430161,356.673232 L398.128561,355.846154 L399.183547,373.319256 L398.20509,373.378333 L398.329206,375.433992 L396.372291,375.552146 L396.434349,376.579975 L394.477435,376.698129 L394.415377,375.6703 L391.480006,375.847531 L391.35589,373.791872 L390.377433,373.850949 L390.501549,375.906608 L389.523092,375.965685 L389.461034,374.937855 L386.525662,375.115086 L386.58772,376.142916 L384.630806,376.26107 L384.568748,375.23324 L383.590291,375.292317 L383.031769,366.041851 L384.988683,365.923697 L384.926625,364.895868 L385.905082,364.836791 L385.843024,363.808961 L386.821482,363.749884 L386.635308,360.666396 L385.65685,360.725473 L385.594792,359.697643 L384.616335,359.75672 Z" fill="#88621F"/>
<path data-unit="source_028__contour_01" data-control="rig_hair" d="M252.030391,83.046854 L386.079018,74.953307 L387.071946,91.398579 L326.407604,95.061353 L326.345546,94.033523 L380.160688,90.784289 L380.09863,89.756459 L381.077087,89.697382 L381.015029,88.669553 L381.993486,88.610476 L381.931428,87.582646 L383.888342,87.464492 L383.9504,88.492322 L384.928857,88.433245 L384.184162,76.09929 L383.205705,76.158367 L383.267763,77.186197 L381.310848,77.304351 L381.24879,76.276521 L371.464219,76.867291 L371.526277,77.895121 L369.569363,78.013275 L369.507305,76.985445 L367.550391,77.103599 L367.612449,78.131429 L365.655534,78.249583 L365.593476,77.221753 L363.636562,77.339907 L363.69862,78.367737 L361.741706,78.485891 L361.803764,79.51372 L360.825307,79.572797 L360.763249,78.544968 L358.806334,78.663122 L358.744276,77.635292 L293.187649,81.59345 L293.249707,82.62128 L292.27125,82.680357 L292.209192,81.652527 L252.092449,84.074684 Z" fill="#EFB944"/>
<path data-unit="source_028__contour_01" data-control="rig_hair" d="M262.695623,77.215568 L396.449813,90.956907 L395.014059,107.35096 L334.482965,101.132252 L334.5727,100.107624 L388.269638,105.62422 L388.359373,104.599591 L389.335681,104.699893 L389.425415,103.675265 L390.401723,103.775567 L390.491458,102.750938 L392.444074,102.951542 L392.354339,103.97617 L393.330647,104.076472 L394.407463,91.780932 L393.431155,91.68063 L393.34142,92.705259 L391.388804,92.504655 L391.478539,91.480027 L381.715459,90.477009 L381.625725,91.501638 L379.673109,91.301034 L379.762843,90.276406 L377.810228,90.075802 L377.720493,91.100431 L375.767877,90.899827 L375.857612,89.875199 L373.904996,89.674595 L373.815261,90.699224 L371.862645,90.49862 L371.77291,91.523248 L370.796602,91.422947 L370.886337,90.398318 L368.933721,90.197715 L369.023456,89.173087 L303.610822,82.45287 L303.521088,83.477498 L302.54478,83.377196 L302.634514,82.352568 L262.605888,78.240196 Z" fill="#A9382A"/>
<path data-unit="source_029__contour_01" data-control="rig_shine" d="M144.864652,128.549187 L167.010917,124.360345 L171.337284,148.805028 L151.405646,152.574985 L151.199628,151.410953 L154.521568,150.782626 L154.315551,149.618594 L153.208237,149.828036 L153.00222,148.664003 L150.787593,149.082888 L147.491313,130.458367 L165.208325,127.107294 L166.44443,134.091489 L165.337117,134.300931 L164.925082,131.972866 L162.710456,132.39175 L162.504438,131.227718 L160.289812,131.646602 L160.495829,132.810635 L159.388516,133.020077 L159.594533,134.184109 L158.48722,134.393551 L158.281203,133.229519 L153.85195,134.067287 L153.645932,132.903255 L152.538619,133.112697 L152.744636,134.276729 L151.637323,134.486171 L153.491481,144.962464 L154.598794,144.753022 L154.804811,145.917054 L160.341378,144.869844 L160.13536,143.705811 L167.886553,142.239717 L168.710623,146.895847 L164.28137,147.733615 L164.487387,148.897648 L170.023953,147.850437 L166.109621,125.73382 L146.177983,129.503777 L150.298333,152.784427 L149.191019,152.993869 Z" fill="#F9F2E1"/>
<path data-unit="source_030__contour_01" data-control="rig_handle_r" d="M532.518651,109.43783 L533.497108,109.378753 L542.805805,263.553182 L482.141463,267.215956 L482.079405,266.188126 L541.76529,262.58443 Z" fill="#7A510C"/>
<path data-unit="source_031__contour_01" data-control="rig_base" d="M212.49888,404.190799 L402.319563,392.729863 L402.381621,393.757692 L212.560938,405.218628 Z" fill="#805B14"/>
<path data-unit="source_032__contour_01" data-control="rig_mouth" d="M220.722031,244.571426 L243.252948,242.389672 L243.348709,243.414853 L242.275808,243.518746 L242.563091,246.594289 L243.635991,246.490396 L243.923274,249.56594 L242.850373,249.669833 L242.946134,250.695014 L241.873233,250.798907 L242.735081,260.025537 L355.389664,249.116766 L353.953251,233.739049 L355.026152,233.635156 L356.558326,250.038054 L241.757941,261.154611 L240.225767,244.751713 L239.152867,244.855606 L239.057106,243.830425 L220.817792,245.596607 Z" fill="#E8B53C"/>
<path data-unit="source_033__contour_01" data-control="rig_base" d="M178.97893,467.077667 L343.359727,457.152732 L343.421785,458.180562 L179.040988,468.105496 Z" fill="#644410"/>
<path data-unit="source_034__contour_01" data-control="rig_handle_r" d="M474.866209,130.455551 L516.939866,127.915241 L523.704185,239.948659 L522.725728,240.007736 L516.023466,129.002147 L475.906724,131.424304 L476.775536,145.813917 L475.797079,145.872994 Z" fill="#F8C951"/>
<path data-unit="source_035__contour_01" data-control="rig_base" d="M212.622996,406.246458 L351.563908,397.857525 L351.625966,398.885355 L213.663511,407.21521 L214.842613,426.743971 L213.864156,426.803048 Z" fill="#F5C349"/>
<path data-unit="source_036__contour_01" data-control="rig_base" d="M262.987656,443.437037 L416.605426,434.16195 L416.667484,435.189779 L263.049714,444.464867 Z" fill="#75551B"/>
<path data-unit="source_037__contour_01" data-control="rig_mouth" d="M346.02084,253.127347 L358.895649,251.880631 L360.523584,269.30871 L341.21137,271.178785 L341.115609,270.153604 L297.126677,274.413219 L297.030916,273.388038 L348.530154,268.401171 L348.434393,267.37599 L349.507294,267.272097 L349.411533,266.246916 L350.484434,266.143023 L350.388673,265.117842 L351.461573,265.013949 L351.365813,263.988768 L352.438713,263.884875 L352.247192,261.834512 L355.465894,261.522833 L355.561655,262.548014 L356.634556,262.444121 L356.538795,261.41894 L357.611696,261.315047 L356.845609,253.113598 L346.116601,254.152528 Z" fill="#161611"/>
<path data-unit="source_038__contour_01" data-control="rig_base" d="M231.013037,385.536157 L382.673892,376.379224 L382.73595,377.407053 L231.075095,386.563986 Z" fill="#7B5614"/>
<path data-unit="source_039__contour_01" data-control="rig_base" d="M259.990227,442.586438 L410.672625,433.488582 L410.734683,434.516412 L260.052285,443.614268 Z" fill="#956D22"/>
<path data-unit="source_040__contour_01" data-control="rig_stem" d="M230.950979,384.508327 L380.654919,375.469548 L380.716977,376.497378 L231.013037,385.536157 Z" fill="#D5AA3E"/>
<path data-unit="source_041__contour_01" data-control="rig_handle_r" d="M533.43505,108.350923 L534.413507,108.291846 L543.784262,263.494105 L542.805805,263.553182 Z" fill="#D6C5B0"/>
<path data-unit="source_042__contour_01" data-control="rig_cup" d="M130.840294,108.93241 L250.212064,101.725017 L251.453223,122.281608 L250.474766,122.340685 L249.295665,102.811924 L241.468008,103.284539 L241.530066,104.312369 L239.573151,104.430523 L239.511093,103.402693 L138.730009,109.487623 L138.792067,110.515453 L136.835153,110.633607 L136.897211,111.661436 L135.918754,111.720513 L135.856696,110.692684 L131.942867,110.928992 L131.880809,109.901162 L130.902352,109.960239 Z" fill="#E8B53F"/>
<path data-unit="source_043__contour_01" data-control="rig_cup" d="M144.292405,315.467068 L146.24932,315.348914 L146.311378,316.376744 L147.289835,316.317667 L147.413951,318.373326 L146.435494,318.432403 L146.497552,319.460232 L145.519094,319.519309 L145.581152,320.547139 L144.602695,320.606216 L144.664753,321.634045 L143.686296,321.693122 L143.748354,322.720952 L142.769897,322.780029 L142.956071,325.863518 L256.457098,319.010587 L256.519156,320.038416 L142.039672,326.950424 L141.419092,316.672129 L144.354463,316.494898 Z" fill="#916B23"/>
<path data-unit="source_044__contour_01" data-control="rig_cup" d="M126.864408,108.140888 L251.128463,100.63811 L252.493738,123.25036 L251.515281,123.309437 L250.212064,101.725017 L126.926466,109.168718 Z" fill="#F7CA52"/>
<path data-unit="source_045__contour_01" data-control="rig_cup" d="M243.598569,301.218579 L385.474852,292.652416 L385.53691,293.680245 L243.660627,302.246409 Z" fill="#E2B646"/>
<path data-unit="source_046__contour_01" data-control="rig_base" d="M260.892156,424.995182 L397.876154,416.724404 L397.938212,417.752233 L338.252327,421.35593 L338.314385,422.383759 L337.335928,422.442836 L337.27387,421.415007 L295.200213,423.955317 L295.262271,424.983147 L293.305357,425.101301 L293.243299,424.073471 L270.738785,425.432242 L270.800843,426.460072 L269.822386,426.519149 L269.760328,425.491319 L260.954214,426.023012 Z" fill="#926921"/>
<path data-unit="source_047__contour_01" data-control="rig_handle_l" d="M55.432862,177.443077 L56.411319,177.384 L57.90071,202.051908 L58.879167,201.992831 L59.127399,206.10415 L58.148942,206.163227 L58.273058,208.218886 L59.251515,208.159809 L59.685921,215.354615 L60.664378,215.295538 L60.850552,218.379027 L59.872095,218.438104 L60.182385,223.577252 L59.203928,223.636329 L61.003609,253.443385 L61.982066,253.384308 L62.664704,264.690433 L61.686247,264.74951 L61.748305,265.777339 L62.726762,265.718262 L62.974994,269.82958 L63.953451,269.770503 L64.015509,270.798333 L63.037052,270.85741 L63.09911,271.885239 L62.120653,271.944316 L61.996537,269.888657 L61.01808,269.947734 L60.521616,261.725098 L59.543159,261.784175 L59.356985,258.700687 L58.378528,258.759764 L58.00618,252.592786 L58.984637,252.533709 L59.108753,254.589368 L60.08721,254.530291 Z" fill="#926B27"/>
<path data-unit="source_048__contour_01" data-control="rig_mouth" d="M239.152867,244.855606 L240.225767,244.751713 L241.757941,261.154611 L356.558326,250.038054 L355.026152,233.635156 L356.099053,233.531263 L357.726988,250.959342 L240.780802,262.283686 Z" fill="#F8D655"/>
<path data-unit="source_049__contour_01" data-control="rig_handle_l" d="M92.552174,174.170322 L130.712002,171.866319 L135.366351,248.953534 L124.603323,249.603381 L124.541265,248.575551 L134.325836,247.984781 L129.795603,172.953225 L93.59269,175.139074 L94.585617,191.584347 L93.60716,191.643424 Z" fill="#7F5D16"/>
<path data-unit="source_050__contour_01" data-control="rig_hair" d="M250.011419,82.137179 L386.01696,73.925477 L386.079018,74.953307 L250.073477,83.165008 Z" fill="#EFB944"/>
<path data-unit="source_050__contour_01" data-control="rig_hair" d="M260.832741,75.990336 L396.539548,89.932279 L396.449813,90.956907 L260.743007,77.014965 Z" fill="#9C2417"/>
<path data-unit="source_051__contour_01" data-control="rig_base" d="M175.704328,429.107051 L176.682785,429.047974 L179.040988,468.105496 L275.908244,462.256874 L275.970302,463.284704 L178.124589,469.192403 Z" fill="#837153"/>
<path data-unit="source_052__contour_01" data-control="rig_handle_r" d="M481.163006,267.275033 L542.805805,263.553182 L542.867863,264.581012 L482.203521,268.243785 L482.265579,269.271615 L483.244036,269.212538 L483.7405,277.435174 L482.762043,277.494251 L483.196449,284.689058 L484.174906,284.629981 L484.36108,287.713469 L483.382623,287.772546 L483.444681,288.800376 L472.681653,289.450223 L472.619595,288.422393 L465.770395,288.835932 L465.708337,287.808103 L482.342108,286.803794 L482.217992,284.748135 L481.239535,284.807212 L481.115419,282.751553 L480.136962,282.81063 L479.764614,276.643652 L480.743071,276.584575 L480.681013,275.556746 L481.65947,275.497669 Z" fill="#B39B73"/>
<path data-unit="source_053__contour_01" data-control="rig_handle_r" d="M536.628948,193.778928 L537.607405,193.719851 L541.76529,262.58443 L482.079405,266.188126 L482.017347,265.160297 L540.724775,261.615677 L540.042137,250.309552 L539.06368,250.368629 L539.125738,251.396459 L538.147281,251.455536 L537.899049,247.344218 L538.877506,247.285141 L538.815448,246.257311 L539.793905,246.198234 Z" fill="#916A22"/>
<path data-unit="source_054__contour_01" data-control="rig_base" d="M231.414326,424.711833 L360.570667,416.91367 L360.632725,417.9415 L231.476384,425.739663 Z" fill="#EDBD49"/>
<path data-unit="source_055__contour_01" data-control="rig_handle_r" d="M515.045009,129.061224 L516.023466,129.002147 L522.97396,244.119055 L515.146303,244.59167 L515.084245,243.563841 L517.04116,243.445687 L516.979102,242.417857 L517.957559,242.35878 L517.895501,241.330951 L518.873958,241.271874 L518.8119,240.244044 L521.747271,240.066813 Z" fill="#EDB73E"/>
<path data-unit="source_056__contour_01" data-control="rig_handle_r" d="M516.925395,111.410891 L532.580709,110.465659 L537.607405,193.719851 L536.628948,193.778928 L532.036658,117.719543 L531.058201,117.77862 L530.996143,116.750791 L530.017686,116.809868 L529.955628,115.782038 L528.97717,115.841115 L529.039228,116.868945 L525.1254,117.105252 L525.001284,115.049593 L525.979741,114.990516 L525.917683,113.962687 L526.89614,113.90361 L526.834082,112.87578 L525.855625,112.934857 L525.793567,111.907028 L522.858196,112.084259 L522.920254,113.112088 L521.941797,113.171165 L521.879739,112.143336 L519.922824,112.26149 L519.984882,113.289319 L518.027968,113.407473 L517.96591,112.379644 L516.987453,112.438721 Z" fill="#916A22"/>
<path data-unit="source_057__contour_01" data-control="rig_handle_r" d="M472.121187,68.726702 L496.582615,67.249778 L499.189051,110.418618 L498.210594,110.477695 L495.666216,68.336684 L480.989359,69.222839 L481.051417,70.250669 L478.116046,70.4279 L478.178104,71.455729 L477.199647,71.514806 L477.261705,72.542636 L476.283248,72.601713 L476.345306,73.629542 L475.366849,73.688619 L475.180675,70.60513 L474.202217,70.664207 L474.450449,74.775526 L473.471992,74.834603 L475.581964,109.780807 L479.495792,109.544499 L479.55785,110.572328 L476.622479,110.749559 L476.684537,111.777389 L474.727622,111.895543 Z" fill="#F3C248"/>
<path data-unit="source_058__contour_01" data-control="rig_stem" d="M339.75007,316.044702 L465.971039,308.42377 L466.033097,309.4516 L339.812128,317.072531 Z" fill="#BFA984"/>
<path data-unit="source_059__contour_01" data-control="rig_cup" d="M386.01696,73.925477 L472.121187,68.726702 L474.727622,111.895543 L473.749165,111.95462 L471.204788,69.813609 L386.079018,74.953307 Z" fill="#7B5410"/>
<path data-unit="source_060__contour_01" data-control="rig_base" d="M207.230071,463.308775 L208.208528,463.249698 L208.270586,464.277527 L319.814698,457.542751 L319.876756,458.57058 L195.612701,466.073358 L195.550643,465.045528 L207.292129,464.336604 Z" fill="#71531F"/>
<path data-unit="source_061__contour_01" data-control="rig_base" d="M214.284091,417.493506 L217.219462,417.316275 L217.343578,419.371934 L216.365121,419.431011 L216.427179,420.45884 L218.384093,420.340686 L218.446151,421.368516 L219.424608,421.309439 L219.486666,422.337268 L218.508209,422.396345 L218.570267,423.424175 L217.59181,423.483252 L217.653868,424.511081 L222.546154,424.215696 L222.608212,425.243526 L229.457412,424.829987 L229.395354,423.802157 L306.693467,419.135075 L306.755525,420.162905 L231.414326,424.711833 L231.476384,425.739663 L214.842613,426.743971 Z" fill="#EFBB44"/>
<path data-unit="source_062__contour_01" data-control="rig_stem" d="M339.688012,315.016872 L464.930524,307.455018 L464.992582,308.482847 L339.75007,316.044702 Z" fill="#7C520E"/>
<path data-unit="source_063__contour_01" data-control="rig_handle_r" d="M458.49514,152.075528 L497.633425,149.712448 L498.564295,165.129891 L497.585838,165.188968 L496.717026,150.799355 L459.535655,153.04428 L464.127946,229.103665 L463.149489,229.162742 Z" fill="#7C5917"/>
<path data-unit="source_064__contour_01" data-control="rig_mouth" d="M356.099053,233.531263 L357.171953,233.42737 L358.895649,251.880631 L240.876562,263.308867 L240.780802,262.283686 L357.726988,250.959342 Z" fill="#584E1E"/>
<path data-unit="source_065__contour_01" data-control="rig_cup" d="M126.80235,107.113059 L251.066405,99.610281 L251.128463,100.63811 L126.864408,108.140888 Z" fill="#B48928"/>
<path data-unit="source_066__contour_01" data-control="rig_cup" d="M126.740292,106.085229 L251.004347,98.582451 L251.066405,99.610281 L126.80235,107.113059 Z" fill="#845E18"/>
<path data-unit="source_067__contour_01" data-control="rig_handle_l" d="M53.136716,139.413384 L110.865687,135.927842 L110.927745,136.955671 L54.177231,140.382137 L55.604565,164.022216 L56.583022,163.963139 L56.769196,167.046627 L55.790739,167.105704 L56.163087,173.272682 L57.141544,173.213605 L57.88624,185.547559 L58.864697,185.488482 L58.926755,186.516311 L57.948298,186.575388 L58.817109,200.965002 L57.838652,201.024079 L56.411319,177.384 L55.432862,177.443077 Z" fill="#916922"/>
<path data-unit="source_068__contour_01" data-control="rig_stem" d="M142.039672,326.950424 L264.346813,319.5658 L264.408871,320.59363 L142.10173,327.978254 Z" fill="#7E530F"/>
<path data-unit="source_069__contour_01" data-control="rig_handle_l" d="M130.77406,172.894149 L131.752518,172.835072 L131.876634,174.890731 L132.855091,174.831654 L133.599786,187.165608 L132.621329,187.224685 L133.676315,204.697787 L134.654772,204.63871 L135.275352,214.917005 L134.296895,214.976082 L134.483069,218.059571 L135.461526,218.000494 L136.454454,234.445766 L135.475996,234.504843 L135.600112,236.560502 L136.578569,236.501425 L137.323265,248.83538 L136.344808,248.894457 L136.406866,249.922286 L135.428409,249.981363 Z" fill="#F3BF47"/>
<path data-unit="source_070__contour_01" data-control="rig_cup" d="M182.435819,85.185662 L304.74296,77.801038 L304.805018,78.828868 L182.497877,86.213491 Z" fill="#C6A08A"/>
<path data-unit="source_071__contour_01" data-control="rig_stem" d="M248.09986,343.241436 L249.078317,343.182359 L249.885071,356.544143 L250.863528,356.485066 L250.80147,355.457236 L251.779927,355.398159 L252.152275,361.565136 L253.130732,361.506059 L253.068674,360.47823 L254.047131,360.419153 L253.985073,359.391323 L254.963531,359.332246 L254.901473,358.304417 L255.87993,358.24534 L256.004046,360.300999 L255.025589,360.360076 L255.087647,361.387906 L256.066104,361.328829 L256.128162,362.356658 L274.718847,361.234195 L274.656789,360.206366 L276.613703,360.088212 L276.489587,358.032553 L277.468045,357.973476 L277.405987,356.945646 L278.384444,356.886569 L278.19827,353.803081 L279.176727,353.744004 L279.114669,352.716174 L280.093126,352.657097 L280.031068,351.629268 L281.009525,351.570191 L281.071583,352.59802 L282.05004,352.538943 L282.174156,354.594602 L281.195699,354.653679 L281.257757,355.681509 L282.236214,355.622432 L282.36033,357.678091 L283.338787,357.619014 L283.400845,358.646843 L284.379302,358.587766 L284.503418,360.643425 L285.481876,360.584348 L285.543933,361.612178 L249.34102,363.798027 Z" fill="#855F19"/>
<path data-unit="source_072__contour_01" data-control="rig_stem" d="M350.202808,310.255707 L352.159722,310.137553 L352.283838,312.193212 L353.262296,312.134135 L353.324354,313.161965 L454.105438,307.077035 L454.167496,308.104865 L345.558754,314.66241 L345.496696,313.634581 L347.453611,313.516427 L347.391553,312.488597 L348.37001,312.42952 L348.307952,311.401691 L350.264866,311.283537 Z" fill="#916B24"/>
<path data-unit="source_073__contour_01" data-control="rig_cup" d="M158.334212,287.798269 L159.312669,287.739192 L160.367655,305.212294 L261.148739,299.127364 L261.210797,300.155193 L160.429713,306.240123 L160.491771,307.267953 L159.513314,307.32703 Z" fill="#F5C048"/>
<path data-unit="source_074__contour_01" data-control="rig_handle_r" d="M518.104497,130.939652 L519.082954,130.880575 L526.033448,245.997483 L525.05499,246.05656 L525.117048,247.084389 L524.138591,247.143466 L523.58007,237.893 L524.558527,237.833923 Z" fill="#855F1C"/>
<path data-unit="source_075__contour_01" data-control="rig_handle_l" d="M109.175651,91.672095 L110.154108,91.613018 L112.636427,132.726199 L114.593341,132.608045 L114.655399,133.635875 L113.676942,133.694952 L113.801058,135.750611 L112.822601,135.809688 L112.884659,136.837517 L111.906202,136.896594 L111.96826,137.924424 L113.925174,137.80627 L113.863116,136.77844 L114.841573,136.719363 L114.779515,135.691534 L115.757972,135.632457 L115.882088,137.688116 L114.903631,137.747193 L114.965689,138.775022 L113.987232,138.834099 L114.04929,139.861929 L112.092376,139.980083 L112.030318,138.952253 L111.051861,139.01133 L110.989803,137.983501 L109.032889,138.101655 L108.970831,137.073825 L110.927745,136.955671 L110.865687,135.927842 L53.136716,139.413384 L53.074658,138.385555 L111.782086,134.840935 Z" fill="#885E16"/>
<path data-unit="source_076__contour_01" data-control="rig_cup" d="M158.534856,307.386107 L274.971255,300.355945 L275.033313,301.383775 L158.596914,308.413936 Z" fill="#7E5815"/>
<path data-unit="source_077__contour_01" data-control="rig_stem" d="M283.061614,320.498997 L321.221442,318.194994 L323.703761,359.308175 L322.725304,359.367252 L320.305043,319.281901 L284.102129,321.467749 L286.522391,361.553101 L285.543933,361.612178 Z" fill="#F7C74D"/>
<path data-unit="source_078__contour_01" data-control="rig_handle_l" d="M70.763415,154.854348 L71.741872,154.795271 L78.87854,272.995667 L77.900083,273.054744 Z" fill="#856018"/>
<path data-unit="source_079__contour_01" data-control="rig_base" d="M319.814698,457.542751 L429.401897,450.926128 L429.463955,451.953957 L319.876756,458.57058 Z" fill="#70531F"/>
<path data-unit="source_080__contour_01" data-control="rig_eye_r" d="M331.457683,178.314133 L362.768311,176.423669 L362.830369,177.451499 L332.498198,179.282886 L334.608169,214.22909 L347.328112,213.461089 L347.203996,211.40543 L352.096281,211.110045 L352.158339,212.137874 L354.115254,212.01972 L354.177312,213.04755 L366.897254,212.279549 L366.959312,213.307378 L333.69177,215.315996 Z" fill="#181715"/>
<path data-unit="source_081__contour_01" data-control="rig_handle_l" d="M52.158259,139.472461 L53.136716,139.413384 L60.08721,254.530291 L59.108753,254.589368 Z" fill="#774E15"/>
<path data-unit="source_082__contour_01" data-control="rig_base" d="M301.209542,442.160864 L409.818284,435.603318 L409.880342,436.631148 L301.2716,443.188693 Z" fill="#674B18"/>
<path data-unit="source_083__contour_01" data-control="rig_mouth" d="M241.623118,282.891202 L360.715106,271.359072 L360.810867,272.384253 L241.718879,283.916383 Z" fill="#EAB43D"/>
<path data-unit="source_084__contour_01" data-control="rig_mouth" d="M241.527358,281.86602 L360.619345,270.333891 L360.715106,271.359072 L241.623118,282.891202 Z" fill="#FBD759"/>
<path data-unit="source_085__contour_01" data-control="rig_mouth" d="M241.431597,280.840839 L360.523584,269.30871 L360.619345,270.333891 L241.527358,281.86602 Z" fill="#5B4817"/>
<path data-unit="source_086__contour_01" data-control="rig_handle_l" d="M67.151525,290.20894 L124.880496,286.723398 L125.004612,288.779057 L125.983069,288.71998 L126.045127,289.747809 L125.06667,289.806886 L125.252844,292.890375 L124.274386,292.949452 L124.336444,293.977281 L123.357987,294.036358 L123.420045,295.064188 L122.441588,295.123265 L123.186284,307.457219 L125.143198,307.339065 L125.08114,306.311236 L128.016512,306.134005 L128.07857,307.161834 L131.992398,306.925526 L132.054456,307.953356 L122.269885,308.544126 L121.090783,289.015365 L120.112326,289.074442 L120.050268,288.046612 L67.213583,291.23677 Z" fill="#936A23"/>
<path data-unit="source_087__contour_01" data-control="rig_mouth" d="M242.045224,264.230155 L356.845609,253.113598 L357.132891,256.189141 L356.05999,256.293034 L355.96423,255.267853 L354.891329,255.371746 L354.795568,254.346565 L336.556254,256.112747 L336.652015,257.137928 L335.579115,257.241821 L335.483354,256.21664 L242.140985,265.255336 Z" fill="#171513"/>
<path data-unit="source_088__contour_01" data-control="rig_cup" d="M248.61497,302.978853 L355.266797,296.539461 L355.328855,297.567291 L248.677028,304.006683 Z" fill="#916822"/>
<path data-unit="source_089__contour_01" data-control="rig_handle_r" d="M489.944355,168.745072 L499.728926,168.154303 L502.149188,208.239654 L481.601588,209.480271 L481.53953,208.452442 L500.130215,207.329979 L497.896128,170.328116 L493.982299,170.564424 L493.920241,169.536594 L490.006413,169.772902 Z" fill="#F6F1DE"/>
<path data-unit="source_090__contour_01" data-control="rig_eye_r" d="M330.417167,177.34538 L366.620081,175.159532 L366.682139,176.187361 L331.457683,178.314133 L333.69177,215.315996 L367.937769,213.248301 L367.999827,214.276131 L332.775371,216.402903 Z" fill="#060706"/>
<path data-unit="source_091__contour_01" data-control="rig_cup" d="M388.112461,92.367332 L453.669088,88.409174 L456.275524,131.578014 L455.297066,131.637091 L452.752689,89.49608 L388.174519,93.395162 Z" fill="#F7C54E"/>
<path data-unit="source_092__contour_01" data-control="rig_cup" d="M140.376633,104.230322 L246.050003,97.850007 L246.112061,98.877836 L140.438691,105.258151 Z" fill="#946C23"/>
<path data-unit="source_093__contour_01" data-control="rig_base" d="M176.682785,429.047974 L185.488899,428.516281 L185.550957,429.544111 L177.7233,430.016726 L179.398865,457.768124 L181.35578,457.64997 L181.479895,459.705629 L182.458353,459.646552 L182.520411,460.674381 L183.498868,460.615304 L183.560926,461.643134 L187.474754,461.406826 L187.536812,462.434656 L188.515269,462.375579 L188.453211,461.347749 L189.431668,461.288672 L189.617842,464.372161 L190.5963,464.313084 L190.720415,466.368743 L178.97893,467.077667 Z" fill="#624715"/>
<path data-unit="source_094__contour_01" data-control="rig_handle_r" d="M516.939866,127.915241 L517.918323,127.856164 L524.558527,237.833923 L523.58007,237.893 Z" fill="#916C1F"/>
<path data-unit="source_095__contour_01" data-control="rig_base" d="M196.51463,448.482102 L300.231085,442.219941 L300.293143,443.24777 L196.576688,449.509931 Z" fill="#674B18"/>
<path data-unit="source_096__contour_01" data-control="rig_base" d="M212.560938,405.218628 L316.277393,398.956467 L316.339451,399.984297 L212.622996,406.246458 Z" fill="#DFB03A"/>
<path data-unit="source_097__contour_01" data-control="rig_handle_l" d="M103.997841,184.8266 L104.976298,184.767523 L105.100414,186.823182 L108.035785,186.645951 L107.973727,185.618121 L108.952184,185.559044 L109.014242,186.586874 L109.992699,186.527797 L110.116815,188.583456 L119.901387,187.992686 L119.963445,189.020515 L118.984987,189.079592 L119.171161,192.163081 L118.192704,192.222158 L118.502994,197.361306 L117.524537,197.420383 L118.269233,209.754337 L117.290776,209.813414 L116.173732,191.312482 L103.453789,192.080483 L103.391731,191.052654 L102.413274,191.111731 L102.351216,190.083901 L99.415845,190.261132 L99.353787,189.233303 L100.332244,189.174226 L100.270186,188.146396 L99.291729,188.205473 L99.229671,187.177644 L100.208128,187.118567 L100.14607,186.090737 L101.124527,186.03166 L101.186585,187.05949 L102.165042,187.000413 L102.102984,185.972583 L104.059899,185.854429 Z" fill="#936A22"/>
<path data-unit="source_098__contour_01" data-control="rig_shine" d="M152.538619,133.112697 L153.645932,132.903255 L153.85195,134.067287 L158.281203,133.229519 L158.48722,134.393551 L159.594533,134.184109 L159.388516,133.020077 L160.495829,132.810635 L160.289812,131.646602 L162.504438,131.227718 L162.710456,132.39175 L164.925082,131.972866 L165.131099,133.136899 L164.023786,133.346341 L164.435821,135.674406 L163.328508,135.883848 L163.534526,137.04788 L164.641839,136.838438 L165.259891,140.330536 L164.152578,140.539978 L164.564613,142.868043 L160.13536,143.705811 L160.341378,144.869844 L154.804811,145.917054 L154.598794,144.753022 L153.491481,144.962464 L151.637323,134.486171 L152.744636,134.276729 Z" fill="#FCFCFC"/>
<path data-unit="source_099__contour_01" data-control="rig_handle_l" d="M107.156679,90.762419 L108.135136,90.703342 L110.803629,134.900012 L53.074658,138.385555 L53.136716,139.413384 L51.179802,139.531538 L51.117744,138.503708 L52.096201,138.444632 L52.034143,137.416802 L109.763114,133.93126 Z" fill="#CDC2AD"/>
<path data-unit="source_100__contour_01" data-control="rig_cup" d="M326.469662,96.089182 L387.134004,92.426409 L387.196062,93.454239 L327.510177,97.057935 L328.875452,119.670185 L308.327853,120.910801 L308.265795,119.882972 L327.834937,118.701432 Z" fill="#D18B3D"/>
<path data-unit="source_101__contour_01" data-control="rig_cup" d="M274.971255,300.355945 L375.752339,294.271015 L375.814397,295.298845 L275.033313,301.383775 Z" fill="#7D5816"/>
<path data-unit="source_102__contour_01" data-control="rig_handle_r" d="M498.611883,149.653371 L499.59034,149.594294 L500.521209,165.011737 L502.478124,164.893583 L502.540182,165.921413 L503.518639,165.862336 L503.580697,166.890165 L505.537611,166.772011 L505.599669,167.799841 L506.578126,167.740764 L506.702242,169.796423 L505.723785,169.8555 L505.785843,170.883329 L504.807386,170.942406 L504.869444,171.970236 L503.890987,172.029313 L503.953045,173.057142 L502.974588,173.116219 L503.098704,175.171878 L504.077161,175.112801 L504.139219,176.140631 L503.160761,176.199708 L503.533109,182.366685 L504.511566,182.307608 L504.573624,183.335438 L503.595167,183.394515 L503.905457,188.533662 L502.927,188.592739 L504.044044,207.093671 L503.065587,207.152748 L500.769441,169.123055 L499.790984,169.182132 Z" fill="#F3BE4B"/>
<path data-unit="source_103__contour_01" data-control="rig_handle_r" d="M472.021837,164.669311 L474.957208,164.49208 L475.019266,165.519909 L477.954638,165.342678 L477.89258,164.314849 L478.871037,164.255772 L479.119269,168.36709 L478.140811,168.426167 L478.202869,169.453996 L476.245955,169.57215 L478.480042,206.574013 L475.544671,206.751244 L475.482613,205.723415 L474.504156,205.782492 L474.442098,204.754662 L473.463641,204.813739 L473.339525,202.75808 L474.317982,202.699003 L474.255924,201.671174 L476.212838,201.55302 L476.15078,200.52519 L477.129237,200.466113 L476.943064,197.382625 L475.964606,197.441702 L476.026664,198.469531 L474.06975,198.587685 L474.007692,197.559856 L474.986149,197.500779 L474.924091,196.472949 L475.902548,196.413872 L475.84049,195.386043 L476.818948,195.326966 L475.453672,172.714716 L473.496758,172.83287 L473.4347,171.80504 L472.456243,171.864117 L472.394185,170.836288 L471.415728,170.895365 L471.35367,169.867535 L470.375212,169.926612 L470.251096,167.870953 L471.229554,167.811876 L471.167496,166.784047 L472.145953,166.72497 Z" fill="#916A22"/>
<path data-unit="source_104__contour_01" data-control="rig_base" d="M343.359727,457.152732 L443.162355,451.12688 L443.224413,452.154709 L343.421785,458.180562 Z" fill="#62420F"/>
<path data-unit="source_105__contour_01" data-control="rig_base" d="M338.595733,394.514208 L339.574191,394.455131 L339.636249,395.482961 L394.429848,392.174649 L394.36779,391.14682 L395.346247,391.087743 L395.408305,392.115572 L403.235962,391.642956 L403.29802,392.670786 L305.452307,398.578485 L305.390249,397.550655 L338.657791,395.542038 Z" fill="#8D6723"/>
<path data-unit="source_106__contour_01" data-control="rig_stem" d="M384.368103,355.645402 L399.04496,354.759247 L400.28612,375.315838 L409.092234,374.784145 L409.154292,375.811974 L414.046578,375.516589 L414.108636,376.544419 L413.130179,376.603496 L413.192237,377.631326 L410.256865,377.808556 L410.318923,378.836386 L409.340466,378.895463 L409.402524,379.923293 L408.424067,379.98237 L408.362009,378.95454 L406.405095,379.072694 L406.467153,380.100523 L405.488696,380.1596 L405.550753,381.18743 L403.593839,381.305584 L403.531781,380.277754 L401.574867,380.395908 L401.512809,379.368079 L399.555895,379.486233 L399.493837,378.458403 L398.51538,378.51748 L398.453322,377.489651 L396.496407,377.607805 L396.372291,375.552146 L398.329206,375.433992 L398.20509,373.378333 L399.183547,373.319256 L398.128561,355.846154 L384.430161,356.673232 Z" fill="#805C1F"/>
<path data-unit="source_107__contour_01" data-control="rig_cup" d="M335.511481,294.637513 L433.357194,288.729814 L433.419251,289.757643 L335.573539,295.665342 Z" fill="#F4BF46"/>
<path data-unit="source_108__contour_01" data-control="rig_handle_r" d="M453.669088,88.409174 L454.647546,88.350097 L457.253981,131.518937 L474.866209,130.455551 L474.928267,131.483381 L457.316039,132.546767 L458.49514,152.075528 L456.538226,152.193682 L455.297066,131.637091 L456.275524,131.578014 Z" fill="#D3A53B"/>
<path data-unit="source_109__contour_01" data-control="rig_base" d="M212.885698,426.862125 L309.752954,421.013503 L309.815012,422.041333 L212.947756,427.889955 Z" fill="#845E18"/>
<path data-unit="source_110__contour_01" data-control="rig_handle_r" d="M471.066202,51.2536 L511.182944,48.831444 L514.844365,109.473386 L513.865908,109.532463 L510.266545,49.91835 L471.12826,52.28143 Z" fill="#9E814F"/>
<path data-unit="source_111__contour_01" data-control="rig_mouth" d="M240.876562,263.308867 L346.02084,253.127347 L346.116601,254.152528 L240.972323,264.334048 Z" fill="#0C0A0A"/>
<path data-unit="source_112__contour_01" data-control="rig_handle_r" d="M472.106717,52.222353 L510.266545,49.91835 L513.431502,102.337656 L512.453045,102.396733 L509.350146,51.005257 L473.147232,53.191105 L473.643696,61.413742 L472.665239,61.472819 Z" fill="#805912"/>
<path data-unit="source_113__contour_01" data-control="rig_base" d="M309.752954,421.013503 L403.684838,415.342112 L403.746896,416.369942 L309.815012,422.041333 Z" fill="#845D18"/>
<path data-unit="source_114__contour_01" data-control="rig_eye_l" d="M219.470151,193.969514 L252.737694,191.960896 L253.901704,211.239705 L246.074047,211.712321 L246.041713,211.176798 L247.998628,211.058644 L247.93396,209.987599 L248.912417,209.928522 L248.880084,209.393 L249.858541,209.333923 L249.826207,208.7984 L250.804664,208.739323 L250.772331,208.203801 L251.750788,208.144724 L251.718454,207.609202 L252.696912,207.550125 L251.79157,192.555496 L219.502485,194.505037 Z" fill="#191814"/>
<path data-unit="source_115__contour_01" data-control="rig_cup" d="M308.327853,120.910801 L327.896995,119.729262 L327.959053,120.757091 L310.346825,121.820477 L311.525927,141.349238 L310.547469,141.408315 L310.609527,142.436144 L274.406614,144.621993 L274.344556,143.594164 L309.569012,141.467392 Z" fill="#F5C750"/>
<path data-unit="source_116__contour_01" data-control="rig_cup" d="M386.079018,74.953307 L459.463303,70.522533 L459.525361,71.550362 L389.076447,75.803906 L389.200563,77.859565 L387.243649,77.977719 L388.112461,92.367332 L387.134004,92.426409 Z" fill="#926826"/>
<path data-unit="source_117__contour_01" data-control="rig_cup" d="M110.154108,91.613018 L200.172164,86.177935 L200.234222,87.205764 L172.837422,88.85992 L172.89948,89.88775 L170.942566,90.005904 L170.880508,88.978074 L132.72068,91.282077 L132.782738,92.309906 L131.804281,92.368983 L131.742223,91.341154 L110.216166,92.640847 Z" fill="#916A26"/>
<path data-unit="source_118__contour_01" data-control="rig_cup" d="M157.057992,87.749493 L250.011419,82.137179 L250.073477,83.165008 L157.12005,88.777322 Z" fill="#82580F"/>
<path data-unit="source_119__contour_01" data-control="rig_base" d="M353.206357,457.589792 L444.20287,452.095632 L444.264928,453.123462 L353.268415,458.617622 Z" fill="#8C7759"/>
<path data-unit="source_120__contour_01" data-control="rig_base" d="M306.693467,419.135075 L397.68998,413.640915 L397.752038,414.668745 L306.755525,420.162905 Z" fill="#F0BC46"/>
<path data-unit="source_121__contour_01" data-control="rig_mouth" d="M242.408737,279.711765 L341.115609,270.153604 L341.21137,271.178785 L242.504497,280.736946 Z" fill="#0C0D0A"/>
<path data-unit="source_122__contour_01" data-control="rig_cup" d="M108.135136,90.703342 L157.057992,87.749493 L157.12005,88.777322 L109.175651,91.672095 L111.782086,134.840935 L110.803629,134.900012 Z" fill="#78500D"/>
<path data-unit="source_123__contour_01" data-control="rig_stem" d="M230.888921,383.480498 L319.92852,378.104492 L319.990577,379.132321 L230.950979,384.508327 Z" fill="#F8C549"/>
<path data-unit="source_124__contour_01" data-control="rig_stem" d="M265.449386,321.562383 L266.427843,321.503306 L267.606945,341.032067 L268.585402,340.97299 L268.523344,339.94516 L269.501801,339.886083 L269.563859,340.913913 L270.542316,340.854836 L270.666432,342.910495 L269.687975,342.969572 L269.812091,345.025231 L268.833634,345.084308 L268.895692,346.112137 L267.917235,346.171214 L267.979293,347.199044 L267.000835,347.258121 L267.062893,348.28595 L266.084436,348.345027 L266.146494,349.372857 L265.168037,349.431934 L265.105979,348.404104 L259.235236,348.758566 L259.11112,346.702907 L258.132663,346.761984 L257.946489,343.678496 L256.968032,343.737573 L256.905974,342.709743 L266.690546,342.118973 Z" fill="#825C1A"/>
<path data-unit="source_125__contour_01" data-control="rig_base" d="M294.674808,382.723982 L382.73595,377.407053 L382.798008,378.434883 L294.736866,383.751812 Z" fill="#936922"/>
<path data-unit="source_126__contour_01" data-control="rig_cup" d="M385.954902,72.897648 L472.059129,67.698873 L472.121187,68.726702 L386.01696,73.925477 Z" fill="#C9B99C"/>
<path data-unit="source_127__contour_01" data-control="rig_base" d="M316.277393,398.956467 L401.403164,393.816769 L401.465222,394.844599 L316.339451,399.984297 Z" fill="#E2B33E"/>
<path data-unit="source_128__contour_01" data-control="rig_base" d="M213.353221,402.076063 L214.331678,402.016986 L214.393736,403.044815 L232.005965,401.981429 L231.943907,400.9536 L232.922364,400.894523 L232.984422,401.922352 L295.605678,398.141425 L295.667736,399.169255 L212.49888,404.190799 L212.436822,403.162969 L213.415279,403.103892 Z" fill="#906923"/>
<path data-unit="source_129__contour_01" data-control="rig_handle_r" d="M464.390649,249.719333 L524.076533,246.115637 L524.138591,247.143466 L465.431164,250.688086 L466.175859,263.02204 L469.111231,262.844809 L469.235347,264.900468 L468.25689,264.959545 L468.318948,265.987375 L467.340491,266.046452 L467.402548,267.074281 L466.424091,267.133358 L466.486149,268.161188 L465.507692,268.220265 Z" fill="#7F5D1B"/>
<path data-unit="source_130__contour_01" data-control="rig_handle_l" d="M84.151525,148.888122 L86.108439,148.769968 L86.232555,150.825627 L89.167927,150.648396 L89.229985,151.676226 L92.165356,151.498995 L92.227414,152.526824 L129.408785,150.281899 L129.470843,151.309728 L76.634158,154.499886 L76.510042,152.444227 L78.466956,152.326073 L78.404898,151.298243 L80.361812,151.180089 L80.299754,150.15226 L81.278212,150.093183 L81.34027,151.121012 L83.297184,151.002858 L83.235126,149.975029 L84.213583,149.915952 Z" fill="#936B1B"/>
<path data-unit="source_131__contour_01" data-control="rig_stem" d="M339.081902,321.242926 L340.06036,321.183849 L340.37065,326.322997 L341.349107,326.26392 L341.783513,333.458727 L340.805055,333.517804 L341.053287,337.629122 L359.643973,336.506659 L359.706031,337.534489 L351.878374,338.007105 L351.940432,339.034934 L350.961975,339.094011 L351.024033,340.121841 L350.045575,340.180918 L350.107633,341.208747 L349.129176,341.267824 L349.191234,342.295654 L347.23432,342.413808 L347.110204,340.358149 L346.131747,340.417226 L346.193805,341.445055 L344.236891,341.563209 L344.174833,340.53538 L340.261004,340.771688 L340.198946,339.743858 L339.220489,339.802935 L339.096373,337.747276 L337.139459,337.86543 L337.015343,335.809771 L337.9938,335.750694 L337.869684,333.695035 L338.848141,333.635958 L338.786083,332.608128 L339.76454,332.549051 Z" fill="#8D692C"/>
<path data-unit="source_132__contour_01" data-control="rig_handle_r" d="M497.633425,149.712448 L498.611883,149.653371 L499.728926,168.154303 L490.922812,168.685996 L490.860754,167.658166 L489.882297,167.717243 L489.758181,165.661584 L487.801267,165.779738 L487.677151,163.724079 L486.698694,163.783156 L486.574578,161.727497 L497.337606,161.07765 L497.585838,165.188968 L498.564295,165.129891 Z" fill="#966D1F"/>
<path data-unit="source_133__contour_01" data-control="rig_cup" d="M160.429713,306.240123 L243.598569,301.218579 L243.660627,302.246409 L160.491771,307.267953 Z" fill="#E6BA48"/>
<path data-unit="source_134__contour_01" data-control="rig_handle_l" d="M73.541554,184.602327 L74.520011,184.54325 L79.794939,271.90876 L78.816482,271.967837 Z" fill="#F2C44E"/>
<path data-unit="source_135__contour_01" data-control="rig_handle_l" d="M135.070532,260.318736 L136.048989,260.259659 L136.607511,269.510124 L118.995282,270.57351 L118.933224,269.545681 L125.782424,269.132142 L125.720366,268.104312 L124.741909,268.163389 L124.679851,267.13556 L125.658308,267.076483 L125.534192,265.020824 L126.512649,264.961747 L126.450591,263.933917 L127.429049,263.87484 L127.366991,262.847011 L131.280819,262.610703 L131.342877,263.638532 L132.321334,263.579455 L132.259276,262.551626 L134.216191,262.433472 L134.154133,261.405642 L135.13259,261.346565 Z" fill="#CD9B2F"/>
<path data-unit="source_136__contour_01" data-control="rig_handle_r" d="M510.820891,124.158384 L511.799348,124.099307 L511.861406,125.127137 L516.753692,124.831752 L516.81575,125.859582 L517.794207,125.800505 L517.918323,127.856164 L460.189352,131.341706 L460.127294,130.313877 L505.136322,127.596335 L505.012206,125.540676 L505.990663,125.481599 L506.052721,126.509428 L507.031178,126.450351 L506.96912,125.422522 L510.882949,125.186214 Z" fill="#956E1E"/>
<path data-unit="source_137__contour_01" data-control="rig_hair" d="M304.74296,77.801038 L385.954902,72.897648 L386.01696,73.925477 L304.805018,78.828868 Z" fill="#EFB944"/>
<path data-unit="source_137__contour_01" data-control="rig_hair" d="M315.595722,80.582606 L396.629283,88.907651 L396.539548,89.932279 L315.505987,81.607234 Z" fill="#C57870"/>
<path data-unit="source_138__contour_01" data-control="rig_stem" d="M379.475818,355.940787 L380.454275,355.88171 L381.695435,376.438301 L380.716977,376.497378 L380.654919,375.469548 L319.990577,379.132321 L319.92852,378.104492 L380.592861,374.441719 Z" fill="#F7C348"/>
<path data-unit="source_139__contour_01" data-control="rig_shine" d="M146.177983,129.503777 L166.109621,125.73382 L170.023953,147.850437 L164.487387,148.897648 L164.28137,147.733615 L168.710623,146.895847 L167.886553,142.239717 L164.564613,142.868043 L164.152578,140.539978 L165.259891,140.330536 L164.641839,136.838438 L163.534526,137.04788 L163.328508,135.883848 L164.435821,135.674406 L164.023786,133.346341 L165.131099,133.136899 L165.337117,134.300931 L166.44443,134.091489 L165.208325,127.107294 L147.491313,130.458367 L150.787593,149.082888 L153.00222,148.664003 L153.208237,149.828036 L154.315551,149.618594 L154.521568,150.782626 L151.199628,151.410953 L151.405646,152.574985 L150.298333,152.784427 Z" fill="#FDFCF9"/>
<path data-unit="source_140__contour_01" data-control="rig_cup" d="M327.510177,97.057935 L387.196062,93.454239 L387.25812,94.482068 L328.550692,98.026687 L329.85391,119.611108 L328.875452,119.670185 Z" fill="#F8C84F"/>
<path data-unit="source_141__contour_01" data-control="rig_stem" d="M358.727574,337.593566 L359.706031,337.534489 L360.885132,357.06325 L348.16519,357.831251 L348.041074,355.775592 L349.019531,355.716515 L348.895415,353.660856 L350.852329,353.542702 L350.790271,352.514872 L351.768728,352.455795 L351.70667,351.427965 L352.685127,351.368888 L352.747185,352.396718 L355.682557,352.219487 L355.620499,351.191658 L357.577413,351.073504 L357.515355,350.045674 L359.472269,349.92752 Z" fill="#815C19"/>
<path data-unit="source_142__contour_01" data-control="rig_handle_l" d="M60.364383,291.650309 L62.321297,291.532155 L62.383355,292.559984 L120.112326,289.074442 L121.353486,309.631032 L120.375028,309.690109 L119.195927,290.161348 L61.466956,293.646891 L61.404898,292.619061 L60.426441,292.678138 Z" fill="#CDC0A8"/>
<path data-unit="source_143__contour_01" data-control="rig_mouth" d="M217.694851,246.933467 L239.152867,244.855606 L240.876562,263.308867 L219.418547,265.386728 L219.322786,264.361547 L237.562099,262.595365 L236.317208,249.26801 L235.244307,249.371903 L235.148546,248.346722 L226.56534,249.177866 L226.469579,248.152685 L237.198587,247.113755 L238.635,262.491472 L239.707901,262.387579 L238.175727,245.98468 L217.790612,247.958649 Z" fill="#332E19"/>
<path data-unit="source_144__contour_01" data-control="rig_handle_r" d="M479.78326,228.158434 L497.395488,227.095048 L497.457546,228.122877 L491.586804,228.477339 L491.648862,229.505169 L493.605776,229.387015 L493.667834,230.414844 L488.775548,230.710229 L488.837606,231.738059 L487.859149,231.797136 L487.921207,232.824965 L486.94275,232.884042 L487.004808,233.911872 L486.026351,233.970949 L486.088409,234.998778 L485.109952,235.057855 L485.17201,236.085685 L484.193552,236.144762 L484.25561,237.172591 L482.298696,237.290745 L482.236638,236.262916 L480.279724,236.38107 Z" fill="#ECB540"/>
<path data-unit="source_145__contour_01" data-control="rig_handle_r" d="M476.245955,169.57215 L477.224412,169.513073 L479.706732,210.626255 L494.383588,209.7401 L494.445646,210.767929 L493.467189,210.827006 L493.529247,211.854836 L492.55079,211.913913 L492.488732,210.886083 L485.639532,211.299622 L485.70159,212.327452 L486.680047,212.268375 L486.742105,213.296204 L485.763648,213.355281 L485.825706,214.383111 L484.847249,214.442188 L484.909307,215.470017 L483.93085,215.529094 L483.806734,213.473435 L484.785191,213.414358 L484.723133,212.386529 L482.766219,212.504683 L482.828277,213.532512 L480.871363,213.650666 L480.747247,211.595007 L479.76879,211.654084 L480.017021,215.765402 L479.038564,215.824479 L478.914448,213.76882 L477.935991,213.827897 L477.873933,212.800068 L476.895476,212.859145 L476.647244,208.747826 L477.625701,208.688749 L477.687759,209.716579 L478.666216,209.657502 Z" fill="#7F5715"/>
<path data-unit="source_146__contour_01" data-control="rig_stem" d="M282.999556,319.471167 L322.137841,317.108088 L324.682219,359.249098 L323.703761,359.308175 L321.221442,318.194994 L283.061614,320.498997 Z" fill="#BE9433"/>
<path data-unit="source_147__contour_01" data-control="rig_cup" d="M138.965714,308.567647 L139.944171,308.50857 L140.440635,316.731206 L141.419092,316.672129 L142.10173,327.978254 L191.024586,325.024404 L191.086644,326.052234 L141.185331,329.06516 L141.123273,328.037331 L140.144816,328.096408 L139.71041,320.901601 L140.688867,320.842524 L140.626809,319.814694 L139.648352,319.873771 Z" fill="#B9A483"/>
<path data-unit="source_148__contour_01" data-control="rig_base" d="M275.908244,462.256874 L353.206357,457.589792 L353.268415,458.617622 L275.970302,463.284704 Z" fill="#8B7554"/>
<path data-unit="source_149__contour_01" data-control="rig_cup" d="M445.02215,270.488711 L464.591293,269.307171 L464.653351,270.335001 L446.062666,271.457463 L447.179709,289.958395 L448.158166,289.899318 L448.282282,291.954977 L447.303825,292.014054 L447.365883,293.041884 L444.430512,293.219114 L444.49257,294.246944 L443.514113,294.306021 L443.576171,295.333851 L442.597714,295.392928 L442.659772,296.420757 L441.681314,296.479834 L441.619256,295.452005 L440.640799,295.511082 L440.702857,296.538911 L439.7244,296.597988 L439.538226,293.514499 L437.581312,293.632653 L437.64337,294.660483 L435.686456,294.778637 L435.624398,293.750807 L434.645941,293.809884 L434.583883,292.782055 L435.56234,292.722978 L435.500282,291.695148 L446.26331,291.045301 Z" fill="#815D1A"/>
<path data-unit="source_150__contour_01" data-control="rig_base" d="M195.58376,433.064659 L196.562217,433.005582 L197.368971,446.367366 L259.990227,442.586438 L260.052285,443.614268 L196.452572,447.454272 Z" fill="#956C21"/>
<path data-unit="source_151__contour_01" data-control="rig_handle_r" d="M477.224412,169.513073 L479.181327,169.394919 L481.601588,209.480271 L479.644674,209.598425 Z" fill="#E8E2D6"/>
<path data-unit="source_152__contour_01" data-control="rig_handle_l" d="M113.238361,191.489713 L115.195275,191.371559 L117.615536,231.456911 L115.658622,231.575065 Z" fill="#E0DBCE"/>
<path data-unit="source_153__contour_01" data-control="rig_cup" d="M261.148739,299.127364 L335.511481,294.637513 L335.573539,295.665342 L261.210797,300.155193 Z" fill="#F5C047"/>
<path data-unit="source_154__contour_01" data-control="rig_eye_l" d="M254.662274,191.30722 L255.640732,191.248143 L256.934076,212.669041 L220.731162,214.85489 L220.698829,214.319367 L255.923285,212.192596 Z" fill="#F9D24D"/>
<path data-unit="source_155__contour_01" data-control="rig_eye_l" d="M217.44857,193.016623 L254.629941,190.771698 L255.890952,211.657073 L254.912495,211.71615 L253.683817,191.366297 L217.480904,193.552146 Z" fill="#6B5C23"/>
<path data-unit="source_156__contour_01" data-control="rig_handle_l" d="M93.669218,192.671253 L112.259904,191.54879 L112.321962,192.57662 L94.709733,193.640006 L97.005879,231.669698 L115.596564,230.547235 L115.658622,231.575065 L96.089479,232.756605 Z" fill="#FAF9F5"/>
<path data-unit="source_157__contour_01" data-control="rig_cup" d="M108.073078,89.675513 L182.435819,85.185662 L182.497877,86.213491 L108.135136,90.703342 Z" fill="#C4B393"/>
<path data-unit="source_158__contour_01" data-control="rig_stem" d="M191.024586,325.024404 L264.408871,320.59363 L264.470929,321.621459 L191.086644,326.052234 Z" fill="#BFA983"/>
<path data-unit="source_159__contour_01" data-control="rig_stem" d="M261.16321,315.631713 L262.141667,315.572636 L262.203725,316.600466 L263.182182,316.541389 L263.120124,315.513559 L266.055495,315.336328 L266.179611,317.391987 L272.050354,317.037525 L272.112412,318.065355 L274.069326,317.947201 L274.193442,320.00286 L265.387328,320.534553 L266.690546,342.118973 L265.712088,342.17805 L264.346813,319.5658 L256.519156,320.038416 L256.457098,319.010587 L257.435555,318.95151 L257.373497,317.92368 L258.351954,317.864603 L258.289896,316.836774 L259.268353,316.777697 L259.330411,317.805526 L260.308868,317.746449 L260.24681,316.71862 L261.225268,316.659543 Z" fill="#967232"/>
<path data-unit="source_160__contour_01" data-control="rig_handle_r" d="M455.559769,152.252759 L456.538226,152.193682 L461.192575,229.280896 L460.214118,229.339973 Z" fill="#EBB63D"/>
<path data-unit="source_161__contour_01" data-control="rig_handle_r" d="M457.516683,152.134605 L458.49514,152.075528 L463.149489,229.162742 L462.171032,229.221819 Z" fill="#B69032"/>
<path data-unit="source_162__contour_01" data-control="rig_handle_r" d="M456.538226,152.193682 L457.516683,152.134605 L462.171032,229.221819 L461.192575,229.280896 Z" fill="#F9CA4E"/>
<path data-unit="source_163__contour_01" data-control="rig_cup" d="M463.875538,289.981916 L464.853996,289.922839 L465.971039,308.42377 L464.992582,308.482847 L464.930524,307.455018 L454.167496,308.104865 L454.105438,307.077035 L455.083895,307.017958 L455.021837,305.990128 L456.000294,305.931052 L455.938236,304.903222 L463.765893,304.430606 L463.207371,295.18014 L462.228914,295.239217 L462.290972,296.267047 L461.312515,296.326124 L461.374573,297.353953 L459.417659,297.472107 L459.355601,296.444278 L458.377144,296.503355 L458.253028,294.447696 L459.231485,294.388619 L459.169427,293.360789 L462.104798,293.183558 L462.166856,294.211388 L463.145313,294.152311 L463.083255,293.124481 L464.061712,293.065404 Z" fill="#87631F"/>
<path data-unit="source_164__contour_01" data-control="rig_hair_fringe" d="M307.287338,119.942049 L308.265795,119.882972 L309.506954,140.439562 L274.282498,142.566334 L273.103396,123.037573 L274.081853,122.978496 L275.198897,141.479427 L308.466439,139.47081 Z" fill="#EFB944"/>
<path data-unit="source_164__contour_01" data-control="rig_hair_fringe" d="M313.532188,125.707131 L314.479812,125.97709 L309.450347,145.847124 L275.335893,136.128591 L280.113884,117.252058 L281.061508,117.522017 L276.53499,135.405048 L308.754197,144.583663 Z" fill="#922615"/>
<path data-unit="source_165__contour_01" data-control="rig_base" d="M401.403164,393.816769 L402.381621,393.757692 L403.684838,415.342112 L402.706381,415.401189 L401.52728,395.872428 L351.625966,398.885355 L351.563908,397.857525 L401.465222,394.844599 Z" fill="#F5C34C"/>
<path data-unit="source_166__contour_01" data-control="rig_cup" d="M375.752339,294.271015 L446.201252,290.017472 L446.26331,291.045301 L375.814397,295.298845 Z" fill="#7F5A16"/>
<path data-unit="source_167__contour_01" data-control="rig_eye_l" d="M218.459361,193.493069 L253.683817,191.366297 L254.880161,211.180628 L253.901704,211.239705 L252.737694,191.960896 L218.491694,194.028591 Z" fill="#080807"/>
<path data-unit="source_168__contour_01" data-control="rig_base" d="M400.066829,404.213219 L401.045286,404.154142 L401.665866,414.432437 L399.708952,414.550591 L399.77101,415.57842 L360.632725,417.9415 L360.570667,416.91367 L397.752038,414.668745 L397.627922,412.613086 L396.649465,412.672163 L396.525349,410.616504 L397.503806,410.557427 L397.441748,409.529597 L398.420205,409.47052 L398.358147,408.442691 L399.336604,408.383614 L399.274546,407.355784 L400.253003,407.296707 Z" fill="#ECBA48"/>
<path data-unit="source_169__contour_01" data-control="rig_eye_l" d="M218.556362,195.099636 L219.534819,195.040559 L220.634162,213.248322 L254.880161,211.180628 L254.912495,211.71615 L219.688038,213.842922 Z" fill="#070A07"/>
<path data-unit="source_170__contour_01" data-control="rig_mouth" d="M357.076192,232.402189 L379.607109,230.220435 L379.894392,233.295978 L380.967292,233.192085 L381.254575,236.267628 L383.400377,236.059842 L383.496138,237.085023 L381.350336,237.29281 L381.541858,239.343172 L380.468957,239.447065 L381.235044,247.648514 L382.307945,247.544621 L382.786749,252.670527 L381.713848,252.77442 L381.426566,249.698876 L380.353665,249.802769 L380.257904,248.777588 L379.185003,248.881481 L377.557068,231.453402 L357.171953,233.42737 Z" fill="#F3C74B"/>
<path data-unit="source_171__contour_01" data-control="rig_handle_r" d="M457.316039,132.546767 L474.928267,131.483381 L474.990325,132.51121 L462.270382,133.279211 L462.64273,139.446188 L461.664273,139.505265 L461.788389,141.560924 L460.809932,141.620001 L460.87199,142.647831 L459.893533,142.706908 L459.955591,143.734737 L458.977134,143.793814 L459.473597,152.016451 L458.49514,152.075528 Z" fill="#CE9B2F"/>
<path data-unit="source_172__contour_01" data-control="rig_handle_l" d="M71.741872,154.795271 L111.858615,152.373114 L111.920672,153.400944 L72.782387,155.764023 L74.520011,184.54325 L73.541554,184.602327 Z" fill="#F4C551"/>
<path data-unit="source_173__contour_01" data-control="rig_base" d="M196.452572,447.454272 L262.987656,443.437037 L263.049714,444.464867 L196.51463,448.482102 Z" fill="#73541B"/>
<path data-unit="source_174__contour_01" data-control="rig_stem" d="M380.454275,355.88171 L384.368103,355.645402 L384.616335,359.75672 L385.594792,359.697643 L385.65685,360.725473 L386.635308,360.666396 L386.821482,363.749884 L385.843024,363.808961 L385.905082,364.836791 L384.926625,364.895868 L384.988683,365.923697 L383.031769,366.041851 L383.652349,376.320147 L381.695435,376.438301 Z" fill="#906B23"/>
<path data-unit="source_175__contour_01" data-control="rig_hair_fringe" d="M274.081853,122.978496 L275.06031,122.919419 L276.115296,140.392521 L307.425924,138.502057 L306.370938,121.028955 L307.349396,120.969878 L308.466439,139.47081 L275.198897,141.479427 Z" fill="#EFB944"/>
<path data-unit="source_175__contour_01" data-control="rig_hair_fringe" d="M281.061508,117.522017 L282.009131,117.791977 L277.734087,134.681506 L308.058046,143.320202 L312.333091,126.430673 L313.280715,126.700632 L308.754197,144.583663 L276.53499,135.405048 Z" fill="#AB3829"/>
<path data-unit="source_176__contour_01" data-control="rig_stem" d="M334.032384,351.463522 L335.010841,351.404445 L335.134957,353.460104 L336.113414,353.401027 L336.175472,354.428856 L338.132386,354.310702 L338.194444,355.338532 L339.172902,355.279455 L339.110844,354.251625 L342.046215,354.074394 L342.108273,355.102224 L343.08673,355.043147 L343.148788,356.070976 L345.105702,355.952823 L345.16776,356.980652 L343.210846,357.098806 L343.272904,358.126636 L333.488333,358.717405 L333.426275,357.689576 L327.555532,358.044038 L327.493474,357.016208 L328.471931,356.957131 L328.409873,355.929302 L329.38833,355.870225 L329.326272,354.842395 L330.304729,354.783318 L330.242671,353.755489 L331.221129,353.696412 L331.159071,352.668582 L334.094442,352.491351 Z" fill="#8F681D"/>
<path data-unit="source_177__contour_01" data-control="rig_stem" d="M279.147786,320.735305 L283.061614,320.498997 L285.481876,360.584348 L284.503418,360.643425 L284.379302,358.587766 L283.400845,358.646843 L283.338787,357.619014 L282.36033,357.678091 L282.236214,355.622432 L281.257757,355.681509 L281.195699,354.653679 L282.174156,354.594602 L282.05004,352.538943 L281.071583,352.59802 L280.947467,350.542361 L281.925924,350.483284 L281.863866,349.455455 L282.842323,349.396378 L282.780265,348.368548 L283.758723,348.309471 L282.207273,322.613733 L279.271902,322.790964 Z" fill="#835F1A"/>
<path data-unit="source_178__contour_01" data-control="rig_handle_l" d="M130.993351,143.996768 L134.90718,143.76046 L135.341586,150.955266 L134.363128,151.014343 L134.425186,152.042173 L132.468272,152.160327 L132.406214,151.132497 L130.4493,151.250651 L130.883706,158.445458 L131.862163,158.386381 L132.048337,161.46987 L131.06988,161.528947 L131.256054,164.612435 L130.277597,164.671512 L129.532901,152.337558 L111.920672,153.400944 L111.858615,152.373114 L129.470843,151.309728 L129.408785,150.281899 L131.365699,150.163745 Z" fill="#EDB846"/>
<path data-unit="source_179__contour_01" data-control="rig_cup" d="M200.172164,86.177935 L250.073477,83.165008 L251.004347,98.582451 L250.02589,98.641528 L249.157078,84.251915 L201.212679,87.146687 L201.274737,88.174517 L200.29628,88.233594 Z" fill="#916A26"/>
<path data-unit="source_180__contour_01" data-control="rig_base" d="M231.075095,386.563986 L294.674808,382.723982 L294.736866,383.751812 L231.137153,387.591816 Z" fill="#926822"/>
<path data-unit="source_181__contour_01" data-control="rig_mouth" d="M243.098594,275.507147 L246.317296,275.195468 L246.508818,277.245831 L247.581719,277.141938 L247.67748,278.167119 L297.030916,273.388038 L297.126677,274.413219 L242.408737,279.711765 L242.504497,280.736946 L241.431597,280.840839 L241.048553,276.740115 L242.121454,276.636222 L242.312976,278.686584 L243.385876,278.582691 Z" fill="#181713"/>
</svg>
