<?xml version="1.0" encoding="UTF-8"?>
<svg xmlns="http://www.w3.org/2000/svg" width="640" height="544" viewBox="0 0 640 544">
  <rect width="640" height="544" fill="#F4F2EC"/>
  <g id="rig_body"><path d="M418.317502,113.330461 L419.320741,113.330461 L419.320741,114.327221 L485.534569,114.327221 L485.534569,175.129592 L484.531329,175.129592 L484.531329,249.886607 L486.537809,249.886607 L486.537809,288.760254 L466.473012,288.760254 L466.473012,307.698698 L404.272144,307.698698 L404.272144,306.701937 L453.430895,306.701937 L453.430895,305.705177 L173.526988,305.705177 L173.526988,288.760254 L172.523748,288.760254 L172.523748,307.698698 L171.520508,307.698698 L171.520508,287.763494 L151.455712,287.763494 L151.455712,250.883367 L152.458951,250.883367 L152.458951,249.886607 L153.462191,249.886607 L153.462191,237.925484 L152.458951,237.925484 L152.458951,235.931964 L153.462191,235.931964 L153.462191,219.983801 L152.458951,219.983801 L152.458951,216.99352 L153.462191,216.99352 L153.462191,207.025918 L152.458951,207.025918 L152.458951,190.080995 L153.462191,190.080995 L153.462191,178.119873 L152.458951,178.119873 L152.458951,176.126353 L151.455712,176.126353 L151.455712,168.152271 L152.458951,168.152271 L152.458951,165.161991 L153.462191,165.161991 L153.462191,162.17171 L152.458951,162.17171 L152.458951,155.194389 L154.465431,155.194389 L154.465431,156.191149 L156.471911,156.191149 L156.471911,155.194389 L157.475151,155.194389 L157.475151,148.217067 L153.462191,148.217067 L153.462191,154.197628 L151.455712,154.197628 L151.455712,114.327221 L155.468671,114.327221 L155.468671,115.323981 L156.471911,115.323981 L156.471911,116.320741 L160.48487,116.320741 L160.48487,117.317502 L161.48811,117.317502 L161.48811,116.320741 L163.494589,116.320741 L163.494589,115.323981 L266.82829,115.323981 L266.82829,116.320741 L268.83477,116.320741 L268.83477,115.323981 L276.860688,115.323981 L276.860688,134.262425 L277.863928,134.262425 L277.863928,135.259185 L299.935204,135.259185 L299.935204,155.194389 L336.051837,155.194389 L336.051837,156.191149 L299.935204,156.191149 L299.935204,157.187909 L337.055077,157.187909 L337.055077,156.191149 L338.058317,156.191149 L338.058317,137.252705 L356.116633,137.252705 L356.116633,136.255945 L358.123113,136.255945 L358.123113,115.323981 L418.317502,115.323981 Z M171.520508,134.262425 L171.520508,155.194389 L191.585304,155.194389 L191.585304,134.262425 Z M240.744055,191.077755 L240.744055,229.951403 L278.867168,229.951403 L278.867168,230.948163 L242.750535,230.948163 L242.750535,231.944923 L279.870408,231.944923 L279.870408,192.074516 L278.867168,192.074516 L278.867168,191.077755 Z M357.119873,192.074516 L357.119873,229.951403 L394.239746,229.951403 L394.239746,192.074516 Z M246.763494,248.889846 L246.763494,249.886607 L263.818571,249.886607 L263.818571,250.883367 L243.753774,250.883367 L243.753774,268.82505 L262.815331,268.82505 L262.815331,288.760254 L374.17495,288.760254 L374.17495,268.82505 L393.236506,268.82505 L393.236506,267.82829 L394.239746,267.82829 L394.239746,268.82505 L395.242986,268.82505 L395.242986,271.815331 L396.246226,271.815331 L396.246226,266.83153 L395.242986,266.83153 L395.242986,258.857448 L396.246226,258.857448 L396.246226,256.863928 L398.252705,256.863928 L398.252705,255.867168 L396.246226,255.867168 L396.246226,252.876887 L395.242986,252.876887 L395.242986,249.886607 L374.17495,249.886607 L374.17495,250.883367 L371.16523,250.883367 L371.16523,265.83477 L265.82505,265.83477 L265.82505,256.863928 L266.82829,256.863928 L266.82829,255.867168 L267.83153,255.867168 L267.83153,252.876887 L266.82829,252.876887 L266.82829,249.886607 L267.83153,249.886607 L267.83153,248.889846 Z" fill="#EFB944"/>
<path d="M506.602605,79.440614 L507.605845,79.440614 L507.605845,88.411456 L508.609085,88.411456 L508.609085,80.437375 L545.728958,80.437375 L545.728958,130.275384 L546.732197,130.275384 L546.732197,137.252705 L566.796994,137.252705 L566.796994,138.249465 L565.793754,138.249465 L565.793754,139.246226 L549.741917,139.246226 L549.741917,140.242986 L550.745157,140.242986 L550.745157,141.239746 L552.751636,141.239746 L552.751636,140.242986 L554.758116,140.242986 L554.758116,141.239746 L555.761356,141.239746 L555.761356,140.242986 L558.771075,140.242986 L558.771075,141.239746 L559.774315,141.239746 L559.774315,142.236506 L558.771075,142.236506 L558.771075,143.233266 L557.767835,143.233266 L557.767835,145.226787 L561.780795,145.226787 L561.780795,144.230027 L562.784034,144.230027 L562.784034,145.226787 L563.787274,145.226787 L563.787274,146.223547 L564.790514,146.223547 L564.790514,270.818571 L563.787274,270.818571 L563.787274,271.815331 L562.784034,271.815331 L562.784034,275.802372 L563.787274,275.802372 L563.787274,274.805611 L564.790514,274.805611 L564.790514,285.769973 L504.596125,285.769973 L504.596125,287.763494 L503.592885,287.763494 L503.592885,295.737575 L502.589646,295.737575 L502.589646,296.734335 L501.586406,296.734335 L501.586406,302.714897 L502.589646,302.714897 L502.589646,304.708417 L503.592885,304.708417 L503.592885,306.701937 L486.537809,306.701937 L486.537809,307.698698 L485.534569,307.698698 L485.534569,308.695458 L484.531329,308.695458 L484.531329,311.685738 L483.528089,311.685738 L483.528089,312.682498 L482.524849,312.682498 L482.524849,311.685738 L479.51513,311.685738 L479.51513,312.682498 L478.51189,312.682498 L478.51189,314.676019 L479.51513,314.676019 L479.51513,315.672779 L481.52161,315.672779 L481.52161,314.676019 L482.524849,314.676019 L482.524849,313.679259 L483.528089,313.679259 L483.528089,322.6501 L475.502171,322.6501 L475.502171,323.646861 L474.498931,323.646861 L474.498931,324.643621 L370.161991,324.643621 L370.161991,323.646861 L369.158751,323.646861 L369.158751,321.65334 L367.152271,321.65334 L367.152271,322.6501 L365.145792,322.6501 L365.145792,323.646861 L364.142552,323.646861 L364.142552,324.643621 L362.136072,324.643621 L362.136072,325.640381 L356.116633,325.640381 L356.116633,324.643621 L357.119873,324.643621 L357.119873,323.646861 L355.113393,323.646861 L355.113393,324.643621 L353.106914,324.643621 L353.106914,326.637141 L297.928724,326.637141 L297.928724,327.633901 L296.925484,327.633901 L296.925484,326.637141 L288.899566,326.637141 L288.899566,324.643621 L286.893086,324.643621 L286.893086,323.646861 L280.873647,323.646861 L280.873647,321.65334 L277.863928,321.65334 L277.863928,322.6501 L276.860688,322.6501 L276.860688,321.65334 L275.857448,321.65334 L275.857448,322.6501 L274.854208,322.6501 L274.854208,323.646861 L273.850969,323.646861 L273.850969,322.6501 L272.847729,322.6501 L272.847729,323.646861 L271.844489,323.646861 L271.844489,324.643621 L154.465431,324.643621 L154.465431,321.65334 L155.468671,321.65334 L155.468671,320.65658 L156.471911,320.65658 L156.471911,319.65982 L157.475151,319.65982 L157.475151,318.66306 L158.47839,318.66306 L158.47839,317.666299 L159.48163,317.666299 L159.48163,315.672779 L158.47839,315.672779 L158.47839,314.676019 L156.471911,314.676019 L156.471911,315.672779 L152.458951,315.672779 L152.458951,307.698698 L150.452472,307.698698 L150.452472,308.695458 L148.445992,308.695458 L148.445992,307.698698 L133.397395,307.698698 L133.397395,287.763494 L74.206246,287.763494 L74.206246,286.766734 L73.203006,286.766734 L73.203006,257.860688 L74.206246,257.860688 L74.206246,265.83477 L75.209486,265.83477 L75.209486,267.82829 L76.212726,267.82829 L76.212726,266.83153 L77.215966,266.83153 L77.215966,265.83477 L76.212726,265.83477 L76.212726,261.847729 L75.209486,261.847729 L75.209486,260.850969 L76.212726,260.850969 L76.212726,249.886607 L75.209486,249.886607 L75.209486,220.980561 L76.212726,220.980561 L76.212726,215.99676 L77.215966,215.99676 L77.215966,213.00648 L76.212726,213.00648 L76.212726,206.029158 L75.209486,206.029158 L75.209486,204.035638 L76.212726,204.035638 L76.212726,200.048597 L75.209486,200.048597 L75.209486,199.051837 L76.212726,199.051837 L76.212726,185.097194 L77.215966,185.097194 L77.215966,184.100434 L76.212726,184.100434 L76.212726,172.139312 L75.209486,172.139312 L75.209486,166.158751 L76.212726,166.158751 L76.212726,163.16847 L75.209486,163.16847 L75.209486,140.242986 L131.390915,140.242986 L131.390915,141.239746 L133.397395,141.239746 L133.397395,142.236506 L134.400635,142.236506 L134.400635,143.233266 L136.407115,143.233266 L136.407115,142.236506 L137.410354,142.236506 L137.410354,141.239746 L138.413594,141.239746 L138.413594,139.246226 L137.410354,139.246226 L137.410354,140.242986 L136.407115,140.242986 L136.407115,141.239746 L134.400635,141.239746 L134.400635,140.242986 L135.403875,140.242986 L135.403875,139.246226 L136.407115,139.246226 L136.407115,137.252705 L137.410354,137.252705 L137.410354,136.255945 L135.403875,136.255945 L135.403875,97.382298 L157.475151,97.382298 L157.475151,98.379058 L158.47839,98.379058 L158.47839,97.382298 L197.604743,97.382298 L197.604743,98.379058 L199.611223,98.379058 L199.611223,97.382298 L227.701937,97.382298 L227.701937,98.379058 L228.705177,98.379058 L228.705177,97.382298 L277.863928,97.382298 L277.863928,111.33694 L273.850969,111.33694 L273.850969,110.34018 L165.501069,110.34018 L165.501069,111.33694 L151.455712,111.33694 L151.455712,154.197628 L113.332599,154.197628 L113.332599,153.200868 L110.322879,153.200868 L110.322879,152.204108 L107.31316,152.204108 L107.31316,150.210588 L105.30668,150.210588 L105.30668,151.207348 L104.303441,151.207348 L104.303441,152.204108 L102.296961,152.204108 L102.296961,151.207348 L101.293721,151.207348 L101.293721,152.204108 L99.287241,152.204108 L99.287241,153.200868 L97.280762,153.200868 L97.280762,155.194389 L91.261323,155.194389 L91.261323,269.82181 L151.455712,269.82181 L151.455712,287.763494 L171.520508,287.763494 L171.520508,308.695458 L263.818571,308.695458 L263.818571,309.692218 L373.17171,309.692218 L373.17171,308.695458 L455.437375,308.695458 L455.437375,309.692218 L454.434135,309.692218 L454.434135,310.688978 L455.437375,310.688978 L455.437375,311.685738 L457.443854,311.685738 L457.443854,310.688978 L459.450334,310.688978 L459.450334,313.679259 L460.453574,313.679259 L460.453574,312.682498 L461.456813,312.682498 L461.456813,313.679259 L462.460053,313.679259 L462.460053,312.682498 L463.463293,312.682498 L463.463293,311.685738 L464.466533,311.685738 L464.466533,310.688978 L467.476252,310.688978 L467.476252,309.692218 L468.479492,309.692218 L468.479492,307.698698 L467.476252,307.698698 L467.476252,289.757014 L486.537809,289.757014 L486.537809,269.82181 L487.541049,269.82181 L487.541049,287.763494 L488.544288,287.763494 L488.544288,286.766734 L489.547528,286.766734 L489.547528,285.769973 L490.550768,285.769973 L490.550768,284.773213 L491.554008,284.773213 L491.554008,282.779693 L488.544288,282.779693 L488.544288,270.818571 L549.741917,270.818571 L549.741917,269.82181 L550.745157,269.82181 L550.745157,158.184669 L549.741917,158.184669 L549.741917,153.200868 L548.738677,153.200868 L548.738677,152.204108 L543.722478,152.204108 L543.722478,151.207348 L542.719238,151.207348 L542.719238,152.204108 L538.706279,152.204108 L538.706279,153.200868 L537.703039,153.200868 L537.703039,152.204108 L536.699799,152.204108 L536.699799,154.197628 L490.550768,154.197628 L490.550768,155.194389 L487.541049,155.194389 L487.541049,113.330461 L419.320741,113.330461 L419.320741,99.375818 L421.327221,99.375818 L421.327221,97.382298 L493.560487,97.382298 L493.560487,96.385538 L505.599365,96.385538 L505.599365,137.252705 L531.6836,137.252705 L531.6836,95.388777 L506.602605,95.388777 Z M79.222445,285.769973 L79.222445,286.766734 L133.397395,286.766734 L133.397395,287.763494 L134.400635,287.763494 L134.400635,306.701937 L144.433033,306.701937 L144.433033,305.705177 L140.420074,305.705177 L140.420074,304.708417 L137.410354,304.708417 L137.410354,305.705177 L135.403875,305.705177 L135.403875,293.744055 L136.407115,293.744055 L136.407115,292.747295 L137.410354,292.747295 L137.410354,291.750535 L138.413594,291.750535 L138.413594,288.760254 L139.416834,288.760254 L139.416834,287.763494 L138.413594,287.763494 L138.413594,285.769973 Z" fill="#8C651F"/>
<path d="M221.682498,367.504309 L240.744055,367.504309 L240.744055,389.433033 L396.246226,389.433033 L396.246226,387.439513 L397.249465,387.439513 L397.249465,386.442752 L398.252705,386.442752 L398.252705,387.439513 L400.259185,387.439513 L400.259185,386.442752 L403.268904,386.442752 L403.268904,387.439513 L404.272144,387.439513 L404.272144,385.445992 L405.275384,385.445992 L405.275384,387.439513 L408.285103,387.439513 L408.285103,388.436273 L410.291583,388.436273 L410.291583,389.433033 L412.298063,389.433033 L412.298063,390.429793 L413.301302,390.429793 L413.301302,391.426553 L415.307782,391.426553 L415.307782,392.423314 L417.314262,392.423314 L417.314262,393.420074 L419.320741,393.420074 L419.320741,392.423314 L420.323981,392.423314 L420.323981,391.426553 L422.330461,391.426553 L422.330461,392.423314 L423.333701,392.423314 L423.333701,391.426553 L424.33694,391.426553 L424.33694,390.429793 L427.34666,390.429793 L427.34666,389.433033 L428.3499,389.433033 L428.3499,388.436273 L423.333701,388.436273 L423.333701,387.439513 L433.366099,387.439513 L433.366099,426.31316 L434.369339,426.31316 L434.369339,445.251604 L421.327221,445.251604 L421.327221,444.254843 L202.620942,444.254843 L202.620942,431.296961 L201.617702,431.296961 L201.617702,427.30992 L191.585304,427.30992 L191.585304,426.31316 L200.614462,426.31316 L200.614462,421.329359 L201.617702,421.329359 L201.617702,387.439513 L221.682498,387.439513 Z M221.682498,402.390915 L221.682498,403.387676 L220.679259,403.387676 L220.679259,426.31316 L219.676019,426.31316 L219.676019,427.30992 L268.83477,427.30992 L268.83477,428.30668 L277.863928,428.30668 L277.863928,429.303441 L278.867168,429.303441 L278.867168,428.30668 L301.941683,428.30668 L301.941683,429.303441 L303.948163,429.303441 L303.948163,428.30668 L347.087475,428.30668 L347.087475,429.303441 L348.090715,429.303441 L348.090715,428.30668 L409.288343,428.30668 L409.288343,427.30992 L415.307782,427.30992 L415.307782,404.384436 L416.311022,404.384436 L416.311022,403.387676 L408.285103,403.387676 L408.285103,402.390915 L407.281864,402.390915 L407.281864,403.387676 L351.100434,403.387676 L351.100434,402.390915 L350.097194,402.390915 L350.097194,403.387676 L315.987041,403.387676 L315.987041,404.384436 L305.954643,404.384436 L305.954643,403.387676 L241.747295,403.387676 L241.747295,402.390915 L240.744055,402.390915 L240.744055,403.387676 L222.685738,403.387676 L222.685738,402.390915 Z" fill="#8B641F"/>
<path d="M433.366099,387.439513 L434.369339,387.439513 L434.369339,388.436273 L435.372578,388.436273 L435.372578,426.31316 L454.434135,426.31316 L454.434135,432.293721 L455.437375,432.293721 L455.437375,439.271042 L454.434135,439.271042 L454.434135,447.245124 L455.437375,447.245124 L455.437375,452.228925 L454.434135,452.228925 L454.434135,463.193287 L455.437375,463.193287 L455.437375,464.190047 L453.430895,464.190047 L453.430895,463.193287 L439.385538,463.193287 L439.385538,462.196527 L212.65334,462.196527 L212.65334,461.199767 L211.6501,461.199767 L211.6501,462.196527 L199.611223,462.196527 L199.611223,463.193287 L194.595024,463.193287 L194.595024,461.199767 L193.591784,461.199767 L193.591784,458.209486 L192.588544,458.209486 L192.588544,459.206246 L191.585304,459.206246 L191.585304,458.209486 L187.572345,458.209486 L187.572345,457.212726 L186.569105,457.212726 L186.569105,456.215966 L185.565865,456.215966 L185.565865,454.222445 L183.559386,454.222445 L183.559386,427.30992 L201.617702,427.30992 L201.617702,447.245124 L307.961122,447.245124 L307.961122,446.248364 L308.964362,446.248364 L308.964362,447.245124 L420.323981,447.245124 L420.323981,446.248364 L427.34666,446.248364 L427.34666,445.251604 L434.369339,445.251604 L434.369339,426.31316 L433.366099,426.31316 Z" fill="#6C4F1A"/>
<path d="M298.931964,328.630661 L336.051837,328.630661 L336.051837,367.504309 L375.17819,367.504309 L375.17819,360.526988 L376.181429,360.526988 L376.181429,367.504309 L394.239746,367.504309 L394.239746,385.445992 L240.744055,385.445992 L240.744055,367.504309 L257.799132,367.504309 L257.799132,366.507549 L258.802372,366.507549 L258.802372,367.504309 L259.805611,367.504309 L259.805611,347.569105 L260.808851,347.569105 L260.808851,367.504309 L298.931964,367.504309 Z" fill="#EDB843"/>
<path d="M221.682498,407.374716 L414.304542,407.374716 L414.304542,426.31316 L411.294823,426.31316 L411.294823,425.3164 L413.301302,425.3164 L413.301302,415.348798 L412.298063,415.348798 L412.298063,418.339078 L411.294823,418.339078 L411.294823,419.335839 L410.291583,419.335839 L410.291583,420.332599 L409.288343,420.332599 L409.288343,421.329359 L408.285103,421.329359 L408.285103,423.322879 L409.288343,423.322879 L409.288343,424.31964 L236.731096,424.31964 L236.731096,425.3164 L229.708417,425.3164 L229.708417,424.31964 L224.692218,424.31964 L224.692218,423.322879 L225.695458,423.322879 L225.695458,422.326119 L226.698698,422.326119 L226.698698,421.329359 L225.695458,421.329359 L225.695458,420.332599 L223.688978,420.332599 L223.688978,419.335839 L224.692218,419.335839 L224.692218,417.342318 L221.682498,417.342318 Z" fill="#EEB842"/>
<path d="M93.267803,156.191149 L133.397395,156.191149 L133.397395,175.129592 L112.329359,175.129592 L112.329359,249.886607 L133.397395,249.886607 L133.397395,269.82181 L92.264563,269.82181 L92.264563,268.82505 L93.267803,268.82505 Z" fill="#EDB845"/>
<path d="M506.602605,156.191149 L546.732197,156.191149 L546.732197,263.841249 L543.722478,263.841249 L543.722478,264.838009 L542.719238,264.838009 L542.719238,265.83477 L541.715998,265.83477 L541.715998,266.83153 L539.709519,266.83153 L539.709519,267.82829 L547.735437,267.82829 L547.735437,263.841249 L548.738677,263.841249 L548.738677,268.82505 L504.596125,268.82505 L504.596125,257.860688 L506.602605,257.860688 L506.602605,258.857448 L508.609085,258.857448 L508.609085,257.860688 L509.612324,257.860688 L509.612324,256.863928 L510.615564,256.863928 L510.615564,255.867168 L511.618804,255.867168 L511.618804,254.870408 L512.622044,254.870408 L512.622044,253.873647 L513.625284,253.873647 L513.625284,252.876887 L518.641483,252.876887 L518.641483,251.880127 L516.635003,251.880127 L516.635003,250.883367 L522.654442,250.883367 L522.654442,249.886607 L528.673881,249.886607 L528.673881,194.068036 L529.677121,194.068036 L529.677121,230.948163 L530.68036,230.948163 L530.68036,213.00648 L531.6836,213.00648 L531.6836,208.022679 L532.68684,208.022679 L532.68684,207.025918 L531.6836,207.025918 L531.6836,201.045357 L532.68684,201.045357 L532.68684,200.048597 L531.6836,200.048597 L531.6836,198.055077 L532.68684,198.055077 L532.68684,197.058317 L533.69008,197.058317 L533.69008,196.061556 L534.69332,196.061556 L534.69332,195.064796 L535.696559,195.064796 L535.696559,193.071276 L534.69332,193.071276 L534.69332,192.074516 L532.68684,192.074516 L532.68684,191.077755 L531.6836,191.077755 L531.6836,190.080995 L529.677121,190.080995 L529.677121,175.129592 L505.599365,175.129592 L505.599365,170.145792 L506.602605,170.145792 Z" fill="#EEB944"/>
<path d="M113.332599,176.126353 L150.452472,176.126353 L150.452472,248.889846 L140.420074,248.889846 L140.420074,249.886607 L112.329359,249.886607 L112.329359,231.944923 L134.400635,231.944923 L134.400635,193.071276 L135.403875,193.071276 L135.403875,211.012959 L136.407115,211.012959 L136.407115,199.051837 L137.410354,199.051837 L137.410354,194.068036 L138.413594,194.068036 L138.413594,191.077755 L139.416834,191.077755 L139.416834,190.080995 L129.384436,190.080995 L129.384436,188.087475 L128.381196,188.087475 L128.381196,187.090715 L127.377956,187.090715 L127.377956,188.087475 L124.368237,188.087475 L124.368237,186.093955 L123.364997,186.093955 L123.364997,187.090715 L121.358517,187.090715 L121.358517,188.087475 L120.355278,188.087475 L120.355278,187.090715 L119.352038,187.090715 L119.352038,188.087475 L118.348798,188.087475 L118.348798,189.084235 L119.352038,189.084235 L119.352038,190.080995 L118.348798,190.080995 L118.348798,191.077755 L121.358517,191.077755 L121.358517,192.074516 L122.361757,192.074516 L122.361757,193.071276 L112.329359,193.071276 L112.329359,192.074516 L113.332599,192.074516 Z" fill="#8C641E"/>
<path d="M488.544288,176.126353 L526.667401,176.126353 L526.667401,186.093955 L515.631763,186.093955 L515.631763,188.087475 L516.635003,188.087475 L516.635003,190.080995 L518.641483,190.080995 L518.641483,192.074516 L519.644722,192.074516 L519.644722,193.071276 L506.602605,193.071276 L506.602605,192.074516 L507.605845,192.074516 L507.605845,188.087475 L506.602605,188.087475 L506.602605,189.084235 L503.592885,189.084235 L503.592885,188.087475 L500.583166,188.087475 L500.583166,190.080995 L499.579926,190.080995 L499.579926,191.077755 L498.576686,191.077755 L498.576686,193.071276 L499.579926,193.071276 L499.579926,194.068036 L500.583166,194.068036 L500.583166,195.064796 L501.586406,195.064796 L501.586406,196.061556 L503.592885,196.061556 L503.592885,217.990281 L502.589646,217.990281 L502.589646,218.987041 L501.586406,218.987041 L501.586406,219.983801 L500.583166,219.983801 L500.583166,220.980561 L502.589646,220.980561 L502.589646,219.983801 L503.592885,219.983801 L503.592885,222.974082 L502.589646,222.974082 L502.589646,223.970842 L500.583166,223.970842 L500.583166,224.967602 L499.579926,224.967602 L499.579926,226.961122 L500.583166,226.961122 L500.583166,227.957882 L501.586406,227.957882 L501.586406,228.954643 L504.596125,228.954643 L504.596125,231.944923 L503.592885,231.944923 L503.592885,230.948163 L502.589646,230.948163 L502.589646,234.935204 L503.592885,234.935204 L503.592885,235.931964 L504.596125,235.931964 L504.596125,237.925484 L505.599365,237.925484 L505.599365,233.938444 L506.602605,233.938444 L506.602605,235.931964 L508.609085,235.931964 L508.609085,234.935204 L510.615564,234.935204 L510.615564,235.931964 L509.612324,235.931964 L509.612324,237.925484 L510.615564,237.925484 L510.615564,236.928724 L511.618804,236.928724 L511.618804,235.931964 L512.622044,235.931964 L512.622044,234.935204 L511.618804,234.935204 L511.618804,233.938444 L518.641483,233.938444 L518.641483,234.935204 L519.644722,234.935204 L519.644722,233.938444 L520.647962,233.938444 L520.647962,232.941683 L505.599365,232.941683 L505.599365,231.944923 L528.673881,231.944923 L528.673881,249.886607 L488.544288,249.886607 Z" fill="#8D651E"/>
<path d="M262.815331,268.82505 L263.818571,268.82505 L263.818571,269.82181 L264.82181,269.82181 L264.82181,270.818571 L352.103674,270.818571 L352.103674,271.815331 L353.106914,271.815331 L353.106914,270.818571 L370.161991,270.818571 L370.161991,271.815331 L371.16523,271.815331 L371.16523,272.812091 L372.16847,272.812091 L372.16847,277.795892 L371.16523,277.795892 L371.16523,278.792652 L370.161991,278.792652 L370.161991,277.795892 L367.152271,277.795892 L367.152271,279.789412 L366.149031,279.789412 L366.149031,280.786172 L365.145792,280.786172 L365.145792,281.782933 L364.142552,281.782933 L364.142552,282.779693 L363.139312,282.779693 L363.139312,283.776453 L268.83477,283.776453 L268.83477,282.779693 L267.83153,282.779693 L267.83153,280.786172 L264.82181,280.786172 L264.82181,283.776453 L263.818571,283.776453 L263.818571,281.782933 L262.815331,281.782933 Z" fill="#13120F"/>
<path d="M390.226787,193.071276 L394.239746,193.071276 L394.239746,229.951403 L393.236506,229.951403 L393.236506,228.954643 L392.233266,228.954643 L392.233266,227.957882 L379.191149,227.957882 L379.191149,226.961122 L377.184669,226.961122 L377.184669,225.964362 L372.16847,225.964362 L372.16847,227.957882 L359.126353,227.957882 L359.126353,194.068036 L390.226787,194.068036 Z" fill="#13120F"/>
<path d="M240.744055,192.074516 L241.747295,192.074516 L241.747295,193.071276 L242.750535,193.071276 L242.750535,194.068036 L275.857448,194.068036 L275.857448,221.977321 L274.854208,221.977321 L274.854208,222.974082 L273.850969,222.974082 L273.850969,223.970842 L272.847729,223.970842 L272.847729,224.967602 L271.844489,224.967602 L271.844489,225.964362 L270.841249,225.964362 L270.841249,227.957882 L268.83477,227.957882 L268.83477,228.954643 L242.750535,228.954643 L242.750535,195.064796 L241.747295,195.064796 L241.747295,229.951403 L240.744055,229.951403 Z" fill="#151410"/>
<path d="M515.631763,96.385538 L530.68036,96.385538 L530.68036,137.252705 L508.609085,137.252705 L508.609085,136.255945 L511.618804,136.255945 L511.618804,135.259185 L507.605845,135.259185 L507.605845,101.369339 L508.609085,101.369339 L508.609085,97.382298 L509.612324,97.382298 L509.612324,100.372578 L510.615564,100.372578 L510.615564,99.375818 L511.618804,99.375818 L511.618804,98.379058 L512.622044,98.379058 L512.622044,97.382298 L515.631763,97.382298 Z" fill="#ECB641"/>
<path d="M355.113393,323.646861 L357.119873,323.646861 L357.119873,324.643621 L356.116633,324.643621 L356.116633,328.630661 L357.119873,328.630661 L357.119873,330.624182 L356.116633,330.624182 L356.116633,331.620942 L355.113393,331.620942 L355.113393,342.585304 L354.110154,342.585304 L354.110154,343.582064 L353.106914,343.582064 L353.106914,345.575585 L352.103674,345.575585 L352.103674,347.569105 L354.110154,347.569105 L354.110154,349.562625 L355.113393,349.562625 L355.113393,350.559386 L359.126353,350.559386 L359.126353,351.556146 L361.132832,351.556146 L361.132832,350.559386 L362.136072,350.559386 L362.136072,352.552906 L364.142552,352.552906 L364.142552,351.556146 L365.145792,351.556146 L365.145792,350.559386 L366.149031,350.559386 L366.149031,349.562625 L367.152271,349.562625 L367.152271,348.565865 L374.17495,348.565865 L374.17495,360.526988 L372.16847,360.526988 L372.16847,361.523748 L370.161991,361.523748 L370.161991,362.520508 L367.152271,362.520508 L367.152271,361.523748 L366.149031,361.523748 L366.149031,362.520508 L365.145792,362.520508 L365.145792,363.517268 L363.139312,363.517268 L363.139312,365.510788 L362.136072,365.510788 L362.136072,367.504309 L357.119873,367.504309 L357.119873,366.507549 L359.126353,366.507549 L359.126353,365.510788 L357.119873,365.510788 L357.119873,364.514028 L356.116633,364.514028 L356.116633,363.517268 L353.106914,363.517268 L353.106914,364.514028 L352.103674,364.514028 L352.103674,363.517268 L350.097194,363.517268 L350.097194,362.520508 L349.093955,362.520508 L349.093955,360.526988 L348.090715,360.526988 L348.090715,361.523748 L345.080995,361.523748 L345.080995,362.520508 L344.077755,362.520508 L344.077755,363.517268 L343.074516,363.517268 L343.074516,364.514028 L342.071276,364.514028 L342.071276,365.510788 L341.068036,365.510788 L341.068036,366.507549 L347.087475,366.507549 L347.087475,367.504309 L338.058317,367.504309 L338.058317,326.637141 L353.106914,326.637141 L353.106914,324.643621 L355.113393,324.643621 Z" fill="#89631D"/>
<path d="M507.605845,193.071276 L518.641483,193.071276 L518.641483,194.068036 L522.654442,194.068036 L522.654442,195.064796 L526.667401,195.064796 L526.667401,230.948163 L507.605845,230.948163 Z" fill="#F2EDE7"/>
<path d="M131.390915,193.071276 L132.394155,193.071276 L132.394155,230.948163 L113.332599,230.948163 L113.332599,194.068036 L131.390915,194.068036 Z" fill="#F2EDE7"/>
<path d="M295.922245,346.572345 L296.925484,346.572345 L296.925484,354.546426 L295.922245,354.546426 L295.922245,355.543187 L294.919005,355.543187 L294.919005,356.539947 L293.915765,356.539947 L293.915765,357.536707 L292.912525,357.536707 L292.912525,358.533467 L291.909285,358.533467 L291.909285,359.530227 L290.906045,359.530227 L290.906045,362.520508 L289.902806,362.520508 L289.902806,363.517268 L288.899566,363.517268 L288.899566,365.510788 L286.893086,365.510788 L286.893086,366.507549 L267.83153,366.507549 L267.83153,365.510788 L266.82829,365.510788 L266.82829,364.514028 L267.83153,364.514028 L267.83153,362.520508 L266.82829,362.520508 L266.82829,363.517268 L265.82505,363.517268 L265.82505,364.514028 L264.82181,364.514028 L264.82181,365.510788 L263.818571,365.510788 L263.818571,359.530227 L262.815331,359.530227 L262.815331,360.526988 L261.812091,360.526988 L261.812091,347.569105 L269.838009,347.569105 L269.838009,348.565865 L270.841249,348.565865 L270.841249,351.556146 L271.844489,351.556146 L271.844489,353.549666 L277.863928,353.549666 L277.863928,354.546426 L278.867168,354.546426 L278.867168,353.549666 L279.870408,353.549666 L279.870408,352.552906 L280.873647,352.552906 L280.873647,351.556146 L281.876887,351.556146 L281.876887,350.559386 L282.880127,350.559386 L282.880127,349.562625 L284.886607,349.562625 L284.886607,351.556146 L287.896326,351.556146 L287.896326,350.559386 L288.899566,350.559386 L288.899566,349.562625 L289.902806,349.562625 L289.902806,347.569105 L295.922245,347.569105 Z" fill="#8C651D"/>
<path d="M486.537809,249.886607 L504.596125,249.886607 L504.596125,268.82505 L548.738677,268.82505 L548.738677,269.82181 L486.537809,269.82181 Z" fill="#D6A436"/>
<path d="M279.870408,326.637141 L296.925484,326.637141 L296.925484,327.633901 L293.915765,327.633901 L293.915765,329.627422 L296.925484,329.627422 L296.925484,346.572345 L295.922245,346.572345 L295.922245,347.569105 L289.902806,347.569105 L289.902806,349.562625 L288.899566,349.562625 L288.899566,350.559386 L287.896326,350.559386 L287.896326,351.556146 L284.886607,351.556146 L284.886607,349.562625 L282.880127,349.562625 L282.880127,348.565865 L283.883367,348.565865 L283.883367,346.572345 L282.880127,346.572345 L282.880127,345.575585 L281.876887,345.575585 L281.876887,346.572345 L280.873647,346.572345 L280.873647,327.633901 L279.870408,327.633901 Z" fill="#8A631F"/>
<path d="M374.17495,250.883367 L393.236506,250.883367 L393.236506,268.82505 L374.17495,268.82505 Z" fill="#171510"/>
<path d="M133.397395,156.191149 L151.455712,156.191149 L151.455712,175.129592 L133.397395,175.129592 Z" fill="#D6A435"/>
<path d="M243.753774,251.880127 L262.815331,251.880127 L262.815331,267.82829 L261.812091,267.82829 L261.812091,252.876887 L251.779693,252.876887 L251.779693,253.873647 L259.805611,253.873647 L259.805611,254.870408 L260.808851,254.870408 L260.808851,267.82829 L243.753774,267.82829 Z" fill="#14130F"/>
<path d="M133.397395,249.886607 L151.455712,249.886607 L151.455712,260.850969 L150.452472,260.850969 L150.452472,261.847729 L149.449232,261.847729 L149.449232,262.844489 L147.442752,262.844489 L147.442752,263.841249 L146.439513,263.841249 L146.439513,262.844489 L142.426553,262.844489 L142.426553,263.841249 L141.423314,263.841249 L141.423314,264.838009 L140.420074,264.838009 L140.420074,266.83153 L139.416834,266.83153 L139.416834,267.82829 L140.420074,267.82829 L140.420074,268.82505 L133.397395,268.82505 Z" fill="#D4A134"/>
<path d="M492.557248,157.187909 L505.599365,157.187909 L505.599365,175.129592 L488.544288,175.129592 L488.544288,167.155511 L489.547528,167.155511 L489.547528,166.158751 L490.550768,166.158751 L490.550768,165.161991 L491.554008,165.161991 L491.554008,163.16847 L492.557248,163.16847 Z" fill="#D3A235"/>
<path d="M399.255945,368.501069 L413.301302,368.501069 L413.301302,385.445992 L412.298063,385.445992 L412.298063,387.439513 L410.291583,387.439513 L410.291583,388.436273 L408.285103,388.436273 L408.285103,387.439513 L405.275384,387.439513 L405.275384,385.445992 L404.272144,385.445992 L404.272144,387.439513 L403.268904,387.439513 L403.268904,386.442752 L400.259185,386.442752 L400.259185,387.439513 L398.252705,387.439513 L398.252705,386.442752 L397.249465,386.442752 L397.249465,377.471911 L399.255945,377.471911 L399.255945,376.475151 L400.259185,376.475151 L400.259185,375.47839 L401.262425,375.47839 L401.262425,372.48811 L400.259185,372.48811 L400.259185,371.49135 L399.255945,371.49135 Z" fill="#88621F"/>
<path d="M171.520508,134.262425 L191.585304,134.262425 L191.585304,155.194389 L173.526988,155.194389 L173.526988,154.197628 L176.536707,154.197628 L176.536707,153.200868 L175.533467,153.200868 L175.533467,152.204108 L173.526988,152.204108 L173.526988,136.255945 L189.578825,136.255945 L189.578825,142.236506 L188.575585,142.236506 L188.575585,140.242986 L186.569105,140.242986 L186.569105,139.246226 L184.562625,139.246226 L184.562625,140.242986 L183.559386,140.242986 L183.559386,141.239746 L182.556146,141.239746 L182.556146,140.242986 L178.543187,140.242986 L178.543187,139.246226 L177.539947,139.246226 L177.539947,140.242986 L176.536707,140.242986 L176.536707,149.213828 L177.539947,149.213828 L177.539947,150.210588 L182.556146,150.210588 L182.556146,149.213828 L189.578825,149.213828 L189.578825,153.200868 L185.565865,153.200868 L185.565865,154.197628 L190.582064,154.197628 L190.582064,135.259185 L172.523748,135.259185 L172.523748,155.194389 L171.520508,155.194389 Z" fill="#F9F2E1"/>
<path d="M565.793754,138.249465 L566.796994,138.249465 L566.796994,287.763494 L504.596125,287.763494 L504.596125,286.766734 L565.793754,286.766734 Z" fill="#7A510C"/>
<path d="M220.679259,404.384436 L415.307782,404.384436 L415.307782,405.381196 L220.679259,405.381196 Z" fill="#805B14"/>
<path d="M246.763494,248.889846 L267.83153,248.889846 L267.83153,249.886607 L266.82829,249.886607 L266.82829,252.876887 L267.83153,252.876887 L267.83153,255.867168 L266.82829,255.867168 L266.82829,256.863928 L265.82505,256.863928 L265.82505,265.83477 L371.16523,265.83477 L371.16523,250.883367 L372.16847,250.883367 L372.16847,266.83153 L264.82181,266.83153 L264.82181,250.883367 L263.818571,250.883367 L263.818571,249.886607 L246.763494,249.886607 Z" fill="#E8B53C"/>
<path d="M182.556146,463.193287 L351.100434,463.193287 L351.100434,464.190047 L182.556146,464.190047 Z" fill="#644410"/>
<path d="M505.599365,155.194389 L548.738677,155.194389 L548.738677,263.841249 L547.735437,263.841249 L547.735437,156.191149 L506.602605,156.191149 L506.602605,170.145792 L505.599365,170.145792 Z" fill="#F8C951"/>
<path d="M220.679259,406.377956 L363.139312,406.377956 L363.139312,407.374716 L221.682498,407.374716 L221.682498,426.31316 L220.679259,426.31316 Z" fill="#F5C349"/>
<path d="M269.838009,445.251604 L427.34666,445.251604 L427.34666,446.248364 L269.838009,446.248364 Z" fill="#75551B"/>
<path d="M362.136072,268.82505 L374.17495,268.82505 L374.17495,285.769973 L356.116633,285.769973 L356.116633,284.773213 L314.983801,284.773213 L314.983801,283.776453 L363.139312,283.776453 L363.139312,282.779693 L364.142552,282.779693 L364.142552,281.782933 L365.145792,281.782933 L365.145792,280.786172 L366.149031,280.786172 L366.149031,279.789412 L367.152271,279.789412 L367.152271,277.795892 L370.161991,277.795892 L370.161991,278.792652 L371.16523,278.792652 L371.16523,277.795892 L372.16847,277.795892 L372.16847,269.82181 L362.136072,269.82181 Z" fill="#161611"/>
<path d="M240.744055,387.439513 L396.246226,387.439513 L396.246226,388.436273 L240.744055,388.436273 Z" fill="#7B5614"/>
<path d="M266.82829,444.254843 L421.327221,444.254843 L421.327221,445.251604 L266.82829,445.251604 Z" fill="#956D22"/>
<path d="M240.744055,386.442752 L394.239746,386.442752 L394.239746,387.439513 L240.744055,387.439513 Z" fill="#D5AA3E"/>
<path d="M566.796994,137.252705 L567.800233,137.252705 L567.800233,287.763494 L566.796994,287.763494 Z" fill="#D6C5B0"/>
<path d="M155.468671,114.327221 L277.863928,114.327221 L277.863928,134.262425 L276.860688,134.262425 L276.860688,115.323981 L268.83477,115.323981 L268.83477,116.320741 L266.82829,116.320741 L266.82829,115.323981 L163.494589,115.323981 L163.494589,116.320741 L161.48811,116.320741 L161.48811,117.317502 L160.48487,117.317502 L160.48487,116.320741 L156.471911,116.320741 L156.471911,115.323981 L155.468671,115.323981 Z" fill="#E8B53F"/>
<path d="M156.471911,314.676019 L158.47839,314.676019 L158.47839,315.672779 L159.48163,315.672779 L159.48163,317.666299 L158.47839,317.666299 L158.47839,318.66306 L157.475151,318.66306 L157.475151,319.65982 L156.471911,319.65982 L156.471911,320.65658 L155.468671,320.65658 L155.468671,321.65334 L154.465431,321.65334 L154.465431,324.643621 L270.841249,324.643621 L270.841249,325.640381 L153.462191,325.640381 L153.462191,315.672779 L156.471911,315.672779 Z" fill="#916B23"/>
<path d="M151.455712,113.330461 L278.867168,113.330461 L278.867168,135.259185 L277.863928,135.259185 L277.863928,114.327221 L151.455712,114.327221 Z" fill="#F7CA52"/>
<path d="M258.802372,306.701937 L404.272144,306.701937 L404.272144,307.698698 L258.802372,307.698698 Z" fill="#E2B646"/>
<path d="M268.83477,427.30992 L409.288343,427.30992 L409.288343,428.30668 L348.090715,428.30668 L348.090715,429.303441 L347.087475,429.303441 L347.087475,428.30668 L303.948163,428.30668 L303.948163,429.303441 L301.941683,429.303441 L301.941683,428.30668 L278.867168,428.30668 L278.867168,429.303441 L277.863928,429.303441 L277.863928,428.30668 L268.83477,428.30668 Z" fill="#926921"/>
<path d="M74.206246,176.126353 L75.209486,176.126353 L75.209486,200.048597 L76.212726,200.048597 L76.212726,204.035638 L75.209486,204.035638 L75.209486,206.029158 L76.212726,206.029158 L76.212726,213.00648 L77.215966,213.00648 L77.215966,215.99676 L76.212726,215.99676 L76.212726,220.980561 L75.209486,220.980561 L75.209486,249.886607 L76.212726,249.886607 L76.212726,260.850969 L75.209486,260.850969 L75.209486,261.847729 L76.212726,261.847729 L76.212726,265.83477 L77.215966,265.83477 L77.215966,266.83153 L76.212726,266.83153 L76.212726,267.82829 L75.209486,267.82829 L75.209486,265.83477 L74.206246,265.83477 L74.206246,257.860688 L73.203006,257.860688 L73.203006,254.870408 L72.199767,254.870408 L72.199767,248.889846 L73.203006,248.889846 L73.203006,250.883367 L74.206246,250.883367 Z" fill="#926B27"/>
<path d="M263.818571,250.883367 L264.82181,250.883367 L264.82181,266.83153 L372.16847,266.83153 L372.16847,250.883367 L373.17171,250.883367 L373.17171,267.82829 L263.818571,267.82829 Z" fill="#F8D655"/>
<path d="M112.329359,175.129592 L151.455712,175.129592 L151.455712,249.886607 L140.420074,249.886607 L140.420074,248.889846 L150.452472,248.889846 L150.452472,176.126353 L113.332599,176.126353 L113.332599,192.074516 L112.329359,192.074516 Z" fill="#7F5D16"/>
<path d="M181.552906,426.31316 L182.556146,426.31316 L182.556146,464.190047 L281.876887,464.190047 L281.876887,465.186807 L181.552906,465.186807 Z" fill="#837153"/>
<path d="M503.592885,287.763494 L566.796994,287.763494 L566.796994,288.760254 L504.596125,288.760254 L504.596125,289.757014 L505.599365,289.757014 L505.599365,297.731096 L504.596125,297.731096 L504.596125,304.708417 L505.599365,304.708417 L505.599365,307.698698 L504.596125,307.698698 L504.596125,308.695458 L493.560487,308.695458 L493.560487,307.698698 L486.537809,307.698698 L486.537809,306.701937 L503.592885,306.701937 L503.592885,304.708417 L502.589646,304.708417 L502.589646,302.714897 L501.586406,302.714897 L501.586406,296.734335 L502.589646,296.734335 L502.589646,295.737575 L503.592885,295.737575 Z" fill="#B39B73"/>
<path d="M564.790514,219.983801 L565.793754,219.983801 L565.793754,286.766734 L504.596125,286.766734 L504.596125,285.769973 L564.790514,285.769973 L564.790514,274.805611 L563.787274,274.805611 L563.787274,275.802372 L562.784034,275.802372 L562.784034,271.815331 L563.787274,271.815331 L563.787274,270.818571 L564.790514,270.818571 Z" fill="#916A22"/>
<path d="M238.737575,425.3164 L371.16523,425.3164 L371.16523,426.31316 L238.737575,426.31316 Z" fill="#EDBD49"/>
<path d="M546.732197,156.191149 L547.735437,156.191149 L547.735437,267.82829 L539.709519,267.82829 L539.709519,266.83153 L541.715998,266.83153 L541.715998,265.83477 L542.719238,265.83477 L542.719238,264.838009 L543.722478,264.838009 L543.722478,263.841249 L546.732197,263.841249 Z" fill="#EDB73E"/>
<path d="M549.741917,139.246226 L565.793754,139.246226 L565.793754,219.983801 L564.790514,219.983801 L564.790514,146.223547 L563.787274,146.223547 L563.787274,145.226787 L562.784034,145.226787 L562.784034,144.230027 L561.780795,144.230027 L561.780795,145.226787 L557.767835,145.226787 L557.767835,143.233266 L558.771075,143.233266 L558.771075,142.236506 L559.774315,142.236506 L559.774315,141.239746 L558.771075,141.239746 L558.771075,140.242986 L555.761356,140.242986 L555.761356,141.239746 L554.758116,141.239746 L554.758116,140.242986 L552.751636,140.242986 L552.751636,141.239746 L550.745157,141.239746 L550.745157,140.242986 L549.741917,140.242986 Z" fill="#916A22"/>
<path d="M506.602605,95.388777 L531.6836,95.388777 L531.6836,137.252705 L530.68036,137.252705 L530.68036,96.385538 L515.631763,96.385538 L515.631763,97.382298 L512.622044,97.382298 L512.622044,98.379058 L511.618804,98.379058 L511.618804,99.375818 L510.615564,99.375818 L510.615564,100.372578 L509.612324,100.372578 L509.612324,97.382298 L508.609085,97.382298 L508.609085,101.369339 L507.605845,101.369339 L507.605845,135.259185 L511.618804,135.259185 L511.618804,136.255945 L508.609085,136.255945 L508.609085,137.252705 L506.602605,137.252705 Z" fill="#F3C248"/>
<path d="M356.116633,326.637141 L485.534569,326.637141 L485.534569,327.633901 L356.116633,327.633901 Z" fill="#BFA984"/>
<path d="M418.317502,95.388777 L506.602605,95.388777 L506.602605,137.252705 L505.599365,137.252705 L505.599365,96.385538 L418.317502,96.385538 Z" fill="#7B5410"/>
<path d="M211.6501,461.199767 L212.65334,461.199767 L212.65334,462.196527 L327.022679,462.196527 L327.022679,463.193287 L199.611223,463.193287 L199.611223,462.196527 L211.6501,462.196527 Z" fill="#71531F"/>
<path d="M221.682498,417.342318 L224.692218,417.342318 L224.692218,419.335839 L223.688978,419.335839 L223.688978,420.332599 L225.695458,420.332599 L225.695458,421.329359 L226.698698,421.329359 L226.698698,422.326119 L225.695458,422.326119 L225.695458,423.322879 L224.692218,423.322879 L224.692218,424.31964 L229.708417,424.31964 L229.708417,425.3164 L236.731096,425.3164 L236.731096,424.31964 L315.987041,424.31964 L315.987041,425.3164 L238.737575,425.3164 L238.737575,426.31316 L221.682498,426.31316 Z" fill="#EFBB44"/>
<path d="M356.116633,325.640381 L484.531329,325.640381 L484.531329,326.637141 L356.116633,326.637141 Z" fill="#7C520E"/>
<path d="M487.541049,175.129592 L527.670641,175.129592 L527.670641,190.080995 L526.667401,190.080995 L526.667401,176.126353 L488.544288,176.126353 L488.544288,249.886607 L487.541049,249.886607 Z" fill="#7C5917"/>
<path d="M373.17171,250.883367 L374.17495,250.883367 L374.17495,268.82505 L263.818571,268.82505 L263.818571,267.82829 L373.17171,267.82829 Z" fill="#584E1E"/>
<path d="M151.455712,112.333701 L278.867168,112.333701 L278.867168,113.330461 L151.455712,113.330461 Z" fill="#B48928"/>
<path d="M151.455712,111.33694 L278.867168,111.33694 L278.867168,112.333701 L151.455712,112.333701 Z" fill="#845E18"/>
<path d="M74.206246,139.246226 L133.397395,139.246226 L133.397395,140.242986 L75.209486,140.242986 L75.209486,163.16847 L76.212726,163.16847 L76.212726,166.158751 L75.209486,166.158751 L75.209486,172.139312 L76.212726,172.139312 L76.212726,184.100434 L77.215966,184.100434 L77.215966,185.097194 L76.212726,185.097194 L76.212726,199.051837 L75.209486,199.051837 L75.209486,176.126353 L74.206246,176.126353 Z" fill="#916922"/>
<path d="M153.462191,325.640381 L278.867168,325.640381 L278.867168,326.637141 L153.462191,326.637141 Z" fill="#7E530F"/>
<path d="M151.455712,176.126353 L152.458951,176.126353 L152.458951,178.119873 L153.462191,178.119873 L153.462191,190.080995 L152.458951,190.080995 L152.458951,207.025918 L153.462191,207.025918 L153.462191,216.99352 L152.458951,216.99352 L152.458951,219.983801 L153.462191,219.983801 L153.462191,235.931964 L152.458951,235.931964 L152.458951,237.925484 L153.462191,237.925484 L153.462191,249.886607 L152.458951,249.886607 L152.458951,250.883367 L151.455712,250.883367 Z" fill="#F3BF47"/>
<path d="M209.643621,94.392017 L335.048597,94.392017 L335.048597,95.388777 L209.643621,95.388777 Z" fill="#C6A08A"/>
<path d="M260.808851,347.569105 L261.812091,347.569105 L261.812091,360.526988 L262.815331,360.526988 L262.815331,359.530227 L263.818571,359.530227 L263.818571,365.510788 L264.82181,365.510788 L264.82181,364.514028 L265.82505,364.514028 L265.82505,363.517268 L266.82829,363.517268 L266.82829,362.520508 L267.83153,362.520508 L267.83153,364.514028 L266.82829,364.514028 L266.82829,365.510788 L267.83153,365.510788 L267.83153,366.507549 L286.893086,366.507549 L286.893086,365.510788 L288.899566,365.510788 L288.899566,363.517268 L289.902806,363.517268 L289.902806,362.520508 L290.906045,362.520508 L290.906045,359.530227 L291.909285,359.530227 L291.909285,358.533467 L292.912525,358.533467 L292.912525,357.536707 L293.915765,357.536707 L293.915765,358.533467 L294.919005,358.533467 L294.919005,360.526988 L293.915765,360.526988 L293.915765,361.523748 L294.919005,361.523748 L294.919005,363.517268 L295.922245,363.517268 L295.922245,364.514028 L296.925484,364.514028 L296.925484,366.507549 L297.928724,366.507549 L297.928724,367.504309 L260.808851,367.504309 Z" fill="#855F19"/>
<path d="M367.152271,321.65334 L369.158751,321.65334 L369.158751,323.646861 L370.161991,323.646861 L370.161991,324.643621 L473.495691,324.643621 L473.495691,325.640381 L362.136072,325.640381 L362.136072,324.643621 L364.142552,324.643621 L364.142552,323.646861 L365.145792,323.646861 L365.145792,322.6501 L367.152271,322.6501 Z" fill="#916B24"/>
<path d="M172.523748,288.760254 L173.526988,288.760254 L173.526988,305.705177 L276.860688,305.705177 L276.860688,306.701937 L173.526988,306.701937 L173.526988,307.698698 L172.523748,307.698698 Z" fill="#F5C048"/>
<path d="M549.741917,158.184669 L550.745157,158.184669 L550.745157,269.82181 L549.741917,269.82181 L549.741917,270.818571 L548.738677,270.818571 L548.738677,261.847729 L549.741917,261.847729 Z" fill="#855F1C"/>
<path d="M134.400635,96.385538 L135.403875,96.385538 L135.403875,136.255945 L137.410354,136.255945 L137.410354,137.252705 L136.407115,137.252705 L136.407115,139.246226 L135.403875,139.246226 L135.403875,140.242986 L134.400635,140.242986 L134.400635,141.239746 L136.407115,141.239746 L136.407115,140.242986 L137.410354,140.242986 L137.410354,139.246226 L138.413594,139.246226 L138.413594,141.239746 L137.410354,141.239746 L137.410354,142.236506 L136.407115,142.236506 L136.407115,143.233266 L134.400635,143.233266 L134.400635,142.236506 L133.397395,142.236506 L133.397395,141.239746 L131.390915,141.239746 L131.390915,140.242986 L133.397395,140.242986 L133.397395,139.246226 L74.206246,139.246226 L74.206246,138.249465 L134.400635,138.249465 Z" fill="#885E16"/>
<path d="M171.520508,307.698698 L290.906045,307.698698 L290.906045,308.695458 L171.520508,308.695458 Z" fill="#7E5815"/>
<path d="M297.928724,327.633901 L337.055077,327.633901 L337.055077,367.504309 L336.051837,367.504309 L336.051837,328.630661 L298.931964,328.630661 L298.931964,367.504309 L297.928724,367.504309 Z" fill="#F7C74D"/>
<path d="M91.261323,155.194389 L92.264563,155.194389 L92.264563,269.82181 L91.261323,269.82181 Z" fill="#856018"/>
<path d="M327.022679,462.196527 L439.385538,462.196527 L439.385538,463.193287 L327.022679,463.193287 Z" fill="#70531F"/>
<path d="M358.123113,193.071276 L390.226787,193.071276 L390.226787,194.068036 L359.126353,194.068036 L359.126353,227.957882 L372.16847,227.957882 L372.16847,225.964362 L377.184669,225.964362 L377.184669,226.961122 L379.191149,226.961122 L379.191149,227.957882 L392.233266,227.957882 L392.233266,228.954643 L358.123113,228.954643 Z" fill="#181715"/>
<path d="M73.203006,139.246226 L74.206246,139.246226 L74.206246,250.883367 L73.203006,250.883367 Z" fill="#774E15"/>
<path d="M308.964362,446.248364 L420.323981,446.248364 L420.323981,447.245124 L308.964362,447.245124 Z" fill="#674B18"/>
<path d="M262.815331,287.763494 L374.17495,287.763494 L374.17495,288.760254 L262.815331,288.760254 Z" fill="#EAB43D"/>
<path d="M262.815331,286.766734 L374.17495,286.766734 L374.17495,287.763494 L262.815331,287.763494 Z" fill="#FBD759"/>
<path d="M262.815331,285.769973 L374.17495,285.769973 L374.17495,286.766734 L262.815331,286.766734 Z" fill="#5B4817"/>
<path d="M79.222445,285.769973 L138.413594,285.769973 L138.413594,287.763494 L139.416834,287.763494 L139.416834,288.760254 L138.413594,288.760254 L138.413594,291.750535 L137.410354,291.750535 L137.410354,292.747295 L136.407115,292.747295 L136.407115,293.744055 L135.403875,293.744055 L135.403875,305.705177 L137.410354,305.705177 L137.410354,304.708417 L140.420074,304.708417 L140.420074,305.705177 L144.433033,305.705177 L144.433033,306.701937 L134.400635,306.701937 L134.400635,287.763494 L133.397395,287.763494 L133.397395,286.766734 L79.222445,286.766734 Z" fill="#936A23"/>
<path d="M264.82181,269.82181 L372.16847,269.82181 L372.16847,272.812091 L371.16523,272.812091 L371.16523,271.815331 L370.161991,271.815331 L370.161991,270.818571 L353.106914,270.818571 L353.106914,271.815331 L352.103674,271.815331 L352.103674,270.818571 L264.82181,270.818571 Z" fill="#171513"/>
<path d="M263.818571,308.695458 L373.17171,308.695458 L373.17171,309.692218 L263.818571,309.692218 Z" fill="#916822"/>
<path d="M518.641483,193.071276 L528.673881,193.071276 L528.673881,231.944923 L507.605845,231.944923 L507.605845,230.948163 L526.667401,230.948163 L526.667401,195.064796 L522.654442,195.064796 L522.654442,194.068036 L518.641483,194.068036 Z" fill="#F6F1DE"/>
<path d="M357.119873,192.074516 L394.239746,192.074516 L394.239746,193.071276 L358.123113,193.071276 L358.123113,228.954643 L393.236506,228.954643 L393.236506,229.951403 L357.119873,229.951403 Z" fill="#060706"/>
<path d="M419.320741,113.330461 L486.537809,113.330461 L486.537809,155.194389 L485.534569,155.194389 L485.534569,114.327221 L419.320741,114.327221 Z" fill="#F7C54E"/>
<path d="M165.501069,110.34018 L273.850969,110.34018 L273.850969,111.33694 L165.501069,111.33694 Z" fill="#946C23"/>
<path d="M182.556146,426.31316 L191.585304,426.31316 L191.585304,427.30992 L183.559386,427.30992 L183.559386,454.222445 L185.565865,454.222445 L185.565865,456.215966 L186.569105,456.215966 L186.569105,457.212726 L187.572345,457.212726 L187.572345,458.209486 L191.585304,458.209486 L191.585304,459.206246 L192.588544,459.206246 L192.588544,458.209486 L193.591784,458.209486 L193.591784,461.199767 L194.595024,461.199767 L194.595024,463.193287 L182.556146,463.193287 Z" fill="#624715"/>
<path d="M548.738677,155.194389 L549.741917,155.194389 L549.741917,261.847729 L548.738677,261.847729 Z" fill="#916C1F"/>
<path d="M201.617702,446.248364 L307.961122,446.248364 L307.961122,447.245124 L201.617702,447.245124 Z" fill="#674B18"/>
<path d="M220.679259,405.381196 L327.022679,405.381196 L327.022679,406.377956 L220.679259,406.377956 Z" fill="#DFB03A"/>
<path d="M123.364997,186.093955 L124.368237,186.093955 L124.368237,188.087475 L127.377956,188.087475 L127.377956,187.090715 L128.381196,187.090715 L128.381196,188.087475 L129.384436,188.087475 L129.384436,190.080995 L139.416834,190.080995 L139.416834,191.077755 L138.413594,191.077755 L138.413594,194.068036 L137.410354,194.068036 L137.410354,199.051837 L136.407115,199.051837 L136.407115,211.012959 L135.403875,211.012959 L135.403875,193.071276 L122.361757,193.071276 L122.361757,192.074516 L121.358517,192.074516 L121.358517,191.077755 L118.348798,191.077755 L118.348798,190.080995 L119.352038,190.080995 L119.352038,189.084235 L118.348798,189.084235 L118.348798,188.087475 L119.352038,188.087475 L119.352038,187.090715 L120.355278,187.090715 L120.355278,188.087475 L121.358517,188.087475 L121.358517,187.090715 L123.364997,187.090715 Z" fill="#936A22"/>
<path d="M177.539947,139.246226 L178.543187,139.246226 L178.543187,140.242986 L182.556146,140.242986 L182.556146,141.239746 L183.559386,141.239746 L183.559386,140.242986 L184.562625,140.242986 L184.562625,139.246226 L186.569105,139.246226 L186.569105,140.242986 L188.575585,140.242986 L188.575585,141.239746 L187.572345,141.239746 L187.572345,143.233266 L186.569105,143.233266 L186.569105,144.230027 L187.572345,144.230027 L187.572345,147.220307 L186.569105,147.220307 L186.569105,149.213828 L182.556146,149.213828 L182.556146,150.210588 L177.539947,150.210588 L177.539947,149.213828 L176.536707,149.213828 L176.536707,140.242986 L177.539947,140.242986 Z" fill="#FCFCFC"/>
<path d="M132.394155,95.388777 L133.397395,95.388777 L133.397395,138.249465 L74.206246,138.249465 L74.206246,139.246226 L72.199767,139.246226 L72.199767,138.249465 L73.203006,138.249465 L73.203006,137.252705 L132.394155,137.252705 Z" fill="#CDC2AD"/>
<path d="M356.116633,113.330461 L418.317502,113.330461 L418.317502,114.327221 L357.119873,114.327221 L357.119873,136.255945 L336.051837,136.255945 L336.051837,135.259185 L356.116633,135.259185 Z" fill="#D18B3D"/>
<path d="M290.906045,307.698698 L394.239746,307.698698 L394.239746,308.695458 L290.906045,308.695458 Z" fill="#7D5816"/>
<path d="M528.673881,175.129592 L529.677121,175.129592 L529.677121,190.080995 L531.6836,190.080995 L531.6836,191.077755 L532.68684,191.077755 L532.68684,192.074516 L534.69332,192.074516 L534.69332,193.071276 L535.696559,193.071276 L535.696559,195.064796 L534.69332,195.064796 L534.69332,196.061556 L533.69008,196.061556 L533.69008,197.058317 L532.68684,197.058317 L532.68684,198.055077 L531.6836,198.055077 L531.6836,200.048597 L532.68684,200.048597 L532.68684,201.045357 L531.6836,201.045357 L531.6836,207.025918 L532.68684,207.025918 L532.68684,208.022679 L531.6836,208.022679 L531.6836,213.00648 L530.68036,213.00648 L530.68036,230.948163 L529.677121,230.948163 L529.677121,194.068036 L528.673881,194.068036 Z" fill="#F3BE4B"/>
<path d="M500.583166,188.087475 L503.592885,188.087475 L503.592885,189.084235 L506.602605,189.084235 L506.602605,188.087475 L507.605845,188.087475 L507.605845,192.074516 L506.602605,192.074516 L506.602605,193.071276 L504.596125,193.071276 L504.596125,228.954643 L501.586406,228.954643 L501.586406,227.957882 L500.583166,227.957882 L500.583166,226.961122 L499.579926,226.961122 L499.579926,224.967602 L500.583166,224.967602 L500.583166,223.970842 L502.589646,223.970842 L502.589646,222.974082 L503.592885,222.974082 L503.592885,219.983801 L502.589646,219.983801 L502.589646,220.980561 L500.583166,220.980561 L500.583166,219.983801 L501.586406,219.983801 L501.586406,218.987041 L502.589646,218.987041 L502.589646,217.990281 L503.592885,217.990281 L503.592885,196.061556 L501.586406,196.061556 L501.586406,195.064796 L500.583166,195.064796 L500.583166,194.068036 L499.579926,194.068036 L499.579926,193.071276 L498.576686,193.071276 L498.576686,191.077755 L499.579926,191.077755 L499.579926,190.080995 L500.583166,190.080995 Z" fill="#916A22"/>
<path d="M351.100434,463.193287 L453.430895,463.193287 L453.430895,464.190047 L351.100434,464.190047 Z" fill="#62420F"/>
<path d="M350.097194,402.390915 L351.100434,402.390915 L351.100434,403.387676 L407.281864,403.387676 L407.281864,402.390915 L408.285103,402.390915 L408.285103,403.387676 L416.311022,403.387676 L416.311022,404.384436 L315.987041,404.384436 L315.987041,403.387676 L350.097194,403.387676 Z" fill="#8D6723"/>
<path d="M399.255945,367.504309 L414.304542,367.504309 L414.304542,387.439513 L423.333701,387.439513 L423.333701,388.436273 L428.3499,388.436273 L428.3499,389.433033 L427.34666,389.433033 L427.34666,390.429793 L424.33694,390.429793 L424.33694,391.426553 L423.333701,391.426553 L423.333701,392.423314 L422.330461,392.423314 L422.330461,391.426553 L420.323981,391.426553 L420.323981,392.423314 L419.320741,392.423314 L419.320741,393.420074 L417.314262,393.420074 L417.314262,392.423314 L415.307782,392.423314 L415.307782,391.426553 L413.301302,391.426553 L413.301302,390.429793 L412.298063,390.429793 L412.298063,389.433033 L410.291583,389.433033 L410.291583,387.439513 L412.298063,387.439513 L412.298063,385.445992 L413.301302,385.445992 L413.301302,368.501069 L399.255945,368.501069 Z" fill="#805C1F"/>
<path d="M353.106914,305.705177 L453.430895,305.705177 L453.430895,306.701937 L353.106914,306.701937 Z" fill="#F4BF46"/>
<path d="M486.537809,113.330461 L487.541049,113.330461 L487.541049,155.194389 L505.599365,155.194389 L505.599365,156.191149 L487.541049,156.191149 L487.541049,175.129592 L485.534569,175.129592 L485.534569,155.194389 L486.537809,155.194389 Z" fill="#D3A53B"/>
<path d="M219.676019,426.31316 L318.99676,426.31316 L318.99676,427.30992 L219.676019,427.30992 Z" fill="#845E18"/>
<path d="M506.602605,78.443854 L547.735437,78.443854 L547.735437,137.252705 L546.732197,137.252705 L546.732197,79.440614 L506.602605,79.440614 Z" fill="#9E814F"/>
<path d="M263.818571,268.82505 L362.136072,268.82505 L362.136072,269.82181 L263.818571,269.82181 Z" fill="#0C0A0A"/>
<path d="M507.605845,79.440614 L546.732197,79.440614 L546.732197,130.275384 L545.728958,130.275384 L545.728958,80.437375 L508.609085,80.437375 L508.609085,88.411456 L507.605845,88.411456 Z" fill="#805912"/>
<path d="M318.99676,426.31316 L415.307782,426.31316 L415.307782,427.30992 L318.99676,427.30992 Z" fill="#845D18"/>
<path d="M242.750535,193.071276 L276.860688,193.071276 L276.860688,228.954643 L268.83477,228.954643 L268.83477,227.957882 L270.841249,227.957882 L270.841249,225.964362 L271.844489,225.964362 L271.844489,224.967602 L272.847729,224.967602 L272.847729,223.970842 L273.850969,223.970842 L273.850969,222.974082 L274.854208,222.974082 L274.854208,221.977321 L275.857448,221.977321 L275.857448,194.068036 L242.750535,194.068036 Z" fill="#191814"/>
<path d="M336.051837,136.255945 L356.116633,136.255945 L356.116633,137.252705 L338.058317,137.252705 L338.058317,156.191149 L337.055077,156.191149 L337.055077,157.187909 L299.935204,157.187909 L299.935204,156.191149 L336.051837,156.191149 Z" fill="#F5C750"/>
<path d="M418.317502,96.385538 L493.560487,96.385538 L493.560487,97.382298 L421.327221,97.382298 L421.327221,99.375818 L419.320741,99.375818 L419.320741,113.330461 L418.317502,113.330461 Z" fill="#926826"/>
<path d="M135.403875,96.385538 L227.701937,96.385538 L227.701937,97.382298 L199.611223,97.382298 L199.611223,98.379058 L197.604743,98.379058 L197.604743,97.382298 L158.47839,97.382298 L158.47839,98.379058 L157.475151,98.379058 L157.475151,97.382298 L135.403875,97.382298 Z" fill="#916A26"/>
<path d="M183.559386,95.388777 L278.867168,95.388777 L278.867168,96.385538 L183.559386,96.385538 Z" fill="#82580F"/>
<path d="M361.132832,464.190047 L454.434135,464.190047 L454.434135,465.186807 L361.132832,465.186807 Z" fill="#8C7759"/>
<path d="M315.987041,424.31964 L409.288343,424.31964 L409.288343,425.3164 L315.987041,425.3164 Z" fill="#F0BC46"/>
<path d="M263.818571,284.773213 L356.116633,284.773213 L356.116633,285.769973 L263.818571,285.769973 Z" fill="#0C0D0A"/>
<path d="M133.397395,95.388777 L183.559386,95.388777 L183.559386,96.385538 L134.400635,96.385538 L134.400635,138.249465 L133.397395,138.249465 Z" fill="#78500D"/>
<path d="M240.744055,385.445992 L332.038878,385.445992 L332.038878,386.442752 L240.744055,386.442752 Z" fill="#F8C549"/>
<path d="M279.870408,327.633901 L280.873647,327.633901 L280.873647,346.572345 L281.876887,346.572345 L281.876887,345.575585 L282.880127,345.575585 L282.880127,346.572345 L283.883367,346.572345 L283.883367,348.565865 L282.880127,348.565865 L282.880127,350.559386 L281.876887,350.559386 L281.876887,351.556146 L280.873647,351.556146 L280.873647,352.552906 L279.870408,352.552906 L279.870408,353.549666 L278.867168,353.549666 L278.867168,354.546426 L277.863928,354.546426 L277.863928,353.549666 L271.844489,353.549666 L271.844489,351.556146 L270.841249,351.556146 L270.841249,348.565865 L269.838009,348.565865 L269.838009,347.569105 L279.870408,347.569105 Z" fill="#825C1A"/>
<path d="M305.954643,388.436273 L396.246226,388.436273 L396.246226,389.433033 L305.954643,389.433033 Z" fill="#936922"/>
<path d="M418.317502,94.392017 L506.602605,94.392017 L506.602605,95.388777 L418.317502,95.388777 Z" fill="#C9B99C"/>
<path d="M327.022679,405.381196 L414.304542,405.381196 L414.304542,406.377956 L327.022679,406.377956 Z" fill="#E2B33E"/>
<path d="M221.682498,402.390915 L222.685738,402.390915 L222.685738,403.387676 L240.744055,403.387676 L240.744055,402.390915 L241.747295,402.390915 L241.747295,403.387676 L305.954643,403.387676 L305.954643,404.384436 L220.679259,404.384436 L220.679259,403.387676 L221.682498,403.387676 Z" fill="#906923"/>
<path d="M487.541049,269.82181 L548.738677,269.82181 L548.738677,270.818571 L488.544288,270.818571 L488.544288,282.779693 L491.554008,282.779693 L491.554008,284.773213 L490.550768,284.773213 L490.550768,285.769973 L489.547528,285.769973 L489.547528,286.766734 L488.544288,286.766734 L488.544288,287.763494 L487.541049,287.763494 Z" fill="#7F5D1B"/>
<path d="M105.30668,150.210588 L107.31316,150.210588 L107.31316,152.204108 L110.322879,152.204108 L110.322879,153.200868 L113.332599,153.200868 L113.332599,154.197628 L151.455712,154.197628 L151.455712,155.194389 L97.280762,155.194389 L97.280762,153.200868 L99.287241,153.200868 L99.287241,152.204108 L101.293721,152.204108 L101.293721,151.207348 L102.296961,151.207348 L102.296961,152.204108 L104.303441,152.204108 L104.303441,151.207348 L105.30668,151.207348 Z" fill="#936B1B"/>
<path d="M355.113393,331.620942 L356.116633,331.620942 L356.116633,336.604743 L357.119873,336.604743 L357.119873,343.582064 L356.116633,343.582064 L356.116633,347.569105 L375.17819,347.569105 L375.17819,348.565865 L367.152271,348.565865 L367.152271,349.562625 L366.149031,349.562625 L366.149031,350.559386 L365.145792,350.559386 L365.145792,351.556146 L364.142552,351.556146 L364.142552,352.552906 L362.136072,352.552906 L362.136072,350.559386 L361.132832,350.559386 L361.132832,351.556146 L359.126353,351.556146 L359.126353,350.559386 L355.113393,350.559386 L355.113393,349.562625 L354.110154,349.562625 L354.110154,347.569105 L352.103674,347.569105 L352.103674,345.575585 L353.106914,345.575585 L353.106914,343.582064 L354.110154,343.582064 L354.110154,342.585304 L355.113393,342.585304 Z" fill="#8D692C"/>
<path d="M527.670641,175.129592 L528.673881,175.129592 L528.673881,193.071276 L519.644722,193.071276 L519.644722,192.074516 L518.641483,192.074516 L518.641483,190.080995 L516.635003,190.080995 L516.635003,188.087475 L515.631763,188.087475 L515.631763,186.093955 L526.667401,186.093955 L526.667401,190.080995 L527.670641,190.080995 Z" fill="#966D1F"/>
<path d="M173.526988,306.701937 L258.802372,306.701937 L258.802372,307.698698 L173.526988,307.698698 Z" fill="#E6BA48"/>
<path d="M92.264563,184.100434 L93.267803,184.100434 L93.267803,268.82505 L92.264563,268.82505 Z" fill="#F2C44E"/>
<path d="M150.452472,260.850969 L151.455712,260.850969 L151.455712,269.82181 L133.397395,269.82181 L133.397395,268.82505 L140.420074,268.82505 L140.420074,267.82829 L139.416834,267.82829 L139.416834,266.83153 L140.420074,266.83153 L140.420074,264.838009 L141.423314,264.838009 L141.423314,263.841249 L142.426553,263.841249 L142.426553,262.844489 L146.439513,262.844489 L146.439513,263.841249 L147.442752,263.841249 L147.442752,262.844489 L149.449232,262.844489 L149.449232,261.847729 L150.452472,261.847729 Z" fill="#CD9B2F"/>
<path d="M542.719238,151.207348 L543.722478,151.207348 L543.722478,152.204108 L548.738677,152.204108 L548.738677,153.200868 L549.741917,153.200868 L549.741917,155.194389 L490.550768,155.194389 L490.550768,154.197628 L536.699799,154.197628 L536.699799,152.204108 L537.703039,152.204108 L537.703039,153.200868 L538.706279,153.200868 L538.706279,152.204108 L542.719238,152.204108 Z" fill="#956E1E"/>
<path d="M394.239746,367.504309 L395.242986,367.504309 L395.242986,387.439513 L394.239746,387.439513 L394.239746,386.442752 L332.038878,386.442752 L332.038878,385.445992 L394.239746,385.445992 Z" fill="#F7C348"/>
<path d="M172.523748,135.259185 L190.582064,135.259185 L190.582064,154.197628 L185.565865,154.197628 L185.565865,153.200868 L189.578825,153.200868 L189.578825,149.213828 L186.569105,149.213828 L186.569105,147.220307 L187.572345,147.220307 L187.572345,144.230027 L186.569105,144.230027 L186.569105,143.233266 L187.572345,143.233266 L187.572345,141.239746 L188.575585,141.239746 L188.575585,142.236506 L189.578825,142.236506 L189.578825,136.255945 L173.526988,136.255945 L173.526988,152.204108 L175.533467,152.204108 L175.533467,153.200868 L176.536707,153.200868 L176.536707,154.197628 L173.526988,154.197628 L173.526988,155.194389 L172.523748,155.194389 Z" fill="#FDFCF9"/>
<path d="M357.119873,114.327221 L418.317502,114.327221 L418.317502,115.323981 L358.123113,115.323981 L358.123113,136.255945 L357.119873,136.255945 Z" fill="#F8C84F"/>
<path d="M374.17495,348.565865 L375.17819,348.565865 L375.17819,367.504309 L362.136072,367.504309 L362.136072,365.510788 L363.139312,365.510788 L363.139312,363.517268 L365.145792,363.517268 L365.145792,362.520508 L366.149031,362.520508 L366.149031,361.523748 L367.152271,361.523748 L367.152271,362.520508 L370.161991,362.520508 L370.161991,361.523748 L372.16847,361.523748 L372.16847,360.526988 L374.17495,360.526988 Z" fill="#815C19"/>
<path d="M72.199767,286.766734 L74.206246,286.766734 L74.206246,287.763494 L133.397395,287.763494 L133.397395,307.698698 L132.394155,307.698698 L132.394155,288.760254 L73.203006,288.760254 L73.203006,287.763494 L72.199767,287.763494 Z" fill="#CDC0A8"/>
<path d="M243.753774,250.883367 L263.818571,250.883367 L263.818571,268.82505 L243.753774,268.82505 L243.753774,267.82829 L260.808851,267.82829 L260.808851,254.870408 L259.805611,254.870408 L259.805611,253.873647 L251.779693,253.873647 L251.779693,252.876887 L261.812091,252.876887 L261.812091,267.82829 L262.815331,267.82829 L262.815331,251.880127 L243.753774,251.880127 Z" fill="#332E19"/>
<path d="M504.596125,249.886607 L522.654442,249.886607 L522.654442,250.883367 L516.635003,250.883367 L516.635003,251.880127 L518.641483,251.880127 L518.641483,252.876887 L513.625284,252.876887 L513.625284,253.873647 L512.622044,253.873647 L512.622044,254.870408 L511.618804,254.870408 L511.618804,255.867168 L510.615564,255.867168 L510.615564,256.863928 L509.612324,256.863928 L509.612324,257.860688 L508.609085,257.860688 L508.609085,258.857448 L506.602605,258.857448 L506.602605,257.860688 L504.596125,257.860688 Z" fill="#ECB540"/>
<path d="M504.596125,193.071276 L505.599365,193.071276 L505.599365,232.941683 L520.647962,232.941683 L520.647962,233.938444 L519.644722,233.938444 L519.644722,234.935204 L518.641483,234.935204 L518.641483,233.938444 L511.618804,233.938444 L511.618804,234.935204 L512.622044,234.935204 L512.622044,235.931964 L511.618804,235.931964 L511.618804,236.928724 L510.615564,236.928724 L510.615564,237.925484 L509.612324,237.925484 L509.612324,235.931964 L510.615564,235.931964 L510.615564,234.935204 L508.609085,234.935204 L508.609085,235.931964 L506.602605,235.931964 L506.602605,233.938444 L505.599365,233.938444 L505.599365,237.925484 L504.596125,237.925484 L504.596125,235.931964 L503.592885,235.931964 L503.592885,234.935204 L502.589646,234.935204 L502.589646,230.948163 L503.592885,230.948163 L503.592885,231.944923 L504.596125,231.944923 Z" fill="#7F5715"/>
<path d="M297.928724,326.637141 L338.058317,326.637141 L338.058317,367.504309 L337.055077,367.504309 L337.055077,327.633901 L297.928724,327.633901 Z" fill="#BE9433"/>
<path d="M151.455712,307.698698 L152.458951,307.698698 L152.458951,315.672779 L153.462191,315.672779 L153.462191,326.637141 L203.624182,326.637141 L203.624182,327.633901 L152.458951,327.633901 L152.458951,326.637141 L151.455712,326.637141 L151.455712,319.65982 L152.458951,319.65982 L152.458951,318.66306 L151.455712,318.66306 Z" fill="#B9A483"/>
<path d="M281.876887,464.190047 L361.132832,464.190047 L361.132832,465.186807 L281.876887,465.186807 Z" fill="#8B7554"/>
<path d="M466.473012,288.760254 L486.537809,288.760254 L486.537809,289.757014 L467.476252,289.757014 L467.476252,307.698698 L468.479492,307.698698 L468.479492,309.692218 L467.476252,309.692218 L467.476252,310.688978 L464.466533,310.688978 L464.466533,311.685738 L463.463293,311.685738 L463.463293,312.682498 L462.460053,312.682498 L462.460053,313.679259 L461.456813,313.679259 L461.456813,312.682498 L460.453574,312.682498 L460.453574,313.679259 L459.450334,313.679259 L459.450334,310.688978 L457.443854,310.688978 L457.443854,311.685738 L455.437375,311.685738 L455.437375,310.688978 L454.434135,310.688978 L454.434135,309.692218 L455.437375,309.692218 L455.437375,308.695458 L466.473012,308.695458 Z" fill="#815D1A"/>
<path d="M201.617702,431.296961 L202.620942,431.296961 L202.620942,444.254843 L266.82829,444.254843 L266.82829,445.251604 L201.617702,445.251604 Z" fill="#956C21"/>
<path d="M505.599365,193.071276 L507.605845,193.071276 L507.605845,231.944923 L505.599365,231.944923 Z" fill="#E8E2D6"/>
<path d="M132.394155,193.071276 L134.400635,193.071276 L134.400635,231.944923 L132.394155,231.944923 Z" fill="#E0DBCE"/>
<path d="M276.860688,305.705177 L353.106914,305.705177 L353.106914,306.701937 L276.860688,306.701937 Z" fill="#F5C047"/>
<path d="M278.867168,192.074516 L279.870408,192.074516 L279.870408,231.944923 L242.750535,231.944923 L242.750535,230.948163 L278.867168,230.948163 Z" fill="#F9D24D"/>
<path d="M240.744055,191.077755 L278.867168,191.077755 L278.867168,229.951403 L277.863928,229.951403 L277.863928,192.074516 L240.744055,192.074516 Z" fill="#6B5C23"/>
<path d="M112.329359,193.071276 L131.390915,193.071276 L131.390915,194.068036 L113.332599,194.068036 L113.332599,230.948163 L132.394155,230.948163 L132.394155,231.944923 L112.329359,231.944923 Z" fill="#FAF9F5"/>
<path d="M133.397395,94.392017 L209.643621,94.392017 L209.643621,95.388777 L133.397395,95.388777 Z" fill="#C4B393"/>
<path d="M203.624182,326.637141 L278.867168,326.637141 L278.867168,327.633901 L203.624182,327.633901 Z" fill="#BFA983"/>
<path d="M275.857448,321.65334 L276.860688,321.65334 L276.860688,322.6501 L277.863928,322.6501 L277.863928,321.65334 L280.873647,321.65334 L280.873647,323.646861 L286.893086,323.646861 L286.893086,324.643621 L288.899566,324.643621 L288.899566,326.637141 L279.870408,326.637141 L279.870408,347.569105 L278.867168,347.569105 L278.867168,325.640381 L270.841249,325.640381 L270.841249,324.643621 L271.844489,324.643621 L271.844489,323.646861 L272.847729,323.646861 L272.847729,322.6501 L273.850969,322.6501 L273.850969,323.646861 L274.854208,323.646861 L274.854208,322.6501 L275.857448,322.6501 Z" fill="#967232"/>
<path d="M484.531329,175.129592 L485.534569,175.129592 L485.534569,249.886607 L484.531329,249.886607 Z" fill="#EBB63D"/>
<path d="M486.537809,175.129592 L487.541049,175.129592 L487.541049,249.886607 L486.537809,249.886607 Z" fill="#B69032"/>
<path d="M485.534569,175.129592 L486.537809,175.129592 L486.537809,249.886607 L485.534569,249.886607 Z" fill="#F9CA4E"/>
<path d="M484.531329,308.695458 L485.534569,308.695458 L485.534569,326.637141 L484.531329,326.637141 L484.531329,325.640381 L473.495691,325.640381 L473.495691,324.643621 L474.498931,324.643621 L474.498931,323.646861 L475.502171,323.646861 L475.502171,322.6501 L483.528089,322.6501 L483.528089,313.679259 L482.524849,313.679259 L482.524849,314.676019 L481.52161,314.676019 L481.52161,315.672779 L479.51513,315.672779 L479.51513,314.676019 L478.51189,314.676019 L478.51189,312.682498 L479.51513,312.682498 L479.51513,311.685738 L482.524849,311.685738 L482.524849,312.682498 L483.528089,312.682498 L483.528089,311.685738 L484.531329,311.685738 Z" fill="#87631F"/>
<path d="M414.304542,405.381196 L415.307782,405.381196 L415.307782,426.31316 L414.304542,426.31316 L414.304542,407.374716 L363.139312,407.374716 L363.139312,406.377956 L414.304542,406.377956 Z" fill="#F5C34C"/>
<path d="M394.239746,307.698698 L466.473012,307.698698 L466.473012,308.695458 L394.239746,308.695458 Z" fill="#7F5A16"/>
<path d="M241.747295,192.074516 L277.863928,192.074516 L277.863928,228.954643 L276.860688,228.954643 L276.860688,193.071276 L241.747295,193.071276 Z" fill="#080807"/>
<path d="M412.298063,415.348798 L413.301302,415.348798 L413.301302,425.3164 L411.294823,425.3164 L411.294823,426.31316 L371.16523,426.31316 L371.16523,425.3164 L409.288343,425.3164 L409.288343,423.322879 L408.285103,423.322879 L408.285103,421.329359 L409.288343,421.329359 L409.288343,420.332599 L410.291583,420.332599 L410.291583,419.335839 L411.294823,419.335839 L411.294823,418.339078 L412.298063,418.339078 Z" fill="#ECBA48"/>
<path d="M241.747295,195.064796 L242.750535,195.064796 L242.750535,228.954643 L277.863928,228.954643 L277.863928,229.951403 L241.747295,229.951403 Z" fill="#070A07"/>
<path d="M374.17495,249.886607 L395.242986,249.886607 L395.242986,252.876887 L396.246226,252.876887 L396.246226,255.867168 L398.252705,255.867168 L398.252705,256.863928 L396.246226,256.863928 L396.246226,258.857448 L395.242986,258.857448 L395.242986,266.83153 L396.246226,266.83153 L396.246226,271.815331 L395.242986,271.815331 L395.242986,268.82505 L394.239746,268.82505 L394.239746,267.82829 L393.236506,267.82829 L393.236506,250.883367 L374.17495,250.883367 Z" fill="#F3C74B"/>
<path d="M487.541049,156.191149 L505.599365,156.191149 L505.599365,157.187909 L492.557248,157.187909 L492.557248,163.16847 L491.554008,163.16847 L491.554008,165.161991 L490.550768,165.161991 L490.550768,166.158751 L489.547528,166.158751 L489.547528,167.155511 L488.544288,167.155511 L488.544288,175.129592 L487.541049,175.129592 Z" fill="#CE9B2F"/>
<path d="M92.264563,155.194389 L133.397395,155.194389 L133.397395,156.191149 L93.267803,156.191149 L93.267803,184.100434 L92.264563,184.100434 Z" fill="#F4C551"/>
<path d="M201.617702,445.251604 L269.838009,445.251604 L269.838009,446.248364 L201.617702,446.248364 Z" fill="#73541B"/>
<path d="M395.242986,367.504309 L399.255945,367.504309 L399.255945,371.49135 L400.259185,371.49135 L400.259185,372.48811 L401.262425,372.48811 L401.262425,375.47839 L400.259185,375.47839 L400.259185,376.475151 L399.255945,376.475151 L399.255945,377.471911 L397.249465,377.471911 L397.249465,387.439513 L395.242986,387.439513 Z" fill="#906B23"/>
<path d="M348.090715,360.526988 L349.093955,360.526988 L349.093955,362.520508 L350.097194,362.520508 L350.097194,363.517268 L352.103674,363.517268 L352.103674,364.514028 L353.106914,364.514028 L353.106914,363.517268 L356.116633,363.517268 L356.116633,364.514028 L357.119873,364.514028 L357.119873,365.510788 L359.126353,365.510788 L359.126353,366.507549 L357.119873,366.507549 L357.119873,367.504309 L347.087475,367.504309 L347.087475,366.507549 L341.068036,366.507549 L341.068036,365.510788 L342.071276,365.510788 L342.071276,364.514028 L343.074516,364.514028 L343.074516,363.517268 L344.077755,363.517268 L344.077755,362.520508 L345.080995,362.520508 L345.080995,361.523748 L348.090715,361.523748 Z" fill="#8F681D"/>
<path d="M293.915765,327.633901 L297.928724,327.633901 L297.928724,366.507549 L296.925484,366.507549 L296.925484,364.514028 L295.922245,364.514028 L295.922245,363.517268 L294.919005,363.517268 L294.919005,361.523748 L293.915765,361.523748 L293.915765,360.526988 L294.919005,360.526988 L294.919005,358.533467 L293.915765,358.533467 L293.915765,356.539947 L294.919005,356.539947 L294.919005,355.543187 L295.922245,355.543187 L295.922245,354.546426 L296.925484,354.546426 L296.925484,329.627422 L293.915765,329.627422 Z" fill="#835F1A"/>
<path d="M153.462191,148.217067 L157.475151,148.217067 L157.475151,155.194389 L156.471911,155.194389 L156.471911,156.191149 L154.465431,156.191149 L154.465431,155.194389 L152.458951,155.194389 L152.458951,162.17171 L153.462191,162.17171 L153.462191,165.161991 L152.458951,165.161991 L152.458951,168.152271 L151.455712,168.152271 L151.455712,156.191149 L133.397395,156.191149 L133.397395,155.194389 L151.455712,155.194389 L151.455712,154.197628 L153.462191,154.197628 Z" fill="#EDB846"/>
<path d="M227.701937,96.385538 L278.867168,96.385538 L278.867168,111.33694 L277.863928,111.33694 L277.863928,97.382298 L228.705177,97.382298 L228.705177,98.379058 L227.701937,98.379058 Z" fill="#916A26"/>
<path d="M240.744055,388.436273 L305.954643,388.436273 L305.954643,389.433033 L240.744055,389.433033 Z" fill="#926822"/>
<path d="M264.82181,280.786172 L267.83153,280.786172 L267.83153,282.779693 L268.83477,282.779693 L268.83477,283.776453 L314.983801,283.776453 L314.983801,284.773213 L263.818571,284.773213 L263.818571,285.769973 L262.815331,285.769973 L262.815331,281.782933 L263.818571,281.782933 L263.818571,283.776453 L264.82181,283.776453 Z" fill="#181713"/></g>
  <g id="rig_body__hair_underlap"><path d="M278.867168,96.385538 L280.873647,96.385538 L280.873647,97.382298 L322.00648,97.382298 L322.00648,98.379058 L323.009719,98.379058 L323.009719,97.382298 L390.226787,97.382298 L390.226787,98.379058 L392.233266,98.379058 L392.233266,99.375818 L393.236506,99.375818 L393.236506,98.379058 L395.242986,98.379058 L395.242986,97.382298 L397.249465,97.382298 L397.249465,98.379058 L399.255945,98.379058 L399.255945,97.382298 L401.262425,97.382298 L401.262425,98.379058 L403.268904,98.379058 L403.268904,97.382298 L413.301302,97.382298 L413.301302,98.379058 L415.307782,98.379058 L415.307782,97.382298 L416.311022,97.382298 L416.311022,109.34342 L415.307782,109.34342 L415.307782,108.34666 L413.301302,108.34666 L413.301302,109.34342 L412.298063,109.34342 L412.298063,110.34018 L411.294823,110.34018 L411.294823,111.33694 L356.116633,111.33694 L356.116633,112.333701 L418.317502,112.333701 L418.317502,113.330461 L356.116633,113.330461 L356.116633,135.259185 L335.048597,135.259185 L335.048597,136.255945 L334.045357,136.255945 L334.045357,153.200868 L301.941683,153.200868 L301.941683,136.255945 L299.935204,136.255945 L299.935204,135.259185 L278.867168,135.259185 Z" fill="#EFB944"/>
<path d="M280.873647,96.385538 L418.317502,96.385538 L418.317502,112.333701 L356.116633,112.333701 L356.116633,111.33694 L411.294823,111.33694 L411.294823,110.34018 L412.298063,110.34018 L412.298063,109.34342 L413.301302,109.34342 L413.301302,108.34666 L415.307782,108.34666 L415.307782,109.34342 L416.311022,109.34342 L416.311022,97.382298 L415.307782,97.382298 L415.307782,98.379058 L413.301302,98.379058 L413.301302,97.382298 L403.268904,97.382298 L403.268904,98.379058 L401.262425,98.379058 L401.262425,97.382298 L399.255945,97.382298 L399.255945,98.379058 L397.249465,98.379058 L397.249465,97.382298 L395.242986,97.382298 L395.242986,98.379058 L393.236506,98.379058 L393.236506,99.375818 L392.233266,99.375818 L392.233266,98.379058 L390.226787,98.379058 L390.226787,97.382298 L323.009719,97.382298 L323.009719,98.379058 L322.00648,98.379058 L322.00648,97.382298 L280.873647,97.382298 Z" fill="#EFB944"/>
<path d="M278.867168,95.388777 L418.317502,95.388777 L418.317502,96.385538 L278.867168,96.385538 Z" fill="#EFB944"/>
<path d="M335.048597,94.392017 L418.317502,94.392017 L418.317502,95.388777 L335.048597,95.388777 Z" fill="#EFB944"/>
<path d="M335.048597,135.259185 L336.051837,135.259185 L336.051837,155.194389 L299.935204,155.194389 L299.935204,136.255945 L300.938444,136.255945 L300.938444,154.197628 L335.048597,154.197628 Z" fill="#EFB944"/>
<path d="M300.938444,136.255945 L301.941683,136.255945 L301.941683,153.200868 L334.045357,153.200868 L334.045357,136.255945 L335.048597,136.255945 L335.048597,154.197628 L300.938444,154.197628 Z" fill="#EFB944"/></g>
  <g id="rig_hair"><path d="M279.620137,95.880842 L281.626444,95.906974 L281.613293,96.903649 L322.742592,97.439358 L322.72944,98.436033 L323.732594,98.449099 L323.745745,97.452424 L390.957037,98.327851 L390.943886,99.324526 L392.950193,99.350658 L392.937042,100.347332 L393.940196,100.360398 L393.953347,99.363724 L395.959654,99.389856 L395.972805,98.393181 L397.979112,98.419314 L397.965961,99.415988 L399.972269,99.44212 L399.98542,98.445446 L401.991727,98.471578 L401.978576,99.468252 L403.984883,99.494385 L403.998034,98.49771 L414.02957,98.628371 L414.016419,99.625045 L416.022726,99.651177 L416.035877,98.654503 L417.039031,98.667569 L416.881219,110.627664 L415.878065,110.614597 L415.891216,109.617923 L413.884909,109.591791 L413.871758,110.588465 L412.868604,110.575399 L412.855453,111.572074 L411.8523,111.559008 L411.839149,112.555682 L356.6657,111.837048 L356.652549,112.833723 L418.848073,113.643819 L418.834922,114.640494 L356.639398,113.830397 L356.350076,135.757237 L335.28385,135.48285 L335.270699,136.479524 L334.267545,136.466458 L334.043978,153.409925 L301.943063,152.991811 L302.16663,136.048344 L300.160323,136.022212 L300.173474,135.025537 L279.107248,134.75115 Z" fill="#A23323"/>
<path d="M281.626444,95.906974 L419.058489,97.697027 L418.848073,113.643819 L356.652549,112.833723 L356.6657,111.837048 L411.839149,112.555682 L411.8523,111.559008 L412.855453,111.572074 L412.868604,110.575399 L413.871758,110.588465 L413.884909,109.591791 L415.891216,109.617923 L415.878065,110.614597 L416.881219,110.627664 L417.039031,98.667569 L416.035877,98.654503 L416.022726,99.651177 L414.016419,99.625045 L414.02957,98.628371 L403.998034,98.49771 L403.984883,99.494385 L401.978576,99.468252 L401.991727,98.471578 L399.98542,98.445446 L399.972269,99.44212 L397.965961,99.415988 L397.979112,98.419314 L395.972805,98.393181 L395.959654,99.389856 L393.953347,99.363724 L393.940196,100.360398 L392.937042,100.347332 L392.950193,99.350658 L390.943886,99.324526 L390.957037,98.327851 L323.745745,97.452424 L323.732594,98.449099 L322.72944,98.436033 L322.742592,97.439358 L281.613293,96.903649 Z" fill="#A9382A"/>
<path d="M279.633288,94.884168 L419.07164,96.700352 L419.058489,97.697027 L279.620137,95.880842 Z" fill="#9C2417"/>
<path d="M335.823042,94.619193 L419.084791,95.703677 L419.07164,96.700352 L335.80989,95.615868 Z" fill="#C57870"/>
<path d="M335.28385,135.48285 L336.287004,135.495916 L336.023983,155.429407 L299.910453,154.959028 L300.160323,136.022212 L301.163476,136.035278 L300.926758,153.97542 L335.033981,154.419666 Z" fill="#922615"/>
<path d="M301.163476,136.035278 L302.16663,136.048344 L301.943063,152.991811 L334.043978,153.409925 L334.267545,136.466458 L335.270699,136.479524 L335.033981,154.419666 L300.926758,153.97542 Z" fill="#AB3829"/></g>
</svg>
