<?xml version="1.0" encoding="UTF-8"?>
<svg xmlns="http://www.w3.org/2000/svg" width="640" height="544" viewBox="0 0 640 544">
<rect width="640" height="544" fill="#F4F2EC"/>
<path data-unit="source_001__contour_01" data-control="rig_cup" d="M411.210888,112.426713 L412.210781,112.412114 L412.22538,113.412008 L478.218347,112.448472 L479.108887,173.441971 L478.108994,173.45657 L479.203921,248.448577 L481.203708,248.419379 L481.77307,287.415223 L461.775202,287.707203 L462.052583,306.705178 L400.059191,307.610318 L400.044591,306.610425 L449.039369,305.895072 L449.02477,304.895179 L170.054504,308.968308 L169.80632,291.97012 L168.806427,291.984719 L169.083809,310.982694 L168.083915,310.997293 L167.791935,290.999424 L147.794066,291.291405 L147.253902,254.295348 L148.253795,254.280749 L148.239196,253.280856 L149.23909,253.266257 L149.063901,241.267536 L148.064008,241.282135 L148.03481,239.282348 L149.034703,239.267749 L148.801119,223.269454 L147.801225,223.284053 L147.757428,220.284373 L148.757322,220.269774 L148.611331,210.270839 L147.611438,210.285438 L147.363255,193.28725 L148.363148,193.272651 L148.18796,181.27393 L147.188066,181.288529 L147.158868,179.288742 L146.158975,179.303341 L146.042182,171.304194 L147.042076,171.289595 L146.998279,168.289914 L147.998172,168.275315 L147.954375,165.275635 L146.954482,165.290234 L146.852289,158.29098 L148.852075,158.261782 L148.866674,159.261675 L150.866461,159.232477 L150.851862,158.232584 L151.851756,158.217985 L151.749562,151.218731 L147.749989,151.277127 L147.837583,157.276488 L145.837796,157.305686 L145.253835,117.309948 L149.253409,117.251552 L149.268008,118.251446 L150.267901,118.236847 L150.2825,119.23674 L154.282074,119.178344 L154.296673,120.178237 L155.296566,120.163638 L155.281967,119.163745 L157.281754,119.134547 L157.267155,118.134654 L260.256178,116.630954 L260.270777,117.630847 L262.270564,117.601649 L262.255965,116.601755 L270.255113,116.484963 L270.532494,135.482938 L271.532387,135.468339 L271.546987,136.468233 L293.544642,136.147054 L293.836623,156.144923 L329.832786,155.619358 L329.847385,156.619251 L293.851222,157.144816 L293.865821,158.14471 L330.861877,157.604546 L330.847278,156.604652 L331.847172,156.590053 L331.56979,137.592078 L349.567872,137.329295 L349.553273,136.329402 L351.55306,136.300204 L351.24648,115.302442 L411.240086,114.4265 Z" fill="#EFB944"/>
<path data-unit="source_001__contour_02" data-control="rig_shine" d="M164.74217,137.825982 L166.656353,158.73856 L186.573093,156.915529 L184.658911,136.002951 Z" fill="#EFB944"/>
<path data-unit="source_001__contour_03" data-control="rig_eye_l" d="M238.353557,191.958738 L238.922919,230.954582 L276.918869,230.399819 L276.933468,231.399712 L240.937305,231.925277 L240.951904,232.925171 L277.94796,232.385007 L277.363999,192.38927 L276.364106,192.403869 L276.349507,191.403975 Z" fill="#EFB944"/>
<path data-unit="source_001__contour_04" data-control="rig_eye_r" d="M354.355793,191.265144 L354.910556,229.261095 L391.906613,228.720931 L391.35185,190.72498 Z" fill="#EFB944"/>
<path data-unit="source_001__contour_05" data-control="rig_mouth" d="M237.527972,247.022591 L237.504235,248.022309 L255.78657,248.45641 L255.762832,249.456128 L234.254203,248.945422 L233.826927,266.94035 L254.260125,267.425521 L253.785373,287.419885 L373.158268,290.254306 L373.63302,270.259941 L394.066218,270.745112 L394.089955,269.745394 L395.165387,269.770929 L395.141649,270.770648 L396.217081,270.796183 L396.145868,273.795338 L397.2213,273.820873 L397.339987,268.822282 L396.264556,268.796746 L396.454456,260.799001 L397.529888,260.824536 L397.577363,258.8251 L399.728226,258.87617 L399.751964,257.876452 L397.601101,257.825381 L397.672313,254.826227 L396.596882,254.800691 L396.668094,251.801537 L374.084033,251.265295 L374.060296,252.265013 L370.834001,252.188407 L370.477938,267.184181 L257.557632,264.502972 L257.77127,255.505508 L258.846702,255.531043 L258.870439,254.531325 L259.945871,254.55686 L260.017083,251.557706 L258.941652,251.53217 L259.012864,248.533016 L260.088296,248.558551 L260.112034,247.558833 Z" fill="#EFB944"/>
<path data-unit="source_002__contour_01" data-control="rig_cup" d="M498.705143,77.145622 L499.705036,77.131023 L499.836427,86.130064 L500.836321,86.115465 L500.719528,78.116318 L537.715585,77.576153 L538.445537,127.570825 L539.44543,127.556226 L539.547623,134.55548 L559.545492,134.263499 L559.560091,135.263393 L558.560198,135.277992 L558.574797,136.277885 L542.576502,136.51147 L542.591101,137.511363 L543.590994,137.496764 L543.605593,138.496657 L545.60538,138.467459 L545.590781,137.467566 L547.590568,137.438368 L547.605167,138.438261 L548.60506,138.423662 L548.590461,137.423769 L551.590142,137.379972 L551.604741,138.379865 L552.604634,138.365266 L552.619233,139.36516 L551.61934,139.379759 L551.633939,140.379652 L550.634045,140.394251 L550.663243,142.394038 L554.662817,142.335642 L554.648218,141.335748 L555.648111,141.321149 L555.66271,142.321043 L556.662604,142.306444 L556.677203,143.306337 L557.677096,143.291738 L559.501975,268.278417 L558.502082,268.293016 L558.516681,269.292909 L557.516787,269.307508 L557.575183,273.307082 L558.575077,273.292483 L558.560478,272.29259 L559.560371,272.277991 L559.72096,283.276818 L499.727355,284.15276 L499.756553,286.152547 L498.756659,286.167146 L498.873452,294.166293 L497.873558,294.180892 L497.888157,295.180786 L496.888264,295.195385 L496.975858,301.194745 L497.975751,301.180146 L498.004949,303.179933 L499.004843,303.165334 L499.034041,305.165121 L482.035853,305.413304 L482.050452,306.413198 L481.050558,306.427797 L481.065157,307.42769 L480.065264,307.442289 L480.109061,310.44197 L479.109167,310.456569 L479.123766,311.456462 L478.123873,311.471061 L478.109274,310.471168 L475.109594,310.514965 L475.124193,311.514858 L474.124299,311.529457 L474.153497,313.529244 L475.153391,313.514645 L475.16799,314.514539 L477.167777,314.48534 L477.153178,313.485447 L478.153071,313.470848 L478.138472,312.470955 L479.138366,312.456356 L479.269757,321.455396 L471.270609,321.572189 L471.285208,322.572082 L470.285315,322.586681 L470.299914,323.586575 L366.310997,325.104874 L366.296398,324.10498 L365.296505,324.119579 L365.267307,322.119792 L363.26752,322.14899 L363.282119,323.148884 L361.282332,323.178082 L361.296931,324.177975 L360.297038,324.192574 L360.311637,325.192468 L358.31185,325.221666 L358.326449,326.221559 L352.327088,326.309153 L352.312489,325.30926 L353.312383,325.294661 L353.297784,324.294767 L351.297997,324.323966 L351.312596,325.323859 L349.312809,325.353057 L349.342007,327.352844 L294.347869,328.15579 L294.362468,329.155684 L293.362574,329.170283 L293.347975,328.17039 L285.348828,328.287182 L285.31963,326.287395 L283.319843,326.316593 L283.305244,325.3167 L277.305883,325.404294 L277.276685,323.404507 L274.277005,323.448304 L274.291604,324.448197 L273.291711,324.462796 L273.277111,323.462903 L272.277218,323.477502 L272.291817,324.477395 L271.291924,324.491994 L271.306523,325.491888 L270.306629,325.506487 L270.29203,324.506593 L269.292137,324.521192 L269.306736,325.521086 L268.306842,325.535685 L268.321441,326.535578 L151.33391,328.243665 L151.290113,325.243984 L152.290007,325.229385 L152.275408,324.229492 L153.275301,324.214893 L153.260702,323.215 L154.260595,323.200401 L154.245996,322.200507 L155.24589,322.185908 L155.231291,321.186015 L156.231184,321.171416 L156.201986,319.171629 L155.202093,319.186228 L155.187494,318.186334 L153.187707,318.215532 L153.202306,319.215426 L149.202732,319.273822 L149.08594,311.274675 L147.086153,311.303873 L147.100752,312.303766 L145.100965,312.332964 L145.086366,311.333071 L130.087965,311.552056 L129.795984,291.554188 L70.802272,292.41553 L70.787673,291.415637 L69.787779,291.430236 L69.364408,262.433326 L70.364301,262.418727 L70.481093,270.417875 L71.480987,270.403276 L71.510185,272.403063 L72.510078,272.388464 L72.495479,271.38857 L73.495373,271.373971 L73.480774,270.374078 L72.48088,270.388677 L72.422484,266.389103 L71.422591,266.403702 L71.407992,265.403809 L72.407885,265.38921 L72.247296,254.390382 L71.247402,254.404981 L70.82403,225.408071 L71.823924,225.393472 L71.750929,220.394005 L72.750822,220.379406 L72.707025,217.379726 L71.707132,217.394325 L71.604938,210.395071 L70.605045,210.40967 L70.575847,208.409883 L71.57574,208.395284 L71.517344,204.39571 L70.517451,204.410309 L70.502852,203.410416 L71.502745,203.395817 L71.298359,189.397309 L72.298252,189.38271 L72.283653,188.382817 L71.28376,188.397416 L71.108571,176.398694 L70.108678,176.413293 L70.021084,170.413933 L71.020977,170.399334 L70.97718,167.399654 L69.977287,167.414253 L69.641509,144.416704 L125.635541,143.599158 L125.65014,144.599052 L127.649927,144.569854 L127.664526,145.569747 L128.664419,145.555148 L128.679018,146.555041 L130.678805,146.525843 L130.664206,145.52595 L131.6641,145.511351 L131.649501,144.511457 L132.649394,144.496858 L132.620196,142.497072 L131.620303,142.511671 L131.634902,143.511564 L130.635008,143.526163 L130.649607,144.526056 L128.64982,144.555254 L128.635221,143.555361 L129.635115,143.540762 L129.620516,142.540869 L130.620409,142.52627 L130.591211,140.526483 L131.591105,140.511884 L131.576506,139.51199 L129.576719,139.541188 L129.007357,100.545345 L151.005012,100.224166 L151.019611,101.224059 L152.019504,101.20946 L152.004905,100.209567 L191.000749,99.640205 L191.015348,100.640098 L193.015135,100.6109 L193.000536,99.611007 L220.997552,99.202234 L221.012151,100.202127 L222.012044,100.187528 L221.997445,99.187635 L270.992223,98.472283 L271.19661,112.470791 L267.197036,112.529187 L267.182437,111.529293 L159.193947,113.105988 L159.208546,114.105882 L145.210038,114.310268 L145.837796,157.305686 L107.841846,157.860449 L107.827247,156.860555 L104.827566,156.904352 L104.812967,155.904459 L101.813287,155.948256 L101.784089,153.948469 L99.784302,153.977667 L99.798901,154.977561 L98.799008,154.99216 L98.813607,155.992053 L96.81382,156.021251 L96.799221,155.021358 L95.799328,155.035957 L95.813927,156.03585 L93.81414,156.065048 L93.828739,157.064942 L91.828952,157.09414 L91.85815,159.093927 L85.858789,159.181521 L87.537678,274.169265 L147.531283,273.293323 L147.794066,291.291405 L167.791935,290.999424 L168.098514,311.997186 L260.08871,310.654076 L260.103309,311.653969 L369.091692,310.062675 L369.077093,309.062782 L451.068354,307.865661 L451.082953,308.865555 L450.08306,308.880154 L450.097659,309.880047 L451.097552,309.865448 L451.112151,310.865342 L453.111938,310.836143 L453.097339,309.83625 L455.097126,309.807052 L455.140923,312.806732 L456.140817,312.792133 L456.126218,311.79224 L457.126111,311.777641 L457.14071,312.777534 L458.140604,312.762935 L458.126004,311.763042 L459.125898,311.748443 L459.111299,310.748549 L460.111192,310.73395 L460.096593,309.734057 L463.096274,309.69026 L463.081675,308.690366 L464.081568,308.675767 L464.05237,306.67598 L463.052476,306.690579 L462.789694,288.692498 L481.787669,288.415116 L481.495689,268.417248 L482.495582,268.402649 L482.758364,286.40073 L483.758258,286.386131 L483.743659,285.386238 L484.743552,285.371639 L484.728953,284.371745 L485.728847,284.357146 L485.714248,283.357253 L486.714141,283.342654 L486.684943,281.342867 L483.685263,281.386664 L483.510074,269.387943 L544.503574,268.497402 L544.488975,267.497509 L545.488868,267.48291 L543.853777,155.494846 L542.853883,155.509445 L542.780888,150.509978 L541.780995,150.524577 L541.766396,149.524683 L536.766929,149.597678 L536.75233,148.597785 L535.752436,148.612384 L535.767035,149.612277 L531.767461,149.670674 L531.78206,150.670567 L530.782167,150.685166 L530.767568,149.685273 L529.767675,149.699872 L529.796873,151.699658 L483.801775,152.371214 L483.816374,153.371107 L480.816694,153.414904 L480.203534,111.41938 L412.210781,112.412114 L412.006395,98.413606 L414.006182,98.384408 L413.976984,96.384621 L485.969311,95.333491 L485.954712,94.333598 L497.953433,94.15841 L498.551993,135.15404 L524.549222,134.774465 L523.936063,92.778941 L498.938727,93.143917 Z" fill="#8C651F"/>
<path data-unit="source_002__contour_02" data-control="rig_handle_l" d="M75.772541,290.342748 L75.78714,291.342642 L129.781385,290.554294 L129.795984,291.554188 L130.795878,291.539588 L131.073259,310.537564 L141.072193,310.391573 L141.057594,309.39168 L137.058021,309.450076 L137.043422,308.450183 L134.043741,308.49398 L134.05834,309.493873 L132.058554,309.523071 L131.883365,297.52435 L132.883259,297.509751 L132.86866,296.509858 L133.868553,296.495259 L133.853954,295.495365 L134.853847,295.480766 L134.81005,292.481086 L135.809944,292.466487 L135.795345,291.466593 L134.795451,291.481192 L134.766253,289.481406 Z" fill="#8C651F"/>
<path data-unit="source_003__contour_01" data-control="rig_cup" d="M218.954528,370.260947 L237.952503,369.983566 L238.273682,391.981221 L393.257163,389.718372 L393.227965,387.718585 L394.227859,387.703986 L394.21326,386.704092 L395.213153,386.689493 L395.227752,387.689387 L397.227539,387.660189 L397.21294,386.660295 L400.21262,386.616498 L400.227219,387.616392 L401.227113,387.601793 L401.197915,385.602006 L402.197808,385.587407 L402.227006,387.587194 L405.226687,387.543396 L405.241286,388.54329 L407.241072,388.514092 L407.255671,389.513985 L409.255458,389.484787 L409.270057,390.484681 L410.269951,390.470082 L410.28455,391.469975 L412.284337,391.440777 L412.298936,392.44067 L414.298723,392.411472 L414.313322,393.411366 L416.313108,393.382168 L416.298509,392.382274 L417.298403,392.367675 L417.283804,391.367782 L419.283591,391.338584 L419.29819,392.338477 L420.298083,392.323878 L420.283484,391.323985 L421.283377,391.309386 L421.268778,390.309492 L424.268459,390.265695 L424.25386,389.265802 L425.253753,389.251203 L425.239154,388.251309 L420.239687,388.324304 L420.225088,387.324411 L430.224022,387.178421 L430.793384,426.174264 L431.793278,426.159665 L432.070659,445.157641 L419.072045,445.347428 L419.057446,444.347534 L201.080678,447.530123 L200.890891,434.531508 L199.890998,434.546107 L199.832601,430.546534 L189.833667,430.692524 L189.819068,429.69263 L198.818109,429.561239 L198.745114,424.561772 L199.745007,424.547173 L199.24864,390.550796 L219.246509,390.258816 Z" fill="#8B641F"/>
<path data-unit="source_003__contour_02" data-control="rig_base" d="M219.465494,405.257217 L219.480093,406.257111 L218.4802,406.27171 L218.815978,429.269259 L217.816084,429.283858 L217.830683,430.283751 L266.825461,429.568399 L266.84006,430.568292 L275.839101,430.436901 L275.8537,431.436794 L276.853593,431.422195 L276.838994,430.422302 L299.836543,430.086524 L299.851142,431.086417 L301.850929,431.057219 L301.83633,430.057326 L344.831748,429.429568 L344.846347,430.429461 L345.84624,430.414862 L345.831641,429.414969 L406.82514,428.524428 L406.810541,427.524535 L412.809902,427.43694 L412.474124,404.439392 L413.474017,404.424792 L413.459418,403.424899 L405.460271,403.541691 L405.445672,402.541798 L404.445779,402.556397 L404.460378,403.55629 L348.466346,404.373836 L348.451747,403.373943 L347.451853,403.388542 L347.466452,404.388435 L313.470076,404.884802 L313.484675,405.884695 L303.48574,406.030686 L303.471141,405.030792 L239.477962,405.96513 L239.463363,404.965237 L238.463469,404.979836 L238.478068,405.979729 L220.479987,406.242512 L220.465388,405.242618 Z" fill="#8B641F"/>
<path data-unit="source_004__contour_01" data-control="rig_base" d="M430.224022,387.178421 L431.223916,387.163822 L431.238515,388.163715 L432.238408,388.149116 L432.793171,426.145066 L451.791146,425.867685 L451.878741,431.867045 L452.878634,431.852446 L452.980827,438.8517 L451.980934,438.866299 L452.097726,446.865447 L453.097619,446.850848 L453.170615,451.850315 L452.170721,451.864914 L452.33131,462.863742 L453.331204,462.849143 L453.345803,463.849036 L451.346016,463.878234 L451.331417,462.878341 L437.332909,463.082727 L437.31831,462.082834 L211.342395,465.382214 L211.327796,464.382321 L210.327903,464.39692 L210.342502,465.396813 L198.343781,465.572002 L198.35838,466.571895 L193.358912,466.64489 L193.329714,464.645103 L192.329821,464.659702 L192.286024,461.660022 L191.28613,461.674621 L191.300729,462.674515 L190.300836,462.689114 L190.286237,461.68922 L186.286663,461.747616 L186.272064,460.747723 L185.272171,460.762322 L185.257572,459.762428 L184.257678,459.777027 L184.22848,457.777241 L182.228693,457.806439 L181.83452,430.809316 L199.832601,430.546534 L200.124582,450.544402 L306.113285,448.996905 L306.098686,447.997012 L307.09858,447.982413 L307.113179,448.982306 L418.101349,447.361814 L418.08675,446.36192 L425.086004,446.259727 L425.071405,445.259834 L432.070659,445.157641 L431.793278,426.159665 L430.793384,426.174264 Z" fill="#6C4F1A"/>
<path data-unit="source_005__contour_01" data-control="rig_hair" d="M271.977518,97.45779 L273.977305,97.428592 L273.991904,98.428485 L314.987534,97.829925 L315.002133,98.829819 L316.002027,98.81522 L315.987428,97.815326 L382.980287,96.837191 L382.994886,97.837085 L384.994673,97.807887 L385.009272,98.80778 L386.009166,98.793181 L385.994567,97.793288 L387.994354,97.76409 L387.979755,96.764196 L389.979541,96.734998 L389.99414,97.734891 L391.993927,97.705693 L391.979328,96.7058 L393.979115,96.676602 L393.993714,97.676495 L395.993501,97.647297 L395.978902,96.647404 L405.977836,96.501414 L405.992435,97.501307 L407.992222,97.472109 L407.977623,96.472216 L408.977517,96.457617 L409.152705,108.456338 L408.152811,108.470937 L408.138212,107.471043 L406.138426,107.500241 L406.153025,108.500135 L405.153131,108.514734 L405.16773,109.514627 L404.167837,109.529226 L404.182436,110.52912 L349.188297,111.332066 L349.202896,112.33196 L411.196289,111.42682 L411.210888,112.426713 L349.217495,113.331853 L349.538674,135.329509 L328.540912,135.636088 L328.555511,136.635982 L327.555618,136.650581 L327.803801,153.648769 L295.807211,154.115938 L295.559028,137.11775 L293.559241,137.146948 L293.544642,136.147054 L272.54688,136.453634 Z" fill="#EFB944"/>
<path data-unit="source_005__contour_01" data-control="rig_hair" d="M266.944818,100.23167 L268.93831,100.070465 L269.018913,101.067211 L309.885511,97.762491 L309.966114,98.759237 L310.96286,98.678634 L310.882258,97.681888 L377.664259,92.281493 L377.744862,93.278239 L379.738355,93.117033 L379.818957,94.113779 L380.815704,94.033176 L380.735101,93.03643 L382.728593,92.875224 L382.647991,91.878478 L384.641483,91.717272 L384.722086,92.714018 L386.715579,92.552813 L386.634976,91.556066 L388.628468,91.39486 L388.709071,92.391607 L390.702564,92.230401 L390.621961,91.233655 L400.589424,90.427625 L400.670027,91.424372 L402.663519,91.263166 L402.582916,90.266419 L403.579663,90.185817 L404.546898,102.146772 L403.550151,102.227375 L403.469548,101.230629 L401.476056,101.391835 L401.556659,102.388581 L400.559913,102.469184 L400.640515,103.46593 L399.643769,103.546533 L399.724372,104.543279 L344.903326,108.97644 L344.983929,109.973186 L406.782199,104.975805 L406.862802,105.972551 L345.064532,110.969932 L346.837796,132.898351 L325.906124,134.591012 L325.986727,135.587759 L324.989981,135.668361 L326.36023,152.613048 L294.464349,155.192342 L293.094099,138.247655 L291.100607,138.408861 L291.020004,137.412114 L270.088332,139.104776 Z" fill="#A23323"/>
<path data-unit="source_006__contour_01" data-control="rig_stem" d="M295.37696,330.140978 L332.373017,329.600814 L332.942379,368.596658 L371.938223,368.027296 L371.83603,361.028042 L372.835923,361.013443 L372.938116,368.012697 L390.936198,367.749914 L391.19898,385.747996 L238.215286,387.981647 L237.952503,369.983566 L254.950692,369.735382 L254.936093,368.735489 L255.935986,368.72089 L255.950585,369.720783 L256.950479,369.706184 L256.658498,349.708316 L257.658391,349.693717 L257.950372,369.691585 L295.946322,369.136822 Z" fill="#EDB843"/>
<path data-unit="source_007__contour_01" data-control="rig_base" d="M219.538489,410.256684 L411.518028,407.453671 L411.795409,426.451646 L408.795729,426.495443 L408.78113,425.49555 L410.780917,425.466352 L410.634926,415.467417 L409.635033,415.482016 L409.67883,418.481697 L408.678937,418.496296 L408.693536,419.496189 L407.693642,419.510788 L407.708241,420.510682 L406.708348,420.525281 L406.722947,421.525174 L405.723054,421.539773 L405.752252,423.53956 L406.752145,423.524961 L406.766744,424.524854 L234.785074,427.035887 L234.799673,428.035781 L227.800419,428.137974 L227.78582,427.13808 L222.786353,427.211076 L222.771754,426.211182 L223.771648,426.196583 L223.757049,425.19669 L224.756942,425.182091 L224.742343,424.182197 L223.74245,424.196796 L223.72785,423.196903 L221.728064,423.226101 L221.713465,422.226207 L222.713358,422.211608 L222.68416,420.211822 L219.68448,420.255619 Z" fill="#EEB842"/>
<path data-unit="source_008__contour_01" data-control="rig_handle_l" d="M87.873175,160.152216 L127.868912,159.568255 L128.146294,178.56623 L107.148532,178.87281 L108.243459,253.864817 L129.241221,253.558237 L129.533202,273.556106 L88.537571,274.154666 L88.522972,273.154773 L89.522866,273.140174 Z" fill="#EDB845"/>
<path data-unit="source_009__contour_01" data-control="rig_handle_r" d="M499.829268,154.137416 L539.825005,153.553455 L541.4017,261.541945 L538.40202,261.585742 L538.416619,262.585636 L537.416725,262.600235 L537.431324,263.600128 L536.431431,263.614727 L536.44603,264.614621 L534.446243,264.643819 L534.460842,265.643712 L542.45999,265.52692 L542.401594,261.527346 L543.401487,261.512747 L543.474482,266.512214 L499.479171,267.154572 L499.318582,256.155744 L501.318369,256.126546 L501.332968,257.126439 L503.332755,257.097241 L503.318156,256.097348 L504.318049,256.082749 L504.30345,255.082855 L505.303343,255.068256 L505.288744,254.068363 L506.288638,254.053764 L506.274039,253.05387 L507.273932,253.039271 L507.259333,252.039378 L508.259227,252.024779 L508.244628,251.024886 L513.244095,250.95189 L513.229496,249.951997 L511.229709,249.981195 L511.21511,248.981302 L517.21447,248.893707 L517.199871,247.893814 L523.199232,247.80622 L522.381686,191.812188 L523.38158,191.797589 L523.921744,228.793646 L524.921637,228.779047 L524.658855,210.780965 L525.658748,210.766366 L525.585753,205.766899 L526.585646,205.7523 L526.571047,204.752406 L525.571154,204.767005 L525.48356,198.767645 L526.483453,198.753046 L526.468854,197.753152 L525.468961,197.767751 L525.439763,195.767964 L526.439656,195.753365 L526.425057,194.753472 L527.424951,194.738873 L527.410352,193.73898 L528.410245,193.724381 L528.395646,192.724487 L529.395539,192.709888 L529.366341,190.710101 L528.366448,190.7247 L528.351849,189.724807 L526.352062,189.754005 L526.337463,188.754111 L525.33757,188.76871 L525.322971,187.768817 L523.323184,187.798015 L523.104198,172.799614 L499.106756,173.14999 L499.033761,168.150523 L500.033654,168.135924 Z" fill="#EEB944"/>
<path data-unit="source_010__contour_01" data-control="rig_handle_l" d="M108.163024,179.858104 L145.159081,179.31794 L146.22481,252.31016 L136.225876,252.456151 L136.240475,253.456044 L108.243459,253.864817 L107.980677,235.866735 L129.978332,235.545556 L129.40897,196.549713 L130.408863,196.535114 L130.671646,214.533195 L131.671539,214.518596 L131.496351,202.519875 L132.496244,202.505276 L132.423249,197.505809 L133.423143,197.49121 L133.379346,194.49153 L134.379239,194.476931 L134.36464,193.477037 L124.365706,193.623028 L124.336508,191.623241 L123.336614,191.63784 L123.322015,190.637946 L122.322122,190.652545 L122.336721,191.652439 L119.33704,191.696236 L119.307842,189.696449 L118.307949,189.711048 L118.322548,190.710942 L116.322761,190.74014 L116.33736,191.740033 L115.337467,191.754632 L115.322868,190.754739 L114.322974,190.769338 L114.337573,191.769231 L113.33768,191.78383 L113.352279,192.783724 L114.352172,192.769124 L114.366771,193.769018 L113.366878,193.783617 L113.381477,194.78351 L116.381157,194.739713 L116.395756,195.739607 L117.39565,195.725008 L117.410249,196.724901 L107.411314,196.870891 L107.396715,195.870998 L108.396609,195.856399 Z" fill="#8C641E"/>
<path data-unit="source_011__contour_01" data-control="rig_handle_r" d="M482.123167,174.398067 L520.119117,173.843304 L520.265107,183.842238 L509.26628,184.002828 L509.295478,186.002615 L510.295371,185.988016 L510.324569,187.987802 L512.324356,187.958604 L512.353554,189.958391 L513.353447,189.943792 L513.368046,190.943686 L500.369432,191.133473 L500.354833,190.13358 L501.354726,190.118981 L501.29633,186.119407 L500.296437,186.134006 L500.311036,187.133899 L497.311355,187.177696 L497.296756,186.177803 L494.297076,186.2216 L494.326274,188.221387 L493.326381,188.235986 L493.34098,189.235879 L492.341086,189.250478 L492.370284,191.250265 L493.370178,191.235666 L493.384777,192.23556 L494.38467,192.220961 L494.399269,193.220854 L495.399163,193.206255 L495.413762,194.206148 L497.413549,194.17695 L497.734727,216.174606 L496.734834,216.189205 L496.749433,217.189098 L495.749539,217.203697 L495.764139,218.203591 L494.764245,218.21819 L494.778844,219.218083 L496.778631,219.188885 L496.764032,218.188992 L497.763925,218.174393 L497.807722,221.174073 L496.807829,221.188672 L496.822428,222.188565 L494.822641,222.217764 L494.83724,223.217657 L493.837347,223.232256 L493.866545,225.232043 L494.866438,225.217444 L494.881037,226.217337 L495.880931,226.202738 L495.89553,227.202632 L498.89521,227.158835 L498.939007,230.158515 L497.939114,230.173114 L497.924515,229.17322 L496.924621,229.187819 L496.983017,233.187393 L497.982911,233.172794 L497.99751,234.172688 L498.997403,234.158089 L499.026601,236.157875 L500.026495,236.143276 L499.968099,232.143703 L500.967992,232.129104 L500.99719,234.12889 L502.996977,234.099692 L502.982378,233.099799 L504.982165,233.070601 L504.996764,234.070494 L503.99687,234.085093 L504.026068,236.08488 L505.025962,236.070281 L505.011363,235.070388 L506.011256,235.055789 L505.996657,234.055895 L506.996551,234.041296 L506.981952,233.041403 L505.982058,233.056002 L505.967459,232.056108 L512.966713,231.953915 L512.981312,232.953809 L513.981206,232.93921 L513.966607,231.939316 L514.9665,231.924717 L514.951901,230.924824 L499.9535,231.143809 L499.938901,230.143916 L522.936449,229.808138 L523.199232,247.80622 L483.203495,248.390181 Z" fill="#8D651E"/>
<path data-unit="source_012__contour_01" data-control="rig_mouth" d="M254.260125,267.425521 L255.335556,267.451056 L255.311819,268.450774 L256.38725,268.47631 L256.363513,269.476028 L349.926052,271.697601 L349.902314,272.697319 L350.977746,272.722854 L351.001483,271.723136 L369.283818,272.157236 L369.260081,273.156955 L370.335512,273.18249 L370.311775,274.182208 L371.387206,274.207743 L371.268519,279.206335 L370.193087,279.180799 L370.169349,280.180517 L369.093918,280.154982 L369.117656,279.155264 L365.891361,279.078658 L365.843886,281.078094 L364.768454,281.052559 L364.744717,282.052277 L363.669285,282.026742 L363.645548,283.02646 L362.570116,283.000925 L362.546379,284.000643 L361.470947,283.975108 L361.44721,284.974826 L260.35665,282.574506 L260.380388,281.574788 L259.304956,281.549252 L259.352431,279.549816 L256.126137,279.47321 L256.054924,282.472365 L254.979493,282.446829 L255.026968,280.447393 L253.951536,280.421858 Z" fill="#13120F"/>
<path data-unit="source_013__contour_01" data-control="rig_eye_r" d="M387.366875,191.78327 L391.366449,191.724874 L391.906613,228.720931 L390.90672,228.73553 L390.892121,227.735636 L389.892227,227.750235 L389.877628,226.750342 L376.879014,226.940129 L376.864415,225.940236 L374.864628,225.969434 L374.850029,224.96954 L369.850562,225.042536 L369.87976,227.042322 L356.881145,227.23211 L356.384778,193.235733 L387.381474,192.783163 Z" fill="#13120F"/>
<path data-unit="source_014__contour_01" data-control="rig_eye_l" d="M238.368156,192.958632 L239.368049,192.944033 L239.382648,193.943926 L240.382541,193.929327 L240.39714,194.929221 L273.393624,194.447453 L273.802396,222.444469 L272.802503,222.459068 L272.817102,223.458961 L271.817209,223.47356 L271.831808,224.473454 L270.831914,224.488053 L270.846513,225.487946 L269.84662,225.502545 L269.861219,226.502438 L268.861325,226.517037 L268.890523,228.516824 L266.890737,228.546022 L266.905336,229.545916 L240.908106,229.925491 L240.41174,195.929114 L239.411846,195.943713 L239.922812,230.939983 L238.922919,230.954582 Z" fill="#151410"/>
<path data-unit="source_015__contour_01" data-control="rig_handle_r" d="M507.952367,94.012419 L522.950768,93.793434 L523.549329,134.789064 L501.551673,135.110243 L501.537074,134.11035 L504.536754,134.066552 L504.522155,133.066659 L500.522582,133.125055 L500.026215,99.128679 L501.026108,99.11408 L500.967712,95.114506 L501.967605,95.099907 L502.011402,98.099587 L503.011296,98.084988 L502.996697,97.085095 L503.99659,97.070496 L503.981991,96.070602 L504.981885,96.056003 L504.967286,95.05611 L507.966966,95.012313 Z" fill="#ECB641"/>
<path data-unit="source_016__contour_01" data-control="rig_stem" d="M351.297997,324.323966 L353.297784,324.294767 L353.312383,325.294661 L352.312489,325.30926 L352.370886,329.308834 L353.370779,329.294235 L353.399977,331.294021 L352.400084,331.308621 L352.414683,332.308514 L351.414789,332.323113 L351.575379,343.321941 L350.575485,343.33654 L350.590084,344.336433 L349.590191,344.351032 L349.619389,346.350819 L348.619495,346.365418 L348.648693,348.365205 L350.64848,348.336007 L350.677678,350.335794 L351.677572,350.321195 L351.692171,351.321088 L355.691744,351.262692 L355.706343,352.262585 L357.70613,352.233387 L357.691531,351.233494 L358.691425,351.218895 L358.720623,353.218682 L360.72041,353.189484 L360.705811,352.18959 L361.705704,352.174991 L361.691105,351.175098 L362.690998,351.160499 L362.676399,350.160605 L363.676293,350.146006 L363.661694,349.146113 L370.660948,349.04392 L370.836136,361.042641 L368.836349,361.071839 L368.850948,362.071732 L366.851161,362.10093 L366.865761,363.100824 L363.86608,363.144621 L363.851481,362.144727 L362.851588,362.159327 L362.866187,363.15922 L361.866293,363.173819 L361.880892,364.173712 L359.881106,364.20291 L359.910304,366.202697 L358.91041,366.217296 L358.939608,368.217083 L353.940141,368.290078 L353.925542,367.290185 L355.925329,367.260987 L355.91073,366.261093 L353.910943,366.290291 L353.896344,365.290398 L352.896451,365.304997 L352.881852,364.305104 L349.882171,364.348901 L349.89677,365.348794 L348.896877,365.363393 L348.882278,364.3635 L346.882491,364.392698 L346.867892,363.392804 L345.867999,363.407403 L345.8388,361.407617 L344.838907,361.422216 L344.853506,362.422109 L341.853826,362.465906 L341.868425,363.4658 L340.868531,363.480399 L340.88313,364.480292 L339.883237,364.494891 L339.897836,365.494784 L338.897943,365.509383 L338.912542,366.509277 L337.912648,366.523876 L337.927247,367.523769 L343.926608,367.436175 L343.941207,368.436069 L334.942166,368.56746 L334.343606,327.571829 L349.342007,327.352844 L349.312809,325.353057 L351.312596,325.323859 Z" fill="#89631D"/>
<path data-unit="source_017__contour_01" data-control="rig_handle_r" d="M501.369325,191.118874 L512.368153,190.958285 L512.382752,191.958178 L516.382326,191.899782 L516.396925,192.899675 L520.396499,192.841279 L520.922064,228.837443 L501.924088,229.114824 Z" fill="#F2EDE7"/>
<path data-unit="source_018__contour_01" data-control="rig_handle_l" d="M126.40929,196.59351 L127.409183,196.578911 L127.963946,234.574861 L108.965971,234.852243 L108.425807,197.856186 L126.423889,197.593403 Z" fill="#F2EDE7"/>
<path data-unit="source_019__contour_01" data-control="rig_stem" d="M292.640062,348.182857 L293.639956,348.168258 L293.756748,356.167406 L292.756855,356.182005 L292.771454,357.181898 L291.77156,357.196497 L291.786159,358.19639 L290.786266,358.210989 L290.800865,359.210883 L289.800971,359.225482 L289.81557,360.225375 L288.815677,360.239974 L288.830276,361.239868 L287.830383,361.254467 L287.87418,364.254147 L286.874286,364.268746 L286.888885,365.26864 L285.888992,365.283239 L285.91819,367.283025 L283.918403,367.312224 L283.933002,368.312117 L264.935027,368.589498 L264.920428,367.589605 L263.920534,367.604204 L263.905935,366.604311 L264.905829,366.589712 L264.876631,364.589925 L263.876737,364.604524 L263.891336,365.604417 L262.891443,365.619016 L262.906042,366.61891 L261.906149,366.633509 L261.920748,367.633402 L260.920854,367.648001 L260.83326,361.648641 L259.833367,361.66324 L259.847966,362.663133 L258.848072,362.677732 L258.658285,349.679118 L266.657432,349.562325 L266.672031,350.562219 L267.671925,350.54762 L267.715722,353.5473 L268.715615,353.532701 L268.744813,355.532488 L274.744174,355.444894 L274.758773,356.444787 L275.758666,356.430188 L275.744067,355.430295 L276.743961,355.415696 L276.729362,354.415802 L277.729255,354.401203 L277.714656,353.40131 L278.714549,353.386711 L278.69995,352.386817 L279.699844,352.372218 L279.685245,351.372325 L281.685032,351.343127 L281.71423,353.342914 L284.71391,353.299116 L284.699311,352.299223 L285.699204,352.284624 L285.684605,351.284731 L286.684499,351.270132 L286.655301,349.270345 L292.654661,349.182751 Z" fill="#8C651D"/>
<path data-unit="source_020__contour_01" data-control="rig_handle_r" d="M481.203708,248.419379 L499.20179,248.156597 L499.479171,267.154572 L543.474482,266.512214 L543.489081,267.512108 L481.495689,268.417248 Z" fill="#D6A436"/>
<path data-unit="source_021__contour_01" data-control="rig_stem" d="M276.349787,328.418573 L293.347975,328.17039 L293.362574,329.170283 L290.362894,329.21408 L290.392092,331.213867 L293.391772,331.17007 L293.639956,348.168258 L292.640062,348.182857 L292.654661,349.182751 L286.655301,349.270345 L286.684499,351.270132 L285.684605,351.284731 L285.699204,352.284624 L284.699311,352.299223 L284.71391,353.299116 L281.71423,353.342914 L281.685032,351.343127 L279.685245,351.372325 L279.670646,350.372431 L280.670539,350.357832 L280.641341,348.358045 L279.641448,348.372644 L279.626849,347.372751 L278.626955,347.38735 L278.641554,348.387244 L277.641661,348.401843 L277.364279,329.403867 L276.364386,329.418466 Z" fill="#8A631F"/>
<path data-unit="source_022__contour_01" data-control="rig_mouth" d="M374.060296,252.265013 L394.493494,252.750184 L394.066218,270.745112 L373.63302,270.259941 Z" fill="#171510"/>
<path data-unit="source_023__contour_01" data-control="rig_handle_l" d="M127.868912,159.568255 L145.866994,159.305472 L146.144376,178.303448 L128.146294,178.56623 Z" fill="#D6A435"/>
<path data-unit="source_024__contour_01" data-control="rig_mouth" d="M234.230465,249.94514 L254.663663,250.430311 L254.283862,266.425802 L253.208431,266.400267 L253.564494,251.404494 L242.81018,251.149141 L242.786442,252.148859 L251.389894,252.353141 L251.366156,253.35286 L252.441588,253.378395 L252.132999,266.374732 L233.850664,265.940631 Z" fill="#14130F"/>
<path data-unit="source_025__contour_01" data-control="rig_handle_l" d="M129.241221,253.558237 L147.239303,253.295455 L147.399892,264.294282 L146.399999,264.308881 L146.414598,265.308775 L145.414704,265.323374 L145.429303,266.323267 L143.429517,266.352465 L143.444116,267.352359 L142.444222,267.366958 L142.429623,266.367064 L138.430049,266.425461 L138.444648,267.425354 L137.444755,267.439953 L137.459354,268.439846 L136.459461,268.454445 L136.488659,270.454232 L135.488765,270.468831 L135.503364,271.468725 L136.503258,271.454126 L136.517857,272.454019 L129.518603,272.556212 Z" fill="#D4A134"/>
<path data-unit="source_026__contour_01" data-control="rig_handle_r" d="M485.845359,155.341696 L498.843973,155.151909 L499.106756,173.14999 L482.108568,173.398174 L481.991775,165.399026 L482.991669,165.384427 L482.97707,164.384534 L483.976963,164.369935 L483.962364,163.370042 L484.962258,163.355442 L484.93306,161.355656 L485.932953,161.341057 Z" fill="#D3A235"/>
<path data-unit="source_027__contour_01" data-control="rig_stem" d="M395.950264,368.676813 L409.948772,368.472426 L410.196956,385.470614 L409.197062,385.485213 L409.22626,387.485 L407.226473,387.514198 L407.241072,388.514092 L405.241286,388.54329 L405.226687,387.543396 L402.227006,387.587194 L402.197808,385.587407 L401.197915,385.602006 L401.227113,387.601793 L400.227219,387.616392 L400.21262,386.616498 L397.21294,386.660295 L397.227539,387.660189 L395.227752,387.689387 L395.213153,386.689493 L394.21326,386.704092 L394.081869,377.705051 L396.081655,377.675853 L396.067056,376.67596 L397.06695,376.661361 L397.052351,375.661468 L398.052244,375.646868 L398.008447,372.647188 L397.008554,372.661787 L396.993955,371.661894 L395.994061,371.676493 Z" fill="#88621F"/>
<path data-unit="source_028__contour_01" data-control="rig_hair" d="M273.977305,97.428592 L410.962704,95.428525 L411.196289,111.42682 L349.202896,112.33196 L349.188297,111.332066 L404.182436,110.52912 L404.167837,109.529226 L405.16773,109.514627 L405.153131,108.514734 L406.153025,108.500135 L406.138426,107.500241 L408.138212,107.471043 L408.152811,108.470937 L409.152705,108.456338 L408.977517,96.457617 L407.977623,96.472216 L407.992222,97.472109 L405.992435,97.501307 L405.977836,96.501414 L395.978902,96.647404 L395.993501,97.647297 L393.993714,97.676495 L393.979115,96.676602 L391.979328,96.7058 L391.993927,97.705693 L389.99414,97.734891 L389.979541,96.734998 L387.979755,96.764196 L387.994354,97.76409 L385.994567,97.793288 L386.009166,98.793181 L385.009272,98.80778 L384.994673,97.807887 L382.994886,97.837085 L382.980287,96.837191 L315.987428,97.815326 L316.002027,98.81522 L315.002133,98.829819 L314.987534,97.829925 L273.991904,98.428485 Z" fill="#EFB944"/>
<path data-unit="source_028__contour_01" data-control="rig_hair" d="M268.93831,100.070465 L405.492552,89.027864 L406.782199,104.975805 L344.983929,109.973186 L344.903326,108.97644 L399.724372,104.543279 L399.643769,103.546533 L400.640515,103.46593 L400.559913,102.469184 L401.556659,102.388581 L401.476056,101.391835 L403.469548,101.230629 L403.550151,102.227375 L404.546898,102.146772 L403.579663,90.185817 L402.582916,90.266419 L402.663519,91.263166 L400.670027,91.424372 L400.589424,90.427625 L390.621961,91.233655 L390.702564,92.230401 L388.709071,92.391607 L388.628468,91.39486 L386.634976,91.556066 L386.715579,92.552813 L384.722086,92.714018 L384.641483,91.717272 L382.647991,91.878478 L382.728593,92.875224 L380.735101,93.03643 L380.815704,94.033176 L379.818957,94.113779 L379.738355,93.117033 L377.744862,93.278239 L377.664259,92.281493 L310.882258,97.681888 L310.96286,98.678634 L309.966114,98.759237 L309.885511,97.762491 L269.018913,101.067211 Z" fill="#A9382A"/>
<path data-unit="source_029__contour_01" data-control="rig_shine" d="M164.74217,137.825982 L184.658911,136.002951 L186.573093,156.915529 L168.648027,158.556256 L168.556875,157.560419 L171.544386,157.286965 L171.453235,156.291128 L170.457398,156.382279 L170.366246,155.386442 L168.374572,155.568745 L166.916148,139.635353 L182.84954,138.176928 L183.396449,144.15195 L182.400612,144.243102 L182.218309,142.251428 L180.226635,142.433731 L180.135484,141.437894 L178.14381,141.620197 L178.234961,142.616034 L177.239124,142.707186 L177.330276,143.703023 L176.334439,143.794174 L176.243287,142.798337 L172.259939,143.162943 L172.168787,142.167106 L171.17295,142.258258 L171.264102,143.254095 L170.268265,143.345246 L171.088629,152.30778 L172.084466,152.216628 L172.175617,153.212465 L177.154802,152.756707 L177.063651,151.76087 L184.03451,151.12281 L184.399116,155.106158 L180.415768,155.470764 L180.50692,156.466601 L185.486105,156.010843 L183.754226,137.08994 L165.829159,138.730667 L167.65219,158.647408 L166.656353,158.73856 Z" fill="#F9F2E1"/>
<path data-unit="source_030__contour_01" data-control="rig_handle_r" d="M558.560198,135.277992 L559.560091,135.263393 L561.749945,285.247407 L499.756553,286.152547 L499.741954,285.152653 L560.735453,284.262113 Z" fill="#7A510C"/>
<path data-unit="source_031__contour_01" data-control="rig_base" d="M218.494799,407.271603 L412.474124,404.439392 L412.488723,405.439285 L218.509398,408.271497 Z" fill="#805B14"/>
<path data-unit="source_032__contour_01" data-control="rig_mouth" d="M237.527972,247.022591 L260.112034,247.558833 L260.088296,248.558551 L259.012864,248.533016 L258.941652,251.53217 L260.017083,251.557706 L259.945871,254.55686 L258.870439,254.531325 L258.846702,255.531043 L257.77127,255.505508 L257.557632,264.502972 L370.477938,267.184181 L370.834001,252.188407 L371.909433,252.213943 L371.529632,268.209434 L256.458463,265.477155 L256.838264,249.481663 L255.762832,249.456128 L255.78657,248.45641 L237.504235,248.022309 Z" fill="#E8B53C"/>
<path data-unit="source_033__contour_01" data-control="rig_base" d="M181.360191,466.820079 L349.342287,464.367442 L349.356886,465.367335 L181.37479,467.819972 Z" fill="#644410"/>
<path data-unit="source_034__contour_01" data-control="rig_handle_r" d="M498.814775,153.152122 L541.810193,152.524364 L543.401487,261.512747 L542.401594,261.527346 L540.824898,153.538856 L499.829268,154.137416 L500.033654,168.135924 L499.033761,168.150523 Z" fill="#F8C951"/>
<path data-unit="source_035__contour_01" data-control="rig_base" d="M218.523997,409.27139 L360.508864,407.198328 L360.523463,408.198221 L219.538489,410.256684 L219.815871,429.25466 L218.815978,429.269259 Z" fill="#F5C349"/>
<path data-unit="source_036__contour_01" data-control="rig_base" d="M268.088137,447.551881 L425.071405,445.259834 L425.086004,446.259727 L268.102736,448.551775 Z" fill="#75551B"/>
<path data-unit="source_037__contour_01" data-control="rig_mouth" d="M360.727842,269.953517 L373.63302,270.259941 L373.229481,287.255151 L353.871714,286.795515 L353.895452,285.795797 L309.802761,284.748849 L309.826499,283.749131 L361.44721,284.974826 L361.470947,283.975108 L362.546379,284.000643 L362.570116,283.000925 L363.645548,283.02646 L363.669285,282.026742 L364.744717,282.052277 L364.768454,281.052559 L365.843886,281.078094 L365.891361,279.078658 L369.117656,279.155264 L369.093918,280.154982 L370.169349,280.180517 L370.193087,279.180799 L371.268519,279.206335 L371.458419,271.208589 L360.704104,270.953236 Z" fill="#161611"/>
<path data-unit="source_038__contour_01" data-control="rig_base" d="M238.244484,389.981434 L393.227965,387.718585 L393.242564,388.718478 L238.259083,390.981328 Z" fill="#7B5614"/>
<path data-unit="source_039__contour_01" data-control="rig_base" d="M265.073858,446.595785 L419.057446,444.347534 L419.072045,445.347428 L265.088457,447.595678 Z" fill="#956D22"/>
<path data-unit="source_040__contour_01" data-control="rig_stem" d="M238.229885,388.981541 L391.21358,386.747889 L391.228179,387.747783 L238.244484,389.981434 Z" fill="#D5AA3E"/>
<path data-unit="source_041__contour_01" data-control="rig_handle_r" d="M559.545492,134.263499 L560.545385,134.2489 L562.749839,285.232808 L561.749945,285.247407 Z" fill="#D6C5B0"/>
<path data-unit="source_042__contour_01" data-control="rig_cup" d="M149.253409,117.251552 L271.240407,115.470471 L271.532387,135.468339 L270.532494,135.482938 L270.255113,116.484963 L262.255965,116.601755 L262.270564,117.601649 L260.270777,117.630847 L260.256178,116.630954 L157.267155,118.134654 L157.281754,119.134547 L155.281967,119.163745 L155.296566,120.163638 L154.296673,120.178237 L154.282074,119.178344 L150.2825,119.23674 L150.267901,118.236847 L149.268008,118.251446 Z" fill="#E8B53F"/>
<path data-unit="source_043__contour_01" data-control="rig_cup" d="M153.187707,318.215532 L155.187494,318.186334 L155.202093,319.186228 L156.201986,319.171629 L156.231184,321.171416 L155.231291,321.186015 L155.24589,322.185908 L154.245996,322.200507 L154.260595,323.200401 L153.260702,323.215 L153.275301,324.214893 L152.275408,324.229492 L152.290007,325.229385 L151.290113,325.243984 L151.33391,328.243665 L267.321548,326.550177 L267.336147,327.550071 L150.348616,329.258157 L150.202626,319.259223 L153.202306,319.215426 Z" fill="#916B23"/>
<path data-unit="source_044__contour_01" data-control="rig_cup" d="M145.239236,116.310055 L272.225701,114.455978 L272.54688,136.453634 L271.546987,136.468233 L271.240407,115.470471 L145.253835,117.309948 Z" fill="#F7CA52"/>
<path data-unit="source_045__contour_01" data-control="rig_cup" d="M255.060044,308.727284 L400.044591,306.610425 L400.059191,307.610318 L255.074643,309.727177 Z" fill="#E2B646"/>
<path data-unit="source_046__contour_01" data-control="rig_base" d="M266.825461,429.568399 L406.810541,427.524535 L406.82514,428.524428 L345.831641,429.414969 L345.84624,430.414862 L344.846347,430.429461 L344.831748,429.429568 L301.83633,430.057326 L301.850929,431.057219 L299.851142,431.086417 L299.836543,430.086524 L276.838994,430.422302 L276.853593,431.422195 L275.8537,431.436794 L275.839101,430.436901 L266.84006,430.568292 Z" fill="#926921"/>
<path data-unit="source_047__contour_01" data-control="rig_handle_l" d="M69.167181,180.427466 L70.167074,180.412867 L70.517451,204.410309 L71.517344,204.39571 L71.57574,208.395284 L70.575847,208.409883 L70.605045,210.40967 L71.604938,210.395071 L71.707132,217.394325 L72.707025,217.379726 L72.750822,220.379406 L71.750929,220.394005 L71.823924,225.393472 L70.82403,225.408071 L71.247402,254.404981 L72.247296,254.390382 L72.407885,265.38921 L71.407992,265.403809 L71.422591,266.403702 L72.422484,266.389103 L72.48088,270.388677 L73.480774,270.374078 L73.495373,271.373971 L72.495479,271.38857 L72.510078,272.388464 L71.510185,272.403063 L71.480987,270.403276 L70.481093,270.417875 L70.364301,262.418727 L69.364408,262.433326 L69.320611,259.433646 L68.320717,259.448245 L68.233123,253.448885 L69.233016,253.434286 L69.262214,255.434072 L70.262108,255.419473 Z" fill="#926B27"/>
<path data-unit="source_048__contour_01" data-control="rig_mouth" d="M255.762832,249.456128 L256.838264,249.481663 L256.458463,265.477155 L371.529632,268.209434 L371.909433,252.213943 L372.984864,252.239478 L372.581326,269.234688 L255.359294,266.451338 Z" fill="#F8D655"/>
<path data-unit="source_049__contour_01" data-control="rig_handle_l" d="M107.148532,178.87281 L146.144376,178.303448 L147.239303,253.295455 L136.240475,253.456044 L136.225876,252.456151 L146.22481,252.31016 L145.159081,179.31794 L108.163024,179.858104 L108.396609,195.856399 L107.396715,195.870998 Z" fill="#7F5D16"/>
<path data-unit="source_050__contour_01" data-control="rig_hair" d="M271.962919,96.457897 L410.948105,94.428632 L410.962704,95.428525 L271.977518,97.45779 Z" fill="#EFB944"/>
<path data-unit="source_050__contour_01" data-control="rig_hair" d="M266.864215,99.234924 L405.411949,88.031118 L405.492552,89.027864 L266.944818,100.23167 Z" fill="#9C2417"/>
<path data-unit="source_051__contour_01" data-control="rig_base" d="M179.820134,429.838621 L180.820027,429.824022 L181.37479,467.819972 L280.36424,466.374668 L280.378839,467.374562 L180.389496,468.834464 Z" fill="#837153"/>
<path data-unit="source_052__contour_01" data-control="rig_handle_r" d="M498.756659,286.167146 L561.749945,285.247407 L561.764544,286.2473 L499.771152,287.15244 L499.785751,288.152334 L500.785644,288.137735 L500.902436,296.136882 L499.902543,296.151481 L500.004736,303.150735 L501.00463,303.136136 L501.048427,306.135816 L500.048533,306.150415 L500.063132,307.150309 L489.064305,307.310898 L489.049706,306.311005 L482.050452,306.413198 L482.035853,305.413304 L499.034041,305.165121 L499.004843,303.165334 L498.004949,303.179933 L497.975751,301.180146 L496.975858,301.194745 L496.888264,295.195385 L497.888157,295.180786 L497.873558,294.180892 L498.873452,294.166293 Z" fill="#B39B73"/>
<path data-unit="source_053__contour_01" data-control="rig_handle_r" d="M558.757425,217.283852 L559.757318,217.269253 L560.735453,284.262113 L499.741954,285.152653 L499.727355,284.15276 L559.72096,283.276818 L559.560371,272.277991 L558.560478,272.29259 L558.575077,273.292483 L557.575183,273.307082 L557.516787,269.307508 L558.516681,269.292909 L558.502082,268.293016 L559.501975,268.278417 Z" fill="#916A22"/>
<path data-unit="source_054__contour_01" data-control="rig_base" d="M236.79946,428.006583 L368.785393,426.079511 L368.799992,427.079404 L236.814059,429.006476 Z" fill="#EDBD49"/>
<path data-unit="source_055__contour_01" data-control="rig_handle_r" d="M539.825005,153.553455 L540.824898,153.538856 L542.45999,265.52692 L534.460842,265.643712 L534.446243,264.643819 L536.44603,264.614621 L536.431431,263.614727 L537.431324,263.600128 L537.416725,262.600235 L538.416619,262.585636 L538.40202,261.585742 L541.4017,261.541945 Z" fill="#EDB73E"/>
<path data-unit="source_056__contour_01" data-control="rig_handle_r" d="M542.576502,136.51147 L558.574797,136.277885 L559.757318,217.269253 L558.757425,217.283852 L557.677096,143.291738 L556.677203,143.306337 L556.662604,142.306444 L555.66271,142.321043 L555.648111,141.321149 L554.648218,141.335748 L554.662817,142.335642 L550.663243,142.394038 L550.634045,140.394251 L551.633939,140.379652 L551.61934,139.379759 L552.619233,139.36516 L552.604634,138.365266 L551.604741,138.379865 L551.590142,137.379972 L548.590461,137.423769 L548.60506,138.423662 L547.605167,138.438261 L547.590568,137.438368 L545.590781,137.467566 L545.60538,138.467459 L543.605593,138.496657 L543.590994,137.496764 L542.591101,137.511363 Z" fill="#916A22"/>
<path data-unit="source_057__contour_01" data-control="rig_handle_r" d="M498.938727,93.143917 L523.936063,92.778941 L524.549222,134.774465 L523.549329,134.789064 L522.950768,93.793434 L507.952367,94.012419 L507.966966,95.012313 L504.967286,95.05611 L504.981885,96.056003 L503.981991,96.070602 L503.99659,97.070496 L502.996697,97.085095 L503.011296,98.084988 L502.011402,98.099587 L501.967605,95.099907 L500.967712,95.114506 L501.026108,99.11408 L500.026215,99.128679 L500.522582,133.125055 L504.522155,133.066659 L504.536754,134.066552 L501.537074,134.11035 L501.551673,135.110243 L499.551886,135.139441 Z" fill="#F3C248"/>
<path data-unit="source_058__contour_01" data-control="rig_stem" d="M352.341687,327.309047 L481.32794,325.425772 L481.342539,326.425666 L352.356287,328.30894 Z" fill="#BFA984"/>
<path data-unit="source_059__contour_01" data-control="rig_cup" d="M410.948105,94.428632 L498.938727,93.143917 L499.551886,135.139441 L498.551993,135.15404 L497.953433,94.15841 L410.962704,95.428525 Z" fill="#7B5410"/>
<path data-unit="source_060__contour_01" data-control="rig_base" d="M210.327903,464.39692 L211.327796,464.382321 L211.342395,465.382214 L325.330246,463.717925 L325.344845,464.717818 L198.35838,466.571895 L198.343781,465.572002 L210.342502,465.396813 Z" fill="#71531F"/>
<path data-unit="source_061__contour_01" data-control="rig_base" d="M219.68448,420.255619 L222.68416,420.211822 L222.713358,422.211608 L221.713465,422.226207 L221.728064,423.226101 L223.72785,423.196903 L223.74245,424.196796 L224.742343,424.182197 L224.756942,425.182091 L223.757049,425.19669 L223.771648,426.196583 L222.771754,426.211182 L222.786353,427.211076 L227.78582,427.13808 L227.800419,428.137974 L234.799673,428.035781 L234.785074,427.035887 L313.776655,425.882564 L313.791254,426.882457 L236.79946,428.006583 L236.814059,429.006476 L219.815871,429.25466 Z" fill="#EFBB44"/>
<path data-unit="source_062__contour_01" data-control="rig_stem" d="M352.327088,326.309153 L480.313447,324.440478 L480.328046,325.440371 L352.341687,327.309047 Z" fill="#7C520E"/>
<path data-unit="source_063__contour_01" data-control="rig_handle_r" d="M481.108674,173.412773 L521.104411,172.828812 L521.323397,187.827213 L520.323503,187.841812 L520.119117,173.843304 L482.123167,174.398067 L483.203495,248.390181 L482.203601,248.40478 Z" fill="#7C5917"/>
<path data-unit="source_064__contour_01" data-control="rig_mouth" d="M372.984864,252.239478 L374.060296,252.265013 L373.63302,270.259941 L255.335556,267.451056 L255.359294,266.451338 L372.581326,269.234688 Z" fill="#584E1E"/>
<path data-unit="source_065__contour_01" data-control="rig_cup" d="M145.224637,115.310162 L272.211102,113.456085 L272.225701,114.455978 L145.239236,116.310055 Z" fill="#B48928"/>
<path data-unit="source_066__contour_01" data-control="rig_cup" d="M145.210038,114.310268 L272.196503,112.456191 L272.211102,113.456085 L145.224637,115.310162 Z" fill="#845E18"/>
<path data-unit="source_067__contour_01" data-control="rig_handle_l" d="M68.627017,143.431409 L127.620729,142.570067 L127.635328,143.56996 L69.641509,144.416704 L69.977287,167.414253 L70.97718,167.399654 L71.020977,170.399334 L70.021084,170.413933 L70.108678,176.413293 L71.108571,176.398694 L71.28376,188.397416 L72.283653,188.382817 L72.298252,189.38271 L71.298359,189.397309 L71.502745,203.395817 L70.502852,203.410416 L70.167074,180.412867 L69.167181,180.427466 Z" fill="#916922"/>
<path data-unit="source_068__contour_01" data-control="rig_stem" d="M150.348616,329.258157 L275.335294,327.433279 L275.349893,328.433172 L150.363215,330.258051 Z" fill="#7E530F"/>
<path data-unit="source_069__contour_01" data-control="rig_handle_l" d="M146.158975,179.303341 L147.158868,179.288742 L147.188066,181.288529 L148.18796,181.27393 L148.363148,193.272651 L147.363255,193.28725 L147.611438,210.285438 L148.611331,210.270839 L148.757322,220.269774 L147.757428,220.284373 L147.801225,223.284053 L148.801119,223.269454 L149.034703,239.267749 L148.03481,239.282348 L148.064008,241.282135 L149.063901,241.267536 L149.23909,253.266257 L148.239196,253.280856 L148.253795,254.280749 L147.253902,254.295348 Z" fill="#F3BF47"/>
<path data-unit="source_070__contour_01" data-control="rig_cup" d="M202.955673,96.465336 L327.942352,94.640458 L327.956951,95.640351 L202.970272,97.46523 Z" fill="#C6A08A"/>
<path data-unit="source_071__contour_01" data-control="rig_stem" d="M257.658391,349.693717 L258.658285,349.679118 L258.848072,362.677732 L259.847966,362.663133 L259.833367,361.66324 L260.83326,361.648641 L260.920854,367.648001 L261.920748,367.633402 L261.906149,366.633509 L262.906042,366.61891 L262.891443,365.619016 L263.891336,365.604417 L263.876737,364.604524 L264.876631,364.589925 L264.905829,366.589712 L263.905935,366.604311 L263.920534,367.604204 L264.920428,367.589605 L264.935027,368.589498 L283.933002,368.312117 L283.918403,367.312224 L285.91819,367.283025 L285.888992,365.283239 L286.888885,365.26864 L286.874286,364.268746 L287.87418,364.254147 L287.830383,361.254467 L288.830276,361.239868 L288.815677,360.239974 L289.81557,360.225375 L289.800971,359.225482 L290.800865,359.210883 L290.815464,360.210776 L291.815357,360.196177 L291.844555,362.195964 L290.844662,362.210563 L290.859261,363.210457 L291.859154,363.195858 L291.888352,365.195644 L292.888246,365.181045 L292.902845,366.180939 L293.902738,366.16634 L293.931936,368.166127 L294.93183,368.151528 L294.946429,369.151421 L257.950372,369.691585 Z" fill="#855F19"/>
<path data-unit="source_072__contour_01" data-control="rig_stem" d="M363.26752,322.14899 L365.267307,322.119792 L365.296505,324.119579 L366.296398,324.10498 L366.310997,325.104874 L469.300021,323.601174 L469.31462,324.601067 L358.326449,326.221559 L358.31185,325.221666 L360.311637,325.192468 L360.297038,324.192574 L361.296931,324.177975 L361.282332,323.178082 L363.282119,323.148884 Z" fill="#916B24"/>
<path data-unit="source_073__contour_01" data-control="rig_cup" d="M168.806427,291.984719 L169.80632,291.97012 L170.054504,308.968308 L273.043527,307.464608 L273.058126,308.464502 L170.069103,309.968201 L170.083702,310.968095 L169.083809,310.982694 Z" fill="#F5C048"/>
<path data-unit="source_074__contour_01" data-control="rig_handle_r" d="M542.853883,155.509445 L543.853777,155.494846 L545.488868,267.48291 L544.488975,267.497509 L544.503574,268.497402 L543.50368,268.512001 L543.372289,259.51296 L544.372182,259.498361 Z" fill="#855F1C"/>
<path data-unit="source_075__contour_01" data-control="rig_handle_l" d="M127.992864,99.56005 L128.992758,99.545451 L129.576719,139.541188 L131.576506,139.51199 L131.591105,140.511884 L130.591211,140.526483 L130.620409,142.52627 L129.620516,142.540869 L129.635115,143.540762 L128.635221,143.555361 L128.64982,144.555254 L130.649607,144.526056 L130.635008,143.526163 L131.634902,143.511564 L131.620303,142.511671 L132.620196,142.497072 L132.649394,144.496858 L131.649501,144.511457 L131.6641,145.511351 L130.664206,145.52595 L130.678805,146.525843 L128.679018,146.555041 L128.664419,145.555148 L127.664526,145.569747 L127.649927,144.569854 L125.65014,144.599052 L125.635541,143.599158 L127.635328,143.56996 L127.620729,142.570067 L68.627017,143.431409 L68.612418,142.431516 L128.606023,141.555574 Z" fill="#885E16"/>
<path data-unit="source_076__contour_01" data-control="rig_cup" d="M168.083915,310.997293 L287.071233,309.260009 L287.085832,310.259902 L168.098514,311.997186 Z" fill="#7E5815"/>
<path data-unit="source_077__contour_01" data-control="rig_stem" d="M294.362468,329.155684 L333.358311,328.586322 L333.942273,368.582059 L332.942379,368.596658 L332.373017,329.600814 L295.37696,330.140978 L295.946322,369.136822 L294.946429,369.151421 Z" fill="#F7C74D"/>
<path data-unit="source_078__contour_01" data-control="rig_handle_l" d="M85.858789,159.181521 L86.858683,159.166922 L88.537571,274.154666 L87.537678,274.169265 Z" fill="#856018"/>
<path data-unit="source_079__contour_01" data-control="rig_base" d="M325.330246,463.717925 L437.31831,462.082834 L437.332909,463.082727 L325.344845,464.717818 Z" fill="#70531F"/>
<path data-unit="source_080__contour_01" data-control="rig_eye_r" d="M355.370286,192.250439 L387.366875,191.78327 L387.381474,192.783163 L356.384778,193.235733 L356.881145,227.23211 L369.87976,227.042322 L369.850562,225.042536 L374.850029,224.96954 L374.864628,225.969434 L376.864415,225.940236 L376.879014,226.940129 L389.877628,226.750342 L389.892227,227.750235 L355.895851,228.246602 Z" fill="#181715"/>
<path data-unit="source_081__contour_01" data-control="rig_handle_l" d="M67.627123,143.446008 L68.627017,143.431409 L70.262108,255.419473 L69.262214,255.434072 Z" fill="#774E15"/>
<path data-unit="source_082__contour_01" data-control="rig_base" d="M307.09858,447.982413 L418.08675,446.36192 L418.101349,447.361814 L307.113179,448.982306 Z" fill="#674B18"/>
<path data-unit="source_083__contour_01" data-control="rig_mouth" d="M253.809111,286.420167 L373.182006,289.254587 L373.158268,290.254306 L253.785373,287.419885 Z" fill="#EAB43D"/>
<path data-unit="source_084__contour_01" data-control="rig_mouth" d="M253.832849,285.420449 L373.205743,288.254869 L373.182006,289.254587 L253.809111,286.420167 Z" fill="#FBD759"/>
<path data-unit="source_085__contour_01" data-control="rig_mouth" d="M253.856586,284.42073 L373.229481,287.255151 L373.205743,288.254869 L253.832849,285.420449 Z" fill="#5B4817"/>
<path data-unit="source_086__contour_01" data-control="rig_handle_l" d="M75.772541,290.342748 L134.766253,289.481406 L134.795451,291.481192 L135.795345,291.466593 L135.809944,292.466487 L134.81005,292.481086 L134.853847,295.480766 L133.853954,295.495365 L133.868553,296.495259 L132.86866,296.509858 L132.883259,297.509751 L131.883365,297.52435 L132.058554,309.523071 L134.05834,309.493873 L134.043741,308.49398 L137.043422,308.450183 L137.058021,309.450076 L141.057594,309.39168 L141.072193,310.391573 L131.073259,310.537564 L130.795878,291.539588 L129.795984,291.554188 L129.781385,290.554294 L75.78714,291.342642 Z" fill="#936A23"/>
<path data-unit="source_087__contour_01" data-control="rig_mouth" d="M256.38725,268.47631 L371.458419,271.208589 L371.387206,274.207743 L370.311775,274.182208 L370.335512,273.18249 L369.260081,273.156955 L369.283818,272.157236 L351.001483,271.723136 L350.977746,272.722854 L349.902314,272.697319 L349.926052,271.697601 L256.363513,269.476028 Z" fill="#171513"/>
<path data-unit="source_088__contour_01" data-control="rig_cup" d="M260.08871,310.654076 L369.077093,309.062782 L369.091692,310.062675 L260.103309,311.653969 Z" fill="#916822"/>
<path data-unit="source_089__contour_01" data-control="rig_handle_r" d="M512.368153,190.958285 L522.367087,190.812294 L522.936449,229.808138 L501.938687,230.114718 L501.924088,229.114824 L520.922064,228.837443 L520.396499,192.841279 L516.396925,192.899675 L516.382326,191.899782 L512.382752,191.958178 Z" fill="#F6F1DE"/>
<path data-unit="source_090__contour_01" data-control="rig_eye_r" d="M354.355793,191.265144 L391.35185,190.72498 L391.366449,191.724874 L355.370286,192.250439 L355.895851,228.246602 L390.892121,227.735636 L390.90672,228.73553 L354.910556,229.261095 Z" fill="#060706"/>
<path data-unit="source_091__contour_01" data-control="rig_cup" d="M412.210781,112.412114 L479.203641,111.433979 L479.8168,153.429503 L478.816907,153.444102 L478.218347,112.448472 L412.22538,113.412008 Z" fill="#F7C54E"/>
<path data-unit="source_092__contour_01" data-control="rig_cup" d="M159.193947,113.105988 L267.182437,111.529293 L267.197036,112.529187 L159.208546,114.105882 Z" fill="#946C23"/>
<path data-unit="source_093__contour_01" data-control="rig_base" d="M180.820027,429.824022 L189.819068,429.69263 L189.833667,430.692524 L181.83452,430.809316 L182.228693,457.806439 L184.22848,457.777241 L184.257678,459.777027 L185.257572,459.762428 L185.272171,460.762322 L186.272064,460.747723 L186.286663,461.747616 L190.286237,461.68922 L190.300836,462.689114 L191.300729,462.674515 L191.28613,461.674621 L192.286024,461.660022 L192.329821,464.659702 L193.329714,464.645103 L193.358912,466.64489 L181.360191,466.820079 Z" fill="#624715"/>
<path data-unit="source_094__contour_01" data-control="rig_handle_r" d="M541.810193,152.524364 L542.810086,152.509765 L544.372182,259.498361 L543.372289,259.51296 Z" fill="#916C1F"/>
<path data-unit="source_095__contour_01" data-control="rig_base" d="M200.109983,449.544509 L306.098686,447.997012 L306.113285,448.996905 L200.124582,450.544402 Z" fill="#674B18"/>
<path data-unit="source_096__contour_01" data-control="rig_base" d="M218.509398,408.271497 L324.498101,406.723999 L324.5127,407.723893 L218.523997,409.27139 Z" fill="#DFB03A"/>
<path data-unit="source_097__contour_01" data-control="rig_handle_l" d="M118.307949,189.711048 L119.307842,189.696449 L119.33704,191.696236 L122.336721,191.652439 L122.322122,190.652545 L123.322015,190.637946 L123.336614,191.63784 L124.336508,191.623241 L124.365706,193.623028 L134.36464,193.477037 L134.379239,194.476931 L133.379346,194.49153 L133.423143,197.49121 L132.423249,197.505809 L132.496244,202.505276 L131.496351,202.519875 L131.671539,214.518596 L130.671646,214.533195 L130.408863,196.535114 L117.410249,196.724901 L117.39565,195.725008 L116.395756,195.739607 L116.381157,194.739713 L113.381477,194.78351 L113.366878,193.783617 L114.366771,193.769018 L114.352172,192.769124 L113.352279,192.783724 L113.33768,191.78383 L114.337573,191.769231 L114.322974,190.769338 L115.322868,190.754739 L115.337467,191.754632 L116.33736,191.740033 L116.322761,190.74014 L118.322548,190.710942 Z" fill="#936A22"/>
<path data-unit="source_098__contour_01" data-control="rig_shine" d="M171.17295,142.258258 L172.168787,142.167106 L172.259939,143.162943 L176.243287,142.798337 L176.334439,143.794174 L177.330276,143.703023 L177.239124,142.707186 L178.234961,142.616034 L178.14381,141.620197 L180.135484,141.437894 L180.226635,142.433731 L182.218309,142.251428 L182.309461,143.247265 L181.313624,143.338417 L181.495927,145.330091 L180.50009,145.421242 L180.591241,146.417079 L181.587078,146.325928 L181.860533,149.313439 L180.864696,149.40459 L181.046999,151.396264 L177.063651,151.76087 L177.154802,152.756707 L172.175617,153.212465 L172.084466,152.216628 L171.088629,152.30778 L170.268265,143.345246 L171.264102,143.254095 Z" fill="#FCFCFC"/>
<path data-unit="source_099__contour_01" data-control="rig_handle_l" d="M125.978478,98.589355 L126.978372,98.574756 L127.60613,141.570173 L68.612418,142.431516 L68.627017,143.431409 L66.62723,143.460607 L66.612631,142.460714 L67.612524,142.446115 L67.597925,141.446222 L126.591637,140.584879 Z" fill="#CDC2AD"/>
<path data-unit="source_100__contour_01" data-control="rig_cup" d="M349.217495,113.331853 L411.210888,112.426713 L411.225487,113.426607 L350.231988,114.317148 L350.553166,136.314803 L329.555404,136.621383 L329.540805,135.621489 L349.538674,135.329509 Z" fill="#D18B3D"/>
<path data-unit="source_101__contour_01" data-control="rig_cup" d="M287.071233,309.260009 L390.060256,307.756309 L390.074855,308.756202 L287.085832,310.259902 Z" fill="#7D5816"/>
<path data-unit="source_102__contour_01" data-control="rig_handle_r" d="M522.104305,172.814213 L523.104198,172.799614 L523.323184,187.798015 L525.322971,187.768817 L525.33757,188.76871 L526.337463,188.754111 L526.352062,189.754005 L528.351849,189.724807 L528.366448,190.7247 L529.366341,190.710101 L529.395539,192.709888 L528.395646,192.724487 L528.410245,193.724381 L527.410352,193.73898 L527.424951,194.738873 L526.425057,194.753472 L526.439656,195.753365 L525.439763,195.767964 L525.468961,197.767751 L526.468854,197.753152 L526.483453,198.753046 L525.48356,198.767645 L525.571154,204.767005 L526.571047,204.752406 L526.585646,205.7523 L525.585753,205.766899 L525.658748,210.766366 L524.658855,210.780965 L524.921637,228.779047 L523.921744,228.793646 L523.38158,191.797589 L522.381686,191.812188 Z" fill="#F3BE4B"/>
<path data-unit="source_103__contour_01" data-control="rig_handle_r" d="M494.297076,186.2216 L497.296756,186.177803 L497.311355,187.177696 L500.311036,187.133899 L500.296437,186.134006 L501.29633,186.119407 L501.354726,190.118981 L500.354833,190.13358 L500.369432,191.133473 L498.369645,191.162671 L498.89521,227.158835 L495.89553,227.202632 L495.880931,226.202738 L494.881037,226.217337 L494.866438,225.217444 L493.866545,225.232043 L493.837347,223.232256 L494.83724,223.217657 L494.822641,222.217764 L496.822428,222.188565 L496.807829,221.188672 L497.807722,221.174073 L497.763925,218.174393 L496.764032,218.188992 L496.778631,219.188885 L494.778844,219.218083 L494.764245,218.21819 L495.764139,218.203591 L495.749539,217.203697 L496.749433,217.189098 L496.734834,216.189205 L497.734727,216.174606 L497.413549,194.17695 L495.413762,194.206148 L495.399163,193.206255 L494.399269,193.220854 L494.38467,192.220961 L493.384777,192.23556 L493.370178,191.235666 L492.370284,191.250265 L492.341086,189.250478 L493.34098,189.235879 L493.326381,188.235986 L494.326274,188.221387 Z" fill="#916A22"/>
<path data-unit="source_104__contour_01" data-control="rig_base" d="M349.342287,464.367442 L451.331417,462.878341 L451.346016,463.878234 L349.356886,465.367335 Z" fill="#62420F"/>
<path data-unit="source_105__contour_01" data-control="rig_base" d="M347.451853,403.388542 L348.451747,403.373943 L348.466346,404.373836 L404.460378,403.55629 L404.445779,402.556397 L405.445672,402.541798 L405.460271,403.541691 L413.459418,403.424899 L413.474017,404.424792 L313.484675,405.884695 L313.470076,404.884802 L347.466452,404.388435 Z" fill="#8D6723"/>
<path data-unit="source_106__contour_01" data-control="rig_stem" d="M395.935665,367.676919 L410.934067,367.457934 L411.226047,387.455802 L420.225088,387.324411 L420.239687,388.324304 L425.239154,388.251309 L425.253753,389.251203 L424.25386,389.265802 L424.268459,390.265695 L421.268778,390.309492 L421.283377,391.309386 L420.283484,391.323985 L420.298083,392.323878 L419.29819,392.338477 L419.283591,391.338584 L417.283804,391.367782 L417.298403,392.367675 L416.298509,392.382274 L416.313108,393.382168 L414.313322,393.411366 L414.298723,392.411472 L412.298936,392.44067 L412.284337,391.440777 L410.28455,391.469975 L410.269951,390.470082 L409.270057,390.484681 L409.255458,389.484787 L407.255671,389.513985 L407.226473,387.514198 L409.22626,387.485 L409.197062,385.485213 L410.196956,385.470614 L409.948772,368.472426 L395.950264,368.676813 Z" fill="#805C1F"/>
<path data-unit="source_107__contour_01" data-control="rig_cup" d="M349.035428,306.355082 L449.02477,304.895179 L449.039369,305.895072 L349.050027,307.354975 Z" fill="#F4BF46"/>
<path data-unit="source_108__contour_01" data-control="rig_handle_r" d="M479.203641,111.433979 L480.203534,111.41938 L480.816694,153.414904 L498.814775,153.152122 L498.829374,154.152015 L480.831293,154.414798 L481.108674,173.412773 L479.108887,173.441971 L478.816907,153.444102 L479.8168,153.429503 Z" fill="#D3A53B"/>
<path data-unit="source_109__contour_01" data-control="rig_base" d="M217.816084,429.283858 L316.805534,427.838554 L316.820133,428.838447 L217.830683,430.283751 Z" fill="#845E18"/>
<path data-unit="source_110__contour_01" data-control="rig_handle_r" d="M498.690544,76.145729 L539.686174,75.547169 L540.547517,134.540881 L539.547623,134.55548 L538.70088,76.561661 L498.705143,77.145622 Z" fill="#9E814F"/>
<path data-unit="source_111__contour_01" data-control="rig_mouth" d="M255.335556,267.451056 L360.727842,269.953517 L360.704104,270.953236 L255.311819,268.450774 Z" fill="#0C0A0A"/>
<path data-unit="source_112__contour_01" data-control="rig_handle_r" d="M499.705036,77.131023 L538.70088,76.561661 L539.44543,127.556226 L538.445537,127.570825 L537.715585,77.576153 L500.719528,78.116318 L500.836321,86.115465 L499.836427,86.130064 Z" fill="#805912"/>
<path data-unit="source_113__contour_01" data-control="rig_base" d="M316.805534,427.838554 L412.795303,426.437047 L412.809902,427.43694 L316.820133,428.838447 Z" fill="#845D18"/>
<path data-unit="source_114__contour_01" data-control="rig_eye_l" d="M240.382541,193.929327 L274.378918,193.43296 L274.904483,229.429124 L266.905336,229.545916 L266.890737,228.546022 L268.890523,228.516824 L268.861325,226.517037 L269.861219,226.502438 L269.84662,225.502545 L270.846513,225.487946 L270.831914,224.488053 L271.831808,224.473454 L271.817209,223.47356 L272.817102,223.458961 L272.802503,222.459068 L273.802396,222.444469 L273.393624,194.447453 L240.39714,194.929221 Z" fill="#191814"/>
<path data-unit="source_115__contour_01" data-control="rig_cup" d="M329.555404,136.621383 L349.553273,136.329402 L349.567872,137.329295 L331.56979,137.592078 L331.847172,156.590053 L330.847278,156.604652 L330.861877,157.604546 L293.865821,158.14471 L293.851222,157.144816 L329.847385,156.619251 Z" fill="#F5C750"/>
<path data-unit="source_116__contour_01" data-control="rig_cup" d="M410.962704,95.428525 L485.954712,94.333598 L485.969311,95.333491 L413.976984,96.384621 L414.006182,98.384408 L412.006395,98.413606 L412.210781,112.412114 L411.210888,112.426713 Z" fill="#926826"/>
<path data-unit="source_117__contour_01" data-control="rig_cup" d="M128.992758,99.545451 L220.982953,98.202341 L220.997552,99.202234 L193.000536,99.611007 L193.015135,100.6109 L191.015348,100.640098 L191.000749,99.640205 L152.004905,100.209567 L152.019504,101.20946 L151.019611,101.224059 L151.005012,100.224166 L129.007357,100.545345 Z" fill="#916A26"/>
<path data-unit="source_118__contour_01" data-control="rig_cup" d="M176.973043,97.844804 L271.962919,96.457897 L271.977518,97.45779 L176.987642,98.844698 Z" fill="#82580F"/>
<path data-unit="source_119__contour_01" data-control="rig_base" d="M359.355821,465.221345 L452.345909,463.863635 L452.360508,464.863529 L359.37042,466.221238 Z" fill="#8C7759"/>
<path data-unit="source_120__contour_01" data-control="rig_base" d="M313.776655,425.882564 L406.766744,424.524854 L406.781343,425.524748 L313.791254,426.882457 Z" fill="#F0BC46"/>
<path data-unit="source_121__contour_01" data-control="rig_mouth" d="M254.955755,283.446548 L353.895452,285.795797 L353.871714,286.795515 L254.932018,284.446266 Z" fill="#0C0D0A"/>
<path data-unit="source_122__contour_01" data-control="rig_cup" d="M126.978372,98.574756 L176.973043,97.844804 L176.987642,98.844698 L127.992864,99.56005 L128.606023,141.555574 L127.60613,141.570173 Z" fill="#78500D"/>
<path data-unit="source_123__contour_01" data-control="rig_stem" d="M238.215286,387.981647 L329.205588,386.653136 L329.220187,387.653029 L238.229885,388.981541 Z" fill="#F8C549"/>
<path data-unit="source_124__contour_01" data-control="rig_stem" d="M276.364386,329.418466 L277.364279,329.403867 L277.641661,348.401843 L278.641554,348.387244 L278.626955,347.38735 L279.626849,347.372751 L279.641448,348.372644 L280.641341,348.358045 L280.670539,350.357832 L279.670646,350.372431 L279.699844,352.372218 L278.69995,352.386817 L278.714549,353.386711 L277.714656,353.40131 L277.729255,354.401203 L276.729362,354.415802 L276.743961,355.415696 L275.744067,355.430295 L275.758666,356.430188 L274.758773,356.444787 L274.744174,355.444894 L268.744813,355.532488 L268.715615,353.532701 L267.715722,353.5473 L267.671925,350.54762 L266.672031,350.562219 L266.657432,349.562325 L276.656367,349.416335 Z" fill="#825C1A"/>
<path data-unit="source_125__contour_01" data-control="rig_base" d="M303.252156,390.032391 L393.242564,388.718478 L393.257163,389.718372 L303.266755,391.032284 Z" fill="#936922"/>
<path data-unit="source_126__contour_01" data-control="rig_cup" d="M410.933506,93.428738 L498.924128,92.144024 L498.938727,93.143917 L410.948105,94.428632 Z" fill="#C9B99C"/>
<path data-unit="source_127__contour_01" data-control="rig_base" d="M324.498101,406.723999 L411.48883,405.453884 L411.503429,406.453777 L324.5127,407.723893 Z" fill="#E2B33E"/>
<path data-unit="source_128__contour_01" data-control="rig_base" d="M219.465494,405.257217 L220.465388,405.242618 L220.479987,406.242512 L238.478068,405.979729 L238.463469,404.979836 L239.463363,404.965237 L239.477962,405.96513 L303.471141,405.030792 L303.48574,406.030686 L218.494799,407.271603 L218.4802,406.27171 L219.480093,406.257111 Z" fill="#906923"/>
<path data-unit="source_129__contour_01" data-control="rig_handle_r" d="M482.495582,268.402649 L543.489081,267.512108 L543.50368,268.512001 L483.510074,269.387943 L483.685263,281.386664 L486.684943,281.342867 L486.714141,283.342654 L485.714248,283.357253 L485.728847,284.357146 L484.728953,284.371745 L484.743552,285.371639 L483.743659,285.386238 L483.758258,286.386131 L482.758364,286.40073 Z" fill="#7F5D1B"/>
<path data-unit="source_130__contour_01" data-control="rig_handle_l" d="M99.784302,153.977667 L101.784089,153.948469 L101.813287,155.948256 L104.812967,155.904459 L104.827566,156.904352 L107.827247,156.860555 L107.841846,157.860449 L145.837796,157.305686 L145.852395,158.305579 L91.85815,159.093927 L91.828952,157.09414 L93.828739,157.064942 L93.81414,156.065048 L95.813927,156.03585 L95.799328,155.035957 L96.799221,155.021358 L96.81382,156.021251 L98.813607,155.992053 L98.799008,154.99216 L99.798901,154.977561 Z" fill="#936B1B"/>
<path data-unit="source_131__contour_01" data-control="rig_stem" d="M351.414789,332.323113 L352.414683,332.308514 L352.487678,337.307981 L353.487571,337.293382 L353.589764,344.292636 L352.589871,344.307235 L352.648267,348.306809 L371.646242,348.029427 L371.660841,349.029321 L363.661694,349.146113 L363.676293,350.146006 L362.676399,350.160605 L362.690998,351.160499 L361.691105,351.175098 L361.705704,352.174991 L360.705811,352.18959 L360.72041,353.189484 L358.720623,353.218682 L358.691425,351.218895 L357.691531,351.233494 L357.70613,352.233387 L355.706343,352.262585 L355.691744,351.262692 L351.692171,351.321088 L351.677572,350.321195 L350.677678,350.335794 L350.64848,348.336007 L348.648693,348.365205 L348.619495,346.365418 L349.619389,346.350819 L349.590191,344.351032 L350.590084,344.336433 L350.575485,343.33654 L351.575379,343.321941 Z" fill="#8D692C"/>
<path data-unit="source_132__contour_01" data-control="rig_handle_r" d="M521.104411,172.828812 L522.104305,172.814213 L522.367087,190.812294 L513.368046,190.943686 L513.353447,189.943792 L512.353554,189.958391 L512.324356,187.958604 L510.324569,187.987802 L510.295371,185.988016 L509.295478,186.002615 L509.26628,184.002828 L520.265107,183.842238 L520.323503,187.841812 L521.323397,187.827213 Z" fill="#966D1F"/>
<path data-unit="source_133__contour_01" data-control="rig_cup" d="M170.069103,309.968201 L255.060044,308.727284 L255.074643,309.727177 L170.083702,310.968095 Z" fill="#E6BA48"/>
<path data-unit="source_134__contour_01" data-control="rig_handle_l" d="M87.282055,188.163831 L88.281948,188.149232 L89.522866,273.140174 L88.522972,273.154773 Z" fill="#F2C44E"/>
<path data-unit="source_135__contour_01" data-control="rig_handle_l" d="M146.399999,264.308881 L147.399892,264.294282 L147.531283,273.293323 L129.533202,273.556106 L129.518603,272.556212 L136.517857,272.454019 L136.503258,271.454126 L135.503364,271.468725 L135.488765,270.468831 L136.488659,270.454232 L136.459461,268.454445 L137.459354,268.439846 L137.444755,267.439953 L138.444648,267.425354 L138.430049,266.425461 L142.429623,266.367064 L142.444222,267.366958 L143.444116,267.352359 L143.429517,266.352465 L145.429303,266.323267 L145.414704,265.323374 L146.414598,265.308775 Z" fill="#CD9B2F"/>
<path data-unit="source_136__contour_01" data-control="rig_handle_r" d="M535.752436,148.612384 L536.75233,148.597785 L536.766929,149.597678 L541.766396,149.524683 L541.780995,150.524577 L542.780888,150.509978 L542.810086,152.509765 L483.816374,153.371107 L483.801775,152.371214 L529.796873,151.699658 L529.767675,149.699872 L530.767568,149.685273 L530.782167,150.685166 L531.78206,150.670567 L531.767461,149.670674 L535.767035,149.612277 Z" fill="#956E1E"/>
<path data-unit="source_137__contour_01" data-control="rig_hair" d="M327.942352,94.640458 L410.933506,93.428738 L410.948105,94.428632 L327.956951,95.640351 Z" fill="#EFB944"/>
<path data-unit="source_137__contour_01" data-control="rig_hair" d="M322.601404,93.724414 L405.331346,87.034372 L405.411949,88.031118 L322.682007,94.721161 Z" fill="#C57870"/>
<path data-unit="source_138__contour_01" data-control="rig_stem" d="M390.936198,367.749914 L391.936091,367.735315 L392.228072,387.733184 L391.228179,387.747783 L391.21358,386.747889 L329.220187,387.653029 L329.205588,386.653136 L391.19898,385.747996 Z" fill="#F7C348"/>
<path data-unit="source_139__contour_01" data-control="rig_shine" d="M165.829159,138.730667 L183.754226,137.08994 L185.486105,156.010843 L180.50692,156.466601 L180.415768,155.470764 L184.399116,155.106158 L184.03451,151.12281 L181.046999,151.396264 L180.864696,149.40459 L181.860533,149.313439 L181.587078,146.325928 L180.591241,146.417079 L180.50009,145.421242 L181.495927,145.330091 L181.313624,143.338417 L182.309461,143.247265 L182.400612,144.243102 L183.396449,144.15195 L182.84954,138.176928 L166.916148,139.635353 L168.374572,155.568745 L170.366246,155.386442 L170.457398,156.382279 L171.453235,156.291128 L171.544386,157.286965 L168.556875,157.560419 L168.648027,158.556256 L167.65219,158.647408 Z" fill="#FDFCF9"/>
<path data-unit="source_140__contour_01" data-control="rig_cup" d="M350.231988,114.317148 L411.225487,113.426607 L411.240086,114.4265 L351.24648,115.302442 L351.55306,136.300204 L350.553166,136.314803 Z" fill="#F8C84F"/>
<path data-unit="source_141__contour_01" data-control="rig_stem" d="M370.660948,349.04392 L371.660841,349.029321 L371.938223,368.027296 L358.939608,368.217083 L358.91041,366.217296 L359.910304,366.202697 L359.881106,364.20291 L361.880892,364.173712 L361.866293,363.173819 L362.866187,363.15922 L362.851588,362.159327 L363.851481,362.144727 L363.86608,363.144621 L366.865761,363.100824 L366.851161,362.10093 L368.850948,362.071732 L368.836349,361.071839 L370.836136,361.042641 Z" fill="#815C19"/>
<path data-unit="source_142__contour_01" data-control="rig_handle_l" d="M68.787886,291.444835 L70.787673,291.415637 L70.802272,292.41553 L129.795984,291.554188 L130.087965,311.552056 L129.088071,311.566655 L128.81069,292.56868 L69.816978,293.430023 L69.802379,292.430129 L68.802485,292.444728 Z" fill="#CDC0A8"/>
<path data-unit="source_143__contour_01" data-control="rig_mouth" d="M234.254203,248.945422 L255.762832,249.456128 L255.335556,267.451056 L233.826927,266.94035 L233.850664,265.940631 L252.132999,266.374732 L252.441588,253.378395 L251.366156,253.35286 L251.389894,252.353141 L242.786442,252.148859 L242.81018,251.149141 L253.564494,251.404494 L253.208431,266.400267 L254.283862,266.425802 L254.663663,250.430311 L234.230465,249.94514 Z" fill="#332E19"/>
<path data-unit="source_144__contour_01" data-control="rig_handle_r" d="M499.20179,248.156597 L517.199871,247.893814 L517.21447,248.893707 L511.21511,248.981302 L511.229709,249.981195 L513.229496,249.951997 L513.244095,250.95189 L508.244628,251.024886 L508.259227,252.024779 L507.259333,252.039378 L507.273932,253.039271 L506.274039,253.05387 L506.288638,254.053764 L505.288744,254.068363 L505.303343,255.068256 L504.30345,255.082855 L504.318049,256.082749 L503.318156,256.097348 L503.332755,257.097241 L501.332968,257.126439 L501.318369,256.126546 L499.318582,256.155744 Z" fill="#ECB540"/>
<path data-unit="source_145__contour_01" data-control="rig_handle_r" d="M498.369645,191.162671 L499.369538,191.148072 L499.9535,231.143809 L514.951901,230.924824 L514.9665,231.924717 L513.966607,231.939316 L513.981206,232.93921 L512.981312,232.953809 L512.966713,231.953915 L505.967459,232.056108 L505.982058,233.056002 L506.981952,233.041403 L506.996551,234.041296 L505.996657,234.055895 L506.011256,235.055789 L505.011363,235.070388 L505.025962,236.070281 L504.026068,236.08488 L503.99687,234.085093 L504.996764,234.070494 L504.982165,233.070601 L502.982378,233.099799 L502.996977,234.099692 L500.99719,234.12889 L500.967992,232.129104 L499.968099,232.143703 L500.026495,236.143276 L499.026601,236.157875 L498.997403,234.158089 L497.99751,234.172688 L497.982911,233.172794 L496.983017,233.187393 L496.924621,229.187819 L497.924515,229.17322 L497.939114,230.173114 L498.939007,230.158515 Z" fill="#7F5715"/>
<path data-unit="source_146__contour_01" data-control="rig_stem" d="M294.347869,328.15579 L334.343606,327.571829 L334.942166,368.56746 L333.942273,368.582059 L333.358311,328.586322 L294.362468,329.155684 Z" fill="#BE9433"/>
<path data-unit="source_147__contour_01" data-control="rig_cup" d="M148.086047,311.289274 L149.08594,311.274675 L149.202732,319.273822 L150.202626,319.259223 L150.363215,330.258051 L200.357886,329.528099 L200.372485,330.527993 L149.377921,331.272543 L149.363321,330.27265 L148.363428,330.287249 L148.261235,323.287995 L149.261128,323.273396 L149.246529,322.273502 L148.246636,322.288101 Z" fill="#B9A483"/>
<path data-unit="source_148__contour_01" data-control="rig_base" d="M280.36424,466.374668 L359.355821,465.221345 L359.37042,466.221238 L280.378839,467.374562 Z" fill="#8B7554"/>
<path data-unit="source_149__contour_01" data-control="rig_cup" d="M461.775202,287.707203 L481.77307,287.415223 L481.787669,288.415116 L462.789694,288.692498 L463.052476,306.690579 L464.05237,306.67598 L464.081568,308.675767 L463.081675,308.690366 L463.096274,309.69026 L460.096593,309.734057 L460.111192,310.73395 L459.111299,310.748549 L459.125898,311.748443 L458.126004,311.763042 L458.140604,312.762935 L457.14071,312.777534 L457.126111,311.777641 L456.126218,311.79224 L456.140817,312.792133 L455.140923,312.806732 L455.097126,309.807052 L453.097339,309.83625 L453.111938,310.836143 L451.112151,310.865342 L451.097552,309.865448 L450.097659,309.880047 L450.08306,308.880154 L451.082953,308.865555 L451.068354,307.865661 L462.067182,307.705072 Z" fill="#815D1A"/>
<path data-unit="source_150__contour_01" data-control="rig_base" d="M199.890998,434.546107 L200.890891,434.531508 L201.080678,447.530123 L265.073858,446.595785 L265.088457,447.595678 L200.095384,448.544615 Z" fill="#956C21"/>
<path data-unit="source_151__contour_01" data-control="rig_handle_r" d="M499.369538,191.148072 L501.369325,191.118874 L501.938687,230.114718 L499.938901,230.143916 Z" fill="#E8E2D6"/>
<path data-unit="source_152__contour_01" data-control="rig_handle_l" d="M127.409183,196.578911 L129.40897,196.549713 L129.978332,235.545556 L127.978545,235.574755 Z" fill="#E0DBCE"/>
<path data-unit="source_153__contour_01" data-control="rig_cup" d="M273.043527,307.464608 L349.035428,306.355082 L349.050027,307.354975 L273.058126,308.464502 Z" fill="#F5C047"/>
<path data-unit="source_154__contour_01" data-control="rig_eye_l" d="M276.364106,192.403869 L277.363999,192.38927 L277.94796,232.385007 L240.951904,232.925171 L240.937305,231.925277 L276.933468,231.399712 Z" fill="#F9D24D"/>
<path data-unit="source_155__contour_01" data-control="rig_eye_l" d="M238.353557,191.958738 L276.349507,191.403975 L276.918869,230.399819 L275.918976,230.414418 L275.364212,192.418468 L238.368156,192.958632 Z" fill="#6B5C23"/>
<path data-unit="source_156__contour_01" data-control="rig_handle_l" d="M107.411314,196.870891 L126.40929,196.59351 L126.423889,197.593403 L108.425807,197.856186 L108.965971,234.852243 L127.963946,234.574861 L127.978545,235.574755 L107.980677,235.866735 Z" fill="#FAF9F5"/>
<path data-unit="source_157__contour_01" data-control="rig_cup" d="M126.963773,97.574862 L202.955673,96.465336 L202.970272,97.46523 L126.978372,98.574756 Z" fill="#C4B393"/>
<path data-unit="source_158__contour_01" data-control="rig_stem" d="M200.357886,329.528099 L275.349893,328.433172 L275.364493,329.433065 L200.372485,330.527993 Z" fill="#BFA983"/>
<path data-unit="source_159__contour_01" data-control="rig_stem" d="M272.277218,323.477502 L273.277111,323.462903 L273.291711,324.462796 L274.291604,324.448197 L274.277005,323.448304 L277.276685,323.404507 L277.305883,325.404294 L283.305244,325.3167 L283.319843,326.316593 L285.31963,326.287395 L285.348828,328.287182 L276.349787,328.418573 L276.656367,349.416335 L275.656473,349.430934 L275.335294,327.433279 L267.336147,327.550071 L267.321548,326.550177 L268.321441,326.535578 L268.306842,325.535685 L269.306736,325.521086 L269.292137,324.521192 L270.29203,324.506593 L270.306629,325.506487 L271.306523,325.491888 L271.291924,324.491994 L272.291817,324.477395 Z" fill="#967232"/>
<path data-unit="source_160__contour_01" data-control="rig_handle_r" d="M478.108994,173.45657 L479.108887,173.441971 L480.203815,248.433978 L479.203921,248.448577 Z" fill="#EBB63D"/>
<path data-unit="source_161__contour_01" data-control="rig_handle_r" d="M480.108781,173.427372 L481.108674,173.412773 L482.203601,248.40478 L481.203708,248.419379 Z" fill="#B69032"/>
<path data-unit="source_162__contour_01" data-control="rig_handle_r" d="M479.108887,173.441971 L480.108781,173.427372 L481.203708,248.419379 L480.203815,248.433978 Z" fill="#F9CA4E"/>
<path data-unit="source_163__contour_01" data-control="rig_cup" d="M480.065264,307.442289 L481.065157,307.42769 L481.32794,325.425772 L480.328046,325.440371 L480.313447,324.440478 L469.31462,324.601067 L469.300021,323.601174 L470.299914,323.586575 L470.285315,322.586681 L471.285208,322.572082 L471.270609,321.572189 L479.269757,321.455396 L479.138366,312.456356 L478.138472,312.470955 L478.153071,313.470848 L477.153178,313.485447 L477.167777,314.48534 L475.16799,314.514539 L475.153391,313.514645 L474.153497,313.529244 L474.124299,311.529457 L475.124193,311.514858 L475.109594,310.514965 L478.109274,310.471168 L478.123873,311.471061 L479.123766,311.456462 L479.109167,310.456569 L480.109061,310.44197 Z" fill="#87631F"/>
<path data-unit="source_164__contour_01" data-control="rig_hair_fringe" d="M328.540912,135.636088 L329.540805,135.621489 L329.832786,155.619358 L293.836623,156.144923 L293.559241,137.146948 L294.559134,137.132349 L294.821917,155.13043 L328.818293,154.634063 Z" fill="#EFB944"/>
<path data-unit="source_164__contour_01" data-control="rig_hair_fringe" d="M324.346652,133.483538 L325.334934,133.330901 L328.387681,153.096546 L292.809519,158.591491 L289.90941,139.814128 L290.897692,139.661491 L293.645164,157.450571 L327.246761,152.260902 Z" fill="#922615"/>
<path data-unit="source_165__contour_01" data-control="rig_base" d="M411.48883,405.453884 L412.488723,405.439285 L412.795303,426.437047 L411.795409,426.451646 L411.518028,407.453671 L360.523463,408.198221 L360.508864,407.198328 L411.503429,406.453777 Z" fill="#F5C34C"/>
<path data-unit="source_166__contour_01" data-control="rig_cup" d="M390.060256,307.756309 L462.052583,306.705178 L462.067182,307.705072 L390.074855,308.756202 Z" fill="#7F5A16"/>
<path data-unit="source_167__contour_01" data-control="rig_eye_l" d="M239.368049,192.944033 L275.364212,192.418468 L275.904376,229.414525 L274.904483,229.429124 L274.378918,193.43296 L239.382648,193.943926 Z" fill="#080807"/>
<path data-unit="source_168__contour_01" data-control="rig_base" d="M409.635033,415.482016 L410.634926,415.467417 L410.780917,425.466352 L408.78113,425.49555 L408.795729,426.495443 L368.799992,427.079404 L368.785393,426.079511 L406.781343,425.524748 L406.752145,423.524961 L405.752252,423.53956 L405.723054,421.539773 L406.722947,421.525174 L406.708348,420.525281 L407.708241,420.510682 L407.693642,419.510788 L408.693536,419.496189 L408.678937,418.496296 L409.67883,418.481697 Z" fill="#ECBA48"/>
<path data-unit="source_169__contour_01" data-control="rig_eye_l" d="M239.411846,195.943713 L240.41174,195.929114 L240.908106,229.925491 L275.904376,229.414525 L275.918976,230.414418 L239.922812,230.939983 Z" fill="#070A07"/>
<path data-unit="source_170__contour_01" data-control="rig_mouth" d="M374.084033,251.265295 L396.668094,251.801537 L396.596882,254.800691 L397.672313,254.826227 L397.601101,257.825381 L399.751964,257.876452 L399.728226,258.87617 L397.577363,258.8251 L397.529888,260.824536 L396.454456,260.799001 L396.264556,268.796746 L397.339987,268.822282 L397.2213,273.820873 L396.145868,273.795338 L396.217081,270.796183 L395.141649,270.770648 L395.165387,269.770929 L394.089955,269.745394 L394.493494,252.750184 L374.060296,252.265013 Z" fill="#F3C74B"/>
<path data-unit="source_171__contour_01" data-control="rig_handle_r" d="M480.831293,154.414798 L498.829374,154.152015 L498.843973,155.151909 L485.845359,155.341696 L485.932953,161.341057 L484.93306,161.355656 L484.962258,163.355442 L483.962364,163.370042 L483.976963,164.369935 L482.97707,164.384534 L482.991669,165.384427 L481.991775,165.399026 L482.108568,173.398174 L481.108674,173.412773 Z" fill="#CE9B2F"/>
<path data-unit="source_172__contour_01" data-control="rig_handle_l" d="M86.858683,159.166922 L127.854313,158.568362 L127.868912,159.568255 L87.873175,160.152216 L88.281948,188.149232 L87.282055,188.163831 Z" fill="#F4C551"/>
<path data-unit="source_173__contour_01" data-control="rig_base" d="M200.095384,448.544615 L268.088137,447.551881 L268.102736,448.551775 L200.109983,449.544509 Z" fill="#73541B"/>
<path data-unit="source_174__contour_01" data-control="rig_stem" d="M391.936091,367.735315 L395.935665,367.676919 L395.994061,371.676493 L396.993955,371.661894 L397.008554,372.661787 L398.008447,372.647188 L398.052244,375.646868 L397.052351,375.661468 L397.06695,376.661361 L396.067056,376.67596 L396.081655,377.675853 L394.081869,377.705051 L394.227859,387.703986 L392.228072,387.733184 Z" fill="#906B23"/>
<path data-unit="source_175__contour_01" data-control="rig_hair_fringe" d="M294.559134,137.132349 L295.559028,137.11775 L295.807211,154.115938 L327.803801,153.648769 L327.555618,136.650581 L328.555511,136.635982 L328.818293,154.634063 L294.821917,155.13043 Z" fill="#EFB944"/>
<path data-unit="source_175__contour_01" data-control="rig_hair_fringe" d="M290.897692,139.661491 L291.885974,139.508853 L294.480809,156.309652 L326.105842,151.425257 L323.511007,134.624458 L324.499289,134.471821 L327.246761,152.260902 L293.645164,157.450571 Z" fill="#AB3829"/>
<path data-unit="source_176__contour_01" data-control="rig_stem" d="M344.838907,361.422216 L345.8388,361.407617 L345.867999,363.407403 L346.867892,363.392804 L346.882491,364.392698 L348.882278,364.3635 L348.896877,365.363393 L349.89677,365.348794 L349.882171,364.348901 L352.881852,364.305104 L352.896451,365.304997 L353.896344,365.290398 L353.910943,366.290291 L355.91073,366.261093 L355.925329,367.260987 L353.925542,367.290185 L353.940141,368.290078 L343.941207,368.436069 L343.926608,367.436175 L337.927247,367.523769 L337.912648,366.523876 L338.912542,366.509277 L338.897943,365.509383 L339.897836,365.494784 L339.883237,364.494891 L340.88313,364.480292 L340.868531,363.480399 L341.868425,363.4658 L341.853826,362.465906 L344.853506,362.422109 Z" fill="#8F681D"/>
<path data-unit="source_177__contour_01" data-control="rig_stem" d="M290.362894,329.21408 L294.362468,329.155684 L294.93183,368.151528 L293.931936,368.166127 L293.902738,366.16634 L292.902845,366.180939 L292.888246,365.181045 L291.888352,365.195644 L291.859154,363.195858 L290.859261,363.210457 L290.844662,362.210563 L291.844555,362.195964 L291.815357,360.196177 L290.815464,360.210776 L290.786266,358.210989 L291.786159,358.19639 L291.77156,357.196497 L292.771454,357.181898 L292.756855,356.182005 L293.756748,356.167406 L293.391772,331.17007 L290.392092,331.213867 Z" fill="#835F1A"/>
<path data-unit="source_178__contour_01" data-control="rig_handle_l" d="M147.749989,151.277127 L151.749562,151.218731 L151.851756,158.217985 L150.851862,158.232584 L150.866461,159.232477 L148.866674,159.261675 L148.852075,158.261782 L146.852289,158.29098 L146.954482,165.290234 L147.954375,165.275635 L147.998172,168.275315 L146.998279,168.289914 L147.042076,171.289595 L146.042182,171.304194 L145.866994,159.305472 L127.868912,159.568255 L127.854313,158.568362 L145.852395,158.305579 L145.837796,157.305686 L147.837583,157.276488 Z" fill="#EDB846"/>
<path data-unit="source_179__contour_01" data-control="rig_cup" d="M220.982953,98.202341 L271.977518,97.45779 L272.196503,112.456191 L271.19661,112.470791 L270.992223,98.472283 L221.997445,99.187635 L222.012044,100.187528 L221.012151,100.202127 Z" fill="#916A26"/>
<path data-unit="source_180__contour_01" data-control="rig_base" d="M238.259083,390.981328 L303.252156,390.032391 L303.266755,391.032284 L238.273682,391.981221 Z" fill="#926822"/>
<path data-unit="source_181__contour_01" data-control="rig_mouth" d="M256.126137,279.47321 L259.352431,279.549816 L259.304956,281.549252 L260.380388,281.574788 L260.35665,282.574506 L309.826499,283.749131 L309.802761,284.748849 L254.955755,283.446548 L254.932018,284.446266 L253.856586,284.42073 L253.951536,280.421858 L255.026968,280.447393 L254.979493,282.446829 L256.054924,282.472365 Z" fill="#181713"/>
</svg>
