<?xml version="1.0" encoding="UTF-8"?>
<svg xmlns="http://www.w3.org/2000/svg" width="640" height="544" viewBox="0 0 640 544">
<rect width="640" height="544" fill="#F4F2EC"/>
<path data-unit="source_001__contour_01" data-control="rig_cup" d="M415.106648,111.226966 L416.106615,111.218755 L416.114825,112.218722 L482.112601,111.676837 L482.613433,172.674781 L481.613466,172.682992 L482.229244,247.680464 L484.229176,247.664043 L484.549381,286.662729 L464.550055,286.826936 L464.706052,305.826295 L402.708141,306.335338 L402.699931,305.335372 L451.69828,304.933064 L451.690069,303.933098 L172.699473,306.223789 L172.559897,289.224362 L171.559931,289.232573 L171.715927,308.231932 L170.715961,308.240143 L170.551754,288.240817 L150.552428,288.405024 L150.248644,251.406271 L151.248611,251.398061 L151.2404,250.398095 L152.240367,250.389884 L152.141842,238.390289 L151.141876,238.398499 L151.125455,236.398566 L152.125422,236.390356 L151.994056,220.390895 L150.994089,220.399106 L150.969458,217.399207 L151.969425,217.390997 L151.887321,207.391334 L150.887355,207.399544 L150.747779,190.400117 L151.747745,190.391907 L151.64922,178.392311 L150.649254,178.400521 L150.632833,176.400589 L149.632867,176.408799 L149.567184,168.409069 L150.56715,168.400858 L150.542519,165.40096 L151.542486,165.392749 L151.517855,162.39285 L150.517888,162.401061 L150.460416,155.401297 L152.460348,155.384876 L152.468559,156.384842 L154.468491,156.368421 L154.460281,155.368455 L155.460247,155.360245 L155.402775,148.360481 L151.402909,148.393322 L151.452172,154.39312 L149.452239,154.409541 L149.123824,114.410889 L153.12369,114.378047 L153.1319,115.378014 L154.131866,115.369803 L154.140077,116.36977 L158.139942,116.336928 L158.148152,117.336895 L159.148119,117.328684 L159.139908,116.328718 L161.139841,116.312297 L161.13163,115.312331 L264.128159,114.466663 L264.136369,115.46663 L266.136302,115.450209 L266.128091,114.450243 L274.127822,114.38456 L274.283819,133.383919 L275.283785,133.375709 L275.291995,134.375675 L297.291254,134.195047 L297.455461,154.194373 L333.454248,153.8988 L333.462458,154.898766 L297.463671,155.194339 L297.471882,156.194306 L334.470635,155.890522 L334.462424,154.890556 L335.462391,154.882345 L335.306394,135.882986 L353.305787,135.735199 L353.297577,134.735233 L355.297509,134.718812 L355.125092,113.71952 L415.123069,113.226898 Z" fill="#EFB944"/>
<path data-unit="source_001__contour_02" data-control="rig_shine" d="M169.336594,132.312172 L167.619966,155.286018 L189.49982,156.920902 L191.216448,133.947055 Z" fill="#EFB944"/>
<path data-unit="source_001__contour_03" data-control="rig_eye_l" d="M239.378167,190.672438 L239.698371,229.671124 L277.69709,229.35913 L277.7053,230.359096 L241.706514,230.654669 L241.714724,231.654636 L278.713477,231.350852 L278.385063,191.3522 L277.385096,191.360411 L277.376886,190.360444 Z" fill="#EFB944"/>
<path data-unit="source_001__contour_04" data-control="rig_eye_r" d="M355.093286,190.722377 L355.40528,228.721096 L392.404033,228.417312 L392.092039,190.418593 Z" fill="#EFB944"/>
<path data-unit="source_001__contour_05" data-control="rig_mouth" d="M242.712413,247.656108 L242.707349,248.656095 L260.363659,248.745506 L260.358595,249.745494 L239.586465,249.640304 L239.495315,267.640073 L259.228838,267.740003 L259.12756,287.739747 L374.412881,288.323548 L374.514159,268.323804 L394.247683,268.423734 L394.252747,267.423747 L395.291353,267.429007 L395.286289,268.428994 L396.324896,268.434253 L396.309704,271.434215 L397.348311,271.439474 L397.37363,266.439538 L396.335024,266.434279 L396.375535,258.434382 L397.414141,258.439641 L397.424269,256.439667 L399.501482,256.450186 L399.506546,255.450198 L397.429333,255.43968 L397.444525,252.439718 L396.405918,252.434459 L396.42111,249.434497 L374.610374,249.324048 L374.60531,250.324035 L371.48949,250.308257 L371.413532,265.308065 L262.35985,264.75582 L262.405425,255.755936 L263.444031,255.761195 L263.449095,254.761208 L264.487702,254.766467 L264.502893,251.766506 L263.464287,251.761246 L263.479479,248.761285 L264.518085,248.766544 L264.523149,247.766557 Z" fill="#EFB944"/>
<path data-unit="source_002__contour_01" data-control="rig_cup" d="M502.82453,76.505599 L503.824496,76.497389 L503.89839,85.497086 L504.898356,85.488875 L504.832673,77.489145 L541.831426,77.185362 L542.241944,127.183676 L543.24191,127.175466 L543.299383,134.17523 L563.298709,134.011023 L563.306919,135.010989 L562.306953,135.019199 L562.315163,136.019166 L546.315702,136.150531 L546.323913,137.150498 L547.323879,137.142287 L547.33209,138.142254 L549.332022,138.125833 L549.323812,137.125867 L551.323744,137.109446 L551.331955,138.109412 L552.331921,138.101202 L552.323711,137.101236 L555.32361,137.076604 L555.33182,138.076571 L556.331786,138.06836 L556.339997,139.068327 L555.34003,139.076537 L555.348241,140.076503 L554.348274,140.084714 L554.364695,142.084646 L558.36456,142.051805 L558.35635,141.051839 L559.356316,141.043628 L559.364527,142.043594 L560.364493,142.035384 L560.372703,143.03535 L561.372669,143.02714 L562.398965,268.022927 L561.398999,268.031137 L561.407209,269.031104 L560.407243,269.039314 L560.440084,273.039179 L561.440051,273.030969 L561.43184,272.031002 L562.431807,272.022792 L562.522121,283.022421 L502.524143,283.515043 L502.540564,285.514976 L501.540597,285.523186 L501.60628,293.522916 L500.606314,293.531127 L500.614524,294.531093 L499.614558,294.539303 L499.66382,300.539101 L500.663786,300.530891 L500.680207,302.530823 L501.680174,302.522613 L501.696594,304.522546 L484.697167,304.662122 L484.705378,305.662088 L483.705411,305.670299 L483.713622,306.670265 L482.713655,306.678475 L482.738286,309.678374 L481.73832,309.686584 L481.746531,310.686551 L480.746564,310.694761 L480.738354,309.694795 L477.738455,309.719426 L477.746665,310.719392 L476.746699,310.727603 L476.76312,312.727535 L477.763086,312.719325 L477.771296,313.719291 L479.771229,313.70287 L479.763019,312.702904 L480.762985,312.694694 L480.754775,311.694727 L481.754741,311.686517 L481.828634,320.686214 L473.828904,320.751897 L473.837114,321.751863 L472.837148,321.760073 L472.845358,322.76004 L368.848864,323.613918 L368.840653,322.613951 L367.840687,322.622162 L367.824266,320.622229 L365.824334,320.63865 L365.832544,321.638616 L363.832611,321.655037 L363.840822,322.655003 L362.840856,322.663213 L362.849066,323.66318 L360.849133,323.6796 L360.857344,324.679567 L354.857546,324.728829 L354.849336,323.728863 L355.849302,323.720652 L355.841091,322.720686 L353.841159,322.737107 L353.849369,323.737073 L351.849437,323.753494 L351.865857,325.753426 L296.867711,326.204996 L296.875922,327.204963 L295.875955,327.213173 L295.867745,326.213207 L287.868015,326.27889 L287.851594,324.278957 L285.851661,324.295378 L285.843451,323.295412 L279.843653,323.344674 L279.827232,321.344741 L276.827333,321.369372 L276.835544,322.369338 L275.835578,322.377549 L275.827367,321.377583 L274.827401,321.385793 L274.835611,322.385759 L273.835645,322.39397 L273.843855,323.393936 L272.843889,323.402146 L272.835679,322.40218 L271.835712,322.41039 L271.843923,323.410357 L270.843956,323.418567 L270.852167,324.418533 L153.85611,325.379146 L153.831479,322.379247 L154.831446,322.371037 L154.823235,321.37107 L155.823201,321.36286 L155.814991,320.362894 L156.814957,320.354683 L156.806747,319.354717 L157.806713,319.346507 L157.798503,318.34654 L158.798469,318.33833 L158.782049,316.338397 L157.782082,316.346608 L157.773872,315.346642 L155.773939,315.363062 L155.78215,316.363029 L151.782284,316.39587 L151.716602,308.39614 L149.716669,308.41256 L149.724879,309.412527 L147.724947,309.428947 L147.716736,308.428981 L132.717242,308.552137 L132.553035,288.552811 L73.555023,289.037222 L73.546813,288.037256 L72.546847,288.045466 L72.308746,259.046444 L73.308712,259.038233 L73.374395,267.037964 L74.374362,267.029753 L74.390782,269.029686 L75.390749,269.021476 L75.382538,268.021509 L76.382505,268.013299 L76.374294,267.013333 L75.374328,267.021543 L75.341486,263.021678 L74.34152,263.029888 L74.33331,262.029922 L75.333276,262.021712 L75.242962,251.022082 L74.242996,251.030293 L74.004895,222.03127 L75.004861,222.02306 L74.96381,217.023228 L75.963776,217.015018 L75.939145,214.015119 L74.939179,214.023329 L74.881706,207.023565 L73.88174,207.031776 L73.865319,205.031843 L74.865285,205.023633 L74.832444,201.023768 L73.832477,201.031978 L73.824267,200.032012 L74.824233,200.023801 L74.709288,186.024273 L75.709255,186.016063 L75.701044,185.016097 L74.701078,185.024307 L74.602554,173.024711 L73.602587,173.032922 L73.553325,167.033124 L74.553291,167.024914 L74.52866,164.025015 L73.528694,164.033225 L73.339856,141.034 L129.337968,140.57422 L129.346178,141.574186 L131.346111,141.557765 L131.354321,142.557732 L132.354288,142.549521 L132.362498,143.549488 L134.362431,143.533067 L134.35422,142.533101 L135.354187,142.52489 L135.345976,141.524924 L136.345943,141.516714 L136.329522,139.516781 L135.329555,139.524991 L135.337766,140.524958 L134.3378,140.533168 L134.34601,141.533134 L132.346077,141.549555 L132.337867,140.549589 L133.337833,140.541378 L133.329623,139.541412 L134.329589,139.533202 L134.313168,137.533269 L135.313135,137.525059 L135.304924,136.525093 L133.304992,136.541513 L132.984788,97.542828 L154.984046,97.3622 L154.992256,98.362166 L155.992223,98.353956 L155.984012,97.353989 L194.982698,97.033785 L194.990908,98.033751 L196.990841,98.017331 L196.98263,97.017364 L224.981687,96.787474 L224.989897,97.78744 L225.989863,97.77923 L225.981653,96.779264 L274.980001,96.376956 L275.094946,110.376484 L271.095081,110.409326 L271.086871,109.409359 L163.090511,110.296079 L163.098722,111.296045 L149.099193,111.41099 L149.452239,154.409541 L111.45352,154.721535 L111.44531,153.721568 L108.445411,153.746199 L108.4372,152.746233 L105.437301,152.770864 L105.420881,150.770932 L103.420948,150.787352 L103.429158,151.787319 L102.429192,151.795529 L102.437403,152.795495 L100.43747,152.811916 L100.42926,151.81195 L99.429293,151.82016 L99.437504,152.820126 L97.437571,152.836547 L97.445781,153.836513 L95.445849,153.852934 L95.46227,155.852867 L89.462472,155.902129 L90.406664,270.898253 L150.404641,270.405631 L150.552428,288.405024 L170.551754,288.240817 L170.724172,309.240109 L262.721071,308.484755 L262.729281,309.484722 L371.725607,308.589792 L371.717397,307.589826 L453.714633,306.916576 L453.722843,307.916542 L452.722877,307.924752 L452.731087,308.924719 L453.731054,308.916508 L453.739264,309.916475 L455.739197,309.900054 L455.730986,308.900088 L457.730919,308.883667 L457.75555,311.883566 L458.755516,311.875355 L458.747306,310.875389 L459.747272,310.867179 L459.755482,311.867145 L460.755449,311.858935 L460.747238,310.858968 L461.747205,310.850758 L461.738994,309.850792 L462.738961,309.842581 L462.73075,308.842615 L465.730649,308.817984 L465.722439,307.818018 L466.722405,307.809807 L466.705984,305.809875 L465.706018,305.818085 L465.558231,287.818692 L484.557591,287.662695 L484.393384,267.663369 L485.39335,267.655159 L485.541137,285.654552 L486.541103,285.646342 L486.532893,284.646375 L487.532859,284.638165 L487.524648,283.638199 L488.524615,283.629988 L488.516404,282.630022 L489.516371,282.621812 L489.49995,280.621879 L486.500051,280.64651 L486.401527,268.646915 L547.399471,268.146082 L547.39126,267.146116 L548.391227,267.137906 L547.471666,155.141681 L546.471699,155.149891 L546.430648,150.15006 L545.430681,150.15827 L545.422471,149.158304 L540.422639,149.199355 L540.414429,148.199389 L539.414463,148.2076 L539.422673,149.207566 L535.422808,149.240407 L535.431018,150.240374 L534.431052,150.248584 L534.422842,149.248618 L533.422875,149.256828 L533.439296,151.256761 L487.440847,151.634437 L487.449057,152.634404 L484.449158,152.659035 L484.104323,110.66045 L416.106615,111.218755 L415.99167,97.219227 L417.991602,97.202806 L417.975181,95.202874 L489.972755,94.611728 L489.964544,93.611761 L501.96414,93.513237 L502.300765,134.511855 L528.299888,134.298385 L527.955053,92.299801 L502.955896,92.50506 Z" fill="#8C651F"/>
<path data-unit="source_002__contour_02" data-control="rig_handle_l" d="M78.538434,286.996238 L78.546644,287.996204 L132.544824,287.552844 L132.553035,288.552811 L133.553001,288.5446 L133.708998,307.54396 L143.708661,307.461856 L143.70045,306.46189 L139.700585,306.494731 L139.692375,305.494765 L136.692476,305.519396 L136.700686,306.519363 L134.700754,306.535783 L134.602229,294.536188 L135.602196,294.527977 L135.593985,293.528011 L136.593952,293.519801 L136.585741,292.519834 L137.585708,292.511624 L137.561077,289.511725 L138.561043,289.503515 L138.552832,288.503549 L137.552866,288.511759 L137.536445,286.511826 Z" fill="#8C651F"/>
<path data-unit="source_003__contour_01" data-control="rig_cup" d="M221.206898,367.827602 L240.206257,367.671605 L240.386885,389.670864 L395.381661,388.398257 L395.36524,386.398325 L396.365207,386.390114 L396.356996,385.390148 L397.356963,385.381938 L397.365173,386.381904 L399.365105,386.365483 L399.356895,385.365517 L402.356794,385.340886 L402.365004,386.340852 L403.364971,386.332642 L403.34855,384.332709 L404.348516,384.324499 L404.364937,386.324431 L407.364836,386.2998 L407.373046,387.299766 L409.372979,387.283346 L409.381189,388.283312 L411.381122,388.266891 L411.389332,389.266858 L412.389298,389.258647 L412.397509,390.258614 L414.397441,390.242193 L414.405652,391.242159 L416.405584,391.225738 L416.413795,392.225705 L418.413727,392.209284 L418.405517,391.209318 L419.405483,391.201107 L419.397273,390.201141 L421.397205,390.18472 L421.405416,391.184687 L422.405382,391.176476 L422.397172,390.17651 L423.397138,390.1683 L423.388928,389.168333 L426.388827,389.143702 L426.380616,388.143736 L427.380582,388.135525 L427.372372,387.135559 L422.372541,387.176611 L422.36433,386.176645 L432.363993,386.094541 L432.684197,425.093227 L433.684164,425.085016 L433.840161,444.084376 L420.840599,444.191111 L420.832388,443.191144 L202.839736,444.981004 L202.733002,431.981442 L201.733035,431.989652 L201.700194,427.989787 L191.700531,428.071891 L191.69232,427.071924 L200.692017,426.998031 L200.650965,421.9982 L201.650932,421.989989 L201.371779,387.991135 L221.371105,387.826928 Z" fill="#8B641F"/>
<path data-unit="source_003__contour_02" data-control="rig_base" d="M221.494261,402.826422 L221.502471,403.826389 L220.502505,403.834599 L220.691343,426.833824 L219.691377,426.842034 L219.699587,427.842001 L268.697935,427.439693 L268.706146,428.439659 L277.705843,428.365766 L277.714053,429.365732 L278.714019,429.357522 L278.705809,428.357555 L301.705034,428.168717 L301.713244,429.168683 L303.713177,429.152263 L303.704966,428.152296 L346.703517,427.799251 L346.711727,428.799217 L347.711693,428.791006 L347.703483,427.79104 L408.701427,427.290208 L408.693217,426.290242 L414.693014,426.240979 L414.504176,403.241755 L415.504142,403.233544 L415.495932,402.233578 L407.496202,402.299261 L407.487991,401.299295 L406.488025,401.307505 L406.496235,402.307471 L350.498123,402.767252 L350.489913,401.767285 L349.489946,401.775496 L349.498157,402.775462 L315.499303,403.054614 L315.507513,404.054581 L305.50785,404.136684 L305.49964,403.136718 L241.501797,403.662181 L241.493586,402.662215 L240.49362,402.670426 L240.50183,403.670392 L222.502437,403.818178 L222.494227,402.818212 Z" fill="#8B641F"/>
<path data-unit="source_004__contour_01" data-control="rig_base" d="M432.363993,386.094541 L433.363959,386.086331 L433.37217,387.086297 L434.372136,387.078087 L434.68413,425.076806 L453.68349,424.920809 L453.732752,430.920607 L454.732718,430.912396 L454.790191,437.91216 L453.790224,437.920371 L453.855907,445.920101 L454.855874,445.911891 L454.896925,450.911722 L453.896959,450.919933 L453.987273,461.919562 L454.987239,461.911351 L454.99545,462.911318 L452.995517,462.927738 L452.987307,461.927772 L438.987779,462.042717 L438.979568,461.042751 L212.987186,462.898293 L212.978975,461.898327 L211.979009,461.906537 L211.987219,462.906504 L199.987624,463.005028 L199.995834,464.004994 L194.996003,464.046046 L194.979582,462.046114 L193.979616,462.054324 L193.954985,459.054425 L192.955018,459.062636 L192.963229,460.062602 L191.963262,460.070812 L191.955052,459.070846 L187.955187,459.103687 L187.946977,458.103721 L186.94701,458.111931 L186.9388,457.111965 L185.938834,457.120176 L185.922413,455.120243 L183.92248,455.136664 L183.7008,428.137574 L201.700194,427.989787 L201.864401,447.989113 L307.860828,447.118814 L307.852618,446.118848 L308.852584,446.110638 L308.860795,447.110604 L419.857053,446.199253 L419.848843,445.199287 L426.848607,445.141815 L426.840397,444.141848 L433.840161,444.084376 L433.684164,425.085016 L432.684197,425.093227 Z" fill="#6C4F1A"/>
<path data-unit="source_005__contour_01" data-control="rig_hair" d="M275.971757,95.368779 L277.97169,95.352359 L277.9799,96.352325 L318.978518,96.0157 L318.986729,97.015666 L319.986695,97.007456 L319.978485,96.00749 L386.976226,95.457395 L386.984437,96.457361 L388.984369,96.440941 L388.99258,97.440907 L389.992546,97.432697 L389.984336,96.43273 L391.984268,96.41631 L391.976058,95.416343 L393.97599,95.399923 L393.984201,96.399889 L395.984133,96.383468 L395.975923,95.383502 L397.975856,95.367081 L397.984066,96.367047 L399.983999,96.350627 L399.975788,95.35066 L409.975451,95.268557 L409.983661,96.268523 L411.983594,96.252102 L411.975384,95.252136 L412.97535,95.243926 L413.073874,107.243521 L412.073908,107.251732 L412.065698,106.251765 L410.065765,106.268186 L410.073976,107.268152 L409.074009,107.276363 L409.08222,108.276329 L408.082253,108.284539 L408.090464,109.284506 L353.092317,109.736076 L353.100528,110.736042 L415.098438,110.226999 L415.106648,111.226966 L353.108738,111.736008 L353.289366,133.735267 L332.290074,133.907684 L332.298284,134.907651 L331.298318,134.915861 L331.437894,151.915288 L299.438973,152.17802 L299.299397,135.178593 L297.299464,135.195013 L297.291254,134.195047 L276.291962,134.367465 Z" fill="#EFB944"/>
<path data-unit="source_005__contour_01" data-control="rig_hair" d="M283.206924,91.256128 L285.198648,91.437883 L285.10777,92.433745 L325.938114,96.159732 L325.847237,97.155594 L326.843099,97.246472 L326.933976,96.25061 L393.656734,102.339417 L393.565857,103.335279 L395.557581,103.517035 L395.466703,104.512897 L396.462565,104.603774 L396.553443,103.607912 L398.545167,103.789668 L398.636045,102.793806 L400.627769,102.975561 L400.536891,103.971423 L402.528615,104.153179 L402.619493,103.157317 L404.611217,103.339072 L404.520339,104.334934 L406.512063,104.516689 L406.602941,103.520827 L416.561562,104.429605 L416.470684,105.425467 L418.462408,105.607222 L418.553286,104.61136 L419.549148,104.702238 L418.458615,116.652583 L417.462753,116.561705 L417.553631,115.565843 L415.561907,115.384087 L415.471029,116.379949 L414.475167,116.289072 L414.384289,117.284934 L413.388427,117.194056 L413.297549,118.189918 L358.525136,113.191643 L358.434258,114.187505 L420.177706,119.821924 L420.086828,120.817786 L358.343381,115.183367 L356.344071,137.092333 L335.430968,135.1839 L335.34009,136.179763 L334.344228,136.088885 L332.799307,153.01854 L300.931721,150.110453 L302.476642,133.180798 L300.484918,132.999042 L300.575796,132.00318 L279.662692,130.094748 Z" fill="#A23323"/>
<path data-unit="source_006__contour_01" data-control="rig_stem" d="M297.884098,328.196719 L334.882851,327.892935 L335.203055,366.891621 L374.201741,366.571416 L374.144268,359.571652 L375.144235,359.563442 L375.201707,366.563206 L393.2011,366.415419 L393.348887,384.414813 L240.354044,385.670999 L240.206257,367.671605 L257.205684,367.532029 L257.197474,366.532063 L258.19744,366.523852 L258.205651,367.523819 L259.205617,367.515608 L259.04141,347.516282 L260.041376,347.508072 L260.205583,367.507398 L298.204302,367.195404 Z" fill="#EDB843"/>
<path data-unit="source_007__contour_01" data-control="rig_base" d="M221.535312,407.826254 L413.528841,406.249864 L413.684838,425.249223 L410.684939,425.273855 L410.676729,424.273888 L412.676661,424.257468 L412.594558,414.257805 L411.594591,414.266015 L411.619222,417.265914 L410.619256,417.274124 L410.627466,418.274091 L409.6275,418.282301 L409.63571,419.282267 L408.635744,419.290478 L408.643955,420.290444 L407.643988,420.298654 L407.660409,422.298587 L408.660375,422.290376 L408.668586,423.290343 L236.674383,424.702525 L236.682593,425.702492 L229.682829,425.759964 L229.674619,424.759998 L224.674787,424.80105 L224.666577,423.801084 L225.666543,423.792873 L225.658333,422.792907 L226.658299,422.784697 L226.650089,421.78473 L225.650123,421.792941 L225.641912,420.792974 L223.64198,420.809395 L223.633769,419.809429 L224.633736,419.801218 L224.617315,417.801286 L221.617416,417.825917 Z" fill="#EEB842"/>
<path data-unit="source_008__contour_01" data-control="rig_handle_l" d="M91.470615,156.885674 L131.469267,156.55726 L131.625263,175.556619 L110.625971,175.729037 L111.241749,250.726509 L132.241041,250.554092 L132.405248,270.553417 L91.40663,270.890042 L91.39842,269.890076 L92.398386,269.881866 Z" fill="#EDB845"/>
<path data-unit="source_009__contour_01" data-control="rig_handle_r" d="M503.456728,153.503004 L543.45538,153.17459 L544.342099,261.170949 L541.3422,261.19558 L541.350411,262.195547 L540.350444,262.203757 L540.358655,263.203723 L539.358688,263.211934 L539.366899,264.2119 L537.366966,264.228321 L537.375177,265.228287 L545.374907,265.162604 L545.342065,261.162739 L546.342032,261.154529 L546.383084,266.15436 L502.384567,266.515616 L502.294253,255.515987 L504.294185,255.499566 L504.302396,256.499532 L506.302328,256.483112 L506.294118,255.483145 L507.294084,255.474935 L507.285874,254.474969 L508.28584,254.466758 L508.27763,253.466792 L509.277596,253.458582 L509.269386,252.458615 L510.269352,252.450405 L510.261142,251.450439 L511.261108,251.442228 L511.252897,250.442262 L516.252729,250.40121 L516.244519,249.401244 L514.244586,249.417665 L514.236376,248.417698 L520.236173,248.368436 L520.227963,247.36847 L526.227761,247.319208 L525.76798,191.321095 L526.767947,191.312885 L527.07173,228.311638 L528.071696,228.303427 L527.92391,210.304034 L528.923876,210.295824 L528.882824,205.295992 L529.882791,205.287782 L529.87458,204.287816 L528.874614,204.296026 L528.825352,198.296228 L529.825318,198.288018 L529.817108,197.288052 L528.817141,197.296262 L528.800721,195.296329 L529.800687,195.288119 L529.792477,194.288153 L530.792443,194.279942 L530.784233,193.279976 L531.784199,193.271766 L531.775988,192.271799 L532.775955,192.263589 L532.759534,190.263656 L531.759568,190.271867 L531.751357,189.271901 L529.751425,189.288321 L529.743214,188.288355 L528.743248,188.296565 L528.735038,187.296599 L526.735105,187.31302 L526.61195,172.313525 L502.612759,172.510574 L502.571707,167.510743 L503.571673,167.502532 Z" fill="#EEB944"/>
<path data-unit="source_010__contour_01" data-control="rig_handle_l" d="M111.634148,176.720793 L148.632901,176.41701 L149.232257,249.414549 L139.232595,249.496653 L139.240805,250.496619 L111.241749,250.726509 L111.093962,232.727116 L133.093221,232.546488 L132.773016,193.547802 L133.772983,193.539592 L133.920769,211.538985 L134.920735,211.530775 L134.822211,199.531179 L135.822177,199.522969 L135.781126,194.523138 L136.781092,194.514927 L136.756461,191.515028 L137.756427,191.506818 L137.748217,190.506852 L127.748554,190.588955 L127.732133,188.589023 L126.732167,188.597233 L126.723956,187.597267 L125.72399,187.605477 L125.7322,188.605443 L122.732302,188.630075 L122.715881,186.630142 L121.715915,186.638352 L121.724125,187.638319 L119.724192,187.654739 L119.732403,188.654706 L118.732436,188.662916 L118.724226,187.66295 L117.72426,187.67116 L117.73247,188.671126 L116.732504,188.679337 L116.740714,189.679303 L117.74068,189.671093 L117.748891,190.671059 L116.748925,190.679269 L116.757135,191.679236 L119.757034,191.654605 L119.765244,192.654571 L120.76521,192.64636 L120.773421,193.646327 L110.773758,193.72843 L110.765547,192.728464 L111.765514,192.720254 Z" fill="#8C641E"/>
<path data-unit="source_011__contour_01" data-control="rig_handle_r" d="M485.621542,173.650117 L523.620261,173.338123 L523.702365,183.337786 L512.702736,183.4281 L512.719156,185.428032 L513.719123,185.419822 L513.735543,187.419755 L515.735476,187.403334 L515.751897,189.403266 L516.751863,189.395056 L516.760073,190.395022 L503.760512,190.501757 L503.752301,189.501791 L504.752267,189.49358 L504.719426,185.493715 L503.71946,185.501926 L503.72767,186.501892 L500.727771,186.526523 L500.719561,185.526557 L497.719662,185.551188 L497.736083,187.55112 L496.736116,187.559331 L496.744327,188.559297 L495.74436,188.567507 L495.760781,190.56744 L496.760747,190.55923 L496.768958,191.559196 L497.768924,191.550986 L497.777134,192.550952 L498.777101,192.542741 L498.785311,193.542708 L500.785244,193.526287 L500.965872,215.525546 L499.965905,215.533756 L499.974116,216.533722 L498.97415,216.541933 L498.98236,217.541899 L497.982394,217.550109 L497.990604,218.550075 L499.990537,218.533655 L499.982326,217.533688 L500.982292,217.525478 L501.006924,220.525377 L500.006957,220.533587 L500.015168,221.533554 L498.015235,221.549974 L498.023445,222.549941 L497.023479,222.558151 L497.0399,224.558084 L498.039866,224.549873 L498.048077,225.54984 L499.048043,225.541629 L499.056253,226.541595 L502.056152,226.516964 L502.080783,229.516863 L501.080817,229.525074 L501.072607,228.525107 L500.07264,228.533318 L500.105482,232.533183 L501.105448,232.524973 L501.113658,233.524939 L502.113625,233.516728 L502.130045,235.516661 L503.130012,235.508451 L503.09717,231.508585 L504.097136,231.500375 L504.113557,233.500308 L506.11349,233.483887 L506.105279,232.483921 L508.105212,232.4675 L508.113422,233.467466 L507.113456,233.475677 L507.129877,235.475609 L508.129843,235.467399 L508.121633,234.467433 L509.121599,234.459222 L509.113389,233.459256 L510.113355,233.451046 L510.105145,232.451079 L509.105178,232.45929 L509.096968,231.459323 L516.096732,231.401851 L516.104942,232.401817 L517.104909,232.393607 L517.096698,231.39364 L518.096665,231.38543 L518.088454,230.385464 L503.08896,230.508619 L503.080749,229.508653 L526.079974,229.319815 L526.227761,247.319208 L486.229109,247.647622 Z" fill="#8D651E"/>
<path data-unit="source_012__contour_01" data-control="rig_mouth" d="M259.228838,267.740003 L260.267445,267.745263 L260.262381,268.74525 L261.300988,268.750509 L261.295924,269.750497 L351.654689,270.208071 L351.649625,271.208058 L352.688231,271.213317 L352.693295,270.21333 L370.349606,270.302741 L370.344542,271.302728 L371.383148,271.307988 L371.378084,272.307975 L372.416691,272.313234 L372.391371,277.31317 L371.352765,277.307911 L371.347701,278.307898 L370.309094,278.302638 L370.314158,277.302651 L367.198339,277.286873 L367.188211,279.286847 L366.149605,279.281588 L366.144541,280.281575 L365.105934,280.276315 L365.10087,281.276303 L364.062264,281.271043 L364.0572,282.27103 L363.018593,282.265771 L363.013529,283.265758 L265.384519,282.771368 L265.389583,281.771381 L264.350976,281.766121 L264.361104,279.766147 L261.245285,279.750368 L261.230093,282.75033 L260.191486,282.74507 L260.201614,280.745096 L259.163008,280.739837 Z" fill="#13120F"/>
<path data-unit="source_013__contour_01" data-control="rig_eye_r" d="M388.100384,191.451401 L392.100249,191.418559 L392.404033,228.417312 L391.404066,228.425523 L391.395856,227.425556 L390.39589,227.433767 L390.387679,226.4338 L377.388117,226.540535 L377.379907,225.540569 L375.379974,225.55699 L375.371764,224.557023 L370.371933,224.598075 L370.388353,226.598008 L357.388792,226.704743 L357.109639,192.705889 L388.108594,192.451367 Z" fill="#13120F"/>
<path data-unit="source_014__contour_01" data-control="rig_eye_l" d="M239.386377,191.672405 L240.386343,191.664194 L240.394554,192.664161 L241.39452,192.65595 L241.40273,193.655916 L274.401618,193.384974 L274.631508,221.384031 L273.631542,221.392241 L273.639752,222.392207 L272.639786,222.400418 L272.647996,223.400384 L271.64803,223.408594 L271.656241,224.408561 L270.656274,224.416771 L270.664485,225.416737 L269.664518,225.424948 L269.680939,227.42488 L267.681006,227.441301 L267.689217,228.441267 L241.690093,228.654737 L241.410941,194.655883 L240.410974,194.664093 L240.698337,229.662913 L239.698371,229.671124 Z" fill="#151410"/>
<path data-unit="source_015__contour_01" data-control="rig_handle_r" d="M511.963803,93.431133 L526.963297,93.307978 L527.299922,134.306596 L505.300664,134.487224 L505.292453,133.487258 L508.292352,133.462626 L508.284142,132.46266 L504.284277,132.495502 L504.005124,98.496648 L505.005091,98.488437 L504.972249,94.488572 L505.972215,94.480362 L505.996846,97.480261 L506.996813,97.47205 L506.988602,96.472084 L507.988569,96.463874 L507.980358,95.463907 L508.980325,95.455697 L508.972114,94.455731 L511.972013,94.4311 Z" fill="#ECB641"/>
<path data-unit="source_016__contour_01" data-control="rig_stem" d="M353.841159,322.737107 L355.841091,322.720686 L355.849302,323.720652 L354.849336,323.728863 L354.882177,327.728728 L355.882143,327.720517 L355.898564,329.72045 L354.898598,329.72866 L354.906808,330.728627 L353.906842,330.736837 L353.997156,341.736466 L352.99719,341.744677 L353.0054,342.744643 L352.005434,342.752853 L352.021854,344.752786 L351.021888,344.760996 L351.038309,346.760929 L353.038241,346.744508 L353.054662,348.744441 L354.054628,348.73623 L354.062839,349.736197 L358.062704,349.703355 L358.070914,350.703321 L360.070847,350.686901 L360.062636,349.686934 L361.062603,349.678724 L361.079024,351.678657 L363.078956,351.662236 L363.070746,350.66227 L364.070712,350.654059 L364.062502,349.654093 L365.062468,349.645883 L365.054258,348.645916 L366.054224,348.637706 L366.046014,347.63774 L373.045778,347.580267 L373.144302,359.579863 L371.144369,359.596283 L371.15258,360.59625 L369.152647,360.61267 L369.160858,361.612637 L366.160959,361.637268 L366.152748,360.637302 L365.152782,360.645512 L365.160992,361.645478 L364.161026,361.653689 L364.169236,362.653655 L362.169304,362.670076 L362.185725,364.670008 L361.185758,364.678219 L361.202179,366.678151 L356.202348,366.719203 L356.194137,365.719237 L358.19407,365.702816 L358.185859,364.70285 L356.185927,364.71927 L356.177716,363.719304 L355.17775,363.727514 L355.16954,362.727548 L352.169641,362.752179 L352.177851,363.752145 L351.177885,363.760356 L351.169675,362.76039 L349.169742,362.77681 L349.161532,361.776844 L348.161565,361.785054 L348.145145,359.785122 L347.145178,359.793332 L347.153389,360.793298 L344.15349,360.81793 L344.1617,361.817896 L343.161734,361.826106 L343.169944,362.826072 L342.169978,362.834283 L342.178188,363.834249 L341.178222,363.84246 L341.186432,364.842426 L340.186466,364.850636 L340.194676,365.850602 L346.194474,365.80134 L346.202685,366.801307 L337.202988,366.8752 L336.866363,325.876582 L351.865857,325.753426 L351.849437,323.753494 L353.849369,323.737073 Z" fill="#89631D"/>
<path data-unit="source_017__contour_01" data-control="rig_handle_r" d="M504.760478,190.493547 L515.760107,190.403233 L515.768317,191.403199 L519.768183,191.370358 L519.776393,192.370324 L523.776258,192.337482 L524.071831,228.336269 L505.072472,228.492266 Z" fill="#F2EDE7"/>
<path data-unit="source_018__contour_01" data-control="rig_handle_l" d="M129.773117,193.572433 L130.773084,193.564223 L131.085078,231.562942 L112.085718,231.718939 L111.781934,194.720186 L129.781328,194.5724 Z" fill="#F2EDE7"/>
<path data-unit="source_019__contour_01" data-control="rig_stem" d="M295.031986,346.220743 L296.031952,346.212533 L296.097635,354.212263 L295.097669,354.220473 L295.105879,355.22044 L294.105913,355.22865 L294.114123,356.228616 L293.114157,356.236827 L293.122367,357.236793 L292.122401,357.245003 L292.130611,358.24497 L291.130645,358.25318 L291.138855,359.253146 L290.138889,359.261357 L290.16352,362.261256 L289.163554,362.269466 L289.171764,363.269432 L288.171798,363.277643 L288.188219,365.277575 L286.188286,365.293996 L286.196497,366.293962 L267.197137,366.449959 L267.188927,365.449993 L266.18896,365.458203 L266.18075,364.458237 L267.180716,364.450027 L267.164295,362.450094 L266.164329,362.458304 L266.17254,363.458271 L265.172573,363.466481 L265.180784,364.466447 L264.180817,364.474658 L264.189028,365.474624 L263.189061,365.482834 L263.139799,359.483036 L262.139833,359.491247 L262.148043,360.491213 L261.148077,360.499424 L261.041342,347.499862 L269.041073,347.434179 L269.049283,348.434145 L270.049249,348.425935 L270.07388,351.425834 L271.073847,351.417623 L271.090267,353.417556 L277.090065,353.368294 L277.098276,354.36826 L278.098242,354.36005 L278.090031,353.360083 L279.089998,353.351873 L279.081787,352.351907 L280.081754,352.343696 L280.073543,351.34373 L281.07351,351.33552 L281.065299,350.335553 L282.065266,350.327343 L282.057055,349.327377 L284.056988,349.310956 L284.073408,351.310888 L287.073307,351.286257 L287.065097,350.286291 L288.065063,350.278081 L288.056853,349.278114 L289.056819,349.269904 L289.040398,347.269971 L295.040196,347.220709 Z" fill="#8C651D"/>
<path data-unit="source_020__contour_01" data-control="rig_handle_r" d="M484.229176,247.664043 L502.22857,247.516257 L502.384567,266.515616 L546.383084,266.15436 L546.391294,267.154326 L484.393384,267.663369 Z" fill="#D6A436"/>
<path data-unit="source_021__contour_01" data-control="rig_stem" d="M278.868318,326.352783 L295.867745,326.213207 L295.875955,327.213173 L292.876056,327.237804 L292.892477,329.237737 L295.892376,329.213106 L296.031952,346.212533 L295.031986,346.220743 L295.040196,347.220709 L289.040398,347.269971 L289.056819,349.269904 L288.056853,349.278114 L288.065063,350.278081 L287.065097,350.286291 L287.073307,351.286257 L284.073408,351.310888 L284.056988,349.310956 L282.057055,349.327377 L282.048845,348.32741 L283.048811,348.3192 L283.03239,346.319267 L282.032424,346.327478 L282.024214,345.327511 L281.024247,345.335722 L281.032458,346.335688 L280.032491,346.343898 L279.876495,327.344539 L278.876528,327.352749 Z" fill="#8A631F"/>
<path data-unit="source_022__contour_01" data-control="rig_mouth" d="M374.60531,250.324035 L394.338833,250.423965 L394.247683,268.423734 L374.514159,268.323804 Z" fill="#171510"/>
<path data-unit="source_023__contour_01" data-control="rig_handle_l" d="M131.469267,156.55726 L149.46866,156.409473 L149.624657,175.408833 L131.625263,175.556619 Z" fill="#D6A435"/>
<path data-unit="source_024__contour_01" data-control="rig_mouth" d="M239.581401,250.640291 L259.314925,250.740221 L259.233902,266.740016 L258.195296,266.734757 L258.271254,251.734949 L247.885189,251.682354 L247.880126,252.682341 L256.188978,252.724417 L256.183914,253.724404 L257.22252,253.729664 L257.156689,266.729497 L239.500379,266.640086 Z" fill="#14130F"/>
<path data-unit="source_025__contour_01" data-control="rig_handle_l" d="M132.241041,250.554092 L150.240434,250.406305 L150.330748,261.405934 L149.330782,261.414145 L149.338992,262.414111 L148.339026,262.422321 L148.347236,263.422288 L146.347304,263.438708 L146.355514,264.438675 L145.355548,264.446885 L145.347337,263.446919 L141.347472,263.47976 L141.355683,264.479726 L140.355716,264.487937 L140.363927,265.487903 L139.36396,265.496113 L139.380381,267.496046 L138.380415,267.504256 L138.388625,268.504223 L139.388591,268.496012 L139.396802,269.495979 L132.397038,269.553451 Z" fill="#D4A134"/>
<path data-unit="source_026__contour_01" data-control="rig_handle_r" d="M489.46541,154.617916 L502.464972,154.511181 L502.612759,172.510574 L485.613332,172.65015 L485.547649,164.65042 L486.547615,164.64221 L486.539405,163.642243 L487.539371,163.634033 L487.531161,162.634067 L488.531127,162.625856 L488.514706,160.625924 L489.514672,160.617713 Z" fill="#D3A235"/>
<path data-unit="source_027__contour_01" data-control="rig_stem" d="M398.209142,367.374334 L412.20867,367.259389 L412.348247,384.258816 L411.34828,384.267026 L411.364701,386.266959 L409.364768,386.283379 L409.372979,387.283346 L407.373046,387.299766 L407.364836,386.2998 L404.364937,386.324431 L404.348516,384.324499 L403.34855,384.332709 L403.364971,386.332642 L402.365004,386.340852 L402.356794,385.340886 L399.356895,385.365517 L399.365105,386.365483 L397.365173,386.381904 L397.356963,385.381938 L396.356996,385.390148 L396.283103,376.390451 L398.283036,376.374031 L398.274825,375.374064 L399.274791,375.365854 L399.266581,374.365888 L400.266547,374.357677 L400.241916,371.357778 L399.24195,371.365989 L399.23374,370.366022 L398.233773,370.374233 Z" fill="#88621F"/>
<path data-unit="source_028__contour_01" data-control="rig_hair" d="M277.97169,95.352359 L414.967072,94.227539 L415.098438,110.226999 L353.100528,110.736042 L353.092317,109.736076 L408.090464,109.284506 L408.082253,108.284539 L409.08222,108.276329 L409.074009,107.276363 L410.073976,107.268152 L410.065765,106.268186 L412.065698,106.251765 L412.073908,107.251732 L413.073874,107.243521 L412.97535,95.243926 L411.975384,95.252136 L411.983594,96.252102 L409.983661,96.268523 L409.975451,95.268557 L399.975788,95.35066 L399.983999,96.350627 L397.984066,96.367047 L397.975856,95.367081 L395.975923,95.383502 L395.984133,96.383468 L393.984201,96.399889 L393.97599,95.399923 L391.976058,95.416343 L391.984268,96.41631 L389.984336,96.43273 L389.992546,97.432697 L388.99258,97.440907 L388.984369,96.440941 L386.984437,96.457361 L386.976226,95.457395 L319.978485,96.00749 L319.986695,97.007456 L318.986729,97.015666 L318.978518,96.0157 L277.9799,96.352325 Z" fill="#EFB944"/>
<path data-unit="source_028__contour_01" data-control="rig_hair" d="M285.198648,91.437883 L421.63175,103.888131 L420.177706,119.821924 L358.434258,114.187505 L358.525136,113.191643 L413.297549,118.189918 L413.388427,117.194056 L414.384289,117.284934 L414.475167,116.289072 L415.471029,116.379949 L415.561907,115.384087 L417.553631,115.565843 L417.462753,116.561705 L418.458615,116.652583 L419.549148,104.702238 L418.553286,104.61136 L418.462408,105.607222 L416.470684,105.425467 L416.561562,104.429605 L406.602941,103.520827 L406.512063,104.516689 L404.520339,104.334934 L404.611217,103.339072 L402.619493,103.157317 L402.528615,104.153179 L400.536891,103.971423 L400.627769,102.975561 L398.636045,102.793806 L398.545167,103.789668 L396.553443,103.607912 L396.462565,104.603774 L395.466703,104.512897 L395.557581,103.517035 L393.565857,103.335279 L393.656734,102.339417 L326.933976,96.25061 L326.843099,97.246472 L325.847237,97.155594 L325.938114,96.159732 L285.10777,92.433745 Z" fill="#A9382A"/>
<path data-unit="source_029__contour_01" data-control="rig_shine" d="M169.336594,132.312172 L191.216448,133.947055 L189.49982,156.920902 L169.807951,155.449507 L169.889695,154.355514 L173.171673,154.600746 L173.253418,153.506754 L172.159425,153.42501 L172.241169,152.331017 L170.053184,152.167529 L171.361091,134.663645 L188.864974,135.971552 L188.374509,142.535509 L187.280516,142.453764 L187.444004,140.265779 L185.256019,140.102291 L185.337763,139.008298 L183.149778,138.844809 L183.068034,139.938802 L181.974041,139.857058 L181.892297,140.951051 L180.798304,140.869306 L180.880048,139.775314 L176.504077,139.448337 L176.585822,138.354344 L175.491829,138.2726 L175.410085,139.366593 L174.316092,139.284849 L173.580394,149.130783 L174.674387,149.212527 L174.592643,150.30652 L180.062606,150.715241 L180.144351,149.621248 L187.8023,150.193457 L187.475323,154.569428 L183.099352,154.242451 L183.017608,155.336444 L188.487571,155.745165 L190.040711,134.959304 L170.348842,133.487908 L168.713958,155.367762 L167.619966,155.286018 Z" fill="#F9F2E1"/>
<path data-unit="source_030__contour_01" data-control="rig_handle_r" d="M562.306953,135.019199 L563.306919,135.010989 L564.538474,285.005933 L502.540564,285.514976 L502.532353,284.515009 L563.530297,284.014177 Z" fill="#7A510C"/>
<path data-unit="source_031__contour_01" data-control="rig_base" d="M220.510715,404.834565 L414.504176,403.241755 L414.512386,404.241721 L220.518925,405.834532 Z" fill="#805B14"/>
<path data-unit="source_032__contour_01" data-control="rig_mouth" d="M242.712413,247.656108 L264.523149,247.766557 L264.518085,248.766544 L263.479479,248.761285 L263.464287,251.761246 L264.502893,251.766506 L264.487702,254.766467 L263.449095,254.761208 L263.444031,255.761195 L262.405425,255.755936 L262.35985,264.75582 L371.413532,265.308065 L371.48949,250.308257 L372.528097,250.313516 L372.447074,266.313311 L261.316179,265.750548 L261.397202,249.750753 L260.358595,249.745494 L260.363659,248.745506 L242.707349,248.656095 Z" fill="#E8B53C"/>
<path data-unit="source_033__contour_01" data-control="rig_base" d="M182.996407,464.144571 L350.990745,462.765229 L350.998955,463.765196 L183.004618,465.144537 Z" fill="#644410"/>
<path data-unit="source_034__contour_01" data-control="rig_handle_r" d="M502.448551,152.511248 L545.447102,152.158203 L546.342032,261.154529 L545.342065,261.162739 L544.455346,153.166379 L503.456728,153.503004 L503.571673,167.502532 L502.571707,167.510743 Z" fill="#F8C951"/>
<path data-unit="source_035__contour_01" data-control="rig_base" d="M220.527136,406.834498 L362.522349,405.668626 L362.53056,406.668593 L221.535312,407.826254 L221.691309,426.825614 L220.691343,426.833824 Z" fill="#F5C349"/>
<path data-unit="source_036__contour_01" data-control="rig_base" d="M269.845688,445.430876 L426.840397,444.141848 L426.848607,445.141815 L269.853899,446.430842 Z" fill="#75551B"/>
<path data-unit="source_037__contour_01" data-control="rig_mouth" d="M362.050881,268.260691 L374.514159,268.323804 L374.428073,285.323587 L355.733156,285.228916 L355.73822,284.228929 L313.155354,284.013291 L313.160418,283.013303 L363.013529,283.265758 L363.018593,282.265771 L364.0572,282.27103 L364.062264,281.271043 L365.10087,281.276303 L365.105934,280.276315 L366.144541,280.281575 L366.149605,279.281588 L367.188211,279.286847 L367.198339,277.286873 L370.314158,277.302651 L370.309094,278.302638 L371.347701,278.307898 L371.352765,277.307911 L372.391371,277.31317 L372.431883,269.313273 L362.045818,269.260678 Z" fill="#161611"/>
<path data-unit="source_038__contour_01" data-control="rig_base" d="M240.370465,387.670931 L395.36524,386.398325 L395.373451,387.398291 L240.378675,388.670897 Z" fill="#7B5614"/>
<path data-unit="source_039__contour_01" data-control="rig_base" d="M266.837579,444.45554 L420.832388,443.191144 L420.840599,444.191111 L266.845789,445.455507 Z" fill="#956D22"/>
<path data-unit="source_040__contour_01" data-control="rig_stem" d="M240.362254,386.670965 L393.357097,385.414779 L393.365308,386.414745 L240.370465,387.670931 Z" fill="#D5AA3E"/>
<path data-unit="source_041__contour_01" data-control="rig_handle_r" d="M563.298709,134.011023 L564.298675,134.002812 L565.53844,284.997723 L564.538474,285.005933 Z" fill="#D6C5B0"/>
<path data-unit="source_042__contour_01" data-control="rig_cup" d="M153.12369,114.378047 L275.119578,113.376383 L275.283785,133.375709 L274.283819,133.383919 L274.127822,114.38456 L266.128091,114.450243 L266.136302,115.450209 L264.136369,115.46663 L264.128159,114.466663 L161.13163,115.312331 L161.139841,116.312297 L159.139908,116.328718 L159.148119,117.328684 L158.148152,117.336895 L158.139942,116.336928 L154.140077,116.36977 L154.131866,115.369803 L153.1319,115.378014 Z" fill="#E8B53F"/>
<path data-unit="source_043__contour_01" data-control="rig_cup" d="M155.773939,315.363062 L157.773872,315.346642 L157.782082,316.346608 L158.782049,316.338397 L158.798469,318.33833 L157.798503,318.34654 L157.806713,319.346507 L156.806747,319.354717 L156.814957,320.354683 L155.814991,320.362894 L155.823201,321.36286 L154.823235,321.37107 L154.831446,322.371037 L153.831479,322.379247 L153.85611,325.379146 L269.852201,324.426744 L269.860411,325.42671 L152.864354,326.387323 L152.782251,316.38766 L155.78215,316.363029 Z" fill="#916B23"/>
<path data-unit="source_044__contour_01" data-control="rig_cup" d="M149.115614,113.410923 L276.111334,112.368206 L276.291962,134.367465 L275.291995,134.375675 L275.119578,113.376383 L149.123824,114.410889 Z" fill="#F7CA52"/>
<path data-unit="source_045__contour_01" data-control="rig_cup" d="M257.704818,306.525875 L402.699931,305.335372 L402.708141,306.335338 L257.713029,307.525841 Z" fill="#E2B646"/>
<path data-unit="source_046__contour_01" data-control="rig_base" d="M268.697935,427.439693 L408.693217,426.290242 L408.701427,427.290208 L347.703483,427.79104 L347.711693,428.791006 L346.711727,428.799217 L346.703517,427.799251 L303.704966,428.152296 L303.713177,429.152263 L301.713244,429.168683 L301.705034,428.168717 L278.705809,428.357555 L278.714019,429.357522 L277.714053,429.365732 L277.705843,428.365766 L268.706146,428.439659 Z" fill="#926921"/>
<path data-unit="source_047__contour_01" data-control="rig_handle_l" d="M72.635462,177.040997 L73.635429,177.032787 L73.832477,201.031978 L74.832444,201.023768 L74.865285,205.023633 L73.865319,205.031843 L73.88174,207.031776 L74.881706,207.023565 L74.939179,214.023329 L75.939145,214.015119 L75.963776,217.015018 L74.96381,217.023228 L75.004861,222.02306 L74.004895,222.03127 L74.242996,251.030293 L75.242962,251.022082 L75.333276,262.021712 L74.33331,262.029922 L74.34152,263.029888 L75.341486,263.021678 L75.374328,267.021543 L76.374294,267.013333 L76.382505,268.013299 L75.382538,268.021509 L75.390749,269.021476 L74.390782,269.029686 L74.374362,267.029753 L73.374395,267.037964 L73.308712,259.038233 L72.308746,259.046444 L72.284115,256.046545 L71.284149,256.054755 L71.234886,250.054957 L72.234853,250.046747 L72.251274,252.04668 L73.25124,252.038469 Z" fill="#926B27"/>
<path data-unit="source_048__contour_01" data-control="rig_mouth" d="M260.358595,249.745494 L261.397202,249.750753 L261.316179,265.750548 L372.447074,266.313311 L372.528097,250.313516 L373.566703,250.318776 L373.480617,267.318558 L260.272509,266.745276 Z" fill="#F8D655"/>
<path data-unit="source_049__contour_01" data-control="rig_handle_l" d="M110.625971,175.729037 L149.624657,175.408833 L150.240434,250.406305 L139.240805,250.496619 L139.232595,249.496653 L149.232257,249.414549 L148.632901,176.41701 L111.634148,176.720793 L111.765514,192.720254 L110.765547,192.728464 Z" fill="#7F5D16"/>
<path data-unit="source_050__contour_01" data-control="rig_hair" d="M275.963547,94.368813 L414.958862,93.227572 L414.967072,94.227539 L275.971757,95.368779 Z" fill="#EFB944"/>
<path data-unit="source_050__contour_01" data-control="rig_hair" d="M283.297801,90.260266 L421.722627,102.892269 L421.63175,103.888131 L283.206924,91.256128 Z" fill="#9C2417"/>
<path data-unit="source_051__contour_01" data-control="rig_base" d="M181.692658,427.154028 L182.692624,427.145818 L183.004618,465.144537 L282.001281,464.331711 L282.009491,465.331677 L182.012862,466.152714 Z" fill="#837153"/>
<path data-unit="source_052__contour_01" data-control="rig_handle_r" d="M501.540597,285.523186 L564.538474,285.005933 L564.546684,286.005899 L502.548774,286.514942 L502.556984,287.514908 L503.556951,287.506698 L503.622634,295.506428 L502.622667,295.514639 L502.68014,302.514403 L503.680106,302.506192 L503.704737,305.506091 L502.704771,305.514302 L502.712981,306.514268 L491.713352,306.604582 L491.705142,305.604616 L484.705378,305.662088 L484.697167,304.662122 L501.696594,304.522546 L501.680174,302.522613 L500.680207,302.530823 L500.663786,300.530891 L499.66382,300.539101 L499.614558,294.539303 L500.614524,294.531093 L500.606314,293.531127 L501.60628,293.522916 Z" fill="#B39B73"/>
<path data-unit="source_053__contour_01" data-control="rig_handle_r" d="M561.980236,217.024646 L562.980203,217.016435 L563.530297,284.014177 L502.532353,284.515009 L502.524143,283.515043 L562.522121,283.022421 L562.431807,272.022792 L561.43184,272.031002 L561.440051,273.030969 L560.440084,273.039179 L560.407243,269.039314 L561.407209,269.031104 L561.398999,268.031137 L562.398965,268.022927 Z" fill="#916A22"/>
<path data-unit="source_054__contour_01" data-control="rig_base" d="M238.682526,425.686071 L370.678077,424.602303 L370.686287,425.602269 L238.690736,426.686037 Z" fill="#EDBD49"/>
<path data-unit="source_055__contour_01" data-control="rig_handle_r" d="M543.45538,153.17459 L544.455346,153.166379 L545.374907,265.162604 L537.375177,265.228287 L537.366966,264.228321 L539.366899,264.2119 L539.358688,263.211934 L540.358655,263.203723 L540.350444,262.203757 L541.350411,262.195547 L541.3422,261.19558 L544.342099,261.170949 Z" fill="#EDB73E"/>
<path data-unit="source_056__contour_01" data-control="rig_handle_r" d="M546.315702,136.150531 L562.315163,136.019166 L562.980203,217.016435 L561.980236,217.024646 L561.372669,143.02714 L560.372703,143.03535 L560.364493,142.035384 L559.364527,142.043594 L559.356316,141.043628 L558.35635,141.051839 L558.36456,142.051805 L554.364695,142.084646 L554.348274,140.084714 L555.348241,140.076503 L555.34003,139.076537 L556.339997,139.068327 L556.331786,138.06836 L555.33182,138.076571 L555.32361,137.076604 L552.323711,137.101236 L552.331921,138.101202 L551.331955,138.109412 L551.323744,137.109446 L549.323812,137.125867 L549.332022,138.125833 L547.33209,138.142254 L547.323879,137.142287 L546.323913,137.150498 Z" fill="#916A22"/>
<path data-unit="source_057__contour_01" data-control="rig_handle_r" d="M502.955896,92.50506 L527.955053,92.299801 L528.299888,134.298385 L527.299922,134.306596 L526.963297,93.307978 L511.963803,93.431133 L511.972013,94.4311 L508.972114,94.455731 L508.980325,95.455697 L507.980358,95.463907 L507.988569,96.463874 L506.988602,96.472084 L506.996813,97.47205 L505.996846,97.480261 L505.972215,94.480362 L504.972249,94.488572 L505.005091,98.488437 L504.005124,98.496648 L504.284277,132.495502 L508.284142,132.46266 L508.292352,133.462626 L505.292453,133.487258 L505.300664,134.487224 L503.300731,134.503645 Z" fill="#F3C248"/>
<path data-unit="source_058__contour_01" data-control="rig_stem" d="M354.865756,325.728795 L483.861408,324.669658 L483.869619,325.669624 L354.873967,326.728762 Z" fill="#BFA984"/>
<path data-unit="source_059__contour_01" data-control="rig_cup" d="M414.958862,93.227572 L502.955896,92.50506 L503.300731,134.503645 L502.300765,134.511855 L501.96414,93.513237 L414.967072,94.227539 Z" fill="#7B5410"/>
<path data-unit="source_060__contour_01" data-control="rig_base" d="M211.979009,461.906537 L212.978975,461.898327 L212.987186,462.898293 L326.983343,461.962312 L326.991554,462.962278 L199.995834,464.004994 L199.987624,463.005028 L211.987219,462.906504 Z" fill="#71531F"/>
<path data-unit="source_061__contour_01" data-control="rig_base" d="M221.617416,417.825917 L224.617315,417.801286 L224.633736,419.801218 L223.633769,419.809429 L223.64198,420.809395 L225.641912,420.792974 L225.650123,421.792941 L226.650089,421.78473 L226.658299,422.784697 L225.658333,422.792907 L225.666543,423.792873 L224.666577,423.801084 L224.674787,424.80105 L229.674619,424.759998 L229.682829,425.759964 L236.682593,425.702492 L236.674383,424.702525 L315.67172,424.053907 L315.679931,425.053873 L238.682526,425.686071 L238.690736,426.686037 L221.691309,426.825614 Z" fill="#EFBB44"/>
<path data-unit="source_062__contour_01" data-control="rig_stem" d="M354.857546,324.728829 L482.853232,323.677902 L482.861442,324.677869 L354.865756,325.728795 Z" fill="#7C520E"/>
<path data-unit="source_063__contour_01" data-control="rig_handle_r" d="M484.613365,172.658361 L524.612017,172.329946 L524.735173,187.329441 L523.735206,187.337651 L523.620261,173.338123 L485.621542,173.650117 L486.229109,247.647622 L485.229143,247.655833 Z" fill="#7C5917"/>
<path data-unit="source_064__contour_01" data-control="rig_mouth" d="M373.566703,250.318776 L374.60531,250.324035 L374.514159,268.323804 L260.267445,267.745263 L260.272509,266.745276 L373.480617,267.318558 Z" fill="#584E1E"/>
<path data-unit="source_065__contour_01" data-control="rig_cup" d="M149.107404,112.410956 L276.103123,111.36824 L276.111334,112.368206 L149.115614,113.410923 Z" fill="#B48928"/>
<path data-unit="source_066__contour_01" data-control="rig_cup" d="M149.099193,111.41099 L276.094913,110.368274 L276.103123,111.36824 L149.107404,112.410956 Z" fill="#845E18"/>
<path data-unit="source_067__contour_01" data-control="rig_handle_l" d="M72.331679,140.042244 L131.32969,139.557833 L131.337901,140.557799 L73.339856,141.034 L73.528694,164.033225 L74.52866,164.025015 L74.553291,167.024914 L73.553325,167.033124 L73.602587,173.032922 L74.602554,173.024711 L74.701078,185.024307 L75.701044,185.016097 L75.709255,186.016063 L74.709288,186.024273 L74.824233,200.023801 L73.824267,200.032012 L73.635429,177.032787 L72.635462,177.040997 Z" fill="#916922"/>
<path data-unit="source_068__contour_01" data-control="rig_stem" d="M152.864354,326.387323 L277.860141,325.361027 L277.868352,326.360993 L152.872565,327.387289 Z" fill="#7E530F"/>
<path data-unit="source_069__contour_01" data-control="rig_handle_l" d="M149.632867,176.408799 L150.632833,176.400589 L150.649254,178.400521 L151.64922,178.392311 L151.747745,190.391907 L150.747779,190.400117 L150.887355,207.399544 L151.887321,207.391334 L151.969425,217.390997 L150.969458,217.399207 L150.994089,220.399106 L151.994056,220.390895 L152.125422,236.390356 L151.125455,236.398566 L151.141876,238.398499 L152.141842,238.390289 L152.240367,250.389884 L151.2404,250.398095 L151.248611,251.398061 L150.248644,251.406271 Z" fill="#F3BF47"/>
<path data-unit="source_070__contour_01" data-control="rig_cup" d="M206.957662,93.935362 L331.953449,92.909066 L331.961659,93.909033 L206.965873,94.935328 Z" fill="#C6A08A"/>
<path data-unit="source_071__contour_01" data-control="rig_stem" d="M260.041376,347.508072 L261.041342,347.499862 L261.148077,360.499424 L262.148043,360.491213 L262.139833,359.491247 L263.139799,359.483036 L263.189061,365.482834 L264.189028,365.474624 L264.180817,364.474658 L265.180784,364.466447 L265.172573,363.466481 L266.17254,363.458271 L266.164329,362.458304 L267.164295,362.450094 L267.180716,364.450027 L266.18075,364.458237 L266.18896,365.458203 L267.188927,365.449993 L267.197137,366.449959 L286.196497,366.293962 L286.188286,365.293996 L288.188219,365.277575 L288.171798,363.277643 L289.171764,363.269432 L289.163554,362.269466 L290.16352,362.261256 L290.138889,359.261357 L291.138855,359.253146 L291.130645,358.25318 L292.130611,358.24497 L292.122401,357.245003 L293.122367,357.236793 L293.130578,358.236759 L294.130544,358.228549 L294.146965,360.228481 L293.146998,360.236692 L293.155209,361.236658 L294.155175,361.228448 L294.171596,363.22838 L295.171562,363.22017 L295.179772,364.220136 L296.179739,364.211926 L296.196159,366.211859 L297.196126,366.203648 L297.204336,367.203614 L260.205583,367.507398 Z" fill="#855F19"/>
<path data-unit="source_072__contour_01" data-control="rig_stem" d="M365.824334,320.63865 L367.824266,320.622229 L367.840687,322.622162 L368.840653,322.613951 L368.848864,323.613918 L471.845392,322.76825 L471.853602,323.768216 L360.857344,324.679567 L360.849133,323.6796 L362.849066,323.66318 L362.840856,322.663213 L363.840822,322.655003 L363.832611,321.655037 L365.832544,321.638616 Z" fill="#916B24"/>
<path data-unit="source_073__contour_01" data-control="rig_cup" d="M171.559931,289.232573 L172.559897,289.224362 L172.699473,306.223789 L275.696001,305.378122 L275.704212,306.378088 L172.707683,307.223756 L172.715894,308.223722 L171.715927,308.231932 Z" fill="#F5C048"/>
<path data-unit="source_074__contour_01" data-control="rig_handle_r" d="M546.471699,155.149891 L547.471666,155.141681 L548.391227,267.137906 L547.39126,267.146116 L547.399471,268.146082 L546.399504,268.154293 L546.325611,259.154596 L547.325577,259.146386 Z" fill="#855F1C"/>
<path data-unit="source_075__contour_01" data-control="rig_handle_l" d="M131.976611,96.551072 L132.976577,96.542861 L133.304992,136.541513 L135.304924,136.525093 L135.313135,137.525059 L134.313168,137.533269 L134.329589,139.533202 L133.329623,139.541412 L133.337833,140.541378 L132.337867,140.549589 L132.346077,141.549555 L134.34601,141.533134 L134.3378,140.533168 L135.337766,140.524958 L135.329555,139.524991 L136.329522,139.516781 L136.345943,141.516714 L135.345976,141.524924 L135.354187,142.52489 L134.35422,142.533101 L134.362431,143.533067 L132.362498,143.549488 L132.354288,142.549521 L131.354321,142.557732 L131.346111,141.557765 L129.346178,141.574186 L129.337968,140.57422 L131.337901,140.557799 L131.32969,139.557833 L72.331679,140.042244 L72.323469,139.042278 L132.321446,138.549656 Z" fill="#885E16"/>
<path data-unit="source_076__contour_01" data-control="rig_cup" d="M170.715961,308.240143 L289.71195,307.263109 L289.720161,308.263076 L170.724172,309.240109 Z" fill="#7E5815"/>
<path data-unit="source_077__contour_01" data-control="rig_stem" d="M296.875922,327.204963 L335.874607,326.884758 L336.203022,366.88341 L335.203055,366.891621 L334.882851,327.892935 L297.884098,328.196719 L298.204302,367.195404 L297.204336,367.203614 Z" fill="#F7C74D"/>
<path data-unit="source_078__contour_01" data-control="rig_handle_l" d="M89.462472,155.902129 L90.462438,155.893919 L91.40663,270.890042 L90.406664,270.898253 Z" fill="#856018"/>
<path data-unit="source_079__contour_01" data-control="rig_base" d="M326.983343,461.962312 L438.979568,461.042751 L438.987779,462.042717 L326.991554,462.962278 Z" fill="#70531F"/>
<path data-unit="source_080__contour_01" data-control="rig_eye_r" d="M356.101462,191.714133 L388.100384,191.451401 L388.108594,192.451367 L357.109639,192.705889 L357.388792,226.704743 L370.388353,226.598008 L370.371933,224.598075 L375.371764,224.557023 L375.379974,225.55699 L377.379907,225.540569 L377.388117,226.540535 L390.387679,226.4338 L390.39589,227.433767 L356.397036,227.712919 Z" fill="#181715"/>
<path data-unit="source_081__contour_01" data-control="rig_handle_l" d="M71.331713,140.050455 L72.331679,140.042244 L73.25124,252.038469 L72.251274,252.04668 Z" fill="#774E15"/>
<path data-unit="source_082__contour_01" data-control="rig_base" d="M308.852584,446.110638 L419.848843,445.199287 L419.857053,446.199253 L308.860795,447.110604 Z" fill="#674B18"/>
<path data-unit="source_083__contour_01" data-control="rig_mouth" d="M259.132624,286.73976 L374.417945,287.323561 L374.412881,288.323548 L259.12756,287.739747 Z" fill="#EAB43D"/>
<path data-unit="source_084__contour_01" data-control="rig_mouth" d="M259.137688,285.739773 L374.423009,286.323574 L374.417945,287.323561 L259.132624,286.73976 Z" fill="#FBD759"/>
<path data-unit="source_085__contour_01" data-control="rig_mouth" d="M259.142752,284.739785 L374.428073,285.323587 L374.423009,286.323574 L259.137688,285.739773 Z" fill="#5B4817"/>
<path data-unit="source_086__contour_01" data-control="rig_handle_l" d="M78.538434,286.996238 L137.536445,286.511826 L137.552866,288.511759 L138.552832,288.503549 L138.561043,289.503515 L137.561077,289.511725 L137.585708,292.511624 L136.585741,292.519834 L136.593952,293.519801 L135.593985,293.528011 L135.602196,294.527977 L134.602229,294.536188 L134.700754,306.535783 L136.700686,306.519363 L136.692476,305.519396 L139.692375,305.494765 L139.700585,306.494731 L143.70045,306.46189 L143.708661,307.461856 L133.708998,307.54396 L133.553001,288.5446 L132.553035,288.552811 L132.544824,287.552844 L78.546644,287.996204 Z" fill="#936A23"/>
<path data-unit="source_087__contour_01" data-control="rig_mouth" d="M261.300988,268.750509 L372.431883,269.313273 L372.416691,272.313234 L371.378084,272.307975 L371.383148,271.307988 L370.344542,271.302728 L370.349606,270.302741 L352.693295,270.21333 L352.688231,271.213317 L351.649625,271.208058 L351.654689,270.208071 L261.295924,269.750497 Z" fill="#171513"/>
<path data-unit="source_088__contour_01" data-control="rig_cup" d="M262.721071,308.484755 L371.717397,307.589826 L371.725607,308.589792 L262.729281,309.484722 Z" fill="#916822"/>
<path data-unit="source_089__contour_01" data-control="rig_handle_r" d="M515.760107,190.403233 L525.75977,190.321129 L526.079974,229.319815 L505.080682,229.492232 L505.072472,228.492266 L524.071831,228.336269 L523.776258,192.337482 L519.776393,192.370324 L519.768183,191.370358 L515.768317,191.403199 Z" fill="#F6F1DE"/>
<path data-unit="source_090__contour_01" data-control="rig_eye_r" d="M355.093286,190.722377 L392.092039,190.418593 L392.100249,191.418559 L356.101462,191.714133 L356.397036,227.712919 L391.395856,227.425556 L391.404066,228.425523 L355.40528,228.721096 Z" fill="#060706"/>
<path data-unit="source_091__contour_01" data-control="rig_cup" d="M416.106615,111.218755 L483.104356,110.668661 L483.449192,152.667245 L482.449225,152.675456 L482.112601,111.676837 L416.114825,112.218722 Z" fill="#F7C54E"/>
<path data-unit="source_092__contour_01" data-control="rig_cup" d="M163.090511,110.296079 L271.086871,109.409359 L271.095081,110.409326 L163.098722,111.296045 Z" fill="#946C23"/>
<path data-unit="source_093__contour_01" data-control="rig_base" d="M182.692624,427.145818 L191.69232,427.071924 L191.700531,428.071891 L183.7008,428.137574 L183.92248,455.136664 L185.922413,455.120243 L185.938834,457.120176 L186.9388,457.111965 L186.94701,458.111931 L187.946977,458.103721 L187.955187,459.103687 L191.955052,459.070846 L191.963262,460.070812 L192.963229,460.062602 L192.955018,459.062636 L193.954985,459.054425 L193.979616,462.054324 L194.979582,462.046114 L194.996003,464.046046 L182.996407,464.144571 Z" fill="#624715"/>
<path data-unit="source_094__contour_01" data-control="rig_handle_r" d="M545.447102,152.158203 L546.447068,152.149992 L547.325577,259.146386 L546.325611,259.154596 Z" fill="#916C1F"/>
<path data-unit="source_095__contour_01" data-control="rig_base" d="M201.856191,446.989147 L307.852618,446.118848 L307.860828,447.118814 L201.864401,447.989113 Z" fill="#674B18"/>
<path data-unit="source_096__contour_01" data-control="rig_base" d="M220.518925,405.834532 L326.515353,404.964233 L326.523563,405.964199 L220.527136,406.834498 Z" fill="#DFB03A"/>
<path data-unit="source_097__contour_01" data-control="rig_handle_l" d="M121.715915,186.638352 L122.715881,186.630142 L122.732302,188.630075 L125.7322,188.605443 L125.72399,187.605477 L126.723956,187.597267 L126.732167,188.597233 L127.732133,188.589023 L127.748554,190.588955 L137.748217,190.506852 L137.756427,191.506818 L136.756461,191.515028 L136.781092,194.514927 L135.781126,194.523138 L135.822177,199.522969 L134.822211,199.531179 L134.920735,211.530775 L133.920769,211.538985 L133.772983,193.539592 L120.773421,193.646327 L120.76521,192.64636 L119.765244,192.654571 L119.757034,191.654605 L116.757135,191.679236 L116.748925,190.679269 L117.748891,190.671059 L117.74068,189.671093 L116.740714,189.679303 L116.732504,188.679337 L117.73247,188.671126 L117.72426,187.67116 L118.724226,187.66295 L118.732436,188.662916 L119.732403,188.654706 L119.724192,187.654739 L121.724125,187.638319 Z" fill="#936A22"/>
<path data-unit="source_098__contour_01" data-control="rig_shine" d="M175.491829,138.2726 L176.585822,138.354344 L176.504077,139.448337 L180.880048,139.775314 L180.798304,140.869306 L181.892297,140.951051 L181.974041,139.857058 L183.068034,139.938802 L183.149778,138.844809 L185.337763,139.008298 L185.256019,140.102291 L187.444004,140.265779 L187.36226,141.359772 L186.268268,141.278027 L186.104779,143.466013 L185.010787,143.384269 L184.929042,144.478261 L186.023035,144.560006 L185.777802,147.841984 L184.68381,147.760239 L184.520321,149.948225 L180.144351,149.621248 L180.062606,150.715241 L174.592643,150.30652 L174.674387,149.212527 L173.580394,149.130783 L174.316092,139.284849 L175.410085,139.366593 Z" fill="#FCFCFC"/>
<path data-unit="source_099__contour_01" data-control="rig_handle_l" d="M129.968468,95.567526 L130.968434,95.559316 L131.32148,138.557867 L72.323469,139.042278 L72.331679,140.042244 L70.331746,140.058665 L70.323536,139.058699 L71.323502,139.050488 L71.315292,138.050522 L130.313303,137.566111 Z" fill="#CDC2AD"/>
<path data-unit="source_100__contour_01" data-control="rig_cup" d="M353.108738,111.736008 L415.106648,111.226966 L415.114859,112.226932 L354.116915,112.727764 L354.297543,134.727023 L333.298251,134.89944 L333.29004,133.899474 L353.289366,133.735267 Z" fill="#D18B3D"/>
<path data-unit="source_101__contour_01" data-control="rig_cup" d="M289.71195,307.263109 L392.708479,306.417442 L392.716689,307.417408 L289.720161,308.263076 Z" fill="#7D5816"/>
<path data-unit="source_102__contour_01" data-control="rig_handle_r" d="M525.611983,172.321736 L526.61195,172.313525 L526.735105,187.31302 L528.735038,187.296599 L528.743248,188.296565 L529.743214,188.288355 L529.751425,189.288321 L531.751357,189.271901 L531.759568,190.271867 L532.759534,190.263656 L532.775955,192.263589 L531.775988,192.271799 L531.784199,193.271766 L530.784233,193.279976 L530.792443,194.279942 L529.792477,194.288153 L529.800687,195.288119 L528.800721,195.296329 L528.817141,197.296262 L529.817108,197.288052 L529.825318,198.288018 L528.825352,198.296228 L528.874614,204.296026 L529.87458,204.287816 L529.882791,205.287782 L528.882824,205.295992 L528.923876,210.295824 L527.92391,210.304034 L528.071696,228.303427 L527.07173,228.311638 L526.767947,191.312885 L525.76798,191.321095 Z" fill="#F3BE4B"/>
<path data-unit="source_103__contour_01" data-control="rig_handle_r" d="M497.719662,185.551188 L500.719561,185.526557 L500.727771,186.526523 L503.72767,186.501892 L503.71946,185.501926 L504.719426,185.493715 L504.752267,189.49358 L503.752301,189.501791 L503.760512,190.501757 L501.760579,190.518178 L502.056152,226.516964 L499.056253,226.541595 L499.048043,225.541629 L498.048077,225.54984 L498.039866,224.549873 L497.0399,224.558084 L497.023479,222.558151 L498.023445,222.549941 L498.015235,221.549974 L500.015168,221.533554 L500.006957,220.533587 L501.006924,220.525377 L500.982292,217.525478 L499.982326,217.533688 L499.990537,218.533655 L497.990604,218.550075 L497.982394,217.550109 L498.98236,217.541899 L498.97415,216.541933 L499.974116,216.533722 L499.965905,215.533756 L500.965872,215.525546 L500.785244,193.526287 L498.785311,193.542708 L498.777101,192.542741 L497.777134,192.550952 L497.768924,191.550986 L496.768958,191.559196 L496.760747,190.55923 L495.760781,190.56744 L495.74436,188.567507 L496.744327,188.559297 L496.736116,187.559331 L497.736083,187.55112 Z" fill="#916A22"/>
<path data-unit="source_104__contour_01" data-control="rig_base" d="M350.990745,462.765229 L452.987307,461.927772 L452.995517,462.927738 L350.998955,463.765196 Z" fill="#62420F"/>
<path data-unit="source_105__contour_01" data-control="rig_base" d="M349.489946,401.775496 L350.489913,401.767285 L350.498123,402.767252 L406.496235,402.307471 L406.488025,401.307505 L407.487991,401.299295 L407.496202,402.299261 L415.495932,402.233578 L415.504142,403.233544 L315.507513,404.054581 L315.499303,403.054614 L349.498157,402.775462 Z" fill="#8D6723"/>
<path data-unit="source_106__contour_01" data-control="rig_stem" d="M398.200932,366.374368 L413.200426,366.251212 L413.364634,386.250538 L422.36433,386.176645 L422.372541,387.176611 L427.372372,387.135559 L427.380582,388.135525 L426.380616,388.143736 L426.388827,389.143702 L423.388928,389.168333 L423.397138,390.1683 L422.397172,390.17651 L422.405382,391.176476 L421.405416,391.184687 L421.397205,390.18472 L419.397273,390.201141 L419.405483,391.201107 L418.405517,391.209318 L418.413727,392.209284 L416.413795,392.225705 L416.405584,391.225738 L414.405652,391.242159 L414.397441,390.242193 L412.397509,390.258614 L412.389298,389.258647 L411.389332,389.266858 L411.381122,388.266891 L409.381189,388.283312 L409.364768,386.283379 L411.364701,386.266959 L411.34828,384.267026 L412.348247,384.258816 L412.20867,367.259389 L398.209142,367.374334 Z" fill="#805C1F"/>
<path data-unit="source_107__contour_01" data-control="rig_cup" d="M351.69344,304.754134 L451.690069,303.933098 L451.69828,304.933064 L351.70165,305.7541 Z" fill="#F4BF46"/>
<path data-unit="source_108__contour_01" data-control="rig_handle_r" d="M483.104356,110.668661 L484.104323,110.66045 L484.449158,152.659035 L502.448551,152.511248 L502.456762,153.511215 L484.457368,153.659001 L484.613365,172.658361 L482.613433,172.674781 L482.449225,152.675456 L483.449192,152.667245 Z" fill="#D3A53B"/>
<path data-unit="source_109__contour_01" data-control="rig_base" d="M219.691377,426.842034 L318.68804,426.029208 L318.69625,427.029174 L219.699587,427.842001 Z" fill="#845E18"/>
<path data-unit="source_110__contour_01" data-control="rig_handle_r" d="M502.81632,75.505633 L543.814938,75.169008 L544.299349,134.16702 L543.299383,134.17523 L542.823182,76.177185 L502.82453,76.505599 Z" fill="#9E814F"/>
<path data-unit="source_111__contour_01" data-control="rig_mouth" d="M260.267445,267.745263 L362.050881,268.260691 L362.045818,269.260678 L260.262381,268.74525 Z" fill="#0C0A0A"/>
<path data-unit="source_112__contour_01" data-control="rig_handle_r" d="M503.824496,76.497389 L542.823182,76.177185 L543.24191,127.175466 L542.241944,127.183676 L541.831426,77.185362 L504.832673,77.489145 L504.898356,85.488875 L503.89839,85.497086 Z" fill="#805912"/>
<path data-unit="source_113__contour_01" data-control="rig_base" d="M318.68804,426.029208 L414.684804,425.241013 L414.693014,426.240979 L318.69625,427.029174 Z" fill="#845D18"/>
<path data-unit="source_114__contour_01" data-control="rig_eye_l" d="M241.39452,192.65595 L275.393374,192.376798 L275.688947,228.375584 L267.689217,228.441267 L267.681006,227.441301 L269.680939,227.42488 L269.664518,225.424948 L270.664485,225.416737 L270.656274,224.416771 L271.656241,224.408561 L271.64803,223.408594 L272.647996,223.400384 L272.639786,222.400418 L273.639752,222.392207 L273.631542,221.392241 L274.631508,221.384031 L274.401618,193.384974 L241.40273,193.655916 Z" fill="#191814"/>
<path data-unit="source_115__contour_01" data-control="rig_cup" d="M333.298251,134.89944 L353.297577,134.735233 L353.305787,135.735199 L335.306394,135.882986 L335.462391,154.882345 L334.462424,154.890556 L334.470635,155.890522 L297.471882,156.194306 L297.463671,155.194339 L333.462458,154.898766 Z" fill="#F5C750"/>
<path data-unit="source_116__contour_01" data-control="rig_cup" d="M414.967072,94.227539 L489.964544,93.611761 L489.972755,94.611728 L417.975181,95.202874 L417.991602,97.202806 L415.99167,97.219227 L416.106615,111.218755 L415.106648,111.226966 Z" fill="#926826"/>
<path data-unit="source_117__contour_01" data-control="rig_cup" d="M132.976577,96.542861 L224.973476,95.787508 L224.981687,96.787474 L196.98263,97.017364 L196.990841,98.017331 L194.990908,98.033751 L194.982698,97.033785 L155.984012,97.353989 L155.992223,98.353956 L154.992256,98.362166 L154.984046,97.3622 L132.984788,97.542828 Z" fill="#916A26"/>
<path data-unit="source_118__contour_01" data-control="rig_cup" d="M180.966749,95.148798 L275.963547,94.368813 L275.971757,95.368779 L180.974959,96.148764 Z" fill="#82580F"/>
<path data-unit="source_119__contour_01" data-control="rig_base" d="M360.998618,463.683092 L453.995483,462.919528 L454.003694,463.919494 L361.006828,464.683058 Z" fill="#8C7759"/>
<path data-unit="source_120__contour_01" data-control="rig_base" d="M315.67172,424.053907 L408.668586,423.290343 L408.676796,424.290309 L315.679931,425.053873 Z" fill="#F0BC46"/>
<path data-unit="source_121__contour_01" data-control="rig_mouth" d="M260.186423,283.745058 L355.73822,284.228929 L355.733156,285.228916 L260.181359,284.745045 Z" fill="#0C0D0A"/>
<path data-unit="source_122__contour_01" data-control="rig_cup" d="M130.968434,95.559316 L180.966749,95.148798 L180.974959,96.148764 L131.976611,96.551072 L132.321446,138.549656 L131.32148,138.557867 Z" fill="#78500D"/>
<path data-unit="source_123__contour_01" data-control="rig_stem" d="M240.354044,385.670999 L331.350977,384.923855 L331.359187,385.923822 L240.362254,386.670965 Z" fill="#F8C549"/>
<path data-unit="source_124__contour_01" data-control="rig_stem" d="M278.876528,327.352749 L279.876495,327.344539 L280.032491,346.343898 L281.032458,346.335688 L281.024247,345.335722 L282.024214,345.327511 L282.032424,346.327478 L283.03239,346.319267 L283.048811,348.3192 L282.048845,348.32741 L282.065266,350.327343 L281.065299,350.335553 L281.07351,351.33552 L280.073543,351.34373 L280.081754,352.343696 L279.081787,352.351907 L279.089998,353.351873 L278.090031,353.360083 L278.098242,354.36005 L277.098276,354.36826 L277.090065,353.368294 L271.090267,353.417556 L271.073847,351.417623 L270.07388,351.425834 L270.049249,348.425935 L269.049283,348.434145 L269.041073,347.434179 L279.040736,347.352075 Z" fill="#825C1A"/>
<path data-unit="source_125__contour_01" data-control="rig_base" d="M305.376484,388.137224 L395.373451,387.398291 L395.381661,388.398257 L305.384695,389.13719 Z" fill="#936922"/>
<path data-unit="source_126__contour_01" data-control="rig_cup" d="M414.950652,92.227606 L502.947685,91.505094 L502.955896,92.50506 L414.958862,93.227572 Z" fill="#C9B99C"/>
<path data-unit="source_127__contour_01" data-control="rig_base" d="M326.515353,404.964233 L413.51242,404.249931 L413.520631,405.249898 L326.523563,405.964199 Z" fill="#E2B33E"/>
<path data-unit="source_128__contour_01" data-control="rig_base" d="M221.494261,402.826422 L222.494227,402.818212 L222.502437,403.818178 L240.50183,403.670392 L240.49362,402.670426 L241.493586,402.662215 L241.501797,403.662181 L305.49964,403.136718 L305.50785,404.136684 L220.510715,404.834565 L220.502505,403.834599 L221.502471,403.826389 Z" fill="#906923"/>
<path data-unit="source_129__contour_01" data-control="rig_handle_r" d="M485.39335,267.655159 L546.391294,267.154326 L546.399504,268.154293 L486.401527,268.646915 L486.500051,280.64651 L489.49995,280.621879 L489.516371,282.621812 L488.516404,282.630022 L488.524615,283.629988 L487.524648,283.638199 L487.532859,284.638165 L486.532893,284.646375 L486.541103,285.646342 L485.541137,285.654552 Z" fill="#7F5D1B"/>
<path data-unit="source_130__contour_01" data-control="rig_handle_l" d="M103.420948,150.787352 L105.420881,150.770932 L105.437301,152.770864 L108.4372,152.746233 L108.445411,153.746199 L111.44531,153.721568 L111.45352,154.721535 L149.452239,154.409541 L149.460449,155.409507 L95.46227,155.852867 L95.445849,153.852934 L97.445781,153.836513 L97.437571,152.836547 L99.437504,152.820126 L99.429293,151.82016 L100.42926,151.81195 L100.43747,152.811916 L102.437403,152.795495 L102.429192,151.795529 L103.429158,151.787319 Z" fill="#936B1B"/>
<path data-unit="source_131__contour_01" data-control="rig_stem" d="M353.906842,330.736837 L354.906808,330.728627 L354.94786,335.728458 L355.947826,335.720248 L356.005299,342.720012 L355.005332,342.728222 L355.038174,346.728087 L374.037534,346.57209 L374.045744,347.572057 L366.046014,347.63774 L366.054224,348.637706 L365.054258,348.645916 L365.062468,349.645883 L364.062502,349.654093 L364.070712,350.654059 L363.070746,350.66227 L363.078956,351.662236 L361.079024,351.678657 L361.062603,349.678724 L360.062636,349.686934 L360.070847,350.686901 L358.070914,350.703321 L358.062704,349.703355 L354.062839,349.736197 L354.054628,348.73623 L353.054662,348.744441 L353.038241,346.744508 L351.038309,346.760929 L351.021888,344.760996 L352.021854,344.752786 L352.005434,342.752853 L353.0054,342.744643 L352.99719,341.744677 L353.997156,341.736466 Z" fill="#8D692C"/>
<path data-unit="source_132__contour_01" data-control="rig_handle_r" d="M524.612017,172.329946 L525.611983,172.321736 L525.75977,190.321129 L516.760073,190.395022 L516.751863,189.395056 L515.751897,189.403266 L515.735476,187.403334 L513.735543,187.419755 L513.719123,185.419822 L512.719156,185.428032 L512.702736,183.4281 L523.702365,183.337786 L523.735206,187.337651 L524.735173,187.329441 Z" fill="#966D1F"/>
<path data-unit="source_133__contour_01" data-control="rig_cup" d="M172.707683,307.223756 L257.704818,306.525875 L257.713029,307.525841 L172.715894,308.223722 Z" fill="#E6BA48"/>
<path data-unit="source_134__contour_01" data-control="rig_handle_l" d="M90.700539,184.892941 L91.700505,184.884731 L92.398386,269.881866 L91.39842,269.890076 Z" fill="#F2C44E"/>
<path data-unit="source_135__contour_01" data-control="rig_handle_l" d="M149.330782,261.414145 L150.330748,261.405934 L150.404641,270.405631 L132.405248,270.553417 L132.397038,269.553451 L139.396802,269.495979 L139.388591,268.496012 L138.388625,268.504223 L138.380415,267.504256 L139.380381,267.496046 L139.36396,265.496113 L140.363927,265.487903 L140.355716,264.487937 L141.355683,264.479726 L141.347472,263.47976 L145.347337,263.446919 L145.355548,264.446885 L146.355514,264.438675 L146.347304,263.438708 L148.347236,263.422288 L148.339026,262.422321 L149.338992,262.414111 Z" fill="#CD9B2F"/>
<path data-unit="source_136__contour_01" data-control="rig_handle_r" d="M539.414463,148.2076 L540.414429,148.199389 L540.422639,149.199355 L545.422471,149.158304 L545.430681,150.15827 L546.430648,150.15006 L546.447068,152.149992 L487.449057,152.634404 L487.440847,151.634437 L533.439296,151.256761 L533.422875,149.256828 L534.422842,149.248618 L534.431052,150.248584 L535.431018,150.240374 L535.422808,149.240407 L539.422673,149.207566 Z" fill="#956E1E"/>
<path data-unit="source_137__contour_01" data-control="rig_hair" d="M331.953449,92.909066 L414.950652,92.227606 L414.958862,93.227572 L331.961659,93.909033 Z" fill="#EFB944"/>
<path data-unit="source_137__contour_01" data-control="rig_hair" d="M339.156954,94.353556 L421.813505,101.896407 L421.722627,102.892269 L339.066077,95.349418 Z" fill="#C57870"/>
<path data-unit="source_138__contour_01" data-control="rig_stem" d="M393.2011,366.415419 L394.201067,366.407209 L394.365274,386.406535 L393.365308,386.414745 L393.357097,385.414779 L331.359187,385.923822 L331.350977,384.923855 L393.348887,384.414813 Z" fill="#F7C348"/>
<path data-unit="source_139__contour_01" data-control="rig_shine" d="M170.348842,133.487908 L190.040711,134.959304 L188.487571,155.745165 L183.017608,155.336444 L183.099352,154.242451 L187.475323,154.569428 L187.8023,150.193457 L184.520321,149.948225 L184.68381,147.760239 L185.777802,147.841984 L186.023035,144.560006 L184.929042,144.478261 L185.010787,143.384269 L186.104779,143.466013 L186.268268,141.278027 L187.36226,141.359772 L187.280516,142.453764 L188.374509,142.535509 L188.864974,135.971552 L171.361091,134.663645 L170.053184,152.167529 L172.241169,152.331017 L172.159425,153.42501 L173.253418,153.506754 L173.171673,154.600746 L169.889695,154.355514 L169.807951,155.449507 L168.713958,155.367762 Z" fill="#FDFCF9"/>
<path data-unit="source_140__contour_01" data-control="rig_cup" d="M354.116915,112.727764 L415.114859,112.226932 L415.123069,113.226898 L355.125092,113.71952 L355.297509,134.718812 L354.297543,134.727023 Z" fill="#F8C84F"/>
<path data-unit="source_141__contour_01" data-control="rig_stem" d="M373.045778,347.580267 L374.045744,347.572057 L374.201741,366.571416 L361.202179,366.678151 L361.185758,364.678219 L362.185725,364.670008 L362.169304,362.670076 L364.169236,362.653655 L364.161026,361.653689 L365.160992,361.645478 L365.152782,360.645512 L366.152748,360.637302 L366.160959,361.637268 L369.160858,361.612637 L369.152647,360.61267 L371.15258,360.59625 L371.144369,359.596283 L373.144302,359.579863 Z" fill="#815C19"/>
<path data-unit="source_142__contour_01" data-control="rig_handle_l" d="M71.54688,288.053677 L73.546813,288.037256 L73.555023,289.037222 L132.553035,288.552811 L132.717242,308.552137 L131.717276,308.560347 L131.561279,289.560987 L72.563267,290.045399 L72.555057,289.045433 L71.555091,289.053643 Z" fill="#CDC0A8"/>
<path data-unit="source_143__contour_01" data-control="rig_mouth" d="M239.586465,249.640304 L260.358595,249.745494 L260.267445,267.745263 L239.495315,267.640073 L239.500379,266.640086 L257.156689,266.729497 L257.22252,253.729664 L256.183914,253.724404 L256.188978,252.724417 L247.880126,252.682341 L247.885189,251.682354 L258.271254,251.734949 L258.195296,266.734757 L259.233902,266.740016 L259.314925,250.740221 L239.581401,250.640291 Z" fill="#332E19"/>
<path data-unit="source_144__contour_01" data-control="rig_handle_r" d="M502.22857,247.516257 L520.227963,247.36847 L520.236173,248.368436 L514.236376,248.417698 L514.244586,249.417665 L516.244519,249.401244 L516.252729,250.40121 L511.252897,250.442262 L511.261108,251.442228 L510.261142,251.450439 L510.269352,252.450405 L509.269386,252.458615 L509.277596,253.458582 L508.27763,253.466792 L508.28584,254.466758 L507.285874,254.474969 L507.294084,255.474935 L506.294118,255.483145 L506.302328,256.483112 L504.302396,256.499532 L504.294185,255.499566 L502.294253,255.515987 Z" fill="#ECB540"/>
<path data-unit="source_145__contour_01" data-control="rig_handle_r" d="M501.760579,190.518178 L502.760545,190.509967 L503.08896,230.508619 L518.088454,230.385464 L518.096665,231.38543 L517.096698,231.39364 L517.104909,232.393607 L516.104942,232.401817 L516.096732,231.401851 L509.096968,231.459323 L509.105178,232.45929 L510.105145,232.451079 L510.113355,233.451046 L509.113389,233.459256 L509.121599,234.459222 L508.121633,234.467433 L508.129843,235.467399 L507.129877,235.475609 L507.113456,233.475677 L508.113422,233.467466 L508.105212,232.4675 L506.105279,232.483921 L506.11349,233.483887 L504.113557,233.500308 L504.097136,231.500375 L503.09717,231.508585 L503.130012,235.508451 L502.130045,235.516661 L502.113625,233.516728 L501.113658,233.524939 L501.105448,232.524973 L500.105482,232.533183 L500.07264,228.533318 L501.072607,228.525107 L501.080817,229.525074 L502.080783,229.516863 Z" fill="#7F5715"/>
<path data-unit="source_146__contour_01" data-control="rig_stem" d="M296.867711,326.204996 L336.866363,325.876582 L337.202988,366.8752 L336.203022,366.88341 L335.874607,326.884758 L296.875922,327.204963 Z" fill="#BE9433"/>
<path data-unit="source_147__contour_01" data-control="rig_cup" d="M150.716635,308.40435 L151.716602,308.39614 L151.782284,316.39587 L152.782251,316.38766 L152.872565,327.387289 L202.87088,326.976771 L202.87909,327.976737 L151.880809,328.395466 L151.872598,327.395499 L150.872632,327.40371 L150.81516,320.403946 L151.815126,320.395735 L151.806916,319.395769 L150.806949,319.403979 Z" fill="#B9A483"/>
<path data-unit="source_148__contour_01" data-control="rig_base" d="M282.001281,464.331711 L360.998618,463.683092 L361.006828,464.683058 L282.009491,465.331677 Z" fill="#8B7554"/>
<path data-unit="source_149__contour_01" data-control="rig_cup" d="M464.550055,286.826936 L484.549381,286.662729 L484.557591,287.662695 L465.558231,287.818692 L465.706018,305.818085 L466.705984,305.809875 L466.722405,307.809807 L465.722439,307.818018 L465.730649,308.817984 L462.73075,308.842615 L462.738961,309.842581 L461.738994,309.850792 L461.747205,310.850758 L460.747238,310.858968 L460.755449,311.858935 L459.755482,311.867145 L459.747272,310.867179 L458.747306,310.875389 L458.755516,311.875355 L457.75555,311.883566 L457.730919,308.883667 L455.730986,308.900088 L455.739197,309.900054 L453.739264,309.916475 L453.731054,308.916508 L452.731087,308.924719 L452.722877,307.924752 L453.722843,307.916542 L453.714633,306.916576 L464.714262,306.826262 Z" fill="#815D1A"/>
<path data-unit="source_150__contour_01" data-control="rig_base" d="M201.733035,431.989652 L202.733002,431.981442 L202.839736,444.981004 L266.837579,444.45554 L266.845789,445.455507 L201.84798,445.98918 Z" fill="#956C21"/>
<path data-unit="source_151__contour_01" data-control="rig_handle_r" d="M502.760545,190.509967 L504.760478,190.493547 L505.080682,229.492232 L503.080749,229.508653 Z" fill="#E8E2D6"/>
<path data-unit="source_152__contour_01" data-control="rig_handle_l" d="M130.773084,193.564223 L132.773016,193.547802 L133.093221,232.546488 L131.093288,232.562909 Z" fill="#E0DBCE"/>
<path data-unit="source_153__contour_01" data-control="rig_cup" d="M275.696001,305.378122 L351.69344,304.754134 L351.70165,305.7541 L275.704212,306.378088 Z" fill="#F5C047"/>
<path data-unit="source_154__contour_01" data-control="rig_eye_l" d="M277.385096,191.360411 L278.385063,191.3522 L278.713477,231.350852 L241.714724,231.654636 L241.706514,230.654669 L277.7053,230.359096 Z" fill="#F9D24D"/>
<path data-unit="source_155__contour_01" data-control="rig_eye_l" d="M239.378167,190.672438 L277.376886,190.360444 L277.69709,229.35913 L276.697124,229.36734 L276.38513,191.368621 L239.386377,191.672405 Z" fill="#6B5C23"/>
<path data-unit="source_156__contour_01" data-control="rig_handle_l" d="M110.773758,193.72843 L129.773117,193.572433 L129.781328,194.5724 L111.781934,194.720186 L112.085718,231.718939 L131.085078,231.562942 L131.093288,232.562909 L111.093962,232.727116 Z" fill="#FAF9F5"/>
<path data-unit="source_157__contour_01" data-control="rig_cup" d="M130.960224,94.55935 L206.957662,93.935362 L206.965873,94.935328 L130.968434,95.559316 Z" fill="#C4B393"/>
<path data-unit="source_158__contour_01" data-control="rig_stem" d="M202.87088,326.976771 L277.868352,326.360993 L277.876562,327.36096 L202.87909,327.976737 Z" fill="#BFA983"/>
<path data-unit="source_159__contour_01" data-control="rig_stem" d="M274.827401,321.385793 L275.827367,321.377583 L275.835578,322.377549 L276.835544,322.369338 L276.827333,321.369372 L279.827232,321.344741 L279.843653,323.344674 L285.843451,323.295412 L285.851661,324.295378 L287.851594,324.278957 L287.868015,326.27889 L278.868318,326.352783 L279.040736,347.352075 L278.040769,347.360285 L277.860141,325.361027 L269.860411,325.42671 L269.852201,324.426744 L270.852167,324.418533 L270.843956,323.418567 L271.843923,323.410357 L271.835712,322.41039 L272.835679,322.40218 L272.843889,323.402146 L273.843855,323.393936 L273.835645,322.39397 L274.835611,322.385759 Z" fill="#967232"/>
<path data-unit="source_160__contour_01" data-control="rig_handle_r" d="M481.613466,172.682992 L482.613433,172.674781 L483.22921,247.672253 L482.229244,247.680464 Z" fill="#EBB63D"/>
<path data-unit="source_161__contour_01" data-control="rig_handle_r" d="M483.613399,172.666571 L484.613365,172.658361 L485.229143,247.655833 L484.229176,247.664043 Z" fill="#B69032"/>
<path data-unit="source_162__contour_01" data-control="rig_handle_r" d="M482.613433,172.674781 L483.613399,172.666571 L484.229176,247.664043 L483.22921,247.672253 Z" fill="#F9CA4E"/>
<path data-unit="source_163__contour_01" data-control="rig_cup" d="M482.713655,306.678475 L483.713622,306.670265 L483.861408,324.669658 L482.861442,324.677869 L482.853232,323.677902 L471.853602,323.768216 L471.845392,322.76825 L472.845358,322.76004 L472.837148,321.760073 L473.837114,321.751863 L473.828904,320.751897 L481.828634,320.686214 L481.754741,311.686517 L480.754775,311.694727 L480.762985,312.694694 L479.763019,312.702904 L479.771229,313.70287 L477.771296,313.719291 L477.763086,312.719325 L476.76312,312.727535 L476.746699,310.727603 L477.746665,310.719392 L477.738455,309.719426 L480.738354,309.694795 L480.746564,310.694761 L481.746531,310.686551 L481.73832,309.686584 L482.738286,309.678374 Z" fill="#87631F"/>
<path data-unit="source_164__contour_01" data-control="rig_hair_fringe" d="M332.290074,133.907684 L333.29004,133.899474 L333.454248,153.8988 L297.455461,154.194373 L297.299464,135.195013 L298.29943,135.186803 L298.447217,153.186196 L332.446071,152.907044 Z" fill="#EFB944"/>
<path data-unit="source_164__contour_01" data-control="rig_hair_fringe" d="M336.684076,136.582011 L337.6659,136.771806 L333.869993,156.40828 L298.524341,149.575647 L302.130452,130.920997 L303.112276,131.110793 L299.69596,148.783619 L333.077965,155.236661 Z" fill="#922615"/>
<path data-unit="source_165__contour_01" data-control="rig_base" d="M413.51242,404.249931 L414.512386,404.241721 L414.684804,425.241013 L413.684838,425.249223 L413.528841,406.249864 L362.53056,406.668593 L362.522349,405.668626 L413.520631,405.249898 Z" fill="#F5C34C"/>
<path data-unit="source_166__contour_01" data-control="rig_cup" d="M392.708479,306.417442 L464.706052,305.826295 L464.714262,306.826262 L392.716689,307.417408 Z" fill="#7F5A16"/>
<path data-unit="source_167__contour_01" data-control="rig_eye_l" d="M240.386343,191.664194 L276.38513,191.368621 L276.688913,228.367374 L275.688947,228.375584 L275.393374,192.376798 L240.394554,192.664161 Z" fill="#080807"/>
<path data-unit="source_168__contour_01" data-control="rig_base" d="M411.594591,414.266015 L412.594558,414.257805 L412.676661,424.257468 L410.676729,424.273888 L410.684939,425.273855 L370.686287,425.602269 L370.678077,424.602303 L408.676796,424.290309 L408.660375,422.290376 L407.660409,422.298587 L407.643988,420.298654 L408.643955,420.290444 L408.635744,419.290478 L409.63571,419.282267 L409.6275,418.282301 L410.627466,418.274091 L410.619256,417.274124 L411.619222,417.265914 Z" fill="#ECBA48"/>
<path data-unit="source_169__contour_01" data-control="rig_eye_l" d="M240.410974,194.664093 L241.410941,194.655883 L241.690093,228.654737 L276.688913,228.367374 L276.697124,229.36734 L240.698337,229.662913 Z" fill="#070A07"/>
<path data-unit="source_170__contour_01" data-control="rig_mouth" d="M374.610374,249.324048 L396.42111,249.434497 L396.405918,252.434459 L397.444525,252.439718 L397.429333,255.43968 L399.506546,255.450198 L399.501482,256.450186 L397.424269,256.439667 L397.414141,258.439641 L396.375535,258.434382 L396.335024,266.434279 L397.37363,266.439538 L397.348311,271.439474 L396.309704,271.434215 L396.324896,268.434253 L395.286289,268.428994 L395.291353,267.429007 L394.252747,267.423747 L394.338833,250.423965 L374.60531,250.324035 Z" fill="#F3C74B"/>
<path data-unit="source_171__contour_01" data-control="rig_handle_r" d="M484.457368,153.659001 L502.456762,153.511215 L502.464972,154.511181 L489.46541,154.617916 L489.514672,160.617713 L488.514706,160.625924 L488.531127,162.625856 L487.531161,162.634067 L487.539371,163.634033 L486.539405,163.642243 L486.547615,164.64221 L485.547649,164.65042 L485.613332,172.65015 L484.613365,172.658361 Z" fill="#CE9B2F"/>
<path data-unit="source_172__contour_01" data-control="rig_handle_l" d="M90.462438,155.893919 L131.461056,155.557294 L131.469267,156.55726 L91.470615,156.885674 L91.700505,184.884731 L90.700539,184.892941 Z" fill="#F4C551"/>
<path data-unit="source_173__contour_01" data-control="rig_base" d="M201.84798,445.98918 L269.845688,445.430876 L269.853899,446.430842 L201.856191,446.989147 Z" fill="#73541B"/>
<path data-unit="source_174__contour_01" data-control="rig_stem" d="M394.201067,366.407209 L398.200932,366.374368 L398.233773,370.374233 L399.23374,370.366022 L399.24195,371.365989 L400.241916,371.357778 L400.266547,374.357677 L399.266581,374.365888 L399.274791,375.365854 L398.274825,375.374064 L398.283036,376.374031 L396.283103,376.390451 L396.365207,386.390114 L394.365274,386.406535 Z" fill="#906B23"/>
<path data-unit="source_175__contour_01" data-control="rig_hair_fringe" d="M298.29943,135.186803 L299.299397,135.178593 L299.438973,152.17802 L331.437894,151.915288 L331.298318,134.915861 L332.298284,134.907651 L332.446071,152.907044 L298.447217,153.186196 Z" fill="#EFB944"/>
<path data-unit="source_175__contour_01" data-control="rig_hair_fringe" d="M303.112276,131.110793 L304.0941,131.300588 L300.867579,147.991591 L332.285936,154.065042 L335.512457,137.374039 L336.494281,137.563834 L333.077965,155.236661 L299.69596,148.783619 Z" fill="#AB3829"/>
<path data-unit="source_176__contour_01" data-control="rig_stem" d="M347.145178,359.793332 L348.145145,359.785122 L348.161565,361.785054 L349.161532,361.776844 L349.169742,362.77681 L351.169675,362.76039 L351.177885,363.760356 L352.177851,363.752145 L352.169641,362.752179 L355.16954,362.727548 L355.17775,363.727514 L356.177716,363.719304 L356.185927,364.71927 L358.185859,364.70285 L358.19407,365.702816 L356.194137,365.719237 L356.202348,366.719203 L346.202685,366.801307 L346.194474,365.80134 L340.194676,365.850602 L340.186466,364.850636 L341.186432,364.842426 L341.178222,363.84246 L342.178188,363.834249 L342.169978,362.834283 L343.169944,362.826072 L343.161734,361.826106 L344.1617,361.817896 L344.15349,360.81793 L347.153389,360.793298 Z" fill="#8F681D"/>
<path data-unit="source_177__contour_01" data-control="rig_stem" d="M292.876056,327.237804 L296.875922,327.204963 L297.196126,366.203648 L296.196159,366.211859 L296.179739,364.211926 L295.179772,364.220136 L295.171562,363.22017 L294.171596,363.22838 L294.155175,361.228448 L293.155209,361.236658 L293.146998,360.236692 L294.146965,360.228481 L294.130544,358.228549 L293.130578,358.236759 L293.114157,356.236827 L294.114123,356.228616 L294.105913,355.22865 L295.105879,355.22044 L295.097669,354.220473 L296.097635,354.212263 L295.892376,329.213106 L292.892477,329.237737 Z" fill="#835F1A"/>
<path data-unit="source_178__contour_01" data-control="rig_handle_l" d="M151.402909,148.393322 L155.402775,148.360481 L155.460247,155.360245 L154.460281,155.368455 L154.468491,156.368421 L152.468559,156.384842 L152.460348,155.384876 L150.460416,155.401297 L150.517888,162.401061 L151.517855,162.39285 L151.542486,165.392749 L150.542519,165.40096 L150.56715,168.400858 L149.567184,168.409069 L149.46866,156.409473 L131.469267,156.55726 L131.461056,155.557294 L149.460449,155.409507 L149.452239,154.409541 L151.452172,154.39312 Z" fill="#EDB846"/>
<path data-unit="source_179__contour_01" data-control="rig_cup" d="M224.973476,95.787508 L275.971757,95.368779 L276.094913,110.368274 L275.094946,110.376484 L274.980001,96.376956 L225.981653,96.779264 L225.989863,97.77923 L224.989897,97.78744 Z" fill="#916A26"/>
<path data-unit="source_180__contour_01" data-control="rig_base" d="M240.378675,388.670897 L305.376484,388.137224 L305.384695,389.13719 L240.386885,389.670864 Z" fill="#926822"/>
<path data-unit="source_181__contour_01" data-control="rig_mouth" d="M261.245285,279.750368 L264.361104,279.766147 L264.350976,281.766121 L265.389583,281.771381 L265.384519,282.771368 L313.160418,283.013303 L313.155354,284.013291 L260.186423,283.745058 L260.181359,284.745045 L259.142752,284.739785 L259.163008,280.739837 L260.201614,280.745096 L260.191486,282.74507 L261.230093,282.75033 Z" fill="#181713"/>
</svg>
