<?xml version="1.0" encoding="UTF-8"?>
<svg xmlns="http://www.w3.org/2000/svg" width="640" height="544" viewBox="0 0 640 544">
<rect width="640" height="544" fill="#F4F2EC"/>
<path data-unit="source_001__contour_01" data-control="rig_cup" d="M416.554763,111.97924 L417.554755,111.975136 L417.558858,112.975128 L483.558303,112.704301 L483.808613,173.703787 L482.808621,173.707891 L483.116379,248.707259 L485.116362,248.699052 L485.276397,287.698724 L465.276565,287.780793 L465.35453,306.780633 L403.355052,307.035046 L403.350949,306.035055 L452.350536,305.833986 L452.346433,304.833994 L173.348782,305.978855 L173.279023,288.978998 L172.279032,288.983101 L172.356997,307.982941 L171.357006,307.987045 L171.274937,287.987213 L151.275105,288.069282 L151.123278,251.069593 L152.123269,251.06549 L152.119166,250.065498 L153.119158,250.061395 L153.069916,238.061496 L152.069925,238.065599 L152.061718,236.065616 L153.061709,236.061513 L152.996054,220.061648 L151.996063,220.065751 L151.983752,217.065776 L152.983744,217.061673 L152.94271,207.061757 L151.942718,207.06586 L151.87296,190.066004 L152.872951,190.0619 L152.82371,178.062001 L151.823718,178.066105 L151.815511,176.066121 L150.81552,176.070225 L150.782692,168.070292 L151.782684,168.066189 L151.770374,165.066214 L152.770365,165.062111 L152.758055,162.062136 L151.758063,162.066239 L151.729339,155.066298 L153.729322,155.058091 L153.733426,156.058083 L155.733409,156.049876 L155.729305,155.049884 L156.729297,155.045781 L156.700573,148.04584 L152.700607,148.062254 L152.725227,154.062203 L150.725244,154.07041 L150.561106,114.070747 L154.561073,114.054333 L154.565176,115.054325 L155.565168,115.050221 L155.569271,116.050213 L159.569238,116.033799 L159.573341,117.033791 L160.573333,117.029687 L160.569229,116.029696 L162.569212,116.021489 L162.565109,115.021497 L265.564242,114.598843 L265.568345,115.598834 L267.568328,115.590627 L267.564225,114.590636 L275.564157,114.557808 L275.642123,133.557648 L276.642114,133.553545 L276.646218,134.553536 L298.646033,134.463261 L298.728101,154.463092 L334.727798,154.315368 L334.731902,155.31536 L298.732205,155.463084 L298.736308,156.463075 L335.735997,156.311248 L335.731893,155.311257 L336.731885,155.307153 L336.65392,136.307313 L354.653768,136.233451 L354.649665,135.23346 L356.649648,135.225253 L356.563476,114.225429 L416.56297,113.979223 Z" fill="#EFB944"/>
<path data-unit="source_001__contour_02" data-control="rig_shine" d="M170.505112,132.879427 L169.681539,155.169549 L190.910227,155.953904 L191.7338,133.663782 Z" fill="#EFB944"/>
<path data-unit="source_001__contour_03" data-control="rig_eye_l" d="M240.845203,190.700916 L241.005237,229.700588 L279.004917,229.544657 L279.009021,230.544649 L243.009324,230.692373 L243.013427,231.692364 L280.013116,231.540537 L279.848978,191.540874 L278.848986,191.544977 L278.844883,190.544986 Z" fill="#EFB944"/>
<path data-unit="source_001__contour_04" data-control="rig_eye_r" d="M356.87944,191.224781 L357.035371,229.224461 L394.035059,229.072634 L393.879129,191.072954 Z" fill="#EFB944"/>
<path data-unit="source_001__contour_05" data-control="rig_mouth" d="M244.457696,248.192811 L244.455102,249.192808 L261.877722,249.238005 L261.875128,250.238001 L241.377928,250.184828 L241.331233,268.184768 L260.803573,268.235282 L260.75169,288.235215 L374.511151,288.530326 L374.563034,268.530393 L394.035375,268.580908 L394.037969,267.580911 L395.062829,267.58357 L395.060235,268.583567 L396.085095,268.586225 L396.077312,271.586215 L397.102172,271.588874 L397.115143,266.588891 L396.090283,266.586232 L396.111036,258.586259 L397.135896,258.588918 L397.141085,256.588924 L399.190805,256.594242 L399.193399,255.594245 L397.143679,255.588928 L397.151461,252.588938 L396.126601,252.586279 L396.134384,249.586289 L374.612324,249.530457 L374.609729,250.530454 L371.535149,250.522478 L371.496237,265.522428 L263.885936,265.243268 L263.909283,256.243298 L264.934143,256.245957 L264.936737,255.245961 L265.961597,255.248619 L265.96938,252.248629 L264.94452,252.245971 L264.952302,249.245981 L265.977162,249.248639 L265.979756,248.248643 Z" fill="#EFB944"/>
<path data-unit="source_002__contour_01" data-control="rig_cup" d="M504.414506,77.618423 L505.414497,77.61432 L505.451428,86.614244 L506.45142,86.610141 L506.418592,78.610208 L543.418281,78.458381 L543.623453,128.45796 L544.623444,128.453856 L544.652168,135.453797 L564.652,135.371728 L564.656103,136.37172 L563.656112,136.375823 L563.660215,137.375815 L547.66035,137.44147 L547.664453,138.441462 L548.664445,138.437358 L548.668549,139.43735 L550.668532,139.429143 L550.664428,138.429151 L552.664411,138.420944 L552.668515,139.420936 L553.668506,139.416833 L553.664403,138.416841 L556.664378,138.404531 L556.668481,139.404522 L557.668473,139.400419 L557.672576,140.40041 L556.672585,140.404514 L556.676688,141.404505 L555.676696,141.408609 L555.684903,143.408592 L559.68487,143.392178 L559.680766,142.392187 L560.680758,142.388083 L560.684861,143.388075 L561.684853,143.383971 L561.688956,144.383963 L562.688948,144.379859 L563.201878,269.378807 L562.201886,269.382911 L562.20599,270.382902 L561.205998,270.387006 L561.222412,274.386972 L562.222404,274.382868 L562.2183,273.382877 L563.218292,273.378773 L563.26343,284.378681 L503.263935,284.624887 L503.272142,286.62487 L502.27215,286.628974 L502.304978,294.628907 L501.304986,294.63301 L501.30909,295.633002 L500.309098,295.637105 L500.333719,301.637054 L501.33371,301.632951 L501.341917,303.632934 L502.341909,303.628831 L502.350116,305.628814 L485.350259,305.698572 L485.354362,306.698564 L484.354371,306.702667 L484.358474,307.702659 L483.358482,307.706762 L483.370793,310.706737 L482.370801,310.710841 L482.374905,311.710832 L481.374913,311.714936 L481.37081,310.714944 L478.370835,310.727254 L478.374938,311.727246 L477.374947,311.731349 L477.383154,313.731333 L478.383145,313.727229 L478.387249,314.727221 L480.387232,314.719014 L480.383128,313.719022 L481.38312,313.714919 L481.379016,312.714927 L482.379008,312.710824 L482.415939,321.710748 L474.416006,321.743576 L474.42011,322.743567 L473.420118,322.747671 L473.424222,323.747662 L369.425097,324.17442 L369.420994,323.174429 L368.421002,323.178532 L368.412795,321.178549 L366.412812,321.186756 L366.416916,322.186747 L364.416932,322.194954 L364.421036,323.194946 L363.421044,323.199049 L363.425148,324.199041 L361.425165,324.207248 L361.429268,325.207239 L355.429319,325.23186 L355.425215,324.231868 L356.425207,324.227765 L356.421103,323.227773 L354.42112,323.23598 L354.425224,324.235972 L352.42524,324.244179 L352.433447,326.244162 L297.43391,326.469851 L297.438014,327.469843 L296.438022,327.473946 L296.433919,326.473955 L288.433986,326.506782 L288.425779,324.506799 L286.425796,324.515006 L286.421693,323.515014 L280.421743,323.539635 L280.413536,321.539652 L277.413561,321.551962 L277.417665,322.551954 L276.417673,322.556057 L276.41357,321.556065 L275.413578,321.560169 L275.417682,322.56016 L274.41769,322.564264 L274.421794,323.564255 L273.421802,323.568359 L273.417699,322.568367 L272.417707,322.572471 L272.42181,323.572462 L271.421819,323.576566 L271.425922,324.576557 L154.426907,325.05666 L154.414597,322.056685 L155.414589,322.052582 L155.410485,321.05259 L156.410477,321.048487 L156.406373,320.048495 L157.406365,320.044392 L157.402261,319.0444 L158.402253,319.040297 L158.39815,318.040305 L159.398141,318.036202 L159.389934,316.036219 L158.389943,316.040322 L158.385839,315.04033 L156.385856,315.048537 L156.38996,316.048529 L152.389993,316.064943 L152.357166,308.06501 L150.357183,308.073217 L150.361286,309.073209 L148.361303,309.081415 L148.357199,308.081424 L133.357326,308.142975 L133.275257,288.143144 L74.275754,288.385247 L74.27165,287.385255 L73.271659,287.389359 L73.152659,258.389603 L74.15265,258.385499 L74.185478,266.385432 L75.185469,266.381329 L75.193676,268.381312 L76.193668,268.377208 L76.189564,267.377217 L77.189556,267.373113 L77.185453,266.373122 L76.185461,266.377225 L76.169047,262.377259 L75.169056,262.381362 L75.164952,261.381371 L76.164944,261.377267 L76.119806,250.37736 L75.119814,250.381463 L75.000815,221.381708 L76.000806,221.377604 L75.980289,216.377646 L76.98028,216.373543 L76.96797,213.373568 L75.967979,213.377671 L75.939254,206.37773 L74.939263,206.381834 L74.931056,204.381851 L75.931048,204.377747 L75.914634,200.377781 L74.914642,200.381884 L74.910539,199.381893 L75.91053,199.377789 L75.853082,185.377907 L76.853074,185.373804 L76.84897,184.373812 L75.848979,184.377916 L75.799737,172.378017 L74.799746,172.38212 L74.775125,166.382171 L75.775117,166.378067 L75.762806,163.378092 L74.762815,163.382196 L74.668436,140.382389 L130.667964,140.152597 L130.672068,141.152588 L132.672051,141.144381 L132.676154,142.144373 L133.676146,142.14027 L133.680249,143.140261 L135.680233,143.132054 L135.676129,142.132063 L136.676121,142.127959 L136.672017,141.127968 L137.672009,141.123864 L137.663802,139.123881 L136.66381,139.127985 L136.667914,140.127976 L135.667922,140.13208 L135.672026,141.132071 L133.672042,141.140278 L133.667939,140.140286 L134.667931,140.136183 L134.663827,139.136191 L135.663819,139.132088 L135.655612,137.132105 L136.655603,137.128001 L136.6515,136.12801 L134.651517,136.136217 L134.491483,97.136545 L156.491297,97.046269 L156.495401,98.046261 L157.495392,98.042157 L157.491289,97.042166 L196.490961,96.882132 L196.495064,97.882123 L198.495047,97.873916 L198.490944,96.873925 L226.490708,96.759028 L226.494811,97.75902 L227.494803,97.754917 L227.4907,96.754925 L276.490287,96.553856 L276.547735,110.553738 L272.547769,110.570152 L272.543666,109.570161 L164.544575,110.013332 L164.548678,111.013324 L150.548796,111.070772 L150.725244,154.07041 L112.725564,154.226341 L112.721461,153.226349 L109.721486,153.23866 L109.717382,152.238668 L106.717408,152.250978 L106.709201,150.250995 L104.709218,150.259202 L104.713321,151.259194 L103.713329,151.263297 L103.717433,152.263289 L101.71745,152.271496 L101.713346,151.271504 L100.713355,151.275607 L100.717458,152.275599 L98.717475,152.283806 L98.721578,153.283797 L96.721595,153.292004 L96.729802,155.291987 L90.729853,155.316608 L91.201748,270.31564 L151.201243,270.069433 L151.275105,288.069282 L171.274937,287.987213 L171.361109,308.987036 L263.360335,308.60952 L263.364438,309.609511 L372.36352,309.162236 L372.359417,308.162244 L454.358727,307.825762 L454.36283,308.825754 L453.362838,308.829857 L453.366942,309.829849 L454.366933,309.825745 L454.371037,310.825737 L456.37102,310.81753 L456.366917,309.817539 L458.3669,309.809332 L458.37921,312.809306 L459.379202,312.805203 L459.375098,311.805211 L460.37509,311.801108 L460.379193,312.8011 L461.379185,312.796996 L461.375081,311.797005 L462.375073,311.792901 L462.370969,310.792909 L463.370961,310.788806 L463.366858,309.788814 L466.366832,309.776504 L466.362729,308.776513 L467.362721,308.772409 L467.354514,306.772426 L466.354522,306.776529 L466.28066,288.776681 L485.2805,288.698716 L485.198431,268.698884 L486.198423,268.69478 L486.272285,286.694629 L487.272276,286.690526 L487.268173,285.690534 L488.268165,285.68643 L488.264061,284.686439 L489.264053,284.682335 L489.259949,283.682344 L490.259941,283.67824 L490.251734,281.678257 L487.251759,281.690568 L487.202518,269.690669 L548.202004,269.440359 L548.197901,268.440367 L549.197892,268.436264 L548.738307,156.437207 L547.738315,156.44131 L547.717798,151.441352 L546.717807,151.445456 L546.713703,150.445464 L541.713745,150.465981 L541.709642,149.46599 L540.70965,149.470093 L540.713754,150.470085 L536.713787,150.486498 L536.717891,151.48649 L535.717899,151.490593 L535.713796,150.490602 L534.713804,150.494705 L534.722011,152.494688 L488.722398,152.683447 L488.726502,153.683438 L485.726527,153.695749 L485.554183,111.696102 L417.554755,111.975136 L417.497307,97.975254 L419.49729,97.967047 L419.489083,95.967064 L491.488477,95.671616 L491.484374,94.671625 L503.484272,94.622383 L503.652514,135.622038 L529.652295,135.515349 L529.47995,93.515702 L504.480161,93.618288 Z" fill="#8C651F"/>
<path data-unit="source_002__contour_02" data-control="rig_handle_l" d="M79.267505,286.364747 L79.271608,287.364738 L133.271153,287.143152 L133.275257,288.143144 L134.275248,288.13904 L134.353214,307.13888 L144.35313,307.097846 L144.349026,306.097854 L140.34906,306.114268 L140.344956,305.114277 L137.344982,305.126587 L137.349085,306.126579 L135.349102,306.134785 L135.299861,294.134886 L136.299852,294.130783 L136.295749,293.130791 L137.29574,293.126688 L137.291637,292.126696 L138.291628,292.122593 L138.279318,289.122618 L139.27931,289.118515 L139.275206,288.118523 L138.275215,288.122627 L138.267008,286.122643 Z" fill="#8C651F"/>
<path data-unit="source_003__contour_01" data-control="rig_cup" d="M221.602791,367.781367 L240.602631,367.703402 L240.692907,389.703217 L395.691602,389.067183 L395.683395,387.0672 L396.683387,387.063097 L396.679283,386.063105 L397.679275,386.059002 L397.683378,387.058993 L399.683361,387.050786 L399.679258,386.050795 L402.679233,386.038485 L402.683336,387.038476 L403.683328,387.034373 L403.675121,385.03439 L404.675112,385.030286 L404.683319,387.030269 L407.683294,387.017959 L407.687398,388.01795 L409.687381,388.009744 L409.691484,389.009735 L411.691467,389.001528 L411.695571,390.00152 L412.695562,389.997416 L412.699666,390.997408 L414.699649,390.989201 L414.703752,391.989193 L416.703736,391.980986 L416.707839,392.980977 L418.707822,392.972771 L418.703719,391.972779 L419.70371,391.968676 L419.699607,390.968684 L421.69959,390.960477 L421.703693,391.960469 L422.703685,391.956365 L422.699582,390.956374 L423.699573,390.95227 L423.69547,389.952279 L426.695444,389.939968 L426.691341,388.939977 L427.691333,388.935873 L427.687229,387.935882 L422.687271,387.956399 L422.683168,386.956407 L432.683084,386.915373 L432.843118,425.915045 L433.843109,425.910941 L433.921075,444.910781 L420.921184,444.964126 L420.917081,443.964134 L202.918916,444.858685 L202.865571,431.858794 L201.86558,431.862897 L201.849166,427.862931 L191.84925,427.903966 L191.845147,426.903974 L200.845071,426.867043 L200.824554,421.867085 L201.824545,421.862982 L201.685028,387.863268 L221.68486,387.781199 Z" fill="#8B641F"/>
<path data-unit="source_003__contour_02" data-control="rig_base" d="M221.746412,402.781073 L221.750515,403.781064 L220.750524,403.785168 L220.844903,426.784974 L219.844911,426.789078 L219.849015,427.789069 L268.848602,427.588001 L268.852705,428.587992 L277.85263,428.551061 L277.856733,429.551053 L278.856725,429.546949 L278.852621,428.546958 L301.852428,428.452579 L301.856531,429.45257 L303.856514,429.444363 L303.852411,428.444372 L346.852049,428.267924 L346.856152,429.267915 L347.856144,429.263812 L347.85204,428.26382 L408.851527,428.01351 L408.847423,427.013519 L414.847373,426.988898 L414.752994,403.989092 L415.752985,403.984988 L415.748882,402.984997 L407.748949,403.017824 L407.744846,402.017833 L406.744854,402.021936 L406.748958,403.021928 L350.749429,403.25172 L350.745326,402.251729 L349.745334,402.255832 L349.749437,403.255824 L315.749724,403.395341 L315.753827,404.395332 L305.753911,404.436367 L305.749808,403.436375 L241.750347,403.698996 L241.746243,402.699004 L240.746252,402.703107 L240.750355,403.703099 L222.750507,403.776961 L222.746403,402.776969 Z" fill="#8B641F"/>
<path data-unit="source_004__contour_01" data-control="rig_base" d="M432.683084,386.915373 L433.683075,386.911269 L433.687179,387.911261 L434.68717,387.907158 L434.843101,425.906838 L453.842941,425.828872 L453.867562,431.828822 L454.867553,431.824718 L454.896277,438.824659 L453.896286,438.828763 L453.929113,446.828695 L454.929105,446.824592 L454.949622,451.82455 L453.949631,451.828653 L453.994768,462.828561 L454.99476,462.824457 L454.998863,463.824449 L452.99888,463.832656 L452.994777,462.832664 L438.994895,462.890112 L438.990791,461.890121 L212.992694,462.817499 L212.988591,461.817507 L211.988599,461.82161 L211.992702,462.821602 L199.992803,462.870843 L199.996907,463.870835 L194.996949,463.891352 L194.988742,461.891369 L193.98875,461.895472 L193.97644,458.895498 L192.976449,458.899601 L192.980552,459.899593 L191.98056,459.903696 L191.976457,458.903705 L187.976491,458.920118 L187.972387,457.920127 L186.972396,457.92423 L186.968292,456.924239 L185.968301,456.928342 L185.960094,454.928359 L183.960111,454.936566 L183.849318,427.936793 L201.849166,427.862931 L201.931235,447.862763 L307.930343,447.427798 L307.926239,446.427806 L308.926231,446.423703 L308.930334,447.423694 L419.9294,446.968212 L419.925296,445.968221 L426.925237,445.939497 L426.921134,444.939505 L433.921075,444.910781 L433.843109,425.910941 L432.843118,425.915045 Z" fill="#6C4F1A"/>
<path data-unit="source_005__contour_01" data-control="rig_hair" d="M277.486175,95.549761 L279.486158,95.541554 L279.490262,96.541546 L320.489917,96.373305 L320.49402,97.373296 L321.494012,97.369193 L321.489908,96.369201 L388.489344,96.094271 L388.493448,97.094262 L390.493431,97.086056 L390.497534,98.086047 L391.497526,98.081944 L391.493422,97.081952 L393.493405,97.073745 L393.489302,96.073754 L395.489285,96.065547 L395.493389,97.065538 L397.493372,97.057331 L397.489268,96.05734 L399.489252,96.049133 L399.493355,97.049125 L401.493338,97.040918 L401.489235,96.040926 L411.489151,95.999892 L411.493254,96.999883 L413.493237,96.991676 L413.489134,95.991685 L414.489125,95.987581 L414.538367,107.98748 L413.538375,107.991584 L413.534272,106.991592 L411.534288,106.999799 L411.538392,107.999791 L410.5384,108.003894 L410.542504,109.003886 L409.542512,109.007989 L409.546616,110.007981 L354.547079,110.23367 L354.551182,111.233662 L416.55066,110.979248 L416.554763,111.97924 L354.555285,112.233653 L354.645561,134.233468 L333.645738,134.31964 L333.649841,135.319632 L332.64985,135.323735 L332.719608,152.323592 L300.719878,152.454902 L300.650119,135.455045 L298.650136,135.463252 L298.646033,134.463261 L277.646209,134.549433 Z" fill="#EFB944"/>
<path data-unit="source_005__contour_01" data-control="rig_hair" d="M281.034004,93.255551 L283.032026,93.344477 L282.987563,94.343488 L323.947016,96.166466 L323.902553,97.165477 L324.901564,97.209939 L324.946027,96.210928 L391.879766,99.18994 L391.835303,100.188951 L393.833325,100.277877 L393.788863,101.276888 L394.787874,101.321351 L394.832336,100.32234 L396.830359,100.411266 L396.874821,99.412255 L398.872843,99.50118 L398.828381,100.500191 L400.826403,100.589117 L400.870866,99.590106 L402.868888,99.679032 L402.824425,100.678043 L404.822447,100.766969 L404.86691,99.767958 L414.85702,100.212586 L414.812557,101.211597 L416.810579,101.300523 L416.855042,100.301512 L417.854053,100.345975 L417.320499,112.334107 L416.321488,112.289644 L416.365951,111.290633 L414.367929,111.201708 L414.323466,112.200719 L413.324455,112.156256 L413.279992,113.155267 L412.280981,113.110804 L412.236518,114.109815 L357.290911,111.664357 L357.246448,112.663368 L419.185132,115.420066 L419.140669,116.419077 L357.201985,113.66238 L356.223802,135.640622 L335.24457,134.706902 L335.200107,135.705913 L334.201096,135.66145 L333.445228,152.644638 L301.476874,151.221826 L302.232743,134.238639 L300.234721,134.149713 L300.279184,133.150702 L279.299952,132.216982 Z" fill="#A23323"/>
<path data-unit="source_006__contour_01" data-control="rig_stem" d="M298.442109,328.465731 L335.441797,328.313903 L335.601831,367.313575 L374.601503,367.153541 L374.572779,360.1536 L375.572771,360.149496 L375.601495,367.149437 L393.601343,367.075575 L393.675205,385.075424 L240.676493,385.703251 L240.602631,367.703402 L257.602488,367.633644 L257.598385,366.633652 L258.598376,366.629549 L258.60248,367.62954 L259.602471,367.625437 L259.520402,347.625605 L260.520394,347.621502 L260.602463,367.621333 L298.602143,367.465402 Z" fill="#EDB843"/>
<path data-unit="source_007__contour_01" data-control="rig_base" d="M221.766929,407.781031 L413.765312,406.99317 L413.843278,425.99301 L410.843303,426.00532 L410.8392,425.005329 L412.839183,424.997122 L412.798148,414.997206 L411.798157,415.001309 L411.810467,418.001284 L410.810476,418.005388 L410.814579,419.005379 L409.814587,419.009483 L409.818691,420.009474 L408.818699,420.013578 L408.822803,421.013569 L407.822811,421.017673 L407.831018,423.017656 L408.83101,423.013552 L408.835113,424.013544 L236.836561,424.719336 L236.840665,425.719328 L229.840724,425.748052 L229.83662,424.74806 L224.836662,424.768577 L224.832559,423.768586 L225.83255,423.764482 L225.828447,422.764491 L226.828438,422.760387 L226.824335,421.760396 L225.824343,421.764499 L225.82024,420.764507 L223.820257,420.772714 L223.816153,419.772723 L224.816145,419.768619 L224.807938,417.768636 L221.807963,417.780946 Z" fill="#EEB842"/>
<path data-unit="source_008__contour_01" data-control="rig_handle_l" d="M92.733939,156.308393 L132.733603,156.144255 L132.811568,175.144095 L111.811745,175.230267 L112.119503,250.229636 L133.119326,250.143464 L133.201395,270.143295 L92.20174,270.311536 L92.197637,269.311545 L93.197628,269.307441 Z" fill="#EDB845"/>
<path data-unit="source_009__contour_01" data-control="rig_handle_r" d="M504.730471,154.617775 L544.730134,154.453637 L545.173306,262.452728 L542.173331,262.465038 L542.177434,263.46503 L541.177443,263.469133 L541.181546,264.469125 L540.181554,264.473228 L540.185658,265.47322 L538.185675,265.481427 L538.189778,266.481418 L546.189711,266.448591 L546.173297,262.448625 L547.173289,262.444521 L547.193806,267.444479 L503.194176,267.62503 L503.149038,256.625123 L505.149022,256.616916 L505.153125,257.616908 L507.153108,257.608701 L507.149005,256.608709 L508.148996,256.604606 L508.144893,255.604614 L509.144885,255.600511 L509.140781,254.600519 L510.140773,254.596416 L510.136669,253.596424 L511.136661,253.592321 L511.132557,252.592329 L512.132549,252.588226 L512.128445,251.588234 L517.128403,251.567717 L517.1243,250.567725 L515.124317,250.575932 L515.120213,249.575941 L521.120163,249.55132 L521.116059,248.551328 L527.116009,248.526708 L526.886216,192.527179 L527.886208,192.523076 L528.038035,229.522764 L529.038027,229.518661 L528.964165,211.518812 L529.964156,211.514709 L529.943639,206.514751 L530.943631,206.510648 L530.939527,205.510656 L529.939536,205.514759 L529.914915,199.51481 L530.914907,199.510707 L530.910803,198.510715 L529.910812,198.514818 L529.902605,196.514835 L530.902596,196.510732 L530.898493,195.51074 L531.898484,195.506637 L531.894381,194.506645 L532.894373,194.502542 L532.890269,193.50255 L533.890261,193.498447 L533.882054,191.498464 L532.882062,191.502567 L532.877959,190.502575 L530.877976,190.510782 L530.873872,189.510791 L529.873881,189.514894 L529.869777,188.514903 L527.869794,188.523109 L527.808242,173.523236 L503.808444,173.621718 L503.787927,168.62176 L504.787919,168.617657 Z" fill="#EEB944"/>
<path data-unit="source_010__contour_01" data-control="rig_handle_l" d="M112.81584,176.226156 L149.815528,176.074328 L150.115079,249.073714 L140.115164,249.114748 L140.119267,250.11474 L112.119503,250.229636 L112.045641,232.229788 L134.045456,232.139512 L133.885421,193.13984 L134.885413,193.135737 L134.959275,211.135585 L135.959267,211.131482 L135.910025,199.131583 L136.910017,199.127479 L136.8895,194.127521 L137.889491,194.123418 L137.877181,191.123443 L138.877172,191.11934 L138.873069,190.119348 L128.873153,190.160383 L128.864946,188.1604 L127.864955,188.164503 L127.860851,187.164511 L126.86086,187.168615 L126.864963,188.168606 L123.864988,188.180917 L123.856782,186.180934 L122.85679,186.185037 L122.860893,187.185029 L120.86091,187.193235 L120.865014,188.193227 L119.865022,188.19733 L119.860919,187.197339 L118.860927,187.201442 L118.865031,188.201434 L117.865039,188.205537 L117.869142,189.205529 L118.869134,189.201426 L118.873237,190.201417 L117.873246,190.205521 L117.877349,191.205512 L120.877324,191.193202 L120.881427,192.193193 L121.881419,192.18909 L121.885522,193.189082 L111.885607,193.230116 L111.881503,192.230124 L112.881495,192.226021 Z" fill="#8C641E"/>
<path data-unit="source_011__contour_01" data-control="rig_handle_r" d="M486.812691,174.691468 L524.812371,174.535538 L524.853405,184.535453 L513.853498,184.580591 L513.861705,186.580574 L514.861697,186.576471 L514.869903,188.576454 L516.869887,188.568247 L516.878093,190.56823 L517.878085,190.564127 L517.882188,191.564119 L504.882298,191.617463 L504.878194,190.617472 L505.878186,190.613368 L505.861772,186.613402 L504.861781,186.617505 L504.865884,187.617497 L501.865909,187.629807 L501.861806,186.629816 L498.861831,186.642126 L498.870038,188.642109 L497.870047,188.646213 L497.87415,189.646204 L496.874158,189.650308 L496.882365,191.650291 L497.882357,191.646187 L497.88646,192.646179 L498.886452,192.642076 L498.890555,193.642067 L499.890547,193.637964 L499.89465,194.637955 L501.894633,194.629748 L501.984909,216.629563 L500.984918,216.633667 L500.989021,217.633658 L499.989029,217.637762 L499.993133,218.637753 L498.993141,218.641857 L498.997245,219.641848 L500.997228,219.633641 L500.993125,218.63365 L501.993116,218.629546 L502.005426,221.629521 L501.005435,221.633625 L501.009538,222.633616 L499.009555,222.641823 L499.013659,223.641815 L498.013667,223.645918 L498.021874,225.645901 L499.021865,225.641798 L499.025969,226.641789 L500.02596,226.637686 L500.030064,227.637677 L503.030039,227.625367 L503.042349,230.625342 L502.042357,230.629445 L502.038254,229.629454 L501.038262,229.633557 L501.054676,233.633524 L502.054668,233.62942 L502.058771,234.629412 L503.058763,234.625308 L503.06697,236.625291 L504.066961,236.621188 L504.050547,232.621222 L505.050539,232.617118 L505.058746,234.617101 L507.058729,234.608894 L507.054626,233.608903 L509.054609,233.600696 L509.058712,234.600688 L508.058721,234.604791 L508.066928,236.604774 L509.066919,236.600671 L509.062816,235.600679 L510.062807,235.596576 L510.058704,234.596584 L511.058695,234.592481 L511.054592,233.592489 L510.0546,233.596593 L510.050497,232.596601 L517.050438,232.567877 L517.054541,233.567868 L518.054533,233.563765 L518.05043,232.563773 L519.050421,232.55967 L519.046318,231.559678 L504.046444,231.62123 L504.042341,230.621238 L527.042147,230.526859 L527.116009,248.526708 L487.116346,248.690845 Z" fill="#8D651E"/>
<path data-unit="source_012__contour_01" data-control="rig_mouth" d="M260.803573,268.235282 L261.828433,268.237941 L261.825839,269.237937 L262.850699,269.240596 L262.848105,270.240593 L352.010926,270.471896 L352.008332,271.471893 L353.033192,271.474551 L353.035786,270.474555 L370.458406,270.519752 L370.455812,271.519749 L371.480672,271.522407 L371.478078,272.522404 L372.502938,272.525063 L372.489967,277.525046 L371.465107,277.522387 L371.462513,278.522384 L370.437653,278.519725 L370.440247,277.519728 L367.365667,277.511752 L367.360479,279.511746 L366.335619,279.509087 L366.333024,280.509084 L365.308164,280.506425 L365.30557,281.506422 L364.28071,281.503763 L364.278116,282.50376 L363.253256,282.501101 L363.250662,283.501098 L266.913821,283.251184 L266.916415,282.251187 L265.891555,282.248528 L265.896743,280.248535 L262.822163,280.240559 L262.814381,283.240549 L261.789521,283.23789 L261.794709,281.237897 L260.769849,281.235238 Z" fill="#13120F"/>
<path data-unit="source_013__contour_01" data-control="rig_eye_r" d="M389.883266,192.089359 L393.883232,192.072945 L394.035059,229.072634 L393.035068,229.076737 L393.030964,228.076746 L392.030973,228.080849 L392.026869,227.080858 L379.026979,227.134202 L379.022875,226.134211 L377.022892,226.142418 L377.018789,225.142426 L372.018831,225.162943 L372.027038,227.162926 L359.027147,227.216271 L358.88763,193.216557 L389.887369,193.089351 Z" fill="#13120F"/>
<path data-unit="source_014__contour_01" data-control="rig_eye_l" d="M240.849306,191.700908 L241.849298,191.696805 L241.853401,192.696796 L242.853393,192.692693 L242.857496,193.692684 L275.857219,193.557271 L275.972115,221.557035 L274.972123,221.561138 L274.976227,222.56113 L273.976235,222.565233 L273.980339,223.565225 L272.980347,223.569328 L272.984451,224.56932 L271.984459,224.573424 L271.988562,225.573415 L270.988571,225.577519 L270.996778,227.577502 L268.996795,227.585709 L269.000898,228.5857 L243.001117,228.69239 L242.8616,194.692676 L241.861608,194.696779 L242.005229,229.696485 L241.005237,229.700588 Z" fill="#151410"/>
<path data-unit="source_015__contour_01" data-control="rig_handle_r" d="M513.484188,94.581349 L528.484062,94.519797 L528.652303,135.519452 L506.652488,135.609728 L506.648385,134.609736 L509.64836,134.597426 L509.644256,133.597434 L505.64429,133.613848 L505.504773,99.614134 L506.504764,99.610031 L506.488351,95.610065 L507.488342,95.605961 L507.500653,98.605936 L508.500644,98.601833 L508.496541,97.601841 L509.496532,97.597738 L509.492429,96.597746 L510.49242,96.593643 L510.488317,95.593651 L513.488292,95.581341 Z" fill="#ECB641"/>
<path data-unit="source_016__contour_01" data-control="rig_stem" d="M354.42112,323.23598 L356.421103,323.227773 L356.425207,324.227765 L355.425215,324.231868 L355.441629,328.231835 L356.44162,328.227731 L356.449827,330.227714 L355.449836,330.231818 L355.453939,331.231809 L354.453948,331.235913 L354.499085,342.23582 L353.499094,342.239924 L353.503197,343.239915 L352.503206,343.244019 L352.511413,345.244002 L351.511421,345.248105 L351.519628,347.248088 L353.519611,347.239882 L353.527818,349.239865 L354.52781,349.235761 L354.531913,350.235753 L358.531879,350.219339 L358.535983,351.219331 L360.535966,351.211124 L360.531862,350.211132 L361.531854,350.207029 L361.540061,352.207012 L363.540044,352.198805 L363.535941,351.198813 L364.535932,351.19471 L364.531829,350.194718 L365.53182,350.190615 L365.527717,349.190623 L366.527709,349.18652 L366.523605,348.186528 L373.523546,348.157804 L373.572787,360.157703 L371.572804,360.16591 L371.576908,361.165902 L369.576925,361.174109 L369.581028,362.1741 L366.581053,362.186411 L366.57695,361.186419 L365.576958,361.190522 L365.581062,362.190514 L364.58107,362.194617 L364.585174,363.194609 L362.58519,363.202816 L362.593397,365.202799 L361.593406,365.206902 L361.601613,367.206886 L356.601655,367.227403 L356.597551,366.227411 L358.597534,366.219204 L358.593431,365.219213 L356.593448,365.22742 L356.589344,364.227428 L355.589353,364.231532 L355.585249,363.23154 L352.585275,363.24385 L352.589378,364.243842 L351.589386,364.247945 L351.585283,363.247954 L349.5853,363.256161 L349.581196,362.256169 L348.581205,362.260272 L348.572998,360.260289 L347.573006,360.264393 L347.57711,361.264384 L344.577135,361.276695 L344.581238,362.276686 L343.581247,362.28079 L343.58535,363.280781 L342.585359,363.284885 L342.589462,364.284876 L341.589471,364.28898 L341.593574,365.288971 L340.593582,365.293075 L340.597686,366.293066 L346.597635,366.268446 L346.601739,367.268437 L337.601815,367.305368 L337.433574,326.305713 L352.433447,326.244162 L352.42524,324.244179 L354.425224,324.235972 Z" fill="#89631D"/>
<path data-unit="source_017__contour_01" data-control="rig_handle_r" d="M505.882289,191.61336 L516.882197,191.568222 L516.8863,192.568214 L520.886267,192.5518 L520.89037,193.551791 L524.890336,193.535378 L525.03806,229.535075 L506.03822,229.61304 Z" fill="#F2EDE7"/>
<path data-unit="source_018__contour_01" data-control="rig_handle_l" d="M130.885447,193.152151 L131.885438,193.148047 L132.041369,231.147727 L113.041529,231.225693 L112.889702,194.226004 L130.88955,194.152142 Z" fill="#F2EDE7"/>
<path data-unit="source_019__contour_01" data-control="rig_stem" d="M295.515996,346.47789 L296.515988,346.473786 L296.548815,354.473719 L295.548823,354.477822 L295.552927,355.477814 L294.552935,355.481917 L294.557039,356.481909 L293.557047,356.486012 L293.561151,357.486004 L292.561159,357.490107 L292.565263,358.490099 L291.565271,358.494202 L291.569374,359.494194 L290.569383,359.498297 L290.581693,362.498272 L289.581702,362.502376 L289.585805,363.502367 L288.585813,363.506471 L288.59402,365.506454 L286.594037,365.514661 L286.598141,366.514652 L267.598301,366.592618 L267.594197,365.592626 L266.594205,365.596729 L266.590102,364.596738 L267.590094,364.592634 L267.581887,362.592651 L266.581895,362.596755 L266.585999,363.596746 L265.586007,363.60085 L265.59011,364.600841 L264.590119,364.604945 L264.594222,365.604936 L263.594231,365.60904 L263.56961,359.60909 L262.569619,359.613194 L262.573722,360.613185 L261.57373,360.617289 L261.520386,347.617398 L269.520318,347.584571 L269.524422,348.584562 L270.524413,348.580459 L270.536724,351.580434 L271.536715,351.57633 L271.544922,353.576313 L277.544872,353.551693 L277.548975,354.551684 L278.548967,354.547581 L278.544863,353.547589 L279.544855,353.543486 L279.540751,352.543494 L280.540743,352.539391 L280.536639,351.539399 L281.536631,351.535296 L281.532528,350.535304 L282.532519,350.531201 L282.528416,349.531209 L284.528399,349.523002 L284.536606,351.522985 L287.536581,351.510675 L287.532477,350.510683 L288.532469,350.50658 L288.528365,349.506588 L289.528357,349.502485 L289.52015,347.502502 L295.520099,347.477881 Z" fill="#8C651D"/>
<path data-unit="source_020__contour_01" data-control="rig_handle_r" d="M485.116362,248.699052 L503.116211,248.62519 L503.194176,267.62503 L547.193806,267.444479 L547.197909,268.444471 L485.198431,268.698884 Z" fill="#D6A436"/>
<path data-unit="source_021__contour_01" data-control="rig_stem" d="M279.434062,326.543713 L296.433919,326.473955 L296.438022,327.473946 L293.438047,327.486256 L293.446254,329.48624 L296.446229,329.473929 L296.515988,346.473786 L295.515996,346.47789 L295.520099,347.477881 L289.52015,347.502502 L289.528357,349.502485 L288.528365,349.506588 L288.532469,350.50658 L287.532477,350.510683 L287.536581,351.510675 L284.536606,351.522985 L284.528399,349.523002 L282.528416,349.531209 L282.524312,348.531217 L283.524304,348.527114 L283.516097,346.527131 L282.516105,346.531234 L282.512002,345.531243 L281.51201,345.535346 L281.516114,346.535338 L280.516122,346.539441 L280.438157,327.539601 L279.438165,327.543705 Z" fill="#8A631F"/>
<path data-unit="source_022__contour_01" data-control="rig_mouth" d="M374.609729,250.530454 L394.08207,250.580969 L394.035375,268.580908 L374.563034,268.530393 Z" fill="#171510"/>
<path data-unit="source_023__contour_01" data-control="rig_handle_l" d="M132.733603,156.144255 L150.733451,156.070393 L150.811416,175.070233 L132.811568,175.144095 Z" fill="#D6A435"/>
<path data-unit="source_024__contour_01" data-control="rig_mouth" d="M241.375334,251.184825 L260.847674,251.235339 L260.806167,267.235286 L259.781307,267.232627 L259.82022,252.232677 L249.57162,252.206091 L249.569026,253.206087 L257.767906,253.227357 L257.765311,254.227353 L258.790171,254.230012 L258.756447,267.229968 L241.333827,267.184771 Z" fill="#14130F"/>
<path data-unit="source_025__contour_01" data-control="rig_handle_l" d="M133.119326,250.143464 L151.119174,250.069602 L151.164312,261.069509 L150.164321,261.073613 L150.168424,262.073604 L149.168433,262.077708 L149.172536,263.077699 L147.172553,263.085906 L147.176656,264.085898 L146.176665,264.090001 L146.172561,263.09001 L142.172595,263.106423 L142.176698,264.106415 L141.176707,264.110518 L141.18081,265.11051 L140.180819,265.114613 L140.189026,267.114597 L139.189034,267.1187 L139.193137,268.118692 L140.193129,268.114588 L140.197232,269.11458 L133.197291,269.143304 Z" fill="#D4A134"/>
<path data-unit="source_026__contour_01" data-control="rig_handle_r" d="M490.734692,155.675215 L503.734582,155.62187 L503.808444,173.621718 L486.808588,173.691477 L486.77576,165.691544 L487.775752,165.687441 L487.771648,164.687449 L488.77164,164.683346 L488.767536,163.683354 L489.767528,163.679251 L489.759321,161.679268 L490.759313,161.675164 Z" fill="#D3A235"/>
<path data-unit="source_027__contour_01" data-control="rig_stem" d="M398.605404,368.05505 L412.605287,367.997602 L412.675045,384.997459 L411.675054,385.001562 L411.68326,387.001545 L409.683277,387.009752 L409.687381,388.009744 L407.687398,388.01795 L407.683294,387.017959 L404.683319,387.030269 L404.675112,385.030286 L403.675121,385.03439 L403.683328,387.034373 L402.683336,387.038476 L402.679233,386.038485 L399.679258,386.050795 L399.683361,387.050786 L397.683378,387.058993 L397.679275,386.059002 L396.679283,386.063105 L396.642352,377.063181 L398.642335,377.054974 L398.638232,376.054983 L399.638224,376.050879 L399.63412,375.050887 L400.634112,375.046784 L400.621801,372.046809 L399.62181,372.050913 L399.617706,371.050921 L398.617715,371.055025 Z" fill="#88621F"/>
<path data-unit="source_028__contour_01" data-control="rig_hair" d="M279.486158,95.541554 L416.485005,94.979383 L416.55066,110.979248 L354.551182,111.233662 L354.547079,110.23367 L409.546616,110.007981 L409.542512,109.007989 L410.542504,109.003886 L410.5384,108.003894 L411.538392,107.999791 L411.534288,106.999799 L413.534272,106.991592 L413.538375,107.991584 L414.538367,107.98748 L414.489125,95.987581 L413.489134,95.991685 L413.493237,96.991676 L411.493254,96.999883 L411.489151,95.999892 L401.489235,96.040926 L401.493338,97.040918 L399.493355,97.049125 L399.489252,96.049133 L397.489268,96.05734 L397.493372,97.057331 L395.493389,97.065538 L395.489285,96.065547 L393.489302,96.073754 L393.493405,97.073745 L391.493422,97.081952 L391.497526,98.081944 L390.497534,98.086047 L390.493431,97.086056 L388.493448,97.094262 L388.489344,96.094271 L321.489908,96.369201 L321.494012,97.369193 L320.49402,97.373296 L320.489917,96.373305 L279.490262,96.541546 Z" fill="#EFB944"/>
<path data-unit="source_028__contour_01" data-control="rig_hair" d="M283.032026,93.344477 L419.896538,99.43589 L419.185132,115.420066 L357.246448,112.663368 L357.290911,111.664357 L412.236518,114.109815 L412.280981,113.110804 L413.279992,113.155267 L413.324455,112.156256 L414.323466,112.200719 L414.367929,111.201708 L416.365951,111.290633 L416.321488,112.289644 L417.320499,112.334107 L417.854053,100.345975 L416.855042,100.301512 L416.810579,101.300523 L414.812557,101.211597 L414.85702,100.212586 L404.86691,99.767958 L404.822447,100.766969 L402.824425,100.678043 L402.868888,99.679032 L400.870866,99.590106 L400.826403,100.589117 L398.828381,100.500191 L398.872843,99.50118 L396.874821,99.412255 L396.830359,100.411266 L394.832336,100.32234 L394.787874,101.321351 L393.788863,101.276888 L393.833325,100.277877 L391.835303,100.188951 L391.879766,99.18994 L324.946027,96.210928 L324.901564,97.209939 L323.902553,97.165477 L323.947016,96.166466 L282.987563,94.343488 Z" fill="#A9382A"/>
<path data-unit="source_029__contour_01" data-control="rig_shine" d="M170.505112,132.879427 L191.7338,133.663782 L190.910227,155.953904 L171.804408,155.247984 L171.843626,154.18655 L175.027929,154.304203 L175.067147,153.242769 L174.005712,153.203551 L174.04493,152.142117 L171.922061,152.063681 L172.549545,135.080731 L189.532495,135.708215 L189.297189,142.076821 L188.235754,142.037604 L188.31419,139.914735 L186.191321,139.836299 L186.230539,138.774865 L184.10767,138.696429 L184.068452,139.757864 L183.007018,139.718646 L182.9678,140.780081 L181.906366,140.740863 L181.945584,139.679428 L177.699846,139.522557 L177.739064,138.461123 L176.677629,138.421905 L176.638412,139.48334 L175.576977,139.444122 L175.224018,148.997031 L176.285452,149.036249 L176.246234,150.097684 L181.553406,150.293772 L181.592624,149.232338 L189.022665,149.506862 L188.865794,153.7526 L184.620056,153.595729 L184.580838,154.657163 L189.88801,154.853252 L190.633148,134.685998 L171.527328,133.980079 L170.742974,155.208767 L169.681539,155.169549 Z" fill="#F9F2E1"/>
<path data-unit="source_030__contour_01" data-control="rig_handle_r" d="M563.656112,136.375823 L564.656103,136.37172 L565.27162,286.370457 L503.272142,286.62487 L503.268038,285.624879 L564.267525,285.374569 Z" fill="#7A510C"/>
<path data-unit="source_031__contour_01" data-control="rig_base" d="M220.754627,404.785159 L414.752994,403.989092 L414.757097,404.989083 L220.75873,405.785151 Z" fill="#805B14"/>
<path data-unit="source_032__contour_01" data-control="rig_mouth" d="M244.457696,248.192811 L265.979756,248.248643 L265.977162,249.248639 L264.952302,249.245981 L264.94452,252.245971 L265.96938,252.248629 L265.961597,255.248619 L264.936737,255.245961 L264.934143,256.245957 L263.909283,256.243298 L263.885936,265.243268 L371.496237,265.522428 L371.535149,250.522478 L372.560009,250.525137 L372.518503,266.525083 L262.858482,266.240606 L262.899988,250.24066 L261.875128,250.238001 L261.877722,249.238005 L244.455102,249.192808 Z" fill="#E8B53C"/>
<path data-unit="source_033__contour_01" data-control="rig_base" d="M182.99705,463.940593 L350.995636,463.251215 L350.999739,464.251207 L183.001153,464.940585 Z" fill="#644410"/>
<path data-unit="source_034__contour_01" data-control="rig_handle_r" d="M503.726376,153.621887 L546.726014,153.445439 L547.173289,262.444521 L546.173297,262.448625 L545.730125,154.449534 L504.730471,154.617775 L504.787919,168.617657 L503.787927,168.62176 Z" fill="#F8C951"/>
<path data-unit="source_035__contour_01" data-control="rig_base" d="M220.762834,406.785143 L362.761638,406.202454 L362.765742,407.202445 L221.766929,407.781031 L221.844894,426.780871 L220.844903,426.784974 Z" fill="#F5C349"/>
<path data-unit="source_036__contour_01" data-control="rig_base" d="M269.922456,445.583746 L426.921134,444.939505 L426.925237,445.939497 L269.926559,446.583737 Z" fill="#75551B"/>
<path data-unit="source_037__contour_01" data-control="rig_mouth" d="M362.264714,268.498489 L374.563034,268.530393 L374.518934,285.530336 L356.071454,285.48248 L356.074048,284.482484 L314.054787,284.373479 L314.057381,283.373482 L363.250662,283.501098 L363.253256,282.501101 L364.278116,282.50376 L364.28071,281.503763 L365.30557,281.506422 L365.308164,280.506425 L366.333024,280.509084 L366.335619,279.509087 L367.360479,279.511746 L367.365667,277.511752 L370.440247,277.519728 L370.437653,278.519725 L371.462513,278.522384 L371.465107,277.522387 L372.489967,277.525046 L372.51072,269.525073 L362.26212,269.498486 Z" fill="#161611"/>
<path data-unit="source_038__contour_01" data-control="rig_base" d="M240.6847,387.703234 L395.683395,387.0672 L395.687499,388.067192 L240.688804,388.703225 Z" fill="#7B5614"/>
<path data-unit="source_039__contour_01" data-control="rig_base" d="M266.918377,444.596064 L420.917081,443.964134 L420.921184,444.964126 L266.922481,445.596056 Z" fill="#956D22"/>
<path data-unit="source_040__contour_01" data-control="rig_stem" d="M240.680597,386.703242 L393.679309,386.075416 L393.683412,387.075407 L240.6847,387.703234 Z" fill="#D5AA3E"/>
<path data-unit="source_041__contour_01" data-control="rig_handle_r" d="M564.652,135.371728 L565.651992,135.367625 L566.271611,286.366354 L565.27162,286.370457 Z" fill="#D6C5B0"/>
<path data-unit="source_042__contour_01" data-control="rig_cup" d="M154.561073,114.054333 L276.560046,113.553713 L276.642114,133.553545 L275.642123,133.557648 L275.564157,114.557808 L267.564225,114.590636 L267.568328,115.590627 L265.568345,115.598834 L265.564242,114.598843 L162.565109,115.021497 L162.569212,116.021489 L160.569229,116.029696 L160.573333,117.029687 L159.573341,117.033791 L159.569238,116.033799 L155.569271,116.050213 L155.565168,115.050221 L154.565176,115.054325 Z" fill="#E8B53F"/>
<path data-unit="source_043__contour_01" data-control="rig_cup" d="M156.385856,315.048537 L158.385839,315.04033 L158.389943,316.040322 L159.389934,316.036219 L159.398141,318.036202 L158.39815,318.040305 L158.402253,319.040297 L157.402261,319.0444 L157.406365,320.044392 L156.406373,320.048495 L156.410477,321.048487 L155.410485,321.05259 L155.414589,322.052582 L154.414597,322.056685 L154.426907,325.05666 L270.425931,324.580661 L270.430034,325.580652 L153.431019,326.060755 L153.389985,316.060839 L156.38996,316.048529 Z" fill="#916B23"/>
<path data-unit="source_044__contour_01" data-control="rig_cup" d="M150.557003,113.070755 L277.555934,112.549618 L277.646209,134.549433 L276.646218,134.553536 L276.560046,113.553713 L150.561106,114.070747 Z" fill="#F7CA52"/>
<path data-unit="source_045__contour_01" data-control="rig_cup" d="M258.35217,306.630054 L403.350949,306.035055 L403.355052,307.035046 L258.356273,307.630045 Z" fill="#E2B646"/>
<path data-unit="source_046__contour_01" data-control="rig_base" d="M268.848602,427.588001 L408.847423,427.013519 L408.851527,428.01351 L347.85204,428.26382 L347.856144,429.263812 L346.856152,429.267915 L346.852049,428.267924 L303.852411,428.444372 L303.856514,429.444363 L301.856531,429.45257 L301.852428,428.452579 L278.852621,428.546958 L278.856725,429.546949 L277.856733,429.551053 L277.85263,428.551061 L268.852705,428.587992 Z" fill="#926921"/>
<path data-unit="source_047__contour_01" data-control="rig_handle_l" d="M73.816168,176.38619 L74.81616,176.382086 L74.914642,200.381884 L75.914634,200.377781 L75.931048,204.377747 L74.931056,204.381851 L74.939263,206.381834 L75.939254,206.37773 L75.967979,213.377671 L76.96797,213.373568 L76.98028,216.373543 L75.980289,216.377646 L76.000806,221.377604 L75.000815,221.381708 L75.119814,250.381463 L76.119806,250.37736 L76.164944,261.377267 L75.164952,261.381371 L75.169056,262.381362 L76.169047,262.377259 L76.185461,266.377225 L77.185453,266.373122 L77.189556,267.373113 L76.189564,267.377217 L76.193668,268.377208 L75.193676,268.381312 L75.185469,266.381329 L74.185478,266.385432 L74.15265,258.385499 L73.152659,258.389603 L73.140348,255.389628 L72.140357,255.393732 L72.115736,249.393782 L73.115728,249.389679 L73.123935,251.389662 L74.123926,251.385558 Z" fill="#926B27"/>
<path data-unit="source_048__contour_01" data-control="rig_mouth" d="M261.875128,250.238001 L262.899988,250.24066 L262.858482,266.240606 L372.518503,266.525083 L372.560009,250.525137 L373.584869,250.527795 L373.540769,267.527738 L261.831027,267.237944 Z" fill="#F8D655"/>
<path data-unit="source_049__contour_01" data-control="rig_handle_l" d="M111.811745,175.230267 L150.811416,175.070233 L151.119174,250.069602 L140.119267,250.11474 L140.115164,249.114748 L150.115079,249.073714 L149.815528,176.074328 L112.81584,176.226156 L112.881495,192.226021 L111.881503,192.230124 Z" fill="#7F5D16"/>
<path data-unit="source_050__contour_01" data-control="rig_hair" d="M277.482072,94.54977 L416.480902,93.979391 L416.485005,94.979383 L277.486175,95.549761 Z" fill="#EFB944"/>
<path data-unit="source_050__contour_01" data-control="rig_hair" d="M281.078467,92.25654 L419.941001,98.436878 L419.896538,99.43589 L281.034004,93.255551 Z" fill="#9C2417"/>
<path data-unit="source_051__contour_01" data-control="rig_base" d="M181.845231,426.945008 L182.845223,426.940905 L183.001153,464.940585 L282.00032,464.534344 L282.004423,465.534336 L182.005265,465.94468 Z" fill="#837153"/>
<path data-unit="source_052__contour_01" data-control="rig_handle_r" d="M502.27215,286.628974 L565.27162,286.370457 L565.275723,287.370449 L503.276245,287.624862 L503.280349,288.624854 L504.28034,288.62075 L504.313168,296.620683 L503.313176,296.624786 L503.3419,303.624727 L504.341892,303.620624 L504.354202,306.620599 L503.354211,306.624702 L503.358314,307.624694 L492.358407,307.669831 L492.354303,306.66984 L485.354362,306.698564 L485.350259,305.698572 L502.350116,305.628814 L502.341909,303.628831 L501.341917,303.632934 L501.33371,301.632951 L500.333719,301.637054 L500.309098,295.637105 L501.30909,295.633002 L501.304986,294.63301 L502.304978,294.628907 Z" fill="#B39B73"/>
<path data-unit="source_053__contour_01" data-control="rig_handle_r" d="M562.992603,218.379236 L563.992594,218.375133 L564.267525,285.374569 L503.268038,285.624879 L503.263935,284.624887 L563.26343,284.378681 L563.218292,273.378773 L562.2183,273.382877 L562.222404,274.382868 L561.222412,274.386972 L561.205998,270.387006 L562.20599,270.382902 L562.201886,269.382911 L563.201878,269.378807 Z" fill="#916A22"/>
<path data-unit="source_054__contour_01" data-control="rig_base" d="M238.840648,425.711121 L370.839536,425.169466 L370.84364,426.169458 L238.844751,426.711112 Z" fill="#EDBD49"/>
<path data-unit="source_055__contour_01" data-control="rig_handle_r" d="M544.730134,154.453637 L545.730125,154.449534 L546.189711,266.448591 L538.189778,266.481418 L538.185675,265.481427 L540.185658,265.47322 L540.181554,264.473228 L541.181546,264.469125 L541.177443,263.469133 L542.177434,263.46503 L542.173331,262.465038 L545.173306,262.452728 Z" fill="#EDB73E"/>
<path data-unit="source_056__contour_01" data-control="rig_handle_r" d="M547.66035,137.44147 L563.660215,137.375815 L563.992594,218.375133 L562.992603,218.379236 L562.688948,144.379859 L561.688956,144.383963 L561.684853,143.383971 L560.684861,143.388075 L560.680758,142.388083 L559.680766,142.392187 L559.68487,143.392178 L555.684903,143.408592 L555.676696,141.408609 L556.676688,141.404505 L556.672585,140.404514 L557.672576,140.40041 L557.668473,139.400419 L556.668481,139.404522 L556.664378,138.404531 L553.664403,138.416841 L553.668506,139.416833 L552.668515,139.420936 L552.664411,138.420944 L550.664428,138.429151 L550.668532,139.429143 L548.668549,139.43735 L548.664445,138.437358 L547.664453,138.441462 Z" fill="#916A22"/>
<path data-unit="source_057__contour_01" data-control="rig_handle_r" d="M504.480161,93.618288 L529.47995,93.515702 L529.652295,135.515349 L528.652303,135.519452 L528.484062,94.519797 L513.484188,94.581349 L513.488292,95.581341 L510.488317,95.593651 L510.49242,96.593643 L509.492429,96.597746 L509.496532,97.597738 L508.496541,97.601841 L508.500644,98.601833 L507.500653,98.605936 L507.488342,95.605961 L506.488351,95.610065 L506.504764,99.610031 L505.504773,99.614134 L505.64429,133.613848 L509.644256,133.597434 L509.64836,134.597426 L506.648385,134.609736 L506.652488,135.609728 L504.652505,135.617935 Z" fill="#F3C248"/>
<path data-unit="source_058__contour_01" data-control="rig_stem" d="M355.433422,326.231851 L484.432336,325.702507 L484.436439,326.702499 L355.437525,327.231843 Z" fill="#BFA984"/>
<path data-unit="source_059__contour_01" data-control="rig_cup" d="M416.480902,93.979391 L504.480161,93.618288 L504.652505,135.617935 L503.652514,135.622038 L503.484272,94.622383 L416.485005,94.979383 Z" fill="#7B5410"/>
<path data-unit="source_060__contour_01" data-control="rig_base" d="M211.988599,461.82161 L212.988591,461.817507 L212.992694,462.817499 L326.991734,462.349706 L326.995838,463.349698 L199.996907,463.870835 L199.992803,462.870843 L211.992702,462.821602 Z" fill="#71531F"/>
<path data-unit="source_061__contour_01" data-control="rig_base" d="M221.807963,417.780946 L224.807938,417.768636 L224.816145,419.768619 L223.816153,419.772723 L223.820257,420.772714 L225.82024,420.764507 L225.824343,421.764499 L226.824335,421.760396 L226.828438,422.760387 L225.828447,422.764491 L225.83255,423.764482 L224.832559,423.768586 L224.836662,424.768577 L229.83662,424.74806 L229.840724,425.748052 L236.840665,425.719328 L236.836561,424.719336 L315.835896,424.395164 L315.839999,425.395156 L238.840648,425.711121 L238.844751,426.711112 L221.844894,426.780871 Z" fill="#EFBB44"/>
<path data-unit="source_062__contour_01" data-control="rig_stem" d="M355.429319,325.23186 L483.428241,324.706619 L483.432344,325.706611 L355.433422,326.231851 Z" fill="#7C520E"/>
<path data-unit="source_063__contour_01" data-control="rig_handle_r" d="M485.808596,173.69558 L525.808259,173.531443 L525.869811,188.531316 L524.869819,188.53542 L524.812371,174.535538 L486.812691,174.691468 L487.116346,248.690845 L486.116354,248.694949 Z" fill="#7C5917"/>
<path data-unit="source_064__contour_01" data-control="rig_mouth" d="M373.584869,250.527795 L374.609729,250.530454 L374.563034,268.530393 L261.828433,268.237941 L261.831027,267.237944 L373.540769,267.527738 Z" fill="#584E1E"/>
<path data-unit="source_065__contour_01" data-control="rig_cup" d="M150.5529,112.070764 L277.55183,111.549627 L277.555934,112.549618 L150.557003,113.070755 Z" fill="#B48928"/>
<path data-unit="source_066__contour_01" data-control="rig_cup" d="M150.548796,111.070772 L277.547727,110.549635 L277.55183,111.549627 L150.5529,112.070764 Z" fill="#845E18"/>
<path data-unit="source_067__contour_01" data-control="rig_handle_l" d="M73.664341,139.386501 L132.663844,139.144398 L132.667947,140.14439 L74.668436,140.382389 L74.762815,163.382196 L75.762806,163.378092 L75.775117,166.378067 L74.775125,166.382171 L74.799746,172.38212 L75.799737,172.378017 L75.848979,184.377916 L76.84897,184.373812 L76.853074,185.373804 L75.853082,185.377907 L75.91053,199.377789 L74.910539,199.381893 L74.81616,176.382086 L73.816168,176.38619 Z" fill="#916922"/>
<path data-unit="source_068__contour_01" data-control="rig_stem" d="M153.431019,326.060755 L278.429967,325.547825 L278.43407,326.547816 L153.435123,327.060747 Z" fill="#7E530F"/>
<path data-unit="source_069__contour_01" data-control="rig_handle_l" d="M150.81552,176.070225 L151.815511,176.066121 L151.823718,178.066105 L152.82371,178.062001 L152.872951,190.0619 L151.87296,190.066004 L151.942718,207.06586 L152.94271,207.061757 L152.983744,217.061673 L151.983752,217.065776 L151.996063,220.065751 L152.996054,220.061648 L153.061709,236.061513 L152.061718,236.065616 L152.069925,238.065599 L153.069916,238.061496 L153.119158,250.061395 L152.119166,250.065498 L152.123269,251.06549 L151.123278,251.069593 Z" fill="#F3BF47"/>
<path data-unit="source_070__contour_01" data-control="rig_cup" d="M208.478549,93.832916 L333.477497,93.319985 L333.4816,94.319977 L208.482653,94.832907 Z" fill="#C6A08A"/>
<path data-unit="source_071__contour_01" data-control="rig_stem" d="M260.520394,347.621502 L261.520386,347.617398 L261.57373,360.617289 L262.573722,360.613185 L262.569619,359.613194 L263.56961,359.60909 L263.594231,365.60904 L264.594222,365.604936 L264.590119,364.604945 L265.59011,364.600841 L265.586007,363.60085 L266.585999,363.596746 L266.581895,362.596755 L267.581887,362.592651 L267.590094,364.592634 L266.590102,364.596738 L266.594205,365.596729 L267.594197,365.592626 L267.598301,366.592618 L286.598141,366.514652 L286.594037,365.514661 L288.59402,365.506454 L288.585813,363.506471 L289.585805,363.502367 L289.581702,362.502376 L290.581693,362.498272 L290.569383,359.498297 L291.569374,359.494194 L291.565271,358.494202 L292.565263,358.490099 L292.561159,357.490107 L293.561151,357.486004 L293.565254,358.485995 L294.565246,358.481892 L294.573453,360.481875 L293.573461,360.485979 L293.577564,361.48597 L294.577556,361.481867 L294.585763,363.48185 L295.585754,363.477746 L295.589858,364.477738 L296.589849,364.473635 L296.598056,366.473618 L297.598048,366.469514 L297.602151,367.469506 L260.602463,367.621333 Z" fill="#855F19"/>
<path data-unit="source_072__contour_01" data-control="rig_stem" d="M366.412812,321.186756 L368.412795,321.178549 L368.421002,323.178532 L369.420994,323.174429 L369.425097,324.17442 L472.42423,323.751766 L472.428333,324.751757 L361.429268,325.207239 L361.425165,324.207248 L363.425148,324.199041 L363.421044,323.199049 L364.421036,323.194946 L364.416932,322.194954 L366.416916,322.186747 Z" fill="#916B24"/>
<path data-unit="source_073__contour_01" data-control="rig_cup" d="M172.279032,288.983101 L173.279023,288.978998 L173.348782,305.978855 L276.347915,305.5562 L276.352018,306.556192 L173.352885,306.978846 L173.356989,307.978838 L172.356997,307.982941 Z" fill="#F5C048"/>
<path data-unit="source_074__contour_01" data-control="rig_handle_r" d="M547.738315,156.44131 L548.738307,156.437207 L549.197892,268.436264 L548.197901,268.440367 L548.202004,269.440359 L547.202013,269.444462 L547.165082,260.444538 L548.165073,260.440434 Z" fill="#855F1C"/>
<path data-unit="source_075__contour_01" data-control="rig_handle_l" d="M133.487388,96.140657 L134.487379,96.136553 L134.651517,136.136217 L136.6515,136.12801 L136.655603,137.128001 L135.655612,137.132105 L135.663819,139.132088 L134.663827,139.136191 L134.667931,140.136183 L133.667939,140.140286 L133.672042,141.140278 L135.672026,141.132071 L135.667922,140.13208 L136.667914,140.127976 L136.66381,139.127985 L137.663802,139.123881 L137.672009,141.123864 L136.672017,141.127968 L136.676121,142.127959 L135.676129,142.132063 L135.680233,143.132054 L133.680249,143.140261 L133.676146,142.14027 L132.676154,142.144373 L132.672051,141.144381 L130.672068,141.152588 L130.667964,140.152597 L132.667947,140.14439 L132.663844,139.144398 L73.664341,139.386501 L73.660237,138.38651 L133.659732,138.140303 Z" fill="#885E16"/>
<path data-unit="source_076__contour_01" data-control="rig_cup" d="M171.357006,307.987045 L290.356004,307.498735 L290.360107,308.498727 L171.361109,308.987036 Z" fill="#7E5815"/>
<path data-unit="source_077__contour_01" data-control="rig_stem" d="M297.438014,327.469843 L336.437685,327.309808 L336.601823,367.309472 L335.601831,367.313575 L335.441797,328.313903 L298.442109,328.465731 L298.602143,367.465402 L297.602151,367.469506 Z" fill="#F7C74D"/>
<path data-unit="source_078__contour_01" data-control="rig_handle_l" d="M90.729853,155.316608 L91.729844,155.312505 L92.20174,270.311536 L91.201748,270.31564 Z" fill="#856018"/>
<path data-unit="source_079__contour_01" data-control="rig_base" d="M326.991734,462.349706 L438.990791,461.890121 L438.994895,462.890112 L326.995838,463.349698 Z" fill="#70531F"/>
<path data-unit="source_080__contour_01" data-control="rig_eye_r" d="M357.883535,192.220669 L389.883266,192.089359 L389.887369,193.089351 L358.88763,193.216557 L359.027147,227.216271 L372.027038,227.162926 L372.018831,225.162943 L377.018789,225.142426 L377.022892,226.142418 L379.022875,226.134211 L379.026979,227.134202 L392.026869,227.080858 L392.030973,228.080849 L358.031259,228.220366 Z" fill="#181715"/>
<path data-unit="source_081__contour_01" data-control="rig_handle_l" d="M72.664349,139.390605 L73.664341,139.386501 L74.123926,251.385558 L73.123935,251.389662 Z" fill="#774E15"/>
<path data-unit="source_082__contour_01" data-control="rig_base" d="M308.926231,446.423703 L419.925296,445.968221 L419.9294,446.968212 L308.930334,447.423694 Z" fill="#674B18"/>
<path data-unit="source_083__contour_01" data-control="rig_mouth" d="M260.754284,287.235218 L374.513745,287.530329 L374.511151,288.530326 L260.75169,288.235215 Z" fill="#EAB43D"/>
<path data-unit="source_084__contour_01" data-control="rig_mouth" d="M260.756878,286.235222 L374.51634,286.530333 L374.513745,287.530329 L260.754284,287.235218 Z" fill="#FBD759"/>
<path data-unit="source_085__contour_01" data-control="rig_mouth" d="M260.759473,285.235225 L374.518934,285.530336 L374.51634,286.530333 L260.756878,286.235222 Z" fill="#5B4817"/>
<path data-unit="source_086__contour_01" data-control="rig_handle_l" d="M79.267505,286.364747 L138.267008,286.122643 L138.275215,288.122627 L139.275206,288.118523 L139.27931,289.118515 L138.279318,289.122618 L138.291628,292.122593 L137.291637,292.126696 L137.29574,293.126688 L136.295749,293.130791 L136.299852,294.130783 L135.299861,294.134886 L135.349102,306.134785 L137.349085,306.126579 L137.344982,305.126587 L140.344956,305.114277 L140.34906,306.114268 L144.349026,306.097854 L144.35313,307.097846 L134.353214,307.13888 L134.275248,288.13904 L133.275257,288.143144 L133.271153,287.143152 L79.271608,287.364738 Z" fill="#936A23"/>
<path data-unit="source_087__contour_01" data-control="rig_mouth" d="M262.850699,269.240596 L372.51072,269.525073 L372.502938,272.525063 L371.478078,272.522404 L371.480672,271.522407 L370.455812,271.519749 L370.458406,270.519752 L353.035786,270.474555 L353.033192,271.474551 L352.008332,271.471893 L352.010926,270.471896 L262.848105,270.240593 Z" fill="#171513"/>
<path data-unit="source_088__contour_01" data-control="rig_cup" d="M263.360335,308.60952 L372.359417,308.162244 L372.36352,309.162236 L263.364438,309.609511 Z" fill="#916822"/>
<path data-unit="source_089__contour_01" data-control="rig_handle_r" d="M516.882197,191.568222 L526.882113,191.527188 L527.042147,230.526859 L506.042324,230.613032 L506.03822,229.61304 L525.03806,229.535075 L524.890336,193.535378 L520.89037,193.551791 L520.886267,192.5518 L516.8863,192.568214 Z" fill="#F6F1DE"/>
<path data-unit="source_090__contour_01" data-control="rig_eye_r" d="M356.87944,191.224781 L393.879129,191.072954 L393.883232,192.072945 L357.883535,192.220669 L358.031259,228.220366 L393.030964,228.076746 L393.035068,229.076737 L357.035371,229.224461 Z" fill="#060706"/>
<path data-unit="source_091__contour_01" data-control="rig_cup" d="M417.554755,111.975136 L484.554191,111.700206 L484.726536,153.699852 L483.726544,153.703956 L483.558303,112.704301 L417.558858,112.975128 Z" fill="#F7C54E"/>
<path data-unit="source_092__contour_01" data-control="rig_cup" d="M164.544575,110.013332 L272.543666,109.570161 L272.547769,110.570152 L164.548678,111.013324 Z" fill="#946C23"/>
<path data-unit="source_093__contour_01" data-control="rig_base" d="M182.845223,426.940905 L191.845147,426.903974 L191.84925,427.903966 L183.849318,427.936793 L183.960111,454.936566 L185.960094,454.928359 L185.968301,456.928342 L186.968292,456.924239 L186.972396,457.92423 L187.972387,457.920127 L187.976491,458.920118 L191.976457,458.903705 L191.98056,459.903696 L192.980552,459.899593 L192.976449,458.899601 L193.97644,458.895498 L193.98875,461.895472 L194.988742,461.891369 L194.996949,463.891352 L182.99705,463.940593 Z" fill="#624715"/>
<path data-unit="source_094__contour_01" data-control="rig_handle_r" d="M546.726014,153.445439 L547.726005,153.441335 L548.165073,260.440434 L547.165082,260.444538 Z" fill="#916C1F"/>
<path data-unit="source_095__contour_01" data-control="rig_base" d="M201.927132,446.862771 L307.926239,446.427806 L307.930343,447.427798 L201.931235,447.862763 Z" fill="#674B18"/>
<path data-unit="source_096__contour_01" data-control="rig_base" d="M220.75873,405.785151 L326.757838,405.350186 L326.761941,406.350178 L220.762834,406.785143 Z" fill="#DFB03A"/>
<path data-unit="source_097__contour_01" data-control="rig_handle_l" d="M122.85679,186.185037 L123.856782,186.180934 L123.864988,188.180917 L126.864963,188.168606 L126.86086,187.168615 L127.860851,187.164511 L127.864955,188.164503 L128.864946,188.1604 L128.873153,190.160383 L138.873069,190.119348 L138.877172,191.11934 L137.877181,191.123443 L137.889491,194.123418 L136.8895,194.127521 L136.910017,199.127479 L135.910025,199.131583 L135.959267,211.131482 L134.959275,211.135585 L134.885413,193.135737 L121.885522,193.189082 L121.881419,192.18909 L120.881427,192.193193 L120.877324,191.193202 L117.877349,191.205512 L117.873246,190.205521 L118.873237,190.201417 L118.869134,189.201426 L117.869142,189.205529 L117.865039,188.205537 L118.865031,188.201434 L118.860927,187.201442 L119.860919,187.197339 L119.865022,188.19733 L120.865014,188.193227 L120.86091,187.193235 L122.860893,187.185029 Z" fill="#936A22"/>
<path data-unit="source_098__contour_01" data-control="rig_shine" d="M176.677629,138.421905 L177.739064,138.461123 L177.699846,139.522557 L181.945584,139.679428 L181.906366,140.740863 L182.9678,140.780081 L183.007018,139.718646 L184.068452,139.757864 L184.10767,138.696429 L186.230539,138.774865 L186.191321,139.836299 L188.31419,139.914735 L188.274972,140.976169 L187.213538,140.936952 L187.135102,143.05982 L186.073668,143.020603 L186.03445,144.082037 L187.095885,144.121255 L186.978231,147.305558 L185.916797,147.26634 L185.838361,149.389209 L181.592624,149.232338 L181.553406,150.293772 L176.246234,150.097684 L176.285452,149.036249 L175.224018,148.997031 L175.576977,139.444122 L176.638412,139.48334 Z" fill="#FCFCFC"/>
<path data-unit="source_099__contour_01" data-control="rig_handle_l" d="M131.483301,95.148872 L132.483293,95.144769 L132.659741,138.144407 L73.660237,138.38651 L73.664341,139.386501 L71.664358,139.394708 L71.660254,138.394717 L72.660246,138.390613 L72.656142,137.390622 L131.655646,137.148519 Z" fill="#CDC2AD"/>
<path data-unit="source_100__contour_01" data-control="rig_cup" d="M354.555285,112.233653 L416.554763,111.97924 L416.558867,112.979231 L355.55938,113.229541 L355.649656,135.229356 L334.649833,135.315528 L334.64573,134.315537 L354.645561,134.233468 Z" fill="#D18B3D"/>
<path data-unit="source_101__contour_01" data-control="rig_cup" d="M290.356004,307.498735 L393.355137,307.076081 L393.35924,308.076072 L290.360107,308.498727 Z" fill="#7D5816"/>
<path data-unit="source_102__contour_01" data-control="rig_handle_r" d="M526.808251,173.527339 L527.808242,173.523236 L527.869794,188.523109 L529.869777,188.514903 L529.873881,189.514894 L530.873872,189.510791 L530.877976,190.510782 L532.877959,190.502575 L532.882062,191.502567 L533.882054,191.498464 L533.890261,193.498447 L532.890269,193.50255 L532.894373,194.502542 L531.894381,194.506645 L531.898484,195.506637 L530.898493,195.51074 L530.902596,196.510732 L529.902605,196.514835 L529.910812,198.514818 L530.910803,198.510715 L530.914907,199.510707 L529.914915,199.51481 L529.939536,205.514759 L530.939527,205.510656 L530.943631,206.510648 L529.943639,206.514751 L529.964156,211.514709 L528.964165,211.518812 L529.038027,229.518661 L528.038035,229.522764 L527.886208,192.523076 L526.886216,192.527179 Z" fill="#F3BE4B"/>
<path data-unit="source_103__contour_01" data-control="rig_handle_r" d="M498.861831,186.642126 L501.861806,186.629816 L501.865909,187.629807 L504.865884,187.617497 L504.861781,186.617505 L505.861772,186.613402 L505.878186,190.613368 L504.878194,190.617472 L504.882298,191.617463 L502.882315,191.62567 L503.030039,227.625367 L500.030064,227.637677 L500.02596,226.637686 L499.025969,226.641789 L499.021865,225.641798 L498.021874,225.645901 L498.013667,223.645918 L499.013659,223.641815 L499.009555,222.641823 L501.009538,222.633616 L501.005435,221.633625 L502.005426,221.629521 L501.993116,218.629546 L500.993125,218.63365 L500.997228,219.633641 L498.997245,219.641848 L498.993141,218.641857 L499.993133,218.637753 L499.989029,217.637762 L500.989021,217.633658 L500.984918,216.633667 L501.984909,216.629563 L501.894633,194.629748 L499.89465,194.637955 L499.890547,193.637964 L498.890555,193.642067 L498.886452,192.642076 L497.88646,192.646179 L497.882357,191.646187 L496.882365,191.650291 L496.874158,189.650308 L497.87415,189.646204 L497.870047,188.646213 L498.870038,188.642109 Z" fill="#916A22"/>
<path data-unit="source_104__contour_01" data-control="rig_base" d="M350.995636,463.251215 L452.994777,462.832664 L452.99888,463.832656 L350.999739,464.251207 Z" fill="#62420F"/>
<path data-unit="source_105__contour_01" data-control="rig_base" d="M349.745334,402.255832 L350.745326,402.251729 L350.749429,403.25172 L406.748958,403.021928 L406.744854,402.021936 L407.744846,402.017833 L407.748949,403.017824 L415.748882,402.984997 L415.752985,403.984988 L315.753827,404.395332 L315.749724,403.395341 L349.749437,403.255824 Z" fill="#8D6723"/>
<path data-unit="source_106__contour_01" data-control="rig_stem" d="M398.601301,367.055058 L413.601175,366.993507 L413.683244,386.993338 L422.683168,386.956407 L422.687271,387.956399 L427.687229,387.935882 L427.691333,388.935873 L426.691341,388.939977 L426.695444,389.939968 L423.69547,389.952279 L423.699573,390.95227 L422.699582,390.956374 L422.703685,391.956365 L421.703693,391.960469 L421.69959,390.960477 L419.699607,390.968684 L419.70371,391.968676 L418.703719,391.972779 L418.707822,392.972771 L416.707839,392.980977 L416.703736,391.980986 L414.703752,391.989193 L414.699649,390.989201 L412.699666,390.997408 L412.695562,389.997416 L411.695571,390.00152 L411.691467,389.001528 L409.691484,389.009735 L409.683277,387.009752 L411.68326,387.001545 L411.675054,385.001562 L412.675045,384.997459 L412.605287,367.997602 L398.605404,368.05505 Z" fill="#805C1F"/>
<path data-unit="source_107__contour_01" data-control="rig_cup" d="M352.347275,305.244339 L452.346433,304.833994 L452.350536,305.833986 L352.351378,306.24433 Z" fill="#F4BF46"/>
<path data-unit="source_108__contour_01" data-control="rig_handle_r" d="M484.554191,111.700206 L485.554183,111.696102 L485.726527,153.695749 L503.726376,153.621887 L503.730479,154.621878 L485.730631,154.69574 L485.808596,173.69558 L483.808613,173.703787 L483.726544,153.703956 L484.726536,153.699852 Z" fill="#D3A53B"/>
<path data-unit="source_109__contour_01" data-control="rig_base" d="M219.844911,426.789078 L318.844078,426.382837 L318.848181,427.382828 L219.849015,427.789069 Z" fill="#845E18"/>
<path data-unit="source_110__contour_01" data-control="rig_handle_r" d="M504.410402,76.618432 L545.410057,76.45019 L545.65216,135.449694 L544.652168,135.453797 L544.414169,77.454285 L504.414506,77.618423 Z" fill="#9E814F"/>
<path data-unit="source_111__contour_01" data-control="rig_mouth" d="M261.828433,268.237941 L362.264714,268.498489 L362.26212,269.498486 L261.825839,269.237937 Z" fill="#0C0A0A"/>
<path data-unit="source_112__contour_01" data-control="rig_handle_r" d="M505.414497,77.61432 L544.414169,77.454285 L544.623444,128.453856 L543.623453,128.45796 L543.418281,78.458381 L506.418592,78.610208 L506.45142,86.610141 L505.451428,86.614244 Z" fill="#805912"/>
<path data-unit="source_113__contour_01" data-control="rig_base" d="M318.844078,426.382837 L414.843269,425.988906 L414.847373,426.988898 L318.848181,427.382828 Z" fill="#845D18"/>
<path data-unit="source_114__contour_01" data-control="rig_eye_l" d="M242.853393,192.692693 L276.853107,192.553176 L277.000831,228.552873 L269.000898,228.5857 L268.996795,227.585709 L270.996778,227.577502 L270.988571,225.577519 L271.988562,225.573415 L271.984459,224.573424 L272.984451,224.56932 L272.980347,223.569328 L273.980339,223.565225 L273.976235,222.565233 L274.976227,222.56113 L274.972123,221.561138 L275.972115,221.557035 L275.857219,193.557271 L242.857496,193.692684 Z" fill="#191814"/>
<path data-unit="source_115__contour_01" data-control="rig_cup" d="M334.649833,135.315528 L354.649665,135.23346 L354.653768,136.233451 L336.65392,136.307313 L336.731885,155.307153 L335.731893,155.311257 L335.735997,156.311248 L298.736308,156.463075 L298.732205,155.463084 L334.731902,155.31536 Z" fill="#F5C750"/>
<path data-unit="source_116__contour_01" data-control="rig_cup" d="M416.485005,94.979383 L491.484374,94.671625 L491.488477,95.671616 L419.489083,95.967064 L419.49729,97.967047 L417.497307,97.975254 L417.554755,111.975136 L416.554763,111.97924 Z" fill="#926826"/>
<path data-unit="source_117__contour_01" data-control="rig_cup" d="M134.487379,96.136553 L226.486605,95.759037 L226.490708,96.759028 L198.490944,96.873925 L198.495047,97.873916 L196.495064,97.882123 L196.490961,96.882132 L157.491289,97.042166 L157.495392,98.042157 L156.495401,98.046261 L156.491297,97.046269 L134.491483,97.136545 Z" fill="#916A26"/>
<path data-unit="source_118__contour_01" data-control="rig_cup" d="M182.482872,94.939597 L277.482072,94.54977 L277.486175,95.549761 L182.486975,95.939588 Z" fill="#82580F"/>
<path data-unit="source_119__contour_01" data-control="rig_base" d="M360.999655,464.210172 L453.998872,463.828552 L454.002975,464.828544 L361.003758,465.210164 Z" fill="#8C7759"/>
<path data-unit="source_120__contour_01" data-control="rig_base" d="M315.835896,424.395164 L408.835113,424.013544 L408.839216,425.013536 L315.839999,425.395156 Z" fill="#F0BC46"/>
<path data-unit="source_121__contour_01" data-control="rig_mouth" d="M261.786927,284.237887 L356.074048,284.482484 L356.071454,285.48248 L261.784333,285.237884 Z" fill="#0C0D0A"/>
<path data-unit="source_122__contour_01" data-control="rig_cup" d="M132.483293,95.144769 L182.482872,94.939597 L182.486975,95.939588 L133.487388,96.140657 L133.659732,138.140303 L132.659741,138.144407 Z" fill="#78500D"/>
<path data-unit="source_123__contour_01" data-control="rig_stem" d="M240.676493,385.703251 L331.675727,385.329837 L331.679831,386.329829 L240.680597,386.703242 Z" fill="#F8C549"/>
<path data-unit="source_124__contour_01" data-control="rig_stem" d="M279.438165,327.543705 L280.438157,327.539601 L280.516122,346.539441 L281.516114,346.535338 L281.51201,345.535346 L282.512002,345.531243 L282.516105,346.531234 L283.516097,346.527131 L283.524304,348.527114 L282.524312,348.531217 L282.532519,350.531201 L281.532528,350.535304 L281.536631,351.535296 L280.536639,351.539399 L280.540743,352.539391 L279.540751,352.543494 L279.544855,353.543486 L278.544863,353.547589 L278.548967,354.547581 L277.548975,354.551684 L277.544872,353.551693 L271.544922,353.576313 L271.536715,351.57633 L270.536724,351.580434 L270.524413,348.580459 L269.524422,348.584562 L269.520318,347.584571 L279.520234,347.543536 Z" fill="#825C1A"/>
<path data-unit="source_125__contour_01" data-control="rig_base" d="M305.688256,388.436502 L395.687499,388.067192 L395.691602,389.067183 L305.69236,389.436493 Z" fill="#936922"/>
<path data-unit="source_126__contour_01" data-control="rig_cup" d="M416.476798,92.9794 L504.476057,92.618297 L504.480161,93.618288 L416.480902,93.979391 Z" fill="#C9B99C"/>
<path data-unit="source_127__contour_01" data-control="rig_base" d="M326.757838,405.350186 L413.757106,404.993187 L413.761209,405.993178 L326.761941,406.350178 Z" fill="#E2B33E"/>
<path data-unit="source_128__contour_01" data-control="rig_base" d="M221.746412,402.781073 L222.746403,402.776969 L222.750507,403.776961 L240.750355,403.703099 L240.746252,402.703107 L241.746243,402.699004 L241.750347,403.698996 L305.749808,403.436375 L305.753911,404.436367 L220.754627,404.785159 L220.750524,403.785168 L221.750515,403.781064 Z" fill="#906923"/>
<path data-unit="source_129__contour_01" data-control="rig_handle_r" d="M486.198423,268.69478 L547.197909,268.444471 L547.202013,269.444462 L487.202518,269.690669 L487.251759,281.690568 L490.251734,281.678257 L490.259941,283.67824 L489.259949,283.682344 L489.264053,284.682335 L488.264061,284.686439 L488.268165,285.68643 L487.268173,285.690534 L487.272276,286.690526 L486.272285,286.694629 Z" fill="#7F5D1B"/>
<path data-unit="source_130__contour_01" data-control="rig_handle_l" d="M104.709218,150.259202 L106.709201,150.250995 L106.717408,152.250978 L109.717382,152.238668 L109.721486,153.23866 L112.721461,153.226349 L112.725564,154.226341 L150.725244,154.07041 L150.729348,155.070402 L96.729802,155.291987 L96.721595,153.292004 L98.721578,153.283797 L98.717475,152.283806 L100.717458,152.275599 L100.713355,151.275607 L101.713346,151.271504 L101.71745,152.271496 L103.717433,152.263289 L103.713329,151.263297 L104.713321,151.259194 Z" fill="#936B1B"/>
<path data-unit="source_131__contour_01" data-control="rig_stem" d="M354.453948,331.235913 L355.453939,331.231809 L355.474456,336.231767 L356.474448,336.227664 L356.503172,343.227605 L355.50318,343.231708 L355.519594,347.231675 L374.519434,347.153709 L374.523538,348.153701 L366.523605,348.186528 L366.527709,349.18652 L365.527717,349.190623 L365.53182,350.190615 L364.531829,350.194718 L364.535932,351.19471 L363.535941,351.198813 L363.540044,352.198805 L361.540061,352.207012 L361.531854,350.207029 L360.531862,350.211132 L360.535966,351.211124 L358.535983,351.219331 L358.531879,350.219339 L354.531913,350.235753 L354.52781,349.235761 L353.527818,349.239865 L353.519611,347.239882 L351.519628,347.248088 L351.511421,345.248105 L352.511413,345.244002 L352.503206,343.244019 L353.503197,343.239915 L353.499094,342.239924 L354.499085,342.23582 Z" fill="#8D692C"/>
<path data-unit="source_132__contour_01" data-control="rig_handle_r" d="M525.808259,173.531443 L526.808251,173.527339 L526.882113,191.527188 L517.882188,191.564119 L517.878085,190.564127 L516.878093,190.56823 L516.869887,188.568247 L514.869903,188.576454 L514.861697,186.576471 L513.861705,186.580574 L513.853498,184.580591 L524.853405,184.535453 L524.869819,188.53542 L525.869811,188.531316 Z" fill="#966D1F"/>
<path data-unit="source_133__contour_01" data-control="rig_cup" d="M173.352885,306.978846 L258.35217,306.630054 L258.356273,307.630045 L173.356989,307.978838 Z" fill="#E6BA48"/>
<path data-unit="source_134__contour_01" data-control="rig_handle_l" d="M91.848844,184.312261 L92.848836,184.308157 L93.197628,269.307441 L92.197637,269.311545 Z" fill="#F2C44E"/>
<path data-unit="source_135__contour_01" data-control="rig_handle_l" d="M150.164321,261.073613 L151.164312,261.069509 L151.201243,270.069433 L133.201395,270.143295 L133.197291,269.143304 L140.197232,269.11458 L140.193129,268.114588 L139.193137,268.118692 L139.189034,267.1187 L140.189026,267.114597 L140.180819,265.114613 L141.18081,265.11051 L141.176707,264.110518 L142.176698,264.106415 L142.172595,263.106423 L146.172561,263.09001 L146.176665,264.090001 L147.176656,264.085898 L147.172553,263.085906 L149.172536,263.077699 L149.168433,262.077708 L150.168424,262.073604 Z" fill="#CD9B2F"/>
<path data-unit="source_136__contour_01" data-control="rig_handle_r" d="M540.70965,149.470093 L541.709642,149.46599 L541.713745,150.465981 L546.713703,150.445464 L546.717807,151.445456 L547.717798,151.441352 L547.726005,153.441335 L488.726502,153.683438 L488.722398,152.683447 L534.722011,152.494688 L534.713804,150.494705 L535.713796,150.490602 L535.717899,151.490593 L536.717891,151.48649 L536.713787,150.486498 L540.713754,150.470085 Z" fill="#956E1E"/>
<path data-unit="source_137__contour_01" data-control="rig_hair" d="M333.477497,93.319985 L416.476798,92.9794 L416.480902,93.979391 L333.4816,94.319977 Z" fill="#EFB944"/>
<path data-unit="source_137__contour_01" data-control="rig_hair" d="M337.067548,93.74745 L419.985464,97.437867 L419.941001,98.436878 L337.023085,94.746461 Z" fill="#C57870"/>
<path data-unit="source_138__contour_01" data-control="rig_stem" d="M393.601343,367.075575 L394.601335,367.071472 L394.683404,387.071304 L393.683412,387.075407 L393.679309,386.075416 L331.679831,386.329829 L331.675727,385.329837 L393.675205,385.075424 Z" fill="#F7C348"/>
<path data-unit="source_139__contour_01" data-control="rig_shine" d="M171.527328,133.980079 L190.633148,134.685998 L189.88801,154.853252 L184.580838,154.657163 L184.620056,153.595729 L188.865794,153.7526 L189.022665,149.506862 L185.838361,149.389209 L185.916797,147.26634 L186.978231,147.305558 L187.095885,144.121255 L186.03445,144.082037 L186.073668,143.020603 L187.135102,143.05982 L187.213538,140.936952 L188.274972,140.976169 L188.235754,142.037604 L189.297189,142.076821 L189.532495,135.708215 L172.549545,135.080731 L171.922061,152.063681 L174.04493,152.142117 L174.005712,153.203551 L175.067147,153.242769 L175.027929,154.304203 L171.843626,154.18655 L171.804408,155.247984 L170.742974,155.208767 Z" fill="#FDFCF9"/>
<path data-unit="source_140__contour_01" data-control="rig_cup" d="M355.55938,113.229541 L416.558867,112.979231 L416.56297,113.979223 L356.563476,114.225429 L356.649648,135.225253 L355.649656,135.229356 Z" fill="#F8C84F"/>
<path data-unit="source_141__contour_01" data-control="rig_stem" d="M373.523546,348.157804 L374.523538,348.153701 L374.601503,367.153541 L361.601613,367.206886 L361.593406,365.206902 L362.593397,365.202799 L362.58519,363.202816 L364.585174,363.194609 L364.58107,362.194617 L365.581062,362.190514 L365.576958,361.190522 L366.57695,361.186419 L366.581053,362.186411 L369.581028,362.1741 L369.576925,361.174109 L371.576908,361.165902 L371.572804,360.16591 L373.572787,360.157703 Z" fill="#815C19"/>
<path data-unit="source_142__contour_01" data-control="rig_handle_l" d="M72.271667,287.393462 L74.27165,287.385255 L74.275754,288.385247 L133.275257,288.143144 L133.357326,308.142975 L132.357334,308.147079 L132.279369,289.147239 L73.279865,289.389342 L73.275762,288.38935 L72.27577,288.393454 Z" fill="#CDC0A8"/>
<path data-unit="source_143__contour_01" data-control="rig_mouth" d="M241.377928,250.184828 L261.875128,250.238001 L261.828433,268.237941 L241.331233,268.184768 L241.333827,267.184771 L258.756447,267.229968 L258.790171,254.230012 L257.765311,254.227353 L257.767906,253.227357 L249.569026,253.206087 L249.57162,252.206091 L259.82022,252.232677 L259.781307,267.232627 L260.806167,267.235286 L260.847674,251.235339 L241.375334,251.184825 Z" fill="#332E19"/>
<path data-unit="source_144__contour_01" data-control="rig_handle_r" d="M503.116211,248.62519 L521.116059,248.551328 L521.120163,249.55132 L515.120213,249.575941 L515.124317,250.575932 L517.1243,250.567725 L517.128403,251.567717 L512.128445,251.588234 L512.132549,252.588226 L511.132557,252.592329 L511.136661,253.592321 L510.136669,253.596424 L510.140773,254.596416 L509.140781,254.600519 L509.144885,255.600511 L508.144893,255.604614 L508.148996,256.604606 L507.149005,256.608709 L507.153108,257.608701 L505.153125,257.616908 L505.149022,256.616916 L503.149038,256.625123 Z" fill="#ECB540"/>
<path data-unit="source_145__contour_01" data-control="rig_handle_r" d="M502.882315,191.62567 L503.882306,191.621567 L504.046444,231.62123 L519.046318,231.559678 L519.050421,232.55967 L518.05043,232.563773 L518.054533,233.563765 L517.054541,233.567868 L517.050438,232.567877 L510.050497,232.596601 L510.0546,233.596593 L511.054592,233.592489 L511.058695,234.592481 L510.058704,234.596584 L510.062807,235.596576 L509.062816,235.600679 L509.066919,236.600671 L508.066928,236.604774 L508.058721,234.604791 L509.058712,234.600688 L509.054609,233.600696 L507.054626,233.608903 L507.058729,234.608894 L505.058746,234.617101 L505.050539,232.617118 L504.050547,232.621222 L504.066961,236.621188 L503.06697,236.625291 L503.058763,234.625308 L502.058771,234.629412 L502.054668,233.62942 L501.054676,233.633524 L501.038262,229.633557 L502.038254,229.629454 L502.042357,230.629445 L503.042349,230.625342 Z" fill="#7F5715"/>
<path data-unit="source_146__contour_01" data-control="rig_stem" d="M297.43391,326.469851 L337.433574,326.305713 L337.601815,367.305368 L336.601823,367.309472 L336.437685,327.309808 L297.438014,327.469843 Z" fill="#BE9433"/>
<path data-unit="source_147__contour_01" data-control="rig_cup" d="M151.357174,308.069114 L152.357166,308.06501 L152.389993,316.064943 L153.389985,316.060839 L153.435123,327.060747 L203.434702,326.855575 L203.438805,327.855566 L152.439234,328.064842 L152.435131,327.06485 L151.435139,327.068954 L151.406415,320.069012 L152.406407,320.064909 L152.402304,319.064917 L151.402312,319.069021 Z" fill="#B9A483"/>
<path data-unit="source_148__contour_01" data-control="rig_base" d="M282.00032,464.534344 L360.999655,464.210172 L361.003758,465.210164 L282.004423,465.534336 Z" fill="#8B7554"/>
<path data-unit="source_149__contour_01" data-control="rig_cup" d="M465.276565,287.780793 L485.276397,287.698724 L485.2805,288.698716 L466.28066,288.776681 L466.354522,306.776529 L467.354514,306.772426 L467.362721,308.772409 L466.362729,308.776513 L466.366832,309.776504 L463.366858,309.788814 L463.370961,310.788806 L462.370969,310.792909 L462.375073,311.792901 L461.375081,311.797005 L461.379185,312.796996 L460.379193,312.8011 L460.37509,311.801108 L459.375098,311.805211 L459.379202,312.805203 L458.37921,312.809306 L458.3669,309.809332 L456.366917,309.817539 L456.37102,310.81753 L454.371037,310.825737 L454.366933,309.825745 L453.366942,309.829849 L453.362838,308.829857 L454.36283,308.825754 L454.358727,307.825762 L465.358634,307.780624 Z" fill="#815D1A"/>
<path data-unit="source_150__contour_01" data-control="rig_base" d="M201.86558,431.862897 L202.865571,431.858794 L202.918916,444.858685 L266.918377,444.596064 L266.922481,445.596056 L201.923028,445.86278 Z" fill="#956C21"/>
<path data-unit="source_151__contour_01" data-control="rig_handle_r" d="M503.882306,191.621567 L505.882289,191.61336 L506.042324,230.613032 L504.042341,230.621238 Z" fill="#E8E2D6"/>
<path data-unit="source_152__contour_01" data-control="rig_handle_l" d="M131.885438,193.148047 L133.885421,193.13984 L134.045456,232.139512 L132.045472,232.147719 Z" fill="#E0DBCE"/>
<path data-unit="source_153__contour_01" data-control="rig_cup" d="M276.347915,305.5562 L352.347275,305.244339 L352.351378,306.24433 L276.352018,306.556192 Z" fill="#F5C047"/>
<path data-unit="source_154__contour_01" data-control="rig_eye_l" d="M278.848986,191.544977 L279.848978,191.540874 L280.013116,231.540537 L243.013427,231.692364 L243.009324,230.692373 L279.009021,230.544649 Z" fill="#F9D24D"/>
<path data-unit="source_155__contour_01" data-control="rig_eye_l" d="M240.845203,190.700916 L278.844883,190.544986 L279.004917,229.544657 L278.004926,229.548761 L277.848995,191.549081 L240.849306,191.700908 Z" fill="#6B5C23"/>
<path data-unit="source_156__contour_01" data-control="rig_handle_l" d="M111.885607,193.230116 L130.885447,193.152151 L130.88955,194.152142 L112.889702,194.226004 L113.041529,231.225693 L132.041369,231.147727 L132.045472,232.147719 L112.045641,232.229788 Z" fill="#FAF9F5"/>
<path data-unit="source_157__contour_01" data-control="rig_cup" d="M132.479189,94.144777 L208.478549,93.832916 L208.482653,94.832907 L132.483293,95.144769 Z" fill="#C4B393"/>
<path data-unit="source_158__contour_01" data-control="rig_stem" d="M203.434702,326.855575 L278.43407,326.547816 L278.438174,327.547808 L203.438805,327.855566 Z" fill="#BFA983"/>
<path data-unit="source_159__contour_01" data-control="rig_stem" d="M275.413578,321.560169 L276.41357,321.556065 L276.417673,322.556057 L277.417665,322.551954 L277.413561,321.551962 L280.413536,321.539652 L280.421743,323.539635 L286.421693,323.515014 L286.425796,324.515006 L288.425779,324.506799 L288.433986,326.506782 L279.434062,326.543713 L279.520234,347.543536 L278.520243,347.54764 L278.429967,325.547825 L270.430034,325.580652 L270.425931,324.580661 L271.425922,324.576557 L271.421819,323.576566 L272.42181,323.572462 L272.417707,322.572471 L273.417699,322.568367 L273.421802,323.568359 L274.421794,323.564255 L274.41769,322.564264 L275.417682,322.56016 Z" fill="#967232"/>
<path data-unit="source_160__contour_01" data-control="rig_handle_r" d="M482.808621,173.707891 L483.808613,173.703787 L484.116371,248.703156 L483.116379,248.707259 Z" fill="#EBB63D"/>
<path data-unit="source_161__contour_01" data-control="rig_handle_r" d="M484.808604,173.699684 L485.808596,173.69558 L486.116354,248.694949 L485.116362,248.699052 Z" fill="#B69032"/>
<path data-unit="source_162__contour_01" data-control="rig_handle_r" d="M483.808613,173.703787 L484.808604,173.699684 L485.116362,248.699052 L484.116371,248.703156 Z" fill="#F9CA4E"/>
<path data-unit="source_163__contour_01" data-control="rig_cup" d="M483.358482,307.706762 L484.358474,307.702659 L484.432336,325.702507 L483.432344,325.706611 L483.428241,324.706619 L472.428333,324.751757 L472.42423,323.751766 L473.424222,323.747662 L473.420118,322.747671 L474.42011,322.743567 L474.416006,321.743576 L482.415939,321.710748 L482.379008,312.710824 L481.379016,312.714927 L481.38312,313.714919 L480.383128,313.719022 L480.387232,314.719014 L478.387249,314.727221 L478.383145,313.727229 L477.383154,313.731333 L477.374947,311.731349 L478.374938,311.727246 L478.370835,310.727254 L481.37081,310.714944 L481.374913,311.714936 L482.374905,311.710832 L482.370801,310.710841 L483.370793,310.706737 Z" fill="#87631F"/>
<path data-unit="source_164__contour_01" data-control="rig_hair_fringe" d="M333.645738,134.31964 L334.64573,134.315537 L334.727798,154.315368 L298.728101,154.463092 L298.650136,135.463252 L299.650128,135.459149 L299.72399,153.458997 L333.723703,153.31948 Z" fill="#EFB944"/>
<path data-unit="source_164__contour_01" data-control="rig_hair_fringe" d="M336.510278,135.88283 L337.500281,136.023877 L334.679351,155.823936 L299.039244,150.746262 L301.719127,131.936206 L302.70913,132.077252 L300.170293,149.897306 L333.830394,154.692887 Z" fill="#922615"/>
<path data-unit="source_165__contour_01" data-control="rig_base" d="M413.757106,404.993187 L414.757097,404.989083 L414.843269,425.988906 L413.843278,425.99301 L413.765312,406.99317 L362.765742,407.202445 L362.761638,406.202454 L413.761209,405.993178 Z" fill="#F5C34C"/>
<path data-unit="source_166__contour_01" data-control="rig_cup" d="M393.355137,307.076081 L465.35453,306.780633 L465.358634,307.780624 L393.35924,308.076072 Z" fill="#7F5A16"/>
<path data-unit="source_167__contour_01" data-control="rig_eye_l" d="M241.849298,191.696805 L277.848995,191.549081 L278.000822,228.548769 L277.000831,228.552873 L276.853107,192.553176 L241.853401,192.696796 Z" fill="#080807"/>
<path data-unit="source_168__contour_01" data-control="rig_base" d="M411.798157,415.001309 L412.798148,414.997206 L412.839183,424.997122 L410.8392,425.005329 L410.843303,426.00532 L370.84364,426.169458 L370.839536,425.169466 L408.839216,425.013536 L408.83101,423.013552 L407.831018,423.017656 L407.822811,421.017673 L408.822803,421.013569 L408.818699,420.013578 L409.818691,420.009474 L409.814587,419.009483 L410.814579,419.005379 L410.810476,418.005388 L411.810467,418.001284 Z" fill="#ECBA48"/>
<path data-unit="source_169__contour_01" data-control="rig_eye_l" d="M241.861608,194.696779 L242.8616,194.692676 L243.001117,228.69239 L278.000822,228.548769 L278.004926,229.548761 L242.005229,229.696485 Z" fill="#070A07"/>
<path data-unit="source_170__contour_01" data-control="rig_mouth" d="M374.612324,249.530457 L396.134384,249.586289 L396.126601,252.586279 L397.151461,252.588938 L397.143679,255.588928 L399.193399,255.594245 L399.190805,256.594242 L397.141085,256.588924 L397.135896,258.588918 L396.111036,258.586259 L396.090283,266.586232 L397.115143,266.588891 L397.102172,271.588874 L396.077312,271.586215 L396.085095,268.586225 L395.060235,268.583567 L395.062829,267.58357 L394.037969,267.580911 L394.08207,250.580969 L374.609729,250.530454 Z" fill="#F3C74B"/>
<path data-unit="source_171__contour_01" data-control="rig_handle_r" d="M485.730631,154.69574 L503.730479,154.621878 L503.734582,155.62187 L490.734692,155.675215 L490.759313,161.675164 L489.759321,161.679268 L489.767528,163.679251 L488.767536,163.683354 L488.77164,164.683346 L487.771648,164.687449 L487.775752,165.687441 L486.77576,165.691544 L486.808588,173.691477 L485.808596,173.69558 Z" fill="#CE9B2F"/>
<path data-unit="source_172__contour_01" data-control="rig_handle_l" d="M91.729844,155.312505 L132.729499,155.144264 L132.733603,156.144255 L92.733939,156.308393 L92.848836,184.308157 L91.848844,184.312261 Z" fill="#F4C551"/>
<path data-unit="source_173__contour_01" data-control="rig_base" d="M201.923028,445.86278 L269.922456,445.583746 L269.926559,446.583737 L201.927132,446.862771 Z" fill="#73541B"/>
<path data-unit="source_174__contour_01" data-control="rig_stem" d="M394.601335,367.071472 L398.601301,367.055058 L398.617715,371.055025 L399.617706,371.050921 L399.62181,372.050913 L400.621801,372.046809 L400.634112,375.046784 L399.63412,375.050887 L399.638224,376.050879 L398.638232,376.054983 L398.642335,377.054974 L396.642352,377.063181 L396.683387,387.063097 L394.683404,387.071304 Z" fill="#906B23"/>
<path data-unit="source_175__contour_01" data-control="rig_hair_fringe" d="M299.650128,135.459149 L300.650119,135.455045 L300.719878,152.454902 L332.719608,152.323592 L332.64985,135.323735 L333.649841,135.319632 L333.723703,153.31948 L299.72399,153.458997 Z" fill="#EFB944"/>
<path data-unit="source_175__contour_01" data-control="rig_hair_fringe" d="M302.70913,132.077252 L303.699133,132.218299 L301.301343,149.048349 L332.981438,153.561837 L335.379228,136.731787 L336.369231,136.872833 L333.830394,154.692887 L300.170293,149.897306 Z" fill="#AB3829"/>
<path data-unit="source_176__contour_01" data-control="rig_stem" d="M347.573006,360.264393 L348.572998,360.260289 L348.581205,362.260272 L349.581196,362.256169 L349.5853,363.256161 L351.585283,363.247954 L351.589386,364.247945 L352.589378,364.243842 L352.585275,363.24385 L355.585249,363.23154 L355.589353,364.231532 L356.589344,364.227428 L356.593448,365.22742 L358.593431,365.219213 L358.597534,366.219204 L356.597551,366.227411 L356.601655,367.227403 L346.601739,367.268437 L346.597635,366.268446 L340.597686,366.293066 L340.593582,365.293075 L341.593574,365.288971 L341.589471,364.28898 L342.589462,364.284876 L342.585359,363.284885 L343.58535,363.280781 L343.581247,362.28079 L344.581238,362.276686 L344.577135,361.276695 L347.57711,361.264384 Z" fill="#8F681D"/>
<path data-unit="source_177__contour_01" data-control="rig_stem" d="M293.438047,327.486256 L297.438014,327.469843 L297.598048,366.469514 L296.598056,366.473618 L296.589849,364.473635 L295.589858,364.477738 L295.585754,363.477746 L294.585763,363.48185 L294.577556,361.481867 L293.577564,361.48597 L293.573461,360.485979 L294.573453,360.481875 L294.565246,358.481892 L293.565254,358.485995 L293.557047,356.486012 L294.557039,356.481909 L294.552935,355.481917 L295.552927,355.477814 L295.548823,354.477822 L296.548815,354.473719 L296.446229,329.473929 L293.446254,329.48624 Z" fill="#835F1A"/>
<path data-unit="source_178__contour_01" data-control="rig_handle_l" d="M152.700607,148.062254 L156.700573,148.04584 L156.729297,155.045781 L155.729305,155.049884 L155.733409,156.049876 L153.733426,156.058083 L153.729322,155.058091 L151.729339,155.066298 L151.758063,162.066239 L152.758055,162.062136 L152.770365,165.062111 L151.770374,165.066214 L151.782684,168.066189 L150.782692,168.070292 L150.733451,156.070393 L132.733603,156.144255 L132.729499,155.144264 L150.729348,155.070402 L150.725244,154.07041 L152.725227,154.062203 Z" fill="#EDB846"/>
<path data-unit="source_179__contour_01" data-control="rig_cup" d="M226.486605,95.759037 L277.486175,95.549761 L277.547727,110.549635 L276.547735,110.553738 L276.490287,96.553856 L227.4907,96.754925 L227.494803,97.754917 L226.494811,97.75902 Z" fill="#916A26"/>
<path data-unit="source_180__contour_01" data-control="rig_base" d="M240.688804,388.703225 L305.688256,388.436502 L305.69236,389.436493 L240.692907,389.703217 Z" fill="#926822"/>
<path data-unit="source_181__contour_01" data-control="rig_mouth" d="M262.822163,280.240559 L265.896743,280.248535 L265.891555,282.248528 L266.916415,282.251187 L266.913821,283.251184 L314.057381,283.373482 L314.054787,284.373479 L261.786927,284.237887 L261.784333,285.237884 L260.759473,285.235225 L260.769849,281.235238 L261.794709,281.237897 L261.789521,283.23789 L262.814381,283.240549 Z" fill="#181713"/>
</svg>
